<?xml version="1.0" encoding="utf-8"?>
<!-- Generator: Adobe Illustrator 27.9.0, SVG Export Plug-In . SVG Version: 6.00 Build 0)  -->
<svg version="1.1" id="Layer_1" xmlns="http://www.w3.org/2000/svg" xmlns:xlink="http://www.w3.org/1999/xlink" x="0px" y="0px"
	 viewBox="0 0 40 32" style="enable-background:new 0 0 40 32;" xml:space="preserve">
<style type="text/css">
	.st0{fill:none;stroke:#5DB075;stroke-width:2;stroke-linecap:round;}
	.st1{fill:none;stroke:#5DB075;stroke-width:2;stroke-linecap:round;stroke-linejoin:round;}
</style>
<path class="st0" d="M1,30.7V29c0-6.8,5.5-12.2,12.2-12.2c6.8,0,12.2,5.5,12.2,12.2v1.7"/>
<path class="st0" d="M22,20.2c0-4.8,3.9-8.7,8.7-8.7s8.7,3.9,8.7,8.7v0.9"/>
<path class="st1" d="M13.2,16.7c3.9,0,7-3.1,7-7c0-3.9-3.1-7-7-7c-3.9,0-7,3.1-7,7C6.2,13.6,9.4,16.7,13.2,16.7z"/>
<path class="st1" d="M30.7,11.5c2.9,0,5.2-2.3,5.2-5.2S33.6,1,30.7,1c-2.9,0-5.2,2.3-5.2,5.2S27.8,11.5,30.7,11.5z"/>
</svg>
