<?xml version="1.0" encoding="utf-8"?>
<!-- Generator: Adobe Illustrator 27.9.0, SVG Export Plug-In . SVG Version: 6.00 Build 0)  -->
<svg version="1.1" id="Layer_1" xmlns="http://www.w3.org/2000/svg" xmlns:xlink="http://www.w3.org/1999/xlink" x="0px" y="0px"
	 viewBox="0 0 40 45" style="enable-background:new 0 0 40 45;" xml:space="preserve">
<style type="text/css">
	.st0{fill:none;stroke:#5DB075;stroke-width:2;stroke-linecap:round;}
	.st1{fill:none;stroke:#5DB075;stroke-width:2;stroke-linecap:round;stroke-linejoin:round;}
</style>
<path class="st0" d="M1,39.5V5.8C1,3.2,3.2,1,5.8,1H38c0.8,0,1.4,0.6,1.4,1.4V34"/>
<path class="st1" d="M15.4,27.5c0,0,2.2-7.5,7.2-12"/>
<path class="st1" d="M22.2,23.7l-0.3,0c-4.1,0.4-7.7-2.6-8.1-6.7C13.4,13,16.3,9.4,20.4,9l7.2-0.7c0.5,0,0.9,0.3,0.9,0.8l0.6,6.2
	C29.5,19.5,26.4,23.3,22.2,23.7z"/>
<path class="st0" d="M5.8,34.7h33.7"/>
<path class="st0" d="M5.8,44.3h33.7"/>
<path class="st1" d="M5.8,44.3c-2.7,0-4.8-2.2-4.8-4.8c0-2.7,2.2-4.8,4.8-4.8"/>
</svg>
