<?xml version="1.0" encoding="utf-8"?>
<!-- Generator: Adobe Illustrator 27.9.0, SVG Export Plug-In . SVG Version: 6.00 Build 0)  -->
<svg version="1.1" id="_레이어_1" xmlns="http://www.w3.org/2000/svg" xmlns:xlink="http://www.w3.org/1999/xlink" x="0px"
	 y="0px" viewBox="0 0 121 153.1" style="enable-background:new 0 0 121 153.1;" xml:space="preserve">
<style type="text/css">
	.st0{fill:#C4C4C4;}
	.st1{fill:#C5C5C5;}
	.st2{fill:#C3C3C3;}
	.st3{fill:#CACACA;}
	.st4{fill:#CAC4C3;}
	.st5{fill:#C8C1C1;}
	.st6{fill:#CDC7C7;}
	.st7{fill:#CBC5C4;}
	.st8{fill:#CBC6C5;}
	.st9{fill:#C8C2C2;}
	.st10{fill:#CCC6C6;}
	.st11{fill:#929292;}
	.st12{fill:#929393;}
	.st13{fill:#AAAAAA;}
	.st14{fill:#C9C3C2;}
	.st15{fill:#DBD7D7;}
	.st16{fill:#9F9F9F;}
	.st17{fill:#808181;}
	.st18{fill:#6F7070;}
	.st19{fill:#BCB5B4;}
</style>
<path class="st0" d="M16.5,95.9c-0.3-1.7,1-3,0.8-4.7c-0.1-1-0.1-2.1-0.4-3.1c0.4-0.2,0.8,0,1.2,0.1c0.7,0.2,1.6,0,1.8,0.9
	c0.2,0.8-0.9,0.9-1.1,1.5c-0.3,2.2-1.4,4.2-1.1,6.5c0,1.7,0.1,3.5-0.6,5.1c-0.4,1,0.2,2.1,0.2,3.1c0.1,3.1-0.6,6.3,0.6,9.4
	c0,0.1,0.1,0.3,0,0.4c-1.2,1.5-0.7,3.1-0.4,4.7c0.1,0.5-0.1,1-0.4,1.4c-0.9,1.2-0.8,2.5-0.5,3.8c0.2,1.4,0.4,2.8-0.1,4.2
	c-0.2,0.6-0.2,1.3,0.3,1.7c1,0.9,1.2,2.1,1.3,3.4c0.1,1.5,1.4,2.3,2.1,3.4c0.5,0.7,1.1,1.4,0.3,2.3c-0.3,0.3-0.6,0.5-1.1,0.5
	c-0.2-0.1-0.2-0.3-0.1-0.5c0.4-0.6,0.2-1.1-0.3-1.6c-0.7-0.6-1.3-1.3-2-2c-0.3-0.3-0.9-0.7-0.6-1.1c1-1.6,0-2.6-0.8-3.7
	c-0.3-0.5-0.5-1.2-0.4-1.8c0.6-3.4,0.1-6.8,0.2-10.1c0.1-3.3,0.6-6.5,0.5-9.9c-0.1-2.3,0-4.7-0.3-7.1c-0.1-0.6,0.1-1.1,0.4-1.6
	C17.3,99.6,17.1,97.7,16.5,95.9L16.5,95.9z"/>
<path class="st1" d="M19.5,140.1c0,0.1,0,0.3,0,0.4c0.9,2.2,5.1,4.1,7.7,3.5c0.2,0,0.4-0.1,0.5-0.1c3.6-0.1,4.9-2.4,5.2-5.6
	c0.2-0.7,0.4-1.5,0.9-2c0.6-0.7,0.6-1.5,0.4-2.3c-0.9-3.3-0.4-6.7-0.6-10.1c0-0.8-0.2-1.7,0.7-2.2c0.2,0,0.4,0,0.6,0.1
	c0.2,4.5,0.6,8.9,1.3,13.4c0,0.3,0,0.7-0.2,0.9c-2,2-1.5,5.1-3.4,7.1c-3.1,2.1-6.7,2.4-10.2,1.8c-1.4-0.2-2.6-1.6-3.4-2.9
	C18.6,141.3,18.7,140.5,19.5,140.1L19.5,140.1z"/>
<path class="st2" d="M34.5,93.7c0.4,0.3,0.3,0.7,0.4,1.1c0.5,1.9-0.2,3.8,0,5.7c0.1,0.7,0,1.4,0.1,2.1c0.1,0.4,0.2,0.8-0.1,1.3
	c-1.3-0.2-1.2-1.3-1.2-2.2c-0.1-1.7,0-3.5,0-5.2c0-0.9,0-1.7-0.4-2.6c-0.3-0.6-0.4-1.4,0.1-2c0.8-1,0.6-2,0.1-3
	c-0.6-1.2-0.5-2.5-0.9-3.8C32.5,84,32.5,83,32.3,82c-0.1-0.8-0.1-1.7-0.1-2.6c0.1-0.6,0-1.3,0.8-1.6c0.9,1.9,2.3,3.7,1.2,6.2
	c-0.5,1-0.3,2.4,0,3.6c0.3,1.3,1.7,2.5,0.7,4.1C34.5,92.4,33.8,92.9,34.5,93.7L34.5,93.7z"/>
<path class="st0" d="M35.6,119.9c-0.7,0.4,0,1.4-0.7,1.9c-0.1,0-0.3,0-0.4,0c0-2.4-0.8-4.7-0.5-7.1c0.1-0.5,0.1-1,0.7-1.3
	c0.2-0.1,0.4,0,0.6,0.1c0.2,0.4,0.2,0.8,0,1.2C35,116.4,35.8,118.1,35.6,119.9L35.6,119.9z"/>
<path class="st3" d="M34.9,102.7c-0.8-1.7-0.4-3.5-0.2-5.3c0.1-0.8,0.2-1.7,0.2-2.6c0.7,0.8,0.2,1.8,0.4,2.6c-0.4,1.6-0.1,3.3-0.2,5
	C35,102.5,34.9,102.6,34.9,102.7z"/>
<path class="st3" d="M34.5,107.5c-0.3,0.2-0.3,0.4-0.4,0.8c-0.6,0.1-0.7-0.4-0.7-0.8c0.2-1.3,0.3-2.7,1.4-3.7c0-0.4,0-0.8,0-1.1l0,0
	c0.1-0.2,0.2-0.2,0.4,0C35.5,104.4,34.7,105.9,34.5,107.5L34.5,107.5z"/>
<path class="st3" d="M34.5,93.7c-1.5-0.9-0.2-1.3,0.4-1.9C34.7,92.4,34.6,93.1,34.5,93.7z"/>
<path class="st4" d="M65.5,48c-0.3,0-0.6,0.1-0.8,0.4c-0.1,0.2-0.3,0.3-0.3,0.6c0.7,1.8,0.6,2.1-1.2,1.7c-1.9-0.4-3.3,0.3-4.5,1.6
	c-0.6,0.4-1.1,1-1.7,1.5c-1.1,0.6,0,1.2,0,1.9c0,0.2-0.1,0.3-0.3,0.4c-1.3,0.7-2.4-0.5-3.6-0.4c-0.2,0-0.3,0.1-0.5,0.1
	c-0.3,0-0.5-0.1-0.7-0.3c0-0.2,0-0.3,0.1-0.5c2.3-1,4.5-2.3,6.3-4.2C63,47.5,68,45,73,42.5c0.3,0,0.6,0,0.8,0.2
	c0.5,0.9-0.1,1.5-0.8,1.7c-1.7,0.5-3,1.7-4.7,2.2c-0.2,0.1-0.3,0.1-0.5,0.2c-0.5,0.1-0.9,0.4-1.3,0.6C66.2,47.7,65.8,47.7,65.5,48
	L65.5,48z"/>
<path class="st5" d="M32.6,82.1c-0.9-0.5,0.3-2-1.1-2.2c-0.3,0.1-0.5,0-0.8-0.2C29.9,79,29,78.3,29.4,77c0.5-0.7,1.1-0.7,1.9-0.6
	c0.2,0,0.4,0.1,0.5,0.2s0.2,0.3,0.2,0.5c-1.4,1.2,0.4,1.6,0.6,2.3V82.1L32.6,82.1z"/>
<path class="st4" d="M16.2,5.4c0.5,0.9,1.5,1,2.3,1.5c0,0.1,0,0.2,0,0.4c-0.1,0.1-0.3,0.3-0.5,0.2c-3-1.4-4.7,0.9-6.7,2.3
	c-0.8,0.6-1.1,1.5-0.8,2.5c0.9,2.6-0.2,5-0.9,7.4c-0.3,0.2-0.6,0.1-0.8-0.1C8.1,18.7,8.3,18,9,17.3c0.3-0.3,0.3-0.7,0.2-1
	C8.7,14.2,9.4,12,8.8,9.9C8.6,9,9.2,8.6,10,8.3c0.9-0.4,1.9-0.7,2.5-1.5c0.9-0.9,2.2-1.1,3.3-1.4C15.9,5.4,16,5.4,16.2,5.4L16.2,5.4
	z"/>
<path class="st6" d="M12.8,6.8c-0.6,1-1.5,1.6-2.6,1.9c-1,0.2-1,0.7-0.9,1.6c0.2,2.1,0.1,4.3,0.2,6.4c0,0.2-0.2,0.4-0.3,0.6
	c0-1.1,0.2-2.2-0.5-3.2c-0.4-0.6-0.1-1.2,0.1-1.8c0.2-0.6,0.5-1.2,0-1.8c-1-1.1-0.6-2.2,0-3.3c0.9-0.2,1.8,0.8,2.6,0
	c0.2-0.1,0.5-0.2,0.7-0.4C12.3,6.6,12.6,6.6,12.8,6.8z"/>
<path class="st7" d="M8.7,19.6h0.7c1.3,0.5,1.5,1.9,1.4,2.9c-0.2,2.1,0.2,4.3,0.1,6.4c-0.4,0.9,0,1.9-0.8,2.7c-0.1,0-0.2,0-0.4,0
	c0-0.2,0-0.5,0-0.7c-0.3-0.8-0.3-1.5,0-2.2c-0.5-1.6-0.4-3.2-0.4-4.8C9.5,22.3,9.2,20.9,8.7,19.6L8.7,19.6z"/>
<path class="st7" d="M12.1,66c0.4,2,1.4,3.9,0.7,6.1c-0.1,0.2-0.2,0.6-0.1,0.7c1.5,2.2,0.4,4.8,1.2,7.1c-0.1,0.2-0.2,0.2-0.4,0
	c-0.7-1.5-0.8-3.1-0.8-4.7c0-0.7-0.2-1.5-0.7-2c0-0.1,0-0.2,0-0.4C13,70.5,11.7,68.2,12.1,66L12.1,66z"/>
<path class="st8" d="M98.4,24.8c-0.2,0.3-0.6,0.6-0.6,0.9c0,1.7-1,2.9-1.8,4.2c-0.7,1.2-1.4,1.3-2.5,1.3c0-0.1-0.1-0.1-0.1-0.2
	c0-0.2,0.1-0.3,0.2-0.4c0.6-0.4,1.3-0.7,1.4-1.5c0.1-0.1,0.2-0.3,0.3-0.4c0.8-0.6,1.2-1.4,1.1-2.4c0.4-1.2,1-2.2-0.2-3.5
	c-0.6-0.6-0.3-1.7,0.2-2.4c0.5-0.7,0.6-1.4,0.6-2.2c0.1-0.1,0.3-0.2,0.5-0.3c1,0.1,1.6,0.7,1.4,1.6c-0.3,1.4,0.5,1.8,1.5,2.1
	c1,0.3,1.5-0.4,1.8-1.2c0.9-2,2.2-2.9,4.5-2.5c1.4,0.2,1.7,1.1,2.1,2c0.4,1,0.2,1.9-0.7,2.5c-0.9,0.6-1.8,1-2.9,1.1
	c-1.7,0.1-3.4,0.5-5.2,0.3C99.4,23.5,98.7,23.9,98.4,24.8L98.4,24.8z"/>
<path class="st6" d="M15.4,81c0,0.4,0,0.7,0,1.1c-0.9-0.5-1.5-1.3-1.8-2.2c0.1,0,0.2,0,0.4,0c0.4,0.2,0.7,0.5,1.1,0.7
	C15.3,80.6,15.4,80.8,15.4,81L15.4,81z"/>
<path class="st9" d="M30.8,72.7c0,0.1,0,0.2,0,0.4c-0.1,0-0.2,0-0.4,0c-0.2,0.2-0.5,0.3-0.8,0.3c-0.5-0.1-0.9-0.2-1.2-0.7
	c-0.1-0.5,0.1-0.9,0.4-1.3c0.5-0.4,1.2-0.3,1.7-0.7c0.4-0.1,0.7-0.8,1.1-0.2C31.9,71.6,32,72.4,30.8,72.7z"/>
<path class="st8" d="M33.3,76.8c-0.4,0.3-0.9,0.4-1.5,0.4c0-0.1,0-0.2,0-0.4c-0.3-1.1-1.8-1.4-2-2.6c0.2-0.3,0.4-0.6,0.9-0.4
	C32,74.5,32.5,75.8,33.3,76.8z"/>
<path class="st5" d="M30.8,73.8c-0.2,0.1-0.5,0.2-0.7,0.4c-0.1,0.1-0.2,0.2-0.4,0.2c-0.2,0-0.3-0.1-0.4-0.2C29,74,29,73.8,29.1,73.5
	c0.1-0.2,0.4-0.3,0.5-0.4c0.2,0,0.5,0,0.8,0C30.5,73.4,30.6,73.6,30.8,73.8z"/>
<path class="st8" d="M73.4,16.6c0-0.1,0-0.2,0-0.4c0.4-0.2,0.8-0.3,1.1,0c0.1,0,0.2,0,0.4,0c0.9,0.5,2-0.1,3,0.4
	c1.1,0.1,2.1,0.1,3-0.8c1.2-0.5,2.5,0.2,3.7-0.4c1,0.1,2-0.1,3-0.4c1-0.3,2-0.3,3,0l0,0c0.4,0.4,1,0.5,1.5,0.8c0,0.1,0,0.2,0,0.4
	c-0.1,0.1-0.1,0.1-0.2,0.2c-0.4,0.2-0.9,0.3-1.2,0c-1.4-0.9-2.8-0.4-4.2,0.2c-3.5,0-6.9,1.3-10.4,0.9C75.1,17.4,74.1,17.5,73.4,16.6
	z"/>
<path class="st10" d="M71.9,15.5c-1.8,0.1-3.6-0.1-5.1-1.1c-0.9-0.6-1.9-0.4-2.9-0.4c-0.7-0.1-1.5,0.3-2.1-0.4
	c2.4-0.1,4.8,0,7.1,0.8c0.5,0.2,0.9,0.4,1.4,0.1c1.1-0.5,1.8,0,2.3,0.9C72.4,15.7,72.2,15.7,71.9,15.5z"/>
<path class="st8" d="M84.6,15.5c-1.2,0.8-2.5,0.2-3.7,0.4C82.1,15.1,83.4,15.6,84.6,15.5z"/>
<path class="st8" d="M77.9,16.6c-1-0.2-2.1,0.4-3-0.4C75.9,16.4,77,15.8,77.9,16.6z"/>
<path class="st8" d="M71.9,15.5c0.2,0,0.5,0,0.8,0c0.5,0.5,1.4,0.2,1.9,0.7c-0.4,0-0.8,0-1.1,0C72.8,16.1,72.3,15.9,71.9,15.5
	L71.9,15.5z"/>
<path class="st8" d="M90.6,15.1c-1,0-2,0-3,0c0.8-0.7,1.8-0.2,2.6-0.4C90.3,14.8,90.5,15,90.6,15.1L90.6,15.1z"/>
<path class="st8" d="M92.4,16.2c0.4,0,0.9,0.1,1.3,0c1.9-0.7,2.9,0.4,3.6,1.9l0,0c-0.9,0.6-1.2-0.4-1.7-0.7c-1-0.4-2.1,0-3.1-0.5
	c-0.2-0.1-0.3-0.1-0.4-0.3c-0.1-0.2-0.1-0.3,0-0.5l0,0C92.2,16.2,92.3,16.2,92.4,16.2L92.4,16.2z"/>
<path class="st8" d="M92.1,15.8c-0.6,0-1.2-0.1-1.5-0.8C91.2,15.1,91.7,15.4,92.1,15.8z"/>
<path class="st11" d="M20.7,87.3c0.1,0,0.2,0,0.4,0c0.5-0.1,0.8,0.1,1.1,0.3c1,1,0.8,2-0.2,2.9c-1.5,1.4-1.9,3.3-3,4.9
	c-0.2,0.4-0.4,0.9-0.2,1.4c1,3.2,0.2,6.5,0.3,9.8c0,2.2-0.3,4.5,0.3,6.8c0.6,2.5,0.4,5.2,0.1,7.8c-0.4,0.8-0.8,1.4-1.8,1.4
	c-0.2-0.3-0.2-0.5,0-0.8c0.1-0.1,0.2-0.2,0.4-0.4c0.4-0.5,0.4-1,0.2-1.6c-0.3-1.2-0.2-2.4,0.2-3.7c0.1-0.4,0.2-0.9,0-1.3
	c-1.2-1.8-1.2-3.8-0.9-5.8l0,0c-0.3-0.8-0.3-1.5,0-2.2c0-0.5,0-1,0-1.5c-0.3-1-0.2-2.1,0-3.1c0.4-1.6,0.6-3.2,0-4.8
	c0-0.1,0-0.2,0-0.4c0-2.9,1.3-5.2,3.4-7.1C22.4,88.7,20.9,88.1,20.7,87.3L20.7,87.3z"/>
<path class="st12" d="M17.7,121.8v0.8c1.2,5.3,2.2,10.7,4.7,15.6c0.6,1.2,0.5,2.2-1.1,2.4c-0.1,0-0.2-0.1-0.3-0.1
	c1-2.1-1-3.4-1.5-5.1c-0.8-2.8-2.6-5.3-1.9-8.4c0.1-0.7-0.4-1.2-0.6-1.7C16.6,124,16.5,122.7,17.7,121.8L17.7,121.8z"/>
<path class="st12" d="M17.7,109c0.5,0.3,0.3,0.7,0.2,1.2c-0.1,0.5-0.4,1.2-0.1,1.6c1.6,2.6,0.3,5.5,1,8.2c0.2,0.7-0.1,1.1-0.6,1.3
	c0-1.9-0.4-3.9,0.3-5.8c0.1-0.3-0.1-0.9-0.3-1.2C17,112.7,17.1,110.9,17.7,109L17.7,109z"/>
<path class="st12" d="M17.7,97.4c1.3,1.5,0.6,3.2,0.3,4.8c-0.2,1-0.3,2.1-0.3,3.1c-0.7-0.8-0.5-1.8-0.3-2.7
	C17.8,100.9,17.6,99.2,17.7,97.4z"/>
<path class="st12" d="M17.7,106.8c0,0.8,0,1.5,0,2.2C17.1,108.3,17.1,107.5,17.7,106.8z"/>
<path class="st12" d="M20.7,141.6c-0.6-0.2-0.7-0.6-0.4-1.1c0.2,0,0.5,0,0.7,0l0,0c0.1,0.1,0.2,0.2,0.1,0.4
	C21.1,141.2,20.9,141.4,20.7,141.6L20.7,141.6L20.7,141.6z"/>
<path class="st11" d="M20.7,141.6c0-0.3,0.1-0.6,0.4-0.7c1.4-0.1,2.8,0.4,4.2-0.3c0.4-0.2,0.8,0.1,1.2,0.4c2.6,1.5,3.5,1.2,4.7-1.7
	c0.5-0.8,0.6-1.9,1.9-1.8c-0.4,0.8-0.8,1.6-1.1,2.5c-1,2.7-1.6,2.8-4.4,3.2C24.9,143.6,23.1,141.5,20.7,141.6L20.7,141.6z"/>
<path class="st7" d="M45.7,60.8c0,0.1,0,0.2,0,0.4c-0.1,0.1-0.2,0.3-0.3,0.5c0.2,2-0.5,3.1-2.5,3.3c-1.3,0.2-2.2,0.7-2.8,1.8
	c-1.2,1.8-2.5,2.3-4.6,1.6c-0.9-0.3-1.5-0.2-2.2,0.5c-0.4,0.4-0.7,1-1.5,1.1c-0.7-1.6,1-2,1.6-2.9c0.3-0.2,0.6-0.4,1-0.5
	c2.4,0.5,4.2,0.1,5.6-2.2c0.7-1.2,2.2-0.8,3.5-1c0.1-0.1,0.3-0.2,0.4-0.3c0.4-0.7,0.1-1.5,0.3-2.2c0-0.2,0.1-0.3,0.2-0.5
	c0.4-0.6,0.9-1,1.4-1.5c0.2-0.2,0.4-0.3,0.7-0.5c0.2-0.1,0.3-0.1,0.5-0.1c1.2,0,2.2-0.2,2.9-1.5c0.4-0.7,1.1-1.3,2.1-1.1
	c0.2,0,0.5,0,0.8,0c0.2,1.6-1.6,1.1-2.1,2.1c-0.4,1.3-0.8,2.5-2.6,1.8C47,59,46.4,60.1,45.7,60.8L45.7,60.8z"/>
<path class="st7" d="M56.9,53.6c-0.3,0.8,0.6,1.5,0,2.2C56.8,55.1,54.7,54.4,56.9,53.6z"/>
<path class="st7" d="M56.9,55.9c-1.5,1.2-2.7-0.4-4.1-0.4c0.4-0.5,0.9-0.5,1.3-0.2C55,56,56,55.9,56.9,55.9L56.9,55.9z"/>
<path class="st8" d="M82.8,38.3c0-0.1,0-0.2,0-0.4c-0.1-1.1,0.7-1.6,1.4-1.9c1.6-0.7,3.1-1.7,4.9-1.5c1.2,0.1,1.2-1.4,2.3-1.1
	c-0.1,0.5-0.2,1-0.4,1.5c0.1,0.6-0.2,1-0.4,1.5c-0.6,0.3-1.1,0.3-1.7,0.1c-2.1-0.4-4-0.2-5.4,1.7C83.3,38.3,83,38.3,82.8,38.3
	L82.8,38.3z"/>
<path class="st13" d="M31.5,82.8c-0.6-0.4-0.2-1.2-0.7-1.8c-0.7,1.1-1.4,2.7-3,1c-0.4-1.4-0.1-2.6,1.4-3.2c0.7,0,1.3,0.4,2,0.6
	c0.1,0.1,0.2,0.2,0.4,0.4C31.5,80.8,31.5,81.8,31.5,82.8L31.5,82.8z"/>
<path class="st14" d="M92.1,32.3c0.4-0.6,0.9-1.1,1.5-1.5c0,0.1,0,0.2,0,0.4C93.2,31.8,92.8,32.3,92.1,32.3z"/>
<path class="st5" d="M96.6,26.3c0.2-1.4,0.1-2.6-0.7-3.9c-0.9-1.6-0.5-3.6-0.1-5.4c0.5,0.4,0.7,1.2,1.5,1.1c0.8,0.8,0.6,1.5-0.2,2.2
	c-0.8,0.7-0.9,1.9-0.4,2.3c1.4,1.3,0.6,2.4,0.2,3.7C96.8,26.5,96.7,26.5,96.6,26.3L96.6,26.3z"/>
<path class="st14" d="M107.6,20.4c0.1,0.7-0.5,1.2-0.8,1.1c-1.2-0.3-1-1.8-1.7-2.6c-0.3-0.4,0.5-0.4,0.9-0.5
	C107.4,18.3,107.4,19.4,107.6,20.4L107.6,20.4z"/>
<path class="st14" d="M96.6,26.3c0.1,0,0.2,0,0.4,0c0.3,1.3-0.4,2.1-1.5,2.6C95.3,27.8,96.3,27.2,96.6,26.3L96.6,26.3z"/>
<path class="st14" d="M93.6,30.8c0.5-0.8,1.1-1.4,1.9-1.9C95.6,30.3,94.6,30.6,93.6,30.8z"/>
<path class="st10" d="M109.6,16.2c1.4,0,2.8,1,2.8,2.2c0,0.9-0.7,0.8-1.2,0.8c-1.3,0.1-3.1-1-3-1.9
	C108.2,16.4,108.9,16.2,109.6,16.2L109.6,16.2z"/>
<path class="st15" d="M118,17.7c-0.5-0.7-0.7-1.3-0.9-2c-0.2-0.7-0.4-1.5-1.2-1.8c-2.3-1-4.9-1.1-7.1-2.4c-0.1-0.1-0.4,0-0.5,0.1
	c-1.2,1.6-2.7,0.5-4,0.4c-2.3-0.1-4.9-1-6.9-0.3c-2.7,1-5.2,0.3-7.8,0.6c-1.1,0.2-2.4,0.5-3.6,0.1c-1.9-0.6-3.8-0.8-5.7-0.6
	c-1.8,0.2-3.6-0.3-5.2-0.8c-1.3-0.4-2.4-0.7-3.7-0.8c-1.5-0.1-3-0.1-4.4-0.5c-4.5-1.2-8.8-1.8-13.3-0.3c-0.5,0.2-1.3,0.2-1.8-0.1
	c-1.4-0.8-2.5-0.2-3.6,0.5c-0.3,0-0.7,0.1-1-0.2c-1.7-1.4-3.7-1.3-5.8-1.3C40,8.4,38.3,8.8,37,7.8c-1-0.8-2.2-1-3.2-0.6
	c-2.5,1-4.8-0.1-7-0.4c-3.5-0.5-7.1-1.1-10.4-3c-2-1.1-4.7-1.5-7,0.3c0,0,0.1,0.1,0.1,0.1c0,0-0.1,0-0.1,0C7,5.4,5.4,7.4,3.9,9.7
	c-1.4,2.3-1.3,4.9,0.6,6.7s3.2,3.8,2.8,6.6c0,0,0,0,0,0c0,0,0,0,0,0c0.1,0.8,0.2,1.6,0.3,2.4c0.1,1.7-0.2,3.6,0.5,5.1
	c1.3,3.1,0.9,6.4,1.2,9.6c0.3,3.5,0.1,7.2,0.1,10.8c0,0.7,0,1.4,0.4,2c0,0-0.1,0-0.1,0c0.3,1,0.5,1.9,0.1,3c-0.2,0.6-0.2,1.5,0.1,2
	c0.8,1.5,0.5,2.8-0.1,4.2c-0.4,1-0.4,1.8,0.6,2.4c0-0.1,0-0.3,0-0.4c0.1,0.1,0.1,0.2,0.2,0.3c0.2,0.2,0.2,0.5,0.2,0.7
	c-0.1-0.2-0.2-0.4-0.3-0.6c0.3,1-0.3,2.1,0.4,3c0-0.2,0-0.3,0-0.5c0,0.1,0.1,0.3,0.1,0.4c0,2.3,0,4.5,0,6.7c0,3,0.3,5.8,2.2,8.2
	c0.6,0.9,1.4,1.6,1.6,2.7c0.1,0.9,0.2,1.8,0.3,2.6c0,0-0.1,0-0.1,0.1c0.2,0.7,0.3,1.4,0.9,2c0.7,0.6,0.8,1.7,0.4,2.2
	c-1.4,1.8-0.6,3.8-0.6,5.7c0,0.8,0.2,1.6-0.2,2.4c-1,2-0.5,4.1-0.4,6.1c0.1,0.8,0,1.5,0,2.2c-0.1,2.8-0.1,5.5-0.1,8.3
	c0.1-0.1,0.1-0.2,0.1-0.2c0,0,0,0.1,0,0.1c-0.4,0.5,0,1,0,1.5c0,0.9,0,1.8,0,2.7c0,0.1-0.1,0.2-0.1,0.2c0,0.5,0,1,0,1.5
	c-0.1,0.3-0.1,0.6-0.2,0.9c-0.3,0.9-0.2,1.8,0.2,2.6c0-0.1,0-0.3,0-0.4c0.2,2.2-1.2,4.6,0.4,6.7c0.2,0.2,0.4,0.5,0.5,0.7
	c-0.1-0.1-0.3-0.2-0.5-0.3c0.1,0.4,0.4,0.9,0.3,1.2c-1.3,2.7-0.2,5.4,0.8,7.8c0.8,2.2,3.2,3.9,5.1,4.9c1.8,1,4.8,1.1,6.9-0.7
	c0,0,0.1,0,0.1,0c2.3,0,4.2-0.6,5.2-3c0.2-0.6,0.7-1,1.1-1.5c0-0.1,0-0.2,0-0.2c1.1-1.4,1.7-3,2.1-4.6c0.2-1,0.7-2.1,0.5-3.2
	c-0.9-4.4-2.2-8.7-1.5-13.3c0,0,0,0,0,0c1.1-1,1.6-2.1,0.4-3.4c-0.5-0.6-0.5-1.4-0.4-2.2c0.3-3.4-0.4-6.8-0.3-10.3
	c0.2-3.5,0.9-7,0-10.5c-0.1-0.5-0.1-1.2,0.1-1.8c0.4-1.1,0.1-2.2-0.3-3.1c-0.9-1.9-0.8-3.7-0.1-5.6c0.5-1.2,0.3-2.4-0.5-3.3
	c-0.9-1-0.8-1.9-0.3-2.9c0.8-0.2,1-1,1.5-1.5c0-0.1,0-0.1,0.1-0.2c1.3-0.4,1.6-2.1,3.2-1.8c2.8,0.6,4.4-1.7,6.2-3
	c2.5-1.8,3.8-5.1,6.9-6.3c0.5-0.2,0.7-0.6,0.7-1c0,0,0,0,0,0c0.8-0.3,1.7-0.6,2.3-1.2c3.3-3.7,6.8-6.9,11.5-8.7
	c1.4-0.6,2.8-1.3,4.1-2.1c1.6-0.9,3.5-1.4,4.6-3.1h0c1.1-0.3,2.1-0.8,2.9-1.6c1.1-1,2.2-1.7,3.7-2c2.7-0.6,5.3-1.6,6.9-4
	c0.5-0.8,1-1.5,1.9-1.9c1.6-0.7,3.4-1.1,4.3-2.9c0.1-0.2,0.7-0.3,1-0.3c2.1-0.2,3.9-0.9,4.9-2.9c0.2-0.5,0.8-0.8,1.3-1.2
	c2-0.3,4.1-0.6,5.7-2.1c1.4-1.2,2.9-2.4,4.9-2.5c0.6-0.1,1.1-0.5,1.4-1.1c0.9-1.6,1.6-3.2,0.7-5c0.5-0.4,1-0.4,1.6-0.5
	C118.7,19.8,119.1,19,118,17.7z M10.9,58.9c0-0.1,0-0.2,0-0.4c0-0.1,0.1-0.1,0.1-0.2c0,0.1,0,0.1,0,0.2c0,0,0,0,0,0
	C11,58.6,10.9,58.7,10.9,58.9z M55.1,60.4C55.1,60.5,55,60.5,55.1,60.4c-0.1,0.1-0.1,0.2-0.2,0.3C55,60.6,55,60.5,55.1,60.4z
	 M56.8,58.9C56.8,58.8,56.8,58.8,56.8,58.9C56.8,58.8,56.8,58.8,56.8,58.9C56.8,58.8,56.8,58.8,56.8,58.9
	C56.8,58.9,56.8,58.9,56.8,58.9z M114.9,15.3c0,0,0.1,0,0.1,0.1c0,0.1,0,0.2-0.1,0.2C115,15.5,115,15.4,114.9,15.3z"/>
<path class="st16" d="M28.1,83.6c-0.4-0.1-0.7-0.1-1.1-0.2c-0.6-0.2-1.3-0.4-1.7,0.1c-0.4,0.6-0.1,1.1,0.5,1.6
	c0.8,0.6-0.2,0.8-0.3,1.1c-0.1,0-0.2,0-0.4,0c-0.6,0.1-1.2,0.4-1.8,0.6c-0.2,0-0.3-0.1-0.4-0.2c0-0.6,0-1.2,0-1.9
	c0.1-0.1,0.2-0.2,0.4-0.4c1-0.3,1.3-1.2,1.9-1.9c0.6-0.5,1.2-0.5,1.9,0C27.4,82.8,27.8,83.2,28.1,83.6L28.1,83.6z"/>
<path class="st9" d="M27.8,75.3c0.2,0,0.5,0,0.8,0C28,76.5,27.2,77,26,76C26.4,75.5,27,75.3,27.8,75.3L27.8,75.3z"/>
<path class="st17" d="M34.8,111.8c-0.5-1.4-1.4-3.1-1-4.4c0.8-2.5,0.4-4.9,0.2-7.3c-0.1-2.3,0.6-4.7-0.8-6.9
	c-0.2-0.4-0.1-0.9,0.2-1.2c1.2-1.2,0.7-2.5,0.3-3.7c-0.4-1.1-0.5-2.2-0.5-3.4c-0.1-1,0.2-2.1-0.4-3c-0.4-0.5-0.2-1.1-0.2-1.6
	c-0.1-0.7-0.4-1-1.1-0.6c-0.3,0.4-0.4,0.8-0.4,1.2c0,0-0.1,0-0.1,0c-0.6-0.2-0.8,0.3-1.1,0.7c-0.5,0.6-1.1,0.6-1.8,0.2
	c-0.3-0.1-0.5-0.2-0.8-0.2c-0.4,0.2-0.5,0.5-0.5,0.9c0.1,0.6,0.7,1,1.2,1.3c1.1,1,2.2,2,2.8,3.4c0,0.2,0,0.3,0.1,0.5
	c0.5,1.9-0.3,3.7-0.2,5.5c0.1,0.5,0.2,0.9,0.5,1.3c0.1,0.1,0.2,0.2,0.3,0.3c0,1.6-0.3,3.4,1,4.7c0,0.1,0,0.1,0,0.2
	c-0.9,0.6-1.7,1.5-1.3,2.4c0.9,2.1,0.7,4,0.3,6.1c-0.1,0.7,0.3,1.5,0.5,2.2c0.1,0.3,0.3,0.5,0.6,0.4c0,0,0,0,0,0
	c-0.7,1.5,0.2,3.2-0.1,4.7c0,0.7,0,1.4,0,2.1c-0.1,0.6-0.1,1.2,0.1,1.8c0,0.1,0,0.1,0,0.2c0,0.2,0,0.4,0.1,0.5c0,0.1,0,0.2,0,0.3
	c0,0.1,0,0.2,0.1,0.3c-0.9,0-1.2,0.6-1.3,1.4c-0.1,0.8,0,1.5,0.3,2.2c0.4,1,0.3,2-0.1,3c-1.1,2.3-0.9,4.5,0.7,6.5c0,0,0,0.1,0,0.1
	c0,0,0,0.1,0,0.1c-0.7,0-1,0.7-1.5,1.1c-0.3,0.6-0.5,1.3-0.8,1.9c-1,1.7-3,2.7-4.1,1.9s-2.2-1.7-2.4-3.2c-0.1-0.7-0.2-1.5-0.9-2
	c0,0,0,0,0,0c0.5-0.8,0.6-1.5,0.3-2.4c-0.8-2.5-1.2-5-2.8-7.2c0.3-1,1.6-1.9,0.8-3.2c-1.5-2.5-0.1-5.1-0.6-7.6
	c-0.1-0.3,0.2-0.6,0.4-0.8c0.4-0.4,1.2-0.7,0.8-1.3c-0.5-0.6-1.1-0.8-1.8-0.5c0-0.1,0-0.2-0.1-0.2c0.1-0.2,0-0.5-0.1-0.7
	c-0.1-0.8,0-1.7,0.2-2.6c0-0.2,0.1-0.4,0.1-0.6c0-0.1,0-0.2,0-0.3c0.4-0.6,0.5-1.3,0.1-1.9c0-0.2,0-0.3,0-0.5
	c-0.4-1.5,0.2-3.1,0-4.6c0-0.2-0.1-0.4-0.1-0.6c-0.3-1-0.3-2-0.1-3c0.1-0.4,0.3-0.7,0.6-1c0,0,0.1-0.1,0.1-0.2c0.2,0,0.3,0,0.5,0
	c0-0.1,0-0.2-0.1-0.3c0-0.1,0.1-0.2,0.1-0.3c0.2-0.4,0.4-0.9,0.6-1.3c0.2-0.3,0.3-0.6,0.5-0.8c0.2-0.3,0.5-0.6,0.8-0.8
	c0.2-0.3,0.3-0.5,0.4-0.8c0-0.1,0-0.2,0-0.2c0.6-1,0.4-2.1,0-3.2c-0.2,0-0.3,0-0.4,0c-0.1,0.1-0.3,0.2-0.4,0.3
	c-0.4,0.2-0.7,0.4-0.8,0.8c0.9,1,0.8,1.8-0.2,2.7c-1.6,1.4-2.1,3.5-3.2,5.3c-0.2,0.3-0.3,0.8-0.2,1.1c1.1,2.2,0.4,4.5,0.5,6.7
	c0.1,1.5-0.4,3-0.3,4.5c0.1,2.6,0.6,5.2,0.8,7.8c0.1,1.8,0,3.7,0,5.6c-0.5,0.3-0.9,0.7-1.4,1c-0.3,0.6-0.7,1.3-0.3,1.8
	c1.2,1.6,1,3.5,1.3,5.3c0.5,3.1,2,5.8,3.2,8.6c0.6,1.4,0.3,1.9-0.9,2.3c0,0.2,0,0.3,0,0.4c1.3,0.4,2.5,1.3,3.8,0.2
	c0.4-0.4,0.9-0.1,1.3,0.2c2.8,1.9,4.3,1.3,5.4-1.8c0,0,0,0,0,0c0.4-0.8,0.7-1.5,1.5-1.9c0.3-1.4,1.1-2.6,0.7-3.9
	c-0.6-2.4-0.3-4.9-0.3-7.3c-0.2,0-0.3,0-0.4,0c0,0,0,0,0,0c0,0,0-0.1,0-0.1c0.1,0.1,0.3,0.1,0.4,0c0-1.9-0.3-3.9,0.9-5.7
	c0.5-0.7,0.1-1.5-0.2-2.3c-0.5-1.3-0.6-2.5,0.4-3.6c0-0.4-0.1-0.8,0.5-1.3C35.4,112.8,35,112.3,34.8,111.8z"/>
<g>
	<path class="st18" d="M33.1,121.1c0-0.2,0-0.3,0-0.4c-0.4-0.4-0.1-0.8-0.3-1.2c-0.2-0.8-0.2-1.5,0-2.3c0.1-0.6-0.2-1.2,0.2-1.8
		c0.1-1.5-0.2-3-0.4-4.5c-0.6-0.7-0.7-1.7-1-2.2c0.3-2.2,1-4.2-0.4-6.4c0-0.2,0-0.4,0-0.6c0.2-0.5,1.1-1.1,1.1-1.8
		c-0.3-0.5-0.3-1.2-0.6-1.7c-0.7-1.1,0.3-2.4-0.5-3.5c-0.5-0.3-0.4-0.7-0.4-1.1c-0.4-0.7-0.3-1.5-0.1-2.2c0.4-1.3,0.4-2.5,0.1-3.8
		c0-0.2,0-0.3,0-0.4c0,0-0.1,0-0.1,0c0.1-0.1,0.3-0.2,0.4-0.3c-0.8-1.2-1.6-2.5-3-3.4c-1-0.3-1.9-1.4-2.9-0.5
		c-1.1,0.9,0.1,1.9,0.2,2.9c0,0.1,0,0.1,0.1,0.1c-0.1,0-0.1,0-0.2,0c-0.1,0-0.3,0-0.5,0.1c0,0,0,0,0,0c-0.6,0-1,0.3-1.5,0.5
		c-0.1,0.9,0.1,1.8,0,2.7c0,0,0,0.1,0,0.1c-0.1,0.3-0.2,0.6-0.4,0.9l-0.3,0.4c-0.6,1-1.3,1.8-1.5,2.9c-0.1,0.2-0.3,0.3-0.4,0.5
		c0,0-0.1,0.1-0.1,0.2c-0.1,0-0.2,0.1-0.3,0.1c-0.5,0-0.7,0.3-0.8,0.7c-0.3,0.6-0.3,1.2-0.1,1.8c0,0.1,0,0.2,0,0.2
		c0,0.5-0.2,1,0.1,1.4c0,0.2,0,0.3,0,0.4h0c0.2,1.7-0.5,3.2,0,4.8c0.6,1,0.4,2,0,3c-0.2,0.5-0.3,1.1-0.2,1.7c0,0.2,0,0.4,0,0.5
		c0,0.2,0,0.3,0,0.5c0.1,0.1,0.1,0.2,0.2,0.3c0,0.4,0,0.8,0,1.3c0.7,0,1.4,0,2,0.6c-0.7,0.5-1.8,1-1.5,2c0.4,1.2-0.1,2.3-0.1,3.5
		c0,1-0.2,2,0.3,2.8c1,1.5,0.7,2.9-0.5,4c-0.1,0-0.1,0.1-0.2,0.1c0,0,0,0,0,0.1c0,0,0,0,0,0c0,0,0,0,0.1,0c2,3.1,3.4,6.2,2.9,10
		c0.4,0.2,0.4,0.6,0.3,1c0.3,1.5,0.9,2.8,2,3.8c1.1,1.1,2.3,1.2,3.7,0.3c1.5-1,2.2-2.3,2.5-3.9c0-0.1,0-0.2,0-0.3
		c0,0.1,0.1,0.1,0.1,0.2c0.5-0.3,1-0.7,1.5-1.1c0-0.3,0.1-0.7-0.1-0.9c-1.5-1.8-1.2-3.7-0.3-5.7c0.4-1,0.6-2,0.1-3
		c-0.3-0.7-0.4-1.4-0.4-2.1c0-0.1,0.1-0.2,0.1-0.2C32,121.5,32.4,121.2,33.1,121.1z M22.2,112.8C22.2,112.8,22.2,112.8,22.2,112.8
		c0,0,0.1,0,0.1,0.1C22.2,112.9,22.2,112.9,22.2,112.8z M23.3,110.5c0,0.1,0,0.2,0,0.3c0,0,0,0.1,0,0.1c0,0-0.1,0-0.1,0
		C23.2,110.8,23.3,110.7,23.3,110.5z M23.3,111.7C23.3,111.7,23.3,111.7,23.3,111.7C23.3,111.7,23.3,111.7,23.3,111.7
		c0.2,0,0.3,0.2,0.4,0.3c-0.1,0-0.2-0.1-0.4-0.1C23.3,111.9,23.3,111.8,23.3,111.7z M24.2,120.7c0,0.3-0.1,0.5-0.3,0.7
		c0,0-0.1,0.1-0.1,0.1C23.9,121.2,24,120.9,24.2,120.7z M23.7,124.4c0.1,0.2,0,0.4-0.1,0.7C23.6,124.8,23.7,124.6,23.7,124.4z
		 M30.8,99.3C30.8,99.3,30.8,99.3,30.8,99.3C30.8,99.3,30.8,99.3,30.8,99.3C30.8,99.3,30.8,99.3,30.8,99.3z M30.8,96.2
		c-0.1-0.2-0.2-0.3-0.3-0.5c0.1,0.1,0.2,0.2,0.3,0.3C30.8,96.1,30.8,96.1,30.8,96.2z M21.4,114.2C21.5,114.2,21.5,114.2,21.4,114.2
		C21.5,114.2,21.4,114.2,21.4,114.2C21.4,114.2,21.4,114.2,21.4,114.2z M22.5,114.9c0,0.1,0,0.2-0.1,0.4c0,0,0-0.1,0-0.1
		c0,0,0-0.1,0-0.1C22.4,115,22.4,115,22.5,114.9z M24.4,131.5C24.4,131.5,24.4,131.6,24.4,131.5C24.4,131.5,24.4,131.5,24.4,131.5
		C24.4,131.5,24.4,131.5,24.4,131.5z M30.8,134.8C30.9,134.8,30.9,134.8,30.8,134.8C30.9,134.8,30.9,134.9,30.8,134.8
		C30.9,134.9,30.9,134.8,30.8,134.8z"/>
	<path class="st18" d="M31.1,93.3c0.1-0.8,0.1-1.6,0.3-2.4c0.2-1.2,0.5-2.4-0.2-3.6c-0.1,0.9,0,1.9-0.1,2.8
		C30.9,91.2,30.3,92.2,31.1,93.3z"/>
</g>
<g>
	<path class="st19" d="M35.1,103.9c-0.2-0.3-0.6-0.6-0.6-0.9c-0.1-2-0.4-4.1-0.1-6.1c0.3-1.9-1.9-3.9,0.2-5.7
		c0.3-0.2,0.1-0.8-0.1-1.2c-0.8-1.5-1-3.2-1.3-4.8c-0.6,1.2,0.2,2.3,0.2,3.5c0,0.9,0.7,1.9-0.1,2.8c-0.8,0.9-1,1.7,0,2.7
		c0.2,0.2,0.2,0.8,0.2,1.2c0,1.4,0.3,2.8,0.2,4.2c-0.1,1.7,0.5,3.4,0.2,5c-0.3,1.8-0.4,3.6-0.2,5.5c0.1,1.3,1.4,2.1,1.2,3.4
		c0.1,0,0.2,0,0.6,0.1c0-1.8-0.6-3.5-1.1-5.2C33.6,106.7,35,105.4,35.1,103.9z"/>
	<path class="st19" d="M96.4,22.7c-0.3-0.2-0.1-0.8-0.2-1.2c-0.5-1.5,0.3-3-0.3-4.5c-1.2-0.2-2.3-0.3-3.4-0.4c-0.2,0-0.3,0-0.4,0
		c0,0,0,0,0,0c0-0.2,0-0.3,0-0.4c-0.6,0-1.2-0.1-1.8-0.4c-1.2-0.6-2.4-0.6-3.5,0.4c0,0-0.1,0-0.1,0c-0.3,0-0.6,0.1-0.8,0.1
		c-1.2,0-2.4-0.2-3.6,0.2c-2.9,0.8-5.9,0.6-8.8,0.1c0,0,0,0-0.1,0c0-0.1,0-0.2,0-0.4c-0.7-0.2-1.1-0.8-1.8-1c-3.3,0-6.4-1.7-9.8-1.5
		c-1.6-0.7-3.1-2-5-0.9c-0.1,0-0.3-0.1-0.5-0.2c-0.9-0.6-1.7-0.4-2.7-0.2c-0.8,0.1-1.9,0.3-2.4-0.1c-1.6-1.1-3.5-0.9-5.2-1.2
		c-2.1-0.4-4.2-0.9-6.3-0.3c-0.2-0.1-0.4,0-0.7,0.1c-1.4-0.1-2.8-0.3-4-1.2c-0.8-0.7-1.8-0.8-2.8-0.6c-1.9,0.5-3.8-0.1-5.7,0.3
		c-0.8,0.2-1.6-0.2-2.2-0.7C24,8.5,23.8,8,23.4,8.2c-1.9,0.9-3.3-0.5-4.9-1c-3.5-1.9-5.6,0.7-7.9,2.5c-0.7,0.5-0.9,1.5-0.6,2.4
		c0.6,1.7,0.5,3.3-0.1,4.9c-0.3,0.8-0.5,1.6-0.4,2.5c1.7,3,0.4,6.3,1.1,9.4c-0.8,0.8-0.3,1.7-0.4,2.6c1.6,7.9,1.1,15.9,1.6,24
		c0.4,3.5,0.1,7.1,0.1,10.6c0.2,1.6,0.8,3.2,0.7,4.7c-0.1,3.1,0.6,6,1.1,9c0.4,0.5,0.6,1.1,1.4,0.9c0,0,0,0,0,0
		c0.1,0.1,0.2,0.2,0.2,0.2c-0.1,0-0.1,0.1-0.1,0.2c-0.1,0.4,0,0.7,0.2,1c0.2,0.7,0.3,1.5,0.5,2.2h-0.1c0.1,0.3,0.3,0.5,0.4,0.8
		c0.9,0.4,0.9,1.9,2.2,1.8c0.1,0,0.1-0.1,0.2-0.1c0,0-0.1,0.1-0.1,0.1c0.2,0,0.5,0,0.7,0c0.1,0,0.2,0,0.3,0c-0.1,0-0.2,0.1-0.3,0.2
		c1.9,2.5,1.9,2.5-0.8,3.3c-0.2,2.2-1.4,4.4-1.1,6.7c0,3.6-0.8,7.1-0.4,10.7c0.2,1.8,0,3.6,0.2,5.4c0.2,1.3,1.3,2.5-0.6,3.4
		c-0.6,0.3,0.1,1,0.3,1.5c0.6,1.2,0.9,2.3-0.2,3.4c-0.3,0.2-0.5,0.8-0.4,1c1.3,3.3-1.7,7,1.4,10c0.1,0.1,0.1,0.3,0.1,0.5
		c-0.5,2.4,1.1,3.8,2.5,5.2c0.7,0.8,0.7,1.2,0.1,1.9c-0.2,0.1-0.5,0.2-0.7,0.4c-0.6,0.9-0.2,1.6,0.6,2c1,0.5,2,1.1,3,1.5
		c3.4,1.4,7.8,0.2,9.4-2.5c0.6-0.9,0.4-1.9,0.8-2.8c-0.1,0-0.1,0-0.2,0c0.1,0,0.1-0.1,0.2-0.1c0.1-0.7,0.2-1.5,0.7-2
		c0.8-0.9,0.8-1.9,0.6-2.8c-1-3.6-0.5-7.3-0.7-11c0-0.4,0.1-0.7,0.4-1c1.1-2.4-0.6-4.7,0-7.1c-1.8,0.7-1.2,2.1-1,3.4
		c0.2,0.7,0.8,1.5,0.3,2.3c-1.1,1.8-0.9,3.8-0.9,5.8c0.2,1.9-0.4,3.8,0.1,5.6c0.4,1.8,0.3,3.6-0.4,5.3c-0.3,1.3-1,2.4-1.5,3.6
		c-0.5,1.4-1.5,2-3,2c-1.6-0.1-3.1,0-4.6-0.9c-0.7-0.5-1.6-0.7-2.5-0.4c0,0,0,0,0,0c-0.3-0.2-0.4-0.6-0.6-0.9v-0.1
		c0.3,0.1,0.5,0.1,0.7-0.1c0.6-0.6,0.8-1.5,0.3-2.2c-1.6-2.5-2.5-5.3-3.3-8.2c-0.6-2.1-0.2-4.2-0.9-6.3c-0.2-0.5,0.1-1.2,0.6-1.7
		c0.2-0.3,0.3-0.5,0.4-0.8c0.1-1.9-0.1-3.8,0.4-5.7c0.2-0.4-0.1-1-0.3-1.4c-0.9-1.4-0.8-2.9-0.5-4.5c0.1-0.2,0-0.4,0-0.6
		c-0.2-0.8-0.1-1.6,0.1-2.4c0.1-0.5,0.1-1,0-1.5c-0.2-0.6-0.2-1.3-0.1-2c0.3-1.7,0.5-3.5,0.3-5.3c0-0.2-0.1-0.4-0.2-0.6
		c0,0,0,0-0.1-0.1c0.3-0.4,0.3-0.9,0.4-1.2c0.7-1.7,1.3-3.5,2.6-4.9c1.5-1.5,1.7-1.9,0.3-3.5c0.1,0,0.2,0,0.3,0
		c0.2,0.1,0.4,0.2,0.5,0.3c0.4-0.1,0.7-0.4,1.1-0.8c0.2-0.2,0.3-0.4,0.4-0.7c0.1-0.5,0.1-1-0.2-1.5c0.2,0,0.4-0.2,0.5-0.3
		c0,0,0,0,0,0c1.1,0.1,1.2-1,1.8-1.8c0-0.1,0-0.1,0.1-0.2c0.5,0,1.1,0,1.5,0c0-0.3,0.1-0.5,0.4-0.8c0,0,0,0,0-0.1c0,0.1,0,0.1,0,0.2
		c0.1,0.1,0.2,0.3,0.3,0.4c0.4-1.1,0.2-2.4,1.5-3c0,0,0-0.1,0-0.1c0.6,0.4,1.2,0.4,1.9,0.4c-0.6-0.6-1.6-1-1.5-2
		c0,0,0.1-0.1,0.1-0.1c0.6-0.6,1.3-0.3,1.9-0.4c0,0,0-0.1,0-0.1c0.1,0,0.2,0,0.3,0c0.5-1.7-1.5-1.5-1.9-2.6c-0.1,0-0.2,0-0.3,0
		c0,0-0.1,0-0.1,0c-0.1,0-0.2,0-0.3,0c0-0.2,0-0.5,0-0.7c-0.1,0-0.1,0-0.2,0.1c0,0,0.1,0,0.1-0.1c0.2-0.2,0.3-0.3,0.4-0.4
		c-0.3-0.1-0.7-0.3-1.1-0.4c0.1-0.4,0.3-0.7,0.3-1.1c0,0,0.1,0,0.1,0c0.6-0.1,1.3,0.3,1.9-0.3c0.2-0.3,0.5-0.6,0.7-0.8
		c0.2-0.3,0.3-0.6,0.4-0.8c0.1-1.2,1.4-1.6,1.9-2.4c-0.1-0.1-0.2-0.2-0.3-0.2c0.1,0,0.2,0,0.3,0c0.2-0.2,0.5-0.3,0.7-0.4
		c0.9,0.1,1.9-0.1,2.8,0.4c1,0.6,1.4,0.1,1.8-0.8c0.7-1.7,1.8-2.8,3.9-2.6c0.4,0,1,0.1,1.3-0.4c0,0,0,0,0,0c0.7-1,0.1-1.9,0.3-2.9
		c0.6-0.4,1.1-0.9,1.5-1.5c0.1-0.2,0.3-0.3,0.4-0.4c0.2,0,0.3,0,0.4,0c0-0.2,0-0.3,0-0.4c0,0,0.1,0,0.1,0c-0.1,0.1-0.1,0.2,0,0.4
		c1-0.1,2.3,0.6,2.8-0.6c0.5-1.3,1.5-1.7,2.4-2.4c0-0.2,0-0.3,0-0.4c-0.1,0-0.3,0.1-0.4,0.1c0.1,0,0.1-0.1,0.2-0.1
		c2.6-0.7,4.8-1.9,6.4-4.1c0,0,0,0,0,0.1c2.2-1.3,4.4-2.6,6.6-3.9c2.6-1.6,5.5-2.6,8-4.4c0.3,0,0.5,0,0.9,0c2.1-0.8,4-2.3,6.3-3
		c0.8-0.5,1.7-1,2.6-1.5c0.1-0.2,0.1-0.3,0-0.5c0.7-1,1.8-1.4,2.7-1.9c1.8-1.1,4.5-0.2,5.8-2.5c0-0.2,0-0.5,0-0.7c0,0,0-0.1,0-0.1
		c0,0,0.1,0.1,0.1,0.1c0.2-0.2,0.5-0.3,0.7-0.4c0.6-0.4,1.1-0.9,1.5-1.5c0.8-0.5,1.5-1,1.9-1.9c0.5-0.9,1.3-1.6,1.3-2.8
		C97.1,24.9,97.6,23.7,96.4,22.7z M14.1,33.9C14.1,33.9,14.1,33.9,14.1,33.9C14.1,33.9,14.1,33.9,14.1,33.9
		C14.1,33.9,14.1,33.9,14.1,33.9C14.1,33.9,14.1,33.9,14.1,33.9z M14.1,71.3c0,0,0-0.1,0-0.1c0,0,0.1,0,0.1,0
		C14.1,71.2,14.1,71.2,14.1,71.3z M14.5,47.3c0-0.5-0.1-1.1-0.1-1.6C14.5,46.2,14.5,46.8,14.5,47.3z M14.6,44.1
		c0.1-0.3,0.3-0.6,0.6-0.9c0.1-0.1,0.2-0.2,0.2-0.3C15.4,43.3,15.1,43.7,14.6,44.1z M15.9,76.1C15.9,76.1,15.9,76.1,15.9,76.1
		C15.9,76.1,15.9,76.1,15.9,76.1C15.9,76.1,16,76.1,15.9,76.1C16,76.1,15.9,76.1,15.9,76.1z M16.4,39.9c0.2-0.2,0.3-0.4,0.3-0.7
		c0-0.1,0-0.2,0-0.2c0.1,0.1,0.2,0.2,0.1,0.4C16.8,39.7,16.6,39.8,16.4,39.9z M17.4,77.5C17.4,77.5,17.3,77.5,17.4,77.5
		C17.4,77.5,17.4,77.5,17.4,77.5L17.4,77.5z M20,85.1C20,85.1,20,85.1,20,85.1C20,85.1,20,85.1,20,85.1C20,85.1,20,85.1,20,85.1z
		 M23.7,10C23.7,10,23.8,10,23.7,10C23.8,10,23.8,10,23.7,10C23.8,10,23.7,10,23.7,10c-0.1,0-0.2,0-0.3,0C23.5,10,23.6,10,23.7,10z
		 M23.3,33.5c-0.2,0.1-0.4,0.1-0.6,0C22.9,33.5,23.1,33.5,23.3,33.5z M21.8,79.8C21.8,79.7,21.8,79.7,21.8,79.8
		c0-0.1,0.1-0.2,0.1-0.3C21.9,79.6,21.9,79.7,21.8,79.8z M22,81.6c0.1,0,0.2,0,0.2,0v0.1C22.1,81.6,22.1,81.6,22,81.6
		C22,81.6,22,81.6,22,81.6z M22.9,82.4c0,0.2,0,0.3,0,0.4c0,0,0,0,0,0c0-0.1,0-0.2-0.1-0.2c-0.2-0.2-0.4-0.2-0.6-0.2c0,0,0,0,0,0
		C22.4,82.4,22.7,82.4,22.9,82.4C22.9,82.3,22.9,82.4,22.9,82.4z M23.2,79.5c0,0,0-0.1,0.1-0.1C23.3,79.4,23.3,79.5,23.2,79.5
		C23.3,79.5,23.3,79.5,23.2,79.5z M23.2,40.3C23.2,40.3,23.2,40.3,23.2,40.3c-0.4-0.5-1-0.7-1.5-1c-0.3-0.2-0.6-0.4-0.8-0.6
		c0,0,0,0,0,0c0.3,0.2,0.6,0.4,0.9,0.5c0.4,0.5,0.9,0.7,1.5,0.8c0.3,0.3,0.4,0.6,0.6,0.9C23.7,40.6,23.5,40.4,23.2,40.3z M23.9,72.6
		C23.9,72.6,23.8,72.6,23.9,72.6c0,0,0-0.1,0.1-0.1c0,0,0,0,0,0c0,0,0,0.1,0.1,0.1C24,72.6,24,72.6,23.9,72.6z M27.3,25.5
		C27.3,25.6,27.3,25.6,27.3,25.5c-0.1,0.1-0.2,0.1-0.4,0.1C27.1,25.6,27.2,25.6,27.3,25.5z M25.6,16.2c-0.3,0.1-0.6,0.1-0.9-0.2
		C24.9,16.2,25.3,16.3,25.6,16.2z M24.8,46C24.8,46,24.8,46,24.8,46c0.1-0.2,0.2-0.4,0.3-0.6c0,0,0,0,0,0C25,45.6,24.9,45.8,24.8,46
		z M25,43.2c-0.3-0.2-0.5-0.4-0.7-0.7c0-0.3-0.1-0.6-0.1-0.9c0.2,0.4,0.3,0.9,0.6,1.3c0.1,0.1,0.2,0.2,0.3,0.3
		c0,0.1,0.1,0.2,0.1,0.3C25.1,43.4,25.1,43.3,25,43.2z M24.5,25.1c0.4,0.3,0.7,0.4,1.2,0.5C25.2,25.6,24.8,25.4,24.5,25.1z M25.9,76
		c0,0,0,0.1-0.1,0.1c0,0-0.1,0-0.1,0C25.8,76.1,25.9,76,25.9,76c0.6-0.2,1.3-0.2,1.9-0.5c0,0,0.1-0.1,0.1-0.1c0,0,0.1,0,0.1,0.1
		C27.5,76,26.7,76.1,25.9,76z M28.3,70.9c0.1,0,0.1-0.1,0.2-0.1c0,0,0,0.1,0,0.1C28.4,70.9,28.4,70.9,28.3,70.9z M26.7,37.3
		c0.4-0.8,0.6-1.2,1.7-0.8c0.1,0,0.2,0.1,0.3,0.1C28,36.6,27.3,36.8,26.7,37.3z M30.8,35.5c0-0.1,0-0.1,0-0.2h0.2c0,0,0,0,0.1,0
		C31,35.3,30.9,35.4,30.8,35.5z M32.1,16.4c0.1,0,0.2,0.1,0.3,0.1C32.3,16.5,32.2,16.5,32.1,16.4z M37.5,12.6
		c0.1-0.2,0.2-0.3,0.2-0.4c0.1,0.1,0.2,0.2,0.2,0.3L37.5,12.6C37.5,12.6,37.5,12.6,37.5,12.6z M37.7,33.4c0.2-0.2,0.5-0.2,0.7-0.1
		C38.2,33.2,38,33.2,37.7,33.4z M39,14.7C39,14.7,39,14.7,39,14.7C39,14.7,39,14.7,39,14.7C39,14.7,39,14.7,39,14.7
		C39,14.7,39,14.7,39,14.7z M39.8,11.4C39.8,11.4,39.8,11.3,39.8,11.4c0.1-0.1,0.2-0.1,0.3-0.1C40,11.3,39.9,11.3,39.8,11.4z
		 M40.8,35.6c0.3,0.2,0.4,0.4,0.4,0.7C41.1,36.1,40.9,35.8,40.8,35.6z M47.6,44.1c0,0,0.1,0,0.1,0c-0.3,0.3-0.6,0.5-0.9,0.8
		C47,44.5,47.3,44.2,47.6,44.1z M49,47.3c-1.4,0.5-2.8,1.2-4.2,1.7c-0.7,0.2-1.1,0.2-1.5,0.1c0.1,0,0.2,0,0.4,0
		c2.1,0,3.4-1.8,5.4-1.9C49.1,47.2,49.1,47.3,49,47.3z M49.5,57.3c0,0.1,0,0.1-0.1,0.1C49.5,57.4,49.5,57.3,49.5,57.3
		C49.5,57.2,49.5,57.3,49.5,57.3z M55.7,39c0.1-0.1,0.2-0.2,0.3-0.3c-0.1,0.1-0.2,0.2-0.3,0.4c0,0,0,0,0,0c0,0-0.1,0-0.1,0
		C55.6,39.1,55.7,39.1,55.7,39z M54.4,50.7c0.3-0.1,0.6-0.3,0.9-0.4c0,0,0,0,0,0c0,0,0,0,0,0.1C55,50.5,54.7,50.6,54.4,50.7z
		 M55.5,42.6c0.2-0.2,0.4-0.5,0.6-0.8C55.9,42.1,55.8,42.3,55.5,42.6z M56.5,26.6c0.1,0,0.3,0,0.4,0.1
		C56.8,26.6,56.7,26.6,56.5,26.6z M59.6,14.6C59.6,14.6,59.6,14.6,59.6,14.6c0-0.2-0.1-0.3-0.1-0.4c0,0,0.1,0.1,0.1,0.1
		C59.6,14.4,59.6,14.5,59.6,14.6z M59.7,40c0.1-0.3,0.2-0.7,0.3-0.9C60.1,39.5,60,39.8,59.7,40z M59.9,15.1c0.2,0,0.4-0.1,0.6-0.1
		c0,0,0-0.1,0-0.1c0.1,0.1,0.1,0.1,0.2,0.2C60.4,15.1,60.1,15.1,59.9,15.1z M72.3,40.9c-0.1,0-0.1-0.1-0.2-0.1c0-0.1,0-0.1,0-0.2
		C72.1,40.7,72.2,40.7,72.3,40.9c0-0.1,0.1-0.2,0.2-0.2C72.5,40.8,72.4,40.8,72.3,40.9z M73.8,20.3c0,0-0.1,0-0.1,0.1
		c0-0.1,0.1-0.2,0-0.4c0,0,0.1,0,0.1,0C73.8,20.1,73.8,20.2,73.8,20.3z M75.6,41.3C75.6,41.3,75.5,41.3,75.6,41.3
		C75.6,41.3,75.6,41.3,75.6,41.3C75.6,41.3,75.6,41.3,75.6,41.3z M81,20.2C81,20.2,81,20.2,81,20.2C81,20.3,81,20.3,81,20.2
		C81,20.2,81,20.2,81,20.2C81,20.2,81,20.2,81,20.2C81,20.2,81,20.2,81,20.2z M81.4,24.8c0,0-0.1,0-0.1,0c0,0-0.1,0-0.1,0
		c0,0,0,0,0,0c0,0,0.1,0,0.1,0c0.1-0.1,0.2-0.2,0.2-0.2C81.5,24.6,81.5,24.7,81.4,24.8z M83.1,35.4c0,0,0-0.1,0-0.1
		C83.1,35.3,83.1,35.3,83.1,35.4C83.1,35.4,83.1,35.4,83.1,35.4z M83.5,17.3c0-0.1,0.1-0.3,0.4-0.3C83.7,17.1,83.6,17.2,83.5,17.3z
		 M92.9,25.8c-0.2-0.1-0.4-0.1-0.5-0.3c0.1,0.1,0.2,0.1,0.3,0.2c0.1,0,0.2,0.1,0.3,0.2c0,0,0,0,0,0C93,25.8,93,25.8,92.9,25.8z"/>
</g>
</svg>
