<?xml version="1.0" encoding="utf-8"?>
<!-- Generator: Adobe Illustrator 27.9.0, SVG Export Plug-In . SVG Version: 6.00 Build 0)  -->
<svg version="1.1" id="_레이어_1" xmlns="http://www.w3.org/2000/svg" xmlns:xlink="http://www.w3.org/1999/xlink" x="0px"
	 y="0px" viewBox="0 0 121 153.1" style="enable-background:new 0 0 121 153.1;" xml:space="preserve">
<style type="text/css">
	.st0{fill:#E5B6B1;}
	.st1{fill:#CBCECE;}
	.st2{fill:#CACDCD;}
	.st3{fill:#DDB6B1;}
	.st4{fill:#A1A6A6;}
	.st5{fill:#A2A7A7;}
	.st6{fill:#9EA3A3;}
	.st7{fill:#A0A6A6;}
	.st8{fill:#AAAEAE;}
	.st9{fill:#EB8C82;}
	.st10{fill:#E7867B;}
	.st11{fill:#EC9187;}
	.st12{fill:#A79E9D;}
	.st13{fill:#EB9087;}
	.st14{fill:#EC948B;}
	.st15{fill:#C4C7C7;}
	.st16{fill:#AA7C76;}
	.st17{fill:#D38E86;}
	.st18{fill:#EB8E85;}
	.st19{fill:#929898;}
	.st20{fill:#989E9F;}
	.st21{fill:#8D9292;}
	.st22{fill:#899091;}
	.st23{fill:#EA877D;}
	.st24{fill:#E98479;}
	.st25{fill:#EB8F85;}
	.st26{fill:#EC958C;}
	.st27{fill:#F2B5AF;}
	.st28{fill:#EC938B;}
	.st29{fill:#8B9293;}
	.st30{fill:#9A8A88;}
	.st31{fill:#A59D9C;}
	.st32{fill:#EA897E;}
	.st33{fill:#EA8B81;}
	.st34{fill:#E35E50;}
	.st35{fill:#937E7C;}
	.st36{fill:#C16D65;}
	.st37{fill:#EC9189;}
	.st38{fill:#95736F;}
	.st39{fill:#936A66;}
	.st40{fill:#E8857B;}
	.st41{fill:#BA8781;}
	.st42{fill:#C37A72;}
	.st43{fill:#E45E4F;}
	.st44{fill:#E56557;}
	.st45{fill:#EC948C;}
	.st46{fill:#EA887E;}
	.st47{fill:#E35D4F;}
	.st48{fill:#E35D4E;}
	.st49{fill:#AD7E79;}
	.st50{fill:#A17E7A;}
	.st51{fill:#8C807F;}
	.st52{fill:#D75649;}
	.st53{fill:#E9847A;}
	.st54{fill:#EA8A80;}
	.st55{fill:#7D7574;}
	.st56{fill:#E56457;}
	.st57{fill:#E46051;}
	.st58{fill:#E7776C;}
	.st59{fill:#A2554E;}
	.st60{fill:#B14F45;}
	.st61{fill:#C75548;}
	.st62{fill:#9D5D56;}
	.st63{fill:#EEA099;}
	.st64{fill:#816D6B;}
	.st65{fill:#776866;}
	.st66{fill:#97625D;}
	.st67{fill:#8C5C57;}
	.st68{fill:#CC6960;}
	.st69{fill:#D5655A;}
	.st70{fill:#E36457;}
	.st71{fill:#B4746D;}
	.st72{fill:#E35D4D;}
	.st73{fill:#E45F51;}
	.st74{fill:#776E6D;}
	.st75{fill:#807573;}
	.st76{fill:#976F6B;}
	.st77{fill:#BA7E79;}
	.st78{fill:#D6402F;}
	.st79{fill:#D14637;}
	.st80{fill:#985750;}
	.st81{fill:#AA5249;}
	.st82{fill:#BF4739;}
	.st83{fill:#B5473C;}
	.st84{fill:#B74C40;}
	.st85{fill:#77605E;}
	.st86{fill:#C04F43;}
	.st87{fill:#B15A51;}
	.st88{fill:#D85143;}
	.st89{fill:#C84234;}
	.st90{fill:#D44636;}
	.st91{fill:#C04A3D;}
	.st92{fill:#677071;}
	.st93{fill:#515D5E;}
	.st94{fill:#E14D3C;}
</style>
<path class="st0" d="M9.8,52.9c-0.4-0.6-0.4-1.3-0.4-2c0-3.6,0.2-7.3-0.1-10.8c-0.3-3.2,0.1-6.5-1.2-9.6c-0.7-1.5-0.4-3.4-0.5-5.1
	c-0.1-0.8-0.2-1.6-0.3-2.4c0.4-0.3,0.8-0.3,1.1,0c0.6,1.8,0.7,3.6,1,5.4c0.2,1.4,0.4,2.8,0.8,4.1c0.2,1.8,0,3.7,0.5,5.6
	c0.1,3.9-0.2,7.7,0.4,11.6c0.1,1,0.2,2.1-0.3,3.1C10.5,53.1,10.2,53.1,9.8,52.9L9.8,52.9z"/>
<path class="st1" d="M15.4,132.6c0.9,0.5,1.3,1,0.7,2.1c-0.8,1.5-0.2,3.4,1.4,3.9c0.9,0.3,0.7,0.9,0.6,1.4c-0.2,1.7,0.5,2.8,1.7,4.1
	c2.6,2.8,5.5,1.7,8.4,1.6c0.1-0.1,0.3-0.1,0.4,0c-2.1,1.9-5.2,1.8-7,0.8c-1.9-1-4.3-2.7-5.1-4.9c-1-2.4-2.1-5.1-0.8-7.8
	C15.8,133.5,15.5,133,15.4,132.6L15.4,132.6z"/>
<path class="st2" d="M35.6,119.9c0.1,0,0.2,0,0.4,0c-0.7,4.6,0.6,9,1.5,13.4c0.2,1.1-0.3,2.2-0.5,3.2c-0.4,1.6-1,3.3-2.2,4.7
	c-0.4-0.3-0.4-0.7-0.5-1.1c0-0.7,0.1-1.4,0.5-2c1-1,1.8-2,1.1-3.5c-0.1-0.3-0.1-0.6-0.1-0.9c-0.1-1.1,0.1-2.2-0.3-3.3
	c-0.2-1.4-0.3-2.8-0.7-4.2C34.4,124.2,34.5,121.9,35.6,119.9L35.6,119.9z"/>
<path class="st3" d="M14.8,85c0.2-0.4,0.4-0.7,0.6-1.1c0.3,0,0.5,0.2,0.7,0.4c0.3,0.3,0.4,0.6,0.5,1c0.2,0.9,0.7,1.9-0.1,2.8
	c-0.5-0.1-1-0.2-1.4-0.4C15,86.8,14.9,85.9,14.8,85z"/>
<path class="st4" d="M16.5,95.9c-0.3-1.7,1-3,0.8-4.7c-0.1-1-0.1-2.1-0.4-3.1c0.4-0.2,0.8,0,1.2,0.1c0.7,0.2,1.6,0,1.8,0.9
	c0.2,0.8-0.9,0.9-1.1,1.5c-0.3,2.2-1.4,4.2-1.1,6.5c0,1.7,0.1,3.5-0.6,5.1c-0.4,1,0.2,2.1,0.2,3.1c0.1,3.1-0.6,6.3,0.6,9.4
	c0,0.1,0.1,0.3,0,0.4c-1.2,1.5-0.7,3.1-0.4,4.7c0.1,0.5-0.1,1-0.4,1.4c-0.9,1.2-0.8,2.5-0.5,3.8c0.2,1.4,0.4,2.8-0.1,4.2
	c-0.2,0.6-0.2,1.3,0.3,1.7c1,0.9,1.2,2.1,1.3,3.4c0.1,1.5,1.4,2.3,2.1,3.4c0.5,0.7,1.1,1.4,0.3,2.3c-0.3,0.3-0.6,0.5-1.1,0.5
	c-0.2-0.1-0.2-0.3-0.1-0.5c0.4-0.6,0.2-1.1-0.3-1.6c-0.7-0.6-1.3-1.3-2-2c-0.3-0.3-0.9-0.7-0.6-1.1c1-1.6,0-2.6-0.8-3.7
	c-0.3-0.5-0.5-1.2-0.4-1.8c0.6-3.4,0.1-6.8,0.2-10.1c0.1-3.3,0.6-6.5,0.5-9.9c-0.1-2.3,0-4.7-0.3-7.1c-0.1-0.6,0.1-1.1,0.4-1.6
	C17.3,99.6,17.1,97.7,16.5,95.9L16.5,95.9z"/>
<path class="st5" d="M19.5,140.1c0,0.1,0,0.3,0,0.4c0.9,2.2,5.1,4.1,7.7,3.5c0.2,0,0.4-0.1,0.5-0.1c3.6-0.1,4.9-2.4,5.2-5.6
	c0.2-0.7,0.4-1.5,0.9-2c0.6-0.7,0.6-1.5,0.4-2.3c-0.9-3.3-0.4-6.7-0.6-10.1c0-0.8-0.2-1.7,0.7-2.2c0.2,0,0.4,0,0.6,0.1
	c0.2,4.5,0.6,8.9,1.3,13.4c0,0.3,0,0.7-0.2,0.9c-2,2-1.5,5.1-3.4,7.1c-3.1,2.1-6.7,2.4-10.2,1.8c-1.4-0.2-2.6-1.6-3.4-2.9
	C18.6,141.3,18.7,140.5,19.5,140.1L19.5,140.1z"/>
<path class="st6" d="M34.5,93.7c0.4,0.3,0.3,0.7,0.4,1.1c0.5,1.9-0.2,3.8,0,5.7c0.1,0.7,0,1.4,0.1,2.1c0.1,0.4,0.2,0.8-0.1,1.3
	c-1.3-0.2-1.2-1.3-1.2-2.2c-0.1-1.7,0-3.5,0-5.2c0-0.9,0-1.7-0.4-2.6c-0.3-0.6-0.4-1.4,0.1-2c0.8-1,0.6-2,0.1-3
	c-0.6-1.2-0.5-2.5-0.9-3.8c-0.1-1.1-0.1-2.1-0.3-3.1c-0.1-0.8-0.1-1.7-0.1-2.6c0.1-0.6,0-1.3,0.8-1.6c0.9,1.9,2.3,3.7,1.2,6.2
	c-0.5,1-0.3,2.4,0,3.6c0.3,1.3,1.7,2.5,0.7,4.1C34.5,92.4,33.8,92.9,34.5,93.7L34.5,93.7z"/>
<path class="st7" d="M35.6,119.9c-0.7,0.4,0,1.4-0.7,1.9c-0.1,0-0.3,0-0.4,0c0-2.4-0.8-4.7-0.5-7.1c0.1-0.5,0.1-1,0.7-1.3
	c0.2-0.1,0.4,0,0.6,0.1c0.2,0.4,0.2,0.8,0,1.2C35,116.4,35.8,118.1,35.6,119.9L35.6,119.9z"/>
<path class="st8" d="M34.9,102.7c-0.8-1.7-0.4-3.5-0.2-5.3c0.1-0.8,0.2-1.7,0.2-2.6c0.7,0.8,0.2,1.8,0.4,2.6c-0.4,1.6-0.1,3.3-0.2,5
	C35,102.5,34.9,102.6,34.9,102.7z"/>
<path class="st8" d="M34.5,107.5c-0.3,0.2-0.3,0.4-0.4,0.8c-0.6,0.1-0.7-0.4-0.7-0.8c0.2-1.3,0.3-2.7,1.4-3.7c0-0.4,0-0.8,0-1.1l0,0
	c0.1-0.2,0.2-0.2,0.4,0C35.5,104.4,34.7,105.9,34.5,107.5L34.5,107.5z"/>
<path class="st8" d="M34.5,93.7c-1.5-0.9-0.2-1.3,0.4-1.9C34.7,92.4,34.6,93.1,34.5,93.7z"/>
<path class="st9" d="M7.6,19.2c0.2-2,0.6-4-1.4-5.5c-0.6-0.4,0-0.7,0.4-0.9c1.2-0.7,1.4-1.5,0.2-2.5C6.1,9.8,6.1,9.3,6.6,8.6
	c0.6-0.7,1-1.4,1.5-2.1c0.1-0.2,0.3-0.4,0.4-0.4c2.7,0.6,4.9-2,7.7-1.3c0.3,0.1,0.5,0.3,0.8,0.5c-0.2,0.2-0.4,0.3-0.7,0.4
	c-0.2,0-0.4,0.1-0.5,0.1c-1.3,0-2.5,0.5-3.5,1.3c-0.3,0.2-0.6,0.4-0.9,0.5C10.6,7.9,9.7,7.3,9,7.8c-0.4,0.8-0.6,1.6,0,2.4
	c0.1,0.2,0.3,0.5,0.2,0.7c-0.6,2.1,0.6,4.2,0.1,6.3c-0.4,0.8-0.7,1.7-0.1,2.5c1.1,2.7,0.4,5.7,0.8,8.5c-0.1,0.8-0.3,1.7,0,2.5
	c0.1,0.3,0.1,0.6,0.1,0.9c0,0.3-0.1,0.6-0.4,0.8c-0.6-1.2-0.8-2.4-0.9-3.8c-0.1-1.8-0.8-3.7-0.6-5.6C8.2,21.7,8.7,20.3,7.6,19.2
	L7.6,19.2z"/>
<path class="st10" d="M9.8,32.3c0-0.3,0-0.5,0-0.8c0.2-0.1,0.5,0,0.6,0.2c1.1,2.3,1.2,4.8,1.3,7.3c0.2,8.9,1.2,17.8,0.8,26.8
	c0,1.3,0,2.7,0.2,4.1c0.2,1,0.2,2-0.5,2.8c-0.2,0.2-0.4,0.2-0.6,0.1c0-1.6,0-3.2,0-4.8c0-2.1-0.3-4.2-0.3-6.4c0.1-3,0-6-0.4-9
	c-0.4-2.5-0.4-5-0.6-7.6c-0.1-2.3,0.3-4.7-0.2-7C9.6,36.1,9.9,34.2,9.8,32.3L9.8,32.3z"/>
<path class="st11" d="M10.2,37.9c0.5,0.4,0.4,1,0.4,1.6c-0.2,4,0,8,0.5,11.9c0.4,2.9,0.3,5.7,0.6,8.6c0.2,2.6,0,5.3,0,7.9
	c-0.4-2-0.9-4-0.5-6.2c0.2-1.1,0.5-2.2-0.2-3.2c-0.3-1.9,0.5-3.8-0.4-5.6C10.4,47.9,10,42.9,10.2,37.9L10.2,37.9z"/>
<path class="st12" d="M18.4,90.3c0.1-0.7,1-0.6,1.4-1.3c-1-0.4-2.1-0.1-2.9-1c-0.1,0-0.3,0-0.4,0c-0.1-1-0.2-2-0.3-2.9
	c1.2-0.1,1.3,1.5,2.4,1.4c0.3,0.1,0.5,0.2,0.8,0.3c0.3,0.2,0.6,0.5,0.8,0.8c0.5,0.7,1,1.4,0.4,2.1C20.1,90.4,19.4,90.8,18.4,90.3z"
	/>
<path class="st13" d="M101.4,30.8c-0.8,0-1.4,0.1-1.5,1.1c-0.9,1.6-2.6,1.6-4.1,1.8c-1.5,0.1-2.9,0.5-4.2,1.2
	c-0.2,0.1-0.4,0-0.4-0.2c0.1-1.7,1.4-2.4,2.7-2.7c2.5-0.6,3-2.6,3.6-4.5c0.2-0.7,0.1-1.5,0.6-2.1c0.4-0.6,0.8-1.3,1.7-1.1
	c1,0.2,0.8,1.1,1,1.8c0.2,1.3,0.7,2.6-0.6,3.6c0.8,0.2,1.7-0.4,1.9,0.7C101.9,30.5,101.7,30.7,101.4,30.8z"/>
<path class="st14" d="M107.4,24.1c0,0.2,0,0.4,0,0.5c0.8,2.1,0.4,3.2-1.5,4.3l0,0c-0.6,0.4-1.5,0.3-1.9,1.1
	c-0.2,0.1-0.5,0.2-0.7,0.4c-0.6-0.7-1.2-1.4-0.9-2.4c0.3-0.5,0.9-0.7,1.4-1c1.2-0.7,1.5-1.6,0.6-2.7c0.4-0.9,1.2-0.8,1.6-0.3
	C106.6,24.6,107,24,107.4,24.1L107.4,24.1z"/>
<path class="st13" d="M102.9,30.4c-0.4-1.2-1.3-2.1-1.2-3.5c0.1-1.2,0.4-2,1.6-2.4c-0.1-0.8,0.4-1.1,0.9-1.1c1.4,0,2.6-0.5,4-0.6
	c0.2,0.1,0.3,0.2,0.4,0.4c0,0.6-0.7,0.3-0.8,0.6c-0.1,0.1-0.2,0.2-0.4,0.4c-0.5,0.3-0.3,0.9-0.7,1.4c-0.6-0.7-0.9-2.2-2.3-1.1
	c-0.2,0.8-0.9,1.1-1.5,1.6c-0.5,0.4-0.3,1-0.4,1.5c0,0.1,0,0.2,0,0.2c-0.2,1,1,1.6,0.8,2.6C103.2,30.4,103.1,30.4,102.9,30.4
	L102.9,30.4z"/>
<path class="st10" d="M15.8,84.3c-0.1-0.1-0.3-0.3-0.4-0.4c-0.5-1.7-2-2.8-2.6-4.5c-1.6-2-0.6-4.2-0.8-6.4c1.4,0.3,1.2,1.5,1.2,2.5
	c0.1,1.3,0.1,2.6,0.7,3.7c0.2,1.1,1.1,1.9,1.7,2.7c0.4,0.7,0.7,1.3,0.3,2.1C15.9,84.2,15.9,84.3,15.8,84.3z"/>
<g>
	<polygon class="st15" points="34.9,140.1 34.9,140.1 34.9,140.1 	"/>
	<path class="st15" d="M36.4,134.9C36.4,134.9,36.4,134.9,36.4,134.9c0-0.3,0-0.6,0-0.8c0,0,0,0,0,0c0,0,0,0,0,0
		c-0.2-1.1,0.4-2.3-0.4-3.4c0,0,0,0,0,0c0,0,0,0,0,0c0-3.6-1.3-7.2-0.4-10.8c0,0,0.1,0.1,0.1,0.1c0.1,0,0.2-0.1,0.3-0.1
		c1-1,1.5-2.1,0.4-3.4c-0.5-0.6-0.5-1.4-0.4-2.2c0.4-3.4-0.4-6.8-0.3-10.3c0.1-3.4,0.8-7,0-10.5c-0.2-0.6-0.1-1.3,0.1-1.8
		c0.4-1.1,0.2-2.2-0.3-3.1c-0.9-1.9-0.8-3.7-0.1-5.6c0.5-1.2,0.3-2.4-0.5-3.3c-0.9-1-0.8-1.9-0.3-2.9v0c-0.2-0.1-0.4-0.2-0.6-0.1
		c0,0,0,0-0.1,0.1c-0.1,0-0.1,0-0.2,0c-0.2-0.1-0.3,0-0.5,0C33,77.2,32.7,77.5,33,78c0.1,0.3,0.2,0.5,0.3,0.7
		c0.1,0.4,0.2,0.8,0.4,1.2c0.3,0.9,0.5,1.8,0.5,2.8c0,0,0,0,0,0.1c-0.4,0.9-0.5,1.8-0.5,2.7c-0.1,0.4-0.1,0.7,0,1.1
		c0,0.3,0,0.6,0,0.9c0.2,1.4,1.6,2.6,0.8,4.2c-0.2,0.6-0.4,1.3-0.2,1.9c0.1,0.5,0.2,0.9,0.4,1.4c0.3,0.9,0.1,1.8,0.1,2.7
		c0,1.6,0,3.2,0,4.8c0.3,1.7-0.6,3.3-0.7,5c0,0,0,0.1,0,0.1c-0.2,0.1-0.3,0.4-0.3,0.7c0.4,1.7,0.5,3.4,1.4,5c0,0.4-0.1,0.9-0.2,1.4
		c-0.4,1.7,0.1,3.3,0.4,4.9c0.1,0.1,0.2,0.2,0.3,0.3c-1.1,0.3-0.7,1.1-0.7,1.9c0.1,3.4,0.2,6.7,0.4,10.1c0.1,2,1.3,4.1-1,5.7
		c0,0-0.1,0.1-0.1,0.2c0,1.9-0.9,3.5-1.6,5.2c0,0-0.1,0-0.1,0c-1.5,0.6-3,1.2-4.6,1.5c-2.8,0.5-5.5,0.6-7.7-1.6
		c-0.9-0.9-1.2-1.7-0.3-2.7c0.6-1.5-0.7-2.1-1.4-2.9c-0.8-0.9-1.8-1.6-1.1-3c0.2-0.5-0.1-1.1-0.5-1.5c-1-1.1-1.2-2.4-0.8-3.8
		c0.2-0.8,0.2-1.7-0.1-2.6c-0.3-1.1-0.3-2.2-0.1-3.4c0.5-3.5,0.5-7,0.6-10.5c0.1-3,0.8-6-0.2-9c-0.2-0.7,0.1-1.3,0.5-2
		c0.8-1.4,0.7-2.9,0.5-4.4c0-0.4,0-1.2-0.8-0.9c0,0,0-0.1,0-0.1h0c1.2-2.5,1.8-5,0.7-7.7c-0.1-0.2-0.3-0.3-0.5-0.4
		c-0.6-0.2-1.1-0.6-1.7-0.1c0.3,0.7,0.3,1.4,1,2c0.7,0.6,0.8,1.7,0.4,2.2c-1.4,1.8-0.7,3.8-0.6,5.7c0,0.8,0.1,1.6-0.2,2.4
		c-1,2-0.6,4-0.4,6.1c0,0.7,0,1.4,0,2.2c-0.1,2.7-0.1,5.5-0.1,8.2c0,0,0,0.1,0,0.1c-0.4,0.5,0,1,0,1.5l0,0c0,0,0,0,0,0c0,0,0,0,0,0
		c0,1.1,0,2.2,0,3.4c0,0,0,0,0-0.1c0,0,0,0,0,0.1c0,0.5,0,1,0,1.5c0,0,0,0,0,0.1c0,0,0,0,0-0.1c-0.5,1-0.6,2,0,3.1c0,0,0,0,0,0
		c0,0,0,0,0,0.1c0.2,2.2-1.2,4.6,0.4,6.7c0.6,0.6,0.8,1.3,0.3,2.2c-0.6,1.1-0.2,3.3,0.9,4c0.9,0.6,1.1,1.3,1,2.2
		c-0.1,1.1,0.2,2.1,1.2,2.7c0.8,0.5,1.5,1.1,1.9,2c0.2,0.4,0.6,0.8,1,0.8c2.1-0.4,4.3,0.7,6.4-0.5c0.1-0.1,0.2-0.1,0.2-0.1
		c0.1,0,0.1,0,0.2,0c2.3,0,4.2-0.6,5.2-3c0.2-0.5,0.7-1,1.1-1.5c0-0.4,0-0.8,0-1.2c0,0,0,0,0,0c0,0,0,0,0,0c0-0.7,0-1.3,0.4-1.9
		c0,0,0,0,0,0c0,0,0,0,0,0C36.5,137.4,37.3,136.4,36.4,134.9C36.4,134.9,36.4,134.9,36.4,134.9z M33,143C33,143,33,143,33,143
		C33,143,33,143,33,143C33,143,33,143,33,143z"/>
</g>
<path class="st16" d="M18.4,86.9c-1.3,0.1-1.3-1.4-2.2-1.8c-0.1-0.3-0.3-0.5-0.4-0.8l0.1,0c0.9-0.6,1.9,0.3,2.8-0.2
	c0.2,0,0.3,0,0.5,0.1c0.4,0.2,0.6,0.5,0.8,0.9C20,86.2,19.1,86.5,18.4,86.9z"/>
<path class="st17" d="M34.9,74.6c0,0.1,0,0.3,0,0.4c-0.4,0.6-0.8,1.2-1.1,1.8c-0.1,0-0.3,0.1-0.4,0.1c-0.1,0-0.2-0.1-0.2-0.1
	c-1.1-0.7-1.6-2-2.6-2.8c-0.2-0.3-0.4-0.6-0.2-1c0.1-0.1,0.3-0.2,0.5-0.2c1.4-0.1,2.2,1.5,3.6,1.5C34.6,74.3,34.8,74.4,34.9,74.6
	L34.9,74.6z"/>
<path class="st18" d="M90.2,14.7c-0.7-0.7-1.7-0.5-2.4-0.3c-2.1,0.6-4.2,0.8-6.4,0.4c-1-0.2-1.1,1.2-2,1c0-0.1,0-0.2,0-0.4l0,0
	c1.1-2.4,3.5-1.3,5-1.2c1.9,0.1,3.6-0.9,5.4-0.3c0.7,0.2,1.5,0,1.9,0.8c0.1,0.1,0.2,0.2,0.3,0.2c1.8,1,7.3-0.1,8.7-1.8
	c0.5-0.3,1-0.3,1.5,0c0.7,0.4,1.5,0.7,2.1,1.4c1.3,1.8,1.3,1.7,2.9,0.4c0.2-0.1,0.5-0.1,0.7-0.3c0.1,0,0.2,0,0.4,0
	c0.9-0.5,1.8-0.2,2.7,0.1c0.1,0.5-0.3,0.7-0.7,0.7c-1.2,0-1.9,0.5-2.4,1.7c-0.2,0.6-0.9,1-1.5,0.9c-2-0.6-2.8,0.7-3.6,2.2
	c-0.5,0.9-1,1.8-2.3,1.4c-0.8-0.3-1.2-0.9-1.3-1.7c-0.1-0.9-0.7-1.4-1.1-2.1c-1.3-2-3.2-1.8-5.1-1.4c-0.2,0-0.3,0-0.5,0
	c-0.2,0-0.3-0.1-0.4-0.2c-0.3-0.3-0.8-0.6-1.2-0.8c-0.1-0.1-0.3-0.2-0.4-0.3C90.3,15,90.3,14.9,90.2,14.7L90.2,14.7z"/>
<path class="st14" d="M108.6,23.3c0-0.1,0-0.2,0-0.4c0.8-1.5,1.1-3.5,3.5-3.6c0.5,0,0.7-0.5,0.5-1c-0.1-0.6-0.4-1.2,0-1.8
	c0.2-0.1,0.3-0.1,0.5,0c0.2,0.6,0.5,1.2,0.8,1.9c0.2,0.3,0.3,0.8,0.1,1c-1.4,1.1-0.3,1.9,0.3,2.7c0,0.2,0,0.5,0,0.8
	c-0.4,0.2-0.8,0.5-1.1,0.8C111.5,24.3,110.1,23.1,108.6,23.3L108.6,23.3z"/>
<path class="st19" d="M20.3,140.1c0.6-0.7,0.6-1.1-0.1-1.9c-1.4-1.4-3-2.8-2.5-5.2c0-0.2,0-0.4-0.1-0.5c-3.1-3-0.1-6.7-1.4-10
	c-0.1-0.2,0.1-0.8,0.4-1c1.1-1.1,0.8-2.2,0.2-3.4c-0.2-0.5-0.9-1.2-0.3-1.5c1.9-0.9,0.8-2.1,0.6-3.4c-0.2-1.8,0-3.6-0.2-5.4
	c-0.4-3.7,0.4-7.2,0.4-10.8c0.2-0.1,0.4-0.1,0.5,0.1c0.1,0.2,0.2,0.4,0.2,0.6c0.2,1.8,0,3.6-0.3,5.3c-0.1,0.7-0.1,1.4,0.1,2
	c0.1,0.5,0.1,1,0,1.5c-0.2,0.8-0.3,1.6-0.1,2.4c0,0.2,0.1,0.4,0,0.6c-0.3,1.6-0.4,3.1,0.5,4.5c0.2,0.4,0.5,1,0.3,1.4
	c-0.5,1.9-0.3,3.8-0.4,5.7c-0.1,0.3-0.2,0.5-0.4,0.8c-0.5,0.5-0.8,1.2-0.6,1.7c0.7,2.1,0.3,4.2,0.9,6.3c0.8,2.9,1.7,5.7,3.3,8.2
	c0.5,0.7,0.3,1.6-0.3,2.2c-0.2,0.2-0.5,0.2-0.8,0.1C20.1,140.4,20.1,140.3,20.3,140.1L20.3,140.1z"/>
<path class="st20" d="M20.3,140.1v0.4c0.2,0.4,0.4,0.9,0.9,1.1c2.4,1.1,4.8,2.2,7.6,1.6c1.6-0.4,2.5-1.1,3-2.6
	c0.3-0.8,0.2-2,1.6-1.9c-0.4,0.9-0.2,1.9-0.8,2.8c-1.6,2.7-6,3.9-9.4,2.5c-1-0.4-2-1-3-1.5c-0.8-0.4-1.2-1.1-0.6-2
	C19.8,140.3,20.1,140.2,20.3,140.1L20.3,140.1z"/>
<path class="st21" d="M17.7,97.1c-0.1,0-0.2,0-0.4,0c-0.3-2.3,0.9-4.5,1.1-6.7c2.7-0.8,2.7-0.8,0.8-3.3c0.6-0.5,1.1-0.2,1.6,0.1
	c1.6,1.8,1.5,2.1-0.1,3.7c-1.3,1.4-1.9,3.2-2.6,4.9C18,96.1,18.1,96.7,17.7,97.1L17.7,97.1z"/>
<path class="st22" d="M33.4,138.6c-0.5,0.2-0.6,0.7-0.8,1.2c-1.2,3.4-4,4.9-7.5,3.9c-1.6-0.4-3.2-1-4.4-2.1c0.1-0.1,0.1-0.1,0.2-0.2
	c0.9-0.3,1.8-0.1,2.5,0.4c1.5,0.9,3,0.8,4.6,0.9c1.5,0,2.5-0.6,3-2c0.5-1.2,1.2-2.3,1.5-3.6c0.7-1.7,0.8-3.5,0.4-5.3
	c-0.5-1.8,0.1-3.7-0.1-5.6c0-2-0.2-4,0.9-5.8c0.5-0.8-0.1-1.6-0.3-2.3c-0.2-1.3-0.8-2.7,1-3.4c-0.6,2.4,1.1,4.7,0,7.1
	c-0.3,0.3-0.4,0.6-0.4,1c0.2,3.7-0.3,7.4,0.7,11c0.2,0.9,0.2,1.9-0.6,2.8C33.6,137.1,33.5,137.9,33.4,138.6L33.4,138.6z"/>
<path class="st23" d="M79.4,40.9c-1.8,1.1-1.3,4-3.5,4.8c-0.3,0.1-0.7,0.5-1,0.3c-1.3-0.7-2.1,0-2.9,0.9c-0.7,0.8-1.6,0.8-2.4,0.5
	c-0.7-0.2-1.4-0.3-2.2-0.3c0-0.1-0.1-0.2-0.1-0.2c0.1-0.2,0.3-0.4,0.5-0.5l0,0c2.2-0.3,3.9-1.8,6.1-2c0.2,0,0.4-0.2,0.5-0.5
	c0.8-2.3,2.9-2.5,4.7-3.2C79.2,40.8,79.3,40.9,79.4,40.9L79.4,40.9z"/>
<path class="st24" d="M58.4,52.1c1.4-1.5,3-2.5,5.2-1.6c0.3,0.1,0.8,0.2,1-0.2c0.2-0.3-0.1-0.5-0.3-0.8c-0.2-0.4-0.9-0.6-0.2-1.2
	c0.5,0.3,0.8,0.7,1.1,1.1c0.4,0.2,0.8,0.5,0.7,1c-0.2,0.7-0.8,0.5-1.2,0.5c-1.7,0.1-3.6-0.5-5,1.1c-0.4,0.4-0.2,1.5-1.2,1.1
	C58.1,52.8,58.2,52.5,58.4,52.1L58.4,52.1z"/>
<path class="st25" d="M58.4,53.3c0.4-0.4,0.8-0.8,1.1-1.1c0.1,1.4-1.5,2.3-1.1,3.8c-0.4,0.5-0.8,1-1.1,1.5c-1.2,0.6-2.8,0.2-3.7,1.6
	c-0.5-1.6-0.1-2.3,1.4-2.5c0.8-0.1,1.7,0.2,2.3-0.7c0.4-0.7,0.2-1.4,0.5-2.1C57.9,53.4,58.1,53.2,58.4,53.3z"/>
<path class="st23" d="M80.5,40.2c-0.2,0.2-0.5,0.5-0.8,0.8c-0.1,0-0.2,0-0.4,0l0,0c-0.2-0.6,0.2-1,0.5-1.4c0.9-0.6,1.7-1.2,2.8-1.5
	c0.3,0,0.5,0,0.8,0.2c0.3,0.5-0.1,0.6-0.3,0.9l0,0C82.4,39.6,81.4,39.9,80.5,40.2L80.5,40.2z"/>
<path class="st23" d="M65.5,48c0.2-0.2,0.5-0.5,0.8-0.7c0.4-0.2,0.7-0.3,1.1,0l0,0C66.9,47.9,66.3,48,65.5,48z"/>
<path class="st23" d="M65.2,49.5c-0.5-0.2-0.9-0.6-1.1-1.1c0.2,0,0.5,0,0.7,0C64.9,48.8,65.1,49.1,65.2,49.5L65.2,49.5z"/>
<path class="st26" d="M84.6,42c-0.6-0.3-0.8-0.7-0.7-1.3c0.1-0.3,0.3-0.5,0.7-0.5c0.8,0,1.1,0.4,1.2,1.1C85.4,41.5,85,41.8,84.6,42z
	"/>
<g>
	<path class="st27" d="M118,17.6c-0.5-0.6-0.7-1.2-0.9-2c-0.2-0.7-0.5-1.5-1.2-1.8c-2.3-1-4.9-1.1-7.1-2.4c-0.1-0.1-0.4,0-0.5,0.1
		c-1.2,1.6-2.6,0.4-4,0.4c-2.3-0.1-4.9-1.1-6.9-0.3c-2.7,1-5.2,0.3-7.8,0.6c-1.1,0.1-2.4,0.5-3.6,0.1c-1.8-0.6-3.7-0.8-5.7-0.6
		C78.4,12,76.6,11.5,75,11c-1.2-0.4-2.4-0.7-3.7-0.8c-1.5-0.1-3-0.1-4.4-0.5c-4.4-1.2-8.8-1.8-13.3-0.3c-0.5,0.2-1.3,0.2-1.8-0.1
		c-1.4-0.8-2.5-0.2-3.6,0.5h0c-0.3,0-0.7,0.1-0.9-0.1c-1.8-1.3-3.7-1.3-5.8-1.3c-1.5,0-3.2,0.4-4.5-0.5c-1-0.7-2.2-1-3.2-0.6
		c-2.4,1-4.8-0.2-7-0.4c-3.5-0.4-7.1-1.1-10.4-3c-2-1.1-4.7-1.5-7,0.3C7,5.4,5.3,7.4,4,9.6c-1.4,2.3-1.3,4.9,0.6,6.7
		c1.9,1.9,3.2,3.8,2.8,6.6c0.3,0,0.7,0,1,0l0,0c0.9-1.3,0.5-2.6-0.1-3.8C8.1,18.9,8,18.8,8,18.6c0.6-1.3,0.4-2.5-0.3-3.8
		c-0.5-0.9-1.1-1.6,0-2.5c0.4-0.4,0.4-1.1,0-1.5c-0.8-1-0.7-1.8,0.1-2.8c0.7-0.8,1.2-1.7,2.5-1.2c0.5,0.2,1-0.2,1.4-0.5
		c1.6-1.2,3.3-1,5.1-0.7c0.5,0.2,0.9,0.4,1.5,0.3c0,0,0,0,0,0c0.1,0,0.1,0.1,0.2,0.1c0,0.4,0.3,0.6,0.8,0.5c0,0,0,0,0,0
		c0.2,0.1,0.5,0.3,0.7,0.4c2.2,0.7,4.7,0.3,6.8,1.7c0.2,0.2,0.6,0,0.9-0.1c0.8-0.5,1.7-0.2,2.5,0c1.9,0,3.8,0,5.6,0.3
		c0.9,0.6,1.8,0.7,2.8,0.7c0.2,0.1,0.4,0.1,0.6,0.2c2.7,0.1,5.5-0.5,8,1c0.6,0.1,1.1,0,1.5-0.4c0.1,0,0.1,0.1,0.2,0.1
		c0.7,0.3,1.4,0.3,2.1,0.4c0.2,0,0.3,0,0.5-0.1c0,0.1,0,0.1,0,0.2c0.5-0.1,1.1,0.1,1.6-0.2c0.1,0,0.1,0,0.2,0c0.3,0,0.5,0,0.8,0
		c0.3-0.1,0.5-0.2,0.8-0.3c0.9-0.1,1.9-0.2,2.8-0.3c0.8,0,1.7,0.3,2.3-0.6c0,0,0,0,0,0c0.6-0.1,1.2-0.1,1.8,0.1
		c0.2,0.1,0.3,0.1,0.5,0.2c0.4,0.1,0.8,0.4,1.2,0.7c1.3,1.1,2.6,1.2,4.7,0.5c1.8,0,3.7-0.3,5.5,0.3c0.2,0.1,0.4,0.3,0.5,0.5
		c0.2,0.5-0.1,1.1,0.2,1.6c0.7,0.4,1.3,1.3,2.1,0.3c0.4-0.5,0.9-0.8,1.3-1c0.2,0,0.5,0,0.7,0c0.8,0,1.6,0,2.5,0c0,0,0.1,0,0.1,0
		c2.2,0.4,4.3,0.4,6.5,0.3c1.2,0.1,2.4,0.1,3.6,0c1.8,0.1,3.7,0.1,5.5,0.2c1.6,0.1,3.1,0.1,4.5-0.7c0.9-0.5,1.9-0.2,2.9-0.1
		c0.7,0.1,1.3,0.4,1.9,0.6c0.1,0.1,0.3,0.2,0.4,0.2c0.3,0.2,0.7,0.4,1,0.2c0.9-0.7,1.8-0.5,2.7-0.3c0.1,0,0.2,0.1,0.3,0.1
		c0.1,0,0.2,0,0.4,0c0.7,0.4,1.4,0.5,2.1,0.6c0.2,0.1,0.4,0.3,0.6,0.4c0.4,0.2,0.9,0.4,1.4,0.5c0.1,0,0.3,0.1,0.4,0.1
		c0,0.3-0.2,0.5-0.5,0.7c-0.5,0.5-0.6,1-0.1,1.5c0.9,0.7,0.7,1.5,0.4,2.4c-0.1,0-0.1,0-0.2,0c-1.3,0.8,0,2.1-0.5,3
		c-0.2,0.7-0.4,1.3-1.2,1.6c-1,0.3-1.8,1.1-2.7,1.6c-1.5,0.8-2.5,2.2-4.2,2.7c-0.2,0-0.3,0.1-0.5,0.2c-0.5,0.3-1.1,0.6-1.7,0.8
		c-0.3,0.1-0.5,0.2-0.8,0.3c-0.2,0-0.3,0-0.4,0.1c-0.2,0-0.5,0-0.7,0.1c-0.3,0.1-0.6,0.3-0.7,0.6c0,0,0,0.1,0,0.1
		c-0.6,0.1-1,0.4-1.3,0.9c-0.5,1.3-1.4,2-2.8,2c-1.8-0.1-3.2,0.7-4.5,2c-0.9,0.9-1.7,1.9-2.9,2.2c-0.8,0.3-1.2,1-1.8,1.7
		c-1.8,2.2-4.2,3.3-7,3.6c-1,0.2-1.6,0.8-2.4,1.4c-0.2,0.1-0.3,0.2-0.4,0.2c-0.8,0.6-1.4,1.4-2.3,1.8c-0.4,0.2-0.7,0.5-0.8,0.9
		c0,0,0,0,0,0.1c-0.5,0.1-0.8,0.5-1.2,0.7c-0.1,0-0.1,0-0.2,0.1c-0.3,0.1-0.6,0.3-0.9,0.5c-0.1,0.1-0.2,0.1-0.3,0.2
		c-0.4-0.1-0.9-0.4-1,0.4c-0.1,0.2-0.2,0.3-0.3,0.5c-0.2,0.1-0.3,0.2-0.5,0.2c-0.4,0.1-0.8,0.3-1.2,0.5c-0.3,0.1-0.5,0.2-0.8,0.2
		c-0.6-0.1-1.2-0.2-1.3,0.6c-0.1,0.1-0.2,0.1-0.2,0.1c-0.2,0.1-0.4,0.3-0.6,0.5c-0.1,0.1-0.3,0.2-0.4,0.3c-0.2,0-0.4,0-0.6,0
		c-2.4-1.2-4.4-0.5-5.3,1.9c-0.6,1.6-1.8,2.2-3.1,3c-1.1,0.4-2.6,0-3.1,1.6c-0.3,0.9-0.7,1.9-0.5,2.9c-1.5-0.4-1.7,1-2.3,1.8
		c0,0,0,0.1,0,0.1c0,0,0,0-0.1,0c-0.8,0.2-1.4,0.5-1.9,1.2c-0.1,0.2-0.3,0.4-0.4,0.5c-0.4,0.2-0.7,0.5-0.8,1
		c-0.1,0.1-0.2,0.2-0.3,0.4c-0.2,0.2-0.4,0.3-0.5,0.5c-0.1,0-0.1,0.1-0.2,0.1c-1.1-0.2-1.8,0.3-2,1.7c-0.9,0.3-1,1.5-1.9,1.9
		c-0.9-0.2-1.6,0.3-2.2,0.8c-0.7,0.8-2.1-0.1-2.8,0.8c0,0-0.1,0-0.1,0c-0.8,0.5-1.4,1.1-1.8,1.9c0,0,0,0,0,0
		c-0.4-0.1-0.8,0.1-1.2,0.3c-0.7,0.5-1.3,1.1-1.2,2.1c0.1,0.2,0.3,0.2,0.5,0.1c0.2,0,0.3,0,0.5,0c0.8-0.2,1-1,1.4-1.5
		c1.4-0.2,1.8-2.2,3.4-1.9c2.8,0.6,4.5-1.7,6.2-3c2.5-1.8,3.8-5.1,6.9-6.3c0.4-0.2,0.6-0.6,0.7-1.1c0,0,0,0,0,0c0,0,0,0,0,0
		c0.8-0.2,1.7-0.5,2.3-1.2c3.3-3.7,6.8-6.8,11.5-8.7c1.4-0.5,2.8-1.3,4.1-2.1c1.6-0.9,3.5-1.4,4.5-3.1c0,0,0,0,0,0c0,0,0,0,0,0
		c1.1-0.3,2-0.8,2.9-1.6c1-0.9,2.2-1.6,3.7-2c2.7-0.6,5.3-1.6,6.9-4c0.5-0.8,1.1-1.4,2-1.9c1.6-0.8,3.4-1.1,4.3-2.9
		c0.1-0.2,0.7-0.3,1-0.3c2.1-0.2,3.8-0.8,4.9-2.9c0.3-0.5,0.9-0.8,1.3-1.2l0,0c2.1-0.3,4.1-0.6,5.8-2.2c1.4-1.2,2.8-2.4,4.9-2.5
		c0.6,0,1.1-0.5,1.4-1.1c0.9-1.6,1.6-3.2,0.7-5.1c0,0,0,0,0,0c0,0,0,0,0,0c0.5-0.3,1-0.4,1.6-0.5C118.6,19.7,119,19,118,17.6z"/>
	<path class="st27" d="M12.2,77c0-1.5,0-3,0-4.4c0-1.5,0.1-3.1-0.1-4.6c-0.2-2.2-0.8-4.4-0.3-6.7c0.2-0.9,0.5-2.1-0.7-2.8
		c0,0.1,0,0.1-0.1,0.2c0,0,0-0.1,0-0.1c0.9-1.7,0.5-3.4,0.3-5.1c0-0.3-0.3-0.5-0.7-0.5c-0.2,0-0.5,0-0.7,0c0.3,1,0.4,2,0.1,3
		c-0.2,0.6-0.2,1.5,0.1,2c0.9,1.5,0.5,2.8-0.1,4.2c-0.4,0.9-0.4,1.8,0.6,2.4c0,0,0,0,0,0c0,0,0,0,0,0c0,0,0,0,0,0
		c0.2,1-0.3,2.1,0.4,3c0,0,0,0,0,0c0,2.2,0,4.4,0,6.7c0,2.9,0.3,5.8,2.2,8.2c0.6,0.8,1.4,1.6,1.6,2.7v0c0.8-0.1,0.7-0.7,0.8-1.2
		c-0.4-1.9-1.9-3.2-2.8-4.8C12.3,78.5,12.2,77.7,12.2,77z"/>
	<path class="st27" d="M82.6,41.3c0-0.5-0.4-0.7-0.9-0.7c-0.5,0-1,0.1-1,0.6c0,0.6,0.6,0.4,1,0.5C82,41.6,82.5,41.8,82.6,41.3z"/>
</g>
<path class="st28" d="M80.5,40.2c0.8-0.5,1.7-0.9,2.6-1.1c-0.4,0.4-0.8,0.8-1.1,1.1C81.5,40.2,81,40.2,80.5,40.2L80.5,40.2z"/>
<path class="st28" d="M83.1,39c0.1-0.2,0.2-0.5,0.4-0.8c0.2-1.9,1.8-2,3.1-2.3c1.1-0.3,2.2,0.1,3.3,0.1c0.6-0.1,0.8-0.6,1.2-1
	c0.1,0,0.1-0.1,0.2-0.1c0.1,0,0.3,0,0.4,0c-0.1,1.3-0.5,2.4-1.9,3c-0.9-0.1-1.5,0.4-1.7,1.3c-0.6-0.3-0.5-0.7-0.6-1.2
	c-0.3-1.2-1.3-1.6-2.1-0.6C84.8,38.2,84.2,38.9,83.1,39z"/>
<path class="st29" d="M34.9,113.5c0.2-1.3-1.1-2.1-1.2-3.4c-0.2-1.9-0.1-3.7,0.2-5.5c0.3-1.6-0.3-3.3-0.2-5c0.1-1.4-0.2-2.8-0.2-4.2
	c0-0.4,0-1-0.2-1.2c-1-1-0.8-1.8,0-2.7c0.8-0.9,0.1-1.9,0.1-2.8c0-1.2-0.8-2.3-0.2-3.5c0.3,1.6,0.5,3.3,1.3,4.8
	c0.2,0.4,0.4,1,0.1,1.2c-2.1,1.8,0.1,3.8-0.2,5.7c-0.3,2,0,4.1,0.1,6.1c0,0.3,0.4,0.6,0.6,0.9c-0.1,1.5-1.5,2.8-0.7,4.5
	c0.5,1.7,1.1,3.4,1.1,5.2C35.1,113.5,35,113.5,34.9,113.5L34.9,113.5z"/>
<path class="st30" d="M32.6,82.1c-0.9-0.5,0.3-2-1.1-2.2c-0.3,0.1-0.5,0-0.8-0.2C29.9,79,29,78.3,29.4,77c0.5-0.7,1.1-0.7,1.9-0.6
	c0.2,0,0.4,0.1,0.5,0.2c0.1,0.1,0.2,0.3,0.2,0.5c-1.4,1.2,0.4,1.6,0.6,2.3L32.6,82.1L32.6,82.1z"/>
<path class="st31" d="M32.6,79.4c-0.3-0.2-0.7-0.3-1-0.5c-0.4-0.3-1.2-0.3-1.1-1c0.1-0.6,0.8-0.7,1.3-0.7c0.4-0.4,0.9-0.6,1.5-0.4
	l0,0.1c-0.1,0.4-0.2,0.7-0.4,1.1C32.4,78.4,32.7,78.9,32.6,79.4L32.6,79.4z"/>
<path class="st32" d="M19.2,6.9h-0.7c-1.1,0.1-2-0.2-2.3-1.5c0.3,0,0.5,0,0.8,0c0.5,0.1,1,0.3,1.5,0.4c0.2,0.2,0.5,0.5,0.8,0.7
	C19.2,6.6,19.2,6.7,19.2,6.9L19.2,6.9z"/>
<path class="st32" d="M12.8,6.8c-0.2,0-0.5,0-0.8,0c1-1.2,2.3-1.4,3.8-1.5C14.9,6.1,13.6,6,12.8,6.8z"/>
<path class="st32" d="M11.3,7.2c-0.9,1.4-1.8,0.1-2.6,0C9.6,6.7,10.4,7.5,11.3,7.2z"/>
<path class="st33" d="M9.8,28.6c0,0.8,0,1.5,0,2.2C9.2,30,9.2,29.3,9.8,28.6z"/>
<path class="st34" d="M10.2,31.5c0.1-0.9-0.4-1.8,0.4-2.6c0.2,0.2,0.4,0.5,0.4,0.8c0,1.5,0.4,2.9,1.1,4.2c0.1,0.4,0.1,0.8,0.1,1.2
	c0.1,2-0.2,4.1,0.2,6.1c0.4,3.7,0,7.5,0.2,11.2c0.1,0.2,0.1,0.4,0.2,0.6c0.3,3.9,0.8,7.8,0.4,11.8c-0.1,0.9,0.2,1.7,0.4,2.6
	c0.3,1.1,0.6,2.3,0.5,3.5c-0.1,0.9-0.3,1.8,0.2,2.7c0.6,1.1,0,2.2,0.1,3.3c-0.1,0.7,0.2,1.3,0.5,1.9c0.3,0.6,0.6,1.2,0.2,1.9
	c-0.8,0.2-1-0.4-1.4-0.9c-0.5-3-1.2-5.9-1.1-9c0.1-1.5-0.5-3.1-0.7-4.7c0-3.5,0.3-7.1-0.1-10.6C11.3,47.4,11.8,39.4,10.2,31.5
	L10.2,31.5z"/>
<path class="st35" d="M20.7,87.3c-0.5-0.2-0.9-0.4-1.5-0.4c-0.2,0-0.5,0-0.7,0c0.5-0.6,1-1.2,1.5-1.8c0.7-0.8,1.5-1,2.3-0.2
	c0.3,1.1-0.1,1.9-1,2.5C21,87.5,20.8,87.4,20.7,87.3L20.7,87.3z"/>
<path class="st14" d="M102.6,25.6c0,0.8,0,1.5,0,2.2C102,27.1,102,26.3,102.6,25.6z"/>
<path class="st36" d="M18.8,84.3c-1,1.1-1.9-0.1-2.9,0c-0.2-0.7-0.3-1.5-0.5-2.2c-0.2-0.3-0.3-0.6-0.2-1c0.1-0.2,0.2-0.2,0.4-0.3
	c0.3,0,0.7,0.1,1,0.2c0.1,0.1,0.3,0.1,0.4,0.2c0.4,0.5,0.8,1,1.4,1.3c0.4,0.3,0.7,0.7,0.7,1.3C19,84.1,18.9,84.2,18.8,84.3
	L18.8,84.3z"/>
<path class="st37" d="M34.9,74.6c-0.1,0-0.3,0-0.4,0c-0.2-1,0.3-1.6,1.2-1.9c-1.1-0.4-2.2-0.1-3.2-0.4c-0.9-0.7-1.4-1.4-0.1-2.2
	c0.8,0.6,1.6,1.1,2.7,0.4c-0.8-1-1.9,0.6-2.5-0.5c0.9-2.1,1.5-2.3,3.4-1.3c0.5,0.3,0.9,0.3,1.3,0c0.7-0.5,1.4-0.7,2-0.1
	c0.7,0.7,0.7,1.5,0.1,2.3c-1.3,0.1-2.4,0.3-2.7,1.8C36.3,73.5,35.7,74.1,34.9,74.6L34.9,74.6z"/>
<path class="st26" d="M36.7,72.7c-0.2-2.1,1.3-1.8,2.6-1.9c0.2-0.2,0.5-0.4,0.9-0.5c0.7-0.3,0.3-0.8,0.3-1.3
	c-0.1-0.7-0.2-1.5,0.1-2.2c0.6-1.4,1.6-1.6,2.5-0.4c0.3,0.4,0.7,0.7,1,1.1c0,0.1,0,0.2,0,0.4c-1,1-1.6-0.2-2.4-0.7
	c-0.3,0.9-0.4,1.8,0,2.5c0.6,1.2-0.1,1.4-1,1.5C39.3,71.2,37.6,70.9,36.7,72.7L36.7,72.7z"/>
<path class="st38" d="M22.1,85.1c-0.7-0.6-1.5-0.1-2.2,0c-0.5,0-0.7-0.2-0.7-0.8c0.7-1.1,1.7-1.3,3-0.9c0.3,0.3,0.4,0.7,0.3,1.1
	C22.4,84.8,22.3,84.9,22.1,85.1z"/>
<path class="st39" d="M22.1,83.6c-1.1-0.1-2,0.3-3,0.8c-0.1,0-0.3,0-0.4,0c0-0.1,0-0.3,0-0.4c0.2-0.2,0.2-0.4,0.4-0.6
	c0.7-0.6,1.7-0.6,2.5-0.9c0.1-0.1,0.3-0.1,0.5-0.1c0.2,0,0.5,0,0.7,0.2c0.1,0.1,0.1,0.3,0.1,0.4C22.9,83.2,22.6,83.5,22.1,83.6
	L22.1,83.6z"/>
<path class="st40" d="M32.6,72c1.1,0.1,2.3-0.3,3.5,0.5c-0.8,0.6-1.3,1.2-1.7,2.1c-1.7,0.6-2.3-1.5-3.7-1.5
	c-0.1-0.2-0.1-0.4,0.1-0.5c1.1-0.7,2.2,0.3,3.2-0.1C33.7,72.3,32.8,73,32.6,72L32.6,72z"/>
<path class="st41" d="M33.3,76.8c-0.4,0.3-0.9,0.4-1.5,0.4c0-0.1,0-0.2,0-0.4c-0.3-1.1-1.8-1.4-2-2.6c0.2-0.3,0.4-0.6,0.9-0.4
	C32,74.5,32.5,75.8,33.3,76.8z"/>
<path class="st42" d="M30.8,73.8c-0.2,0.1-0.5,0.2-0.7,0.4c-0.1,0.1-0.2,0.2-0.4,0.2c-0.2,0-0.3-0.1-0.4-0.2
	C29,74,29,73.8,29.1,73.5c0.1-0.2,0.4-0.3,0.5-0.4c0.2,0,0.5,0,0.8,0C30.5,73.4,30.6,73.6,30.8,73.8z"/>
<path class="st43" d="M10.6,29.7c0-0.2,0-0.5,0-0.8c-0.7-3.1,0.6-6.4-1.1-9.4c-0.1-0.9,0.1-1.7,0.4-2.5c0.6-1.6,0.7-3.2,0.1-4.9
	c-0.3-0.9-0.1-1.9,0.6-2.4c2.3-1.8,4.4-4.4,7.9-2.5c1.6,0.5,3,1.9,4.9,1c0.4-0.2,0.6,0.3,0.9,0.5c0.6,0.5,1.4,0.9,2.2,0.7
	c1.9-0.4,3.8,0.2,5.7-0.3c1-0.2,2-0.1,2.8,0.6c1.2,0.9,2.6,1.1,4,1.2c0.3-0.2,0.5-0.2,0.8-0.1c0.1,0.2,0.1,0.4,0,0.6
	C38.9,12.3,38,12,37,11.8c-0.6-0.1-1.3-0.4-1.9-0.6c-2.3-1.8-4.8-0.4-7.2-0.3c-1.5,0.1-2.8,0-4.1-0.8c-0.2-0.1,0.1-0.1-0.1-0.1
	c-3-0.2-5.7-1.8-8.6-2.5c-0.3,1.2,1.1,1.7,0.1,2.6c-0.7,0.6-1.4,0.3-2.1,0.2C12,10.1,11,11,11.4,12c0.8,2.1,0.3,3.9-0.7,5.7
	c-0.1,0.6-0.3,1.3,0,1.9c2.4,2.7,0.9,5.8,1.1,8.8C11.8,28.9,11.5,29.7,10.6,29.7L10.6,29.7z"/>
<path class="st44" d="M39.7,11c-0.2,0-0.5,0-0.8,0c2.4-0.9,4.8-0.3,7.1,0.1c1.7,0.3,3.6,0.1,5.2,1.2c0.5,0.4,1.6,0.2,2.4,0.1
	c1-0.2,1.8-0.4,2.7,0.2c0.2,0.1,0.4,0.2,0.5,0.2c1.9-1.1,3.4,0.2,5,0.9c3.4-0.2,6.5,1.5,9.8,1.5c0.7,0.2,1.1,0.8,1.8,1
	c0.1,0.2,0.1,0.4,0,0.5c-0.3,0.3-0.7,0.3-1.1,0.4c-0.2,0-0.4,0-0.6,0c-2.1,0.1-4,0-5.6-1.6c-0.3-0.3-0.8-0.3-1.2-0.4
	c-1.9-0.3-3.9-0.4-5.7-1.4c-1-0.5-1.8,0.9-2.8,0.6c-0.5-0.1-1-0.5-1.5-0.7c-0.3-0.1-0.5-0.2-0.8-0.2c-2.5,0.2-4.8-0.5-7.1-1
	c-1.3-0.3-2.5-0.5-3.8-0.6c-0.2,0-0.4-0.1-0.6-0.1C41.6,11.3,40.5,11.7,39.7,11L39.7,11z"/>
<path class="st45" d="M98.9,16.6c3.1,0.2,4,1.4,2.7,3.3c-0.2,0.2-0.2,0.7-0.6,0.6c-0.2-0.1-0.6-0.4-0.5-0.6
	C100.6,18.5,99.7,17.6,98.9,16.6z"/>
<path class="st46" d="M99.3,15.3c1.3-0.7,2.2-2.3,3.6-0.6c0.3,0.4,0.4,0.6,0,0.9C101.7,16.6,100.6,15.9,99.3,15.3z"/>
<path class="st47" d="M73,42.8c-2.5,1.8-5.4,2.8-8,4.4c-2.2,1.3-4.4,2.6-6.6,3.9c-0.1-0.2-0.1-0.3-0.1-0.5c0.5-1,1.4-1.6,2.3-2
	c1.2-0.4,2-1.6,3.2-1.9c0.3-0.1,0.6-0.3,0.9-0.5c2.7-1.5,5.6-2.9,8.2-4.7c0.7-0.5,1.5-0.7,2.3-0.5c0.2,0.1,0.3,0.2,0.4,0.4
	C75.1,42.4,73.8,42.1,73,42.8z"/>
<path class="st48" d="M58.4,50.6c0,0.1,0,0.2,0,0.4c-1.6,2.2-3.8,3.4-6.4,4.1c-1,0.8-2.3,1.2-2.7,2.7c-0.2,0.6-0.9,0.6-1.5,0.3
	c0.5-2.3,2-3.7,4.2-4.3c1.7-0.4,2.9-1.8,4.4-2.7C57.2,50.9,57.7,50.3,58.4,50.6L58.4,50.6z"/>
<path class="st44" d="M48,58.1c0.6,0,1.2,0,1.5-0.8c0.4-1.3,1.5-1.8,2.7-2.2c0,0.1,0,0.2,0,0.4c-0.9,0.7-1.9,1.1-2.4,2.4
	c-0.5,1.2-1.8,0.5-2.8,0.6c-0.1-0.2-0.1-0.3,0.1-0.5C47.3,57.8,47.6,57.8,48,58.1z"/>
<path class="st24" d="M57.7,55.9c0.1-0.8-0.3-1.6,0.4-2.2C57.9,54.4,58.4,55.2,57.7,55.9z"/>
<path class="st13" d="M90.6,36.4c-0.1-0.5,0.1-1,0.4-1.5c0.1,0,0.2,0,0.4,0C91.3,35.5,91.1,36,90.6,36.4L90.6,36.4z"/>
<path class="st49" d="M29.6,74.2c0.1,0,0.2,0,0.4,0c0.4,1.1,2.4,0.9,1.9,2.6c-0.1,0-0.2,0-0.4,0c-1.6-1.4-2.6-0.1-3.7,0.9
	c-1.1,0.2-1.7-0.3-2.1-1.2c0-0.2,0.1-0.3,0.2-0.5c0.9,0.1,1.8,0,2.4-0.8C28.8,74.9,29.3,74.6,29.6,74.2L29.6,74.2z"/>
<path class="st50" d="M27.8,77.6c0.4-1.2,1.1-1.8,2.4-1.8c0.8,0,1.3,0.2,1.4,1.1c-0.6,0.1-1.3-0.2-1.9,0.4c-0.2,0.2-0.5,0.4-0.8,0.5
	c-0.1,0.1-0.3,0.1-0.5,0.1C28.1,77.8,27.9,77.8,27.8,77.6L27.8,77.6z"/>
<path class="st51" d="M28.5,77.6c0.3-0.4,0.7-0.4,1.1-0.4c-0.2,1.2,0.9,1.6,1.5,2.2c-0.7,0-1.3,0-1.9-0.4
	C28.8,78.7,28.7,78.1,28.5,77.6z"/>
<path class="st52" d="M15.4,81c-0.1-0.1-0.2-0.3-0.4-0.4c0.2-1.4-1.5-2.3-1.1-3.7c0.2-0.2,0.5-0.1,0.7,0c0.8,0.2,1.8-0.3,2.2,0.9
	c0,1.2-0.4,2.2-1.1,3.2C15.7,80.9,15.5,80.9,15.4,81L15.4,81z"/>
<path class="st43" d="M12.1,40.5c0,0.2,0,0.5,0,0.8c-0.8-2.1-0.2-4.2-0.4-6.4c0.1,0,0.2,0,0.4,0c0.3,1.2,0.3,2.5,0,3.7
	C12.1,39.3,12.1,39.9,12.1,40.5z"/>
<path class="st53" d="M31.9,69.7c0.4-0.4,0.9-0.7,1.3-1.1c0.7-0.8,1.5-1.1,2.6-0.7c1.8,0.7,3.1,0.3,4-1.6c0.6-1.2,1.5-2,3.1-2
	c1.4,0,2.8-0.5,2.1-2.5c-0.1-0.3,0.1-0.6,0.3-0.8c0,0.9,1.6,1.5,0.4,2.6c-0.5,0.4-1,0.7-1.5,1.1c-0.3,0.3-0.7,0.4-1.2,0.5
	c-2,0.4-2.6,1.2-2.4,3.2c0.1,0.8,0.5,1.6-0.2,2.3c-0.4,0-0.7,0-1.1,0c-0.2-0.7,0.5-1.7-0.5-2.2c-0.9-0.4-1.3,0.3-1.8,0.9
	c-0.3,0.3-0.5,0.4-0.9,0c-1.9-1.6-1.9-1.5-3.5,0.5l0,0c-1.1,0.6-0.6,1.2,0,1.9c0.5,0.7,1.3,0.1,2.1,0.7c-1.5,0-2.7,0-4,0
	c0.8-0.6,0.8-1.4,0.7-2.2C31.3,70.1,31.6,69.9,31.9,69.7L31.9,69.7z"/>
<path class="st13" d="M40.5,70.8c0-0.7,0-1.5-0.1-2.2c-0.4-2.2,0.8-3.7,3.1-3.8c0.2,0,0.5,0,0.7,0c-0.2,0.9,0.4,1.8,0,2.6
	c-0.7,0.4-1,0-1.3-0.5c-0.3-0.4-0.1-1.3-0.9-1.1c-0.7,0.2-1.2,0.9-1.1,1.7c0,0.6,0,1.2,0.2,1.8C41.3,70.1,41.4,70.7,40.5,70.8
	L40.5,70.8z"/>
<path class="st54" d="M50.6,57.4c0.1,0,0.2,0,0.4,0c0.1,0.9-0.2,1.7-0.5,2.5c-0.2,0.4-0.8,1.1-1.1,0.7c-1.4-1.6-2.4-0.3-3.6,0.2
	c0.2-1.3,1.3-2,2.2-1.7C49.8,59.6,50.1,58.5,50.6,57.4L50.6,57.4z"/>
<path class="st54" d="M45.7,63.7c0.5-1-0.6-1.7-0.4-2.6c0.1,0,0.2,0,0.4,0c0.2,1.3,1.2,1.8,2.5,2C47.4,64.1,46.5,63.6,45.7,63.7z"/>
<path class="st55" d="M21.8,87.7c-0.2-0.1-0.5-0.2-0.7-0.4c0.4-0.8,0.7-1.5,1.1-2.2c0-0.1,0-0.2,0-0.4c0.2-0.2,0.5-0.2,0.8-0.1
	c0.4,0.5,0.4,1.1,0.3,1.6c-0.1,0.3-0.2,0.5-0.4,0.7C22.5,87.3,22.2,87.6,21.8,87.7L21.8,87.7z"/>
<path class="st56" d="M92.5,16.6c1.1,0.1,2.2,0.2,3.4,0.4c0.6,1.5-0.2,3,0.3,4.5c0.1,0.4-0.1,1,0.2,1.2c1.2,1,0.7,2.2,0.4,3.4
	c0,1.2-0.8,1.9-1.3,2.8l0,0c-0.4,0.9-1.1,1.4-1.9,1.9l0,0c-0.4,0.6-0.9,1.1-1.5,1.5c-0.2,0.1-0.5,0.2-0.7,0.4
	c-0.2-0.2-0.3-0.4-0.3-0.7c0.6-1.7,2.2-2.4,3.1-3.8c0.1-0.1,0.2-0.3,0.3-0.4c1.2-1.5,1.8-3,0.2-4.6c-0.6-0.7-0.5-1.7-0.4-2.5
	c0.1-1.4-0.4-2.4-1.5-3.2c-0.1-0.1-0.3-0.2-0.4-0.4C92.3,16.9,92.3,16.7,92.5,16.6z"/>
<path class="st57" d="M91.3,31.9c0,0.2,0,0.5,0,0.8c0,0.2,0,0.5,0,0.7c-1.3,2.3-4,1.4-5.8,2.5c-1,0.6-2.1,1-2.8,2
	c-2.5,0.9-4.8,2-7.1,3.4h0c-0.5-1,0.3-1.4,0.9-1.7c3.3-1.4,6.3-3.2,9.1-5.3c0.7-0.5,1.4-1,2.2-0.9c1.4,0.1,2.2-0.6,2.9-1.6
	C91,31.8,91.2,31.8,91.3,31.9L91.3,31.9z"/>
<g>
	<path class="st58" d="M113,18c-0.2-0.4-0.2-0.9-0.4-1.4c-0.6-0.5-1.2-1-1.9-1.5c-0.7,0-2-0.2-2.1,0.1c-1,2.1-2.8,2.2-4.7,2.6
		c-0.9,0.2-1.5,1.6-1.9,2.6c-0.2,0.5-0.6,1-1.3,0.8c-0.6-0.2-1.1-0.5-1.2-1.2c-0.9-3.9-3.3-5.1-7.1-3.9c0,0,0,0,0,0c0,0,0,0,0,0
		c-0.1,0-0.2,0-0.3,0c0-0.1,0-0.2,0-0.3c0,0,0,0,0,0c-0.4-0.5-0.9-0.7-1.5-0.7c0,0,0,0,0,0c0,0,0,0,0,0c-0.1-0.1-0.2-0.2-0.3-0.3
		c0,0,0,0,0,0c-0.6-1.1-1.6-0.6-2.4-0.5c-1.1,0.2-2.3,0.2-3.4,0.4c-1.7,0.3-3.9-1-5.1,1.3c-0.3,0-0.6,0.1-0.9,0
		c-2-0.5-4.5,0-5.7-2.6c-0.3-0.6-1.3-1-2.1-0.5c-1.3,0.7-2.7,0.5-4,0.4c-2.4-0.2-4.6-0.6-6.9-1.4c-1.9-0.7-4.2-0.9-6.3-0.2
		c-1,0.3-1.9,0.2-2.7-0.5c-1-0.8-2.3,0.5-3.4-0.3c-2.9-0.9-5.8-1.1-8.8-0.4c-0.7,0.1-1.5,0-2-0.4c-2.4-2-5.3-1-7.8-1.2
		c-3.1-0.2-5.9-1.6-9.1-1.4c-0.1,0-0.3-0.2-0.4-0.3v0c-0.3-0.2-0.5-0.2-0.8,0c-0.8-0.5-1.7-0.6-2.2-1.5l0,0c-0.1,0-0.2,0-0.4,0
		c-1.1,0.4-2.3,0.5-3.2,1.4c-0.2-0.1-0.4,0-0.5,0.1c-0.2,0.1-0.5,0.2-0.7,0.4c-0.9,0.8-1.7-0.2-2.6,0c-0.6,1.1-1.1,2.2,0,3.4
		c0.5,0.5,0.2,1.2,0,1.8c-0.2,0.6-0.5,1.1-0.1,1.8c0.7,1,0.5,2.1,0.5,3.2c0,0,0,0,0,0c-0.7,0.7-0.9,1.4-0.4,2.2c0,0,0,0,0,0v0
		c0.5,1.3,0.8,2.7,0.8,4.2c0,1.6-0.2,3.2,0.3,4.8c-0.3,0.8-0.3,1.5,0,2.2c0,0.2,0,0.5,0,0.7c0.1,0,0.2,0,0.4,0
		c0.8-0.8,0.3-1.8,0.8-2.7c0.1-2.1-0.3-4.2-0.1-6.4c0.1-1-0.1-2.3-1.3-2.8c0.7-2.4,1.8-4.7,0.9-7.3c-0.3-1,0-1.9,0.8-2.5
		c2-1.5,3.7-3.7,6.7-2.3c0.1,0.1,0.3-0.1,0.4-0.2c0,0,0,0.1,0.1,0.1c1.3,1.1,2.7,1.8,4.4,1.4c0.3-0.1,0.6-0.1,0.9,0.1
		c2.5,1.8,5.3,0.6,7.9,0.7c1.2,0,2.3,0,3.4,0.7c1.2,0.8,2.6,1.1,4.1,0.9c4-0.6,7.8,0.2,11.5,1.3c0.9,0.3,1.7,0.4,2.6,0.3
		c2.9-0.2,5.9-0.3,8.6,1.1c0.3,0,0.6,0,0.8-0.1c0.2,0,0.5,0,0.7,0c1.2,0,2.5,0.3,3.7,0.5c1.5,0.9,3.2,1.1,4.9,1
		c0.4,0.5,0.9,0.7,1.5,0.7c0,0,0,0,0,0c0,0.1,0,0.2,0,0.4c0.7,1,1.7,0.8,2.7,0.9c3.5,0.4,6.9-0.9,10.4-0.9c1.4-0.5,2.8-1,4.2-0.2
		c0.4,0.2,0.8,0.2,1.2,0c0.1-0.1,0.1-0.1,0.2-0.2c-0.1,0.1-0.1,0.3,0,0.5c0.1,0.1,0.3,0.2,0.5,0.3c1,0.5,2.1,0.1,3.1,0.5
		c0,0,0.1,0,0.1,0.1c-0.4,1.7-0.6,3.4,0.2,4.9c0.7,1.2,0.9,2.4,0.7,3.7c0,0.1,0,0.1-0.1,0.2c0,0.1,0,0.1,0,0.1
		c-0.3,0.8-1,1.3-1.1,2.2c0,0,0,0,0,0c-0.1,0.1-0.2,0.3-0.3,0.4c0,0.1-0.1,0.1-0.1,0.2c-0.5,0.3-0.9,0.7-1.2,1.2
		c-0.1,0-0.1,0.1-0.2,0.1c-0.1,0.1-0.2,0.2-0.2,0.3c-0.4,0.2-0.7,0.5-0.9,0.8c-0.2,0.1-0.4,0.3-0.6,0.3c-0.3,0.2-0.6,0.4-0.8,0.7
		c-0.1,0.2-0.2,0.5-0.3,0.8c0,0,0,0,0,0.1c-0.7,0.2-0.9,1.2-1.8,1.1c-1.8-0.2-3.3,0.8-4.9,1.5c-0.7,0.3-1.6,0.8-1.4,1.9
		c0,0,0-0.1-0.1-0.1c-1.7-0.2-2.9,0.9-4.3,1.6c-1,0.5-2.4,0.5-2.8,1.9c-0.6,0.7-1.8,0.5-2.4,1.2c-0.1,0-0.1,0-0.2,0
		c-5,2.6-10.1,5-14.7,8.3c-1.8,1.8-4,3.1-6.3,4.2c-0.1,0.2-0.1,0.3-0.1,0.5c0,0,0,0.1,0.1,0.1c-1-0.2-1.7,0.4-2.1,1.1
		c-0.7,1.2-1.6,1.5-2.9,1.5c-0.2,0-0.3,0.1-0.5,0.1c-0.2,0.1-0.5,0.3-0.7,0.5c-0.5,0.5-1,0.9-1.4,1.5c-0.1,0.1-0.1,0.3-0.2,0.5
		c-0.2,0.7,0.1,1.5-0.3,2.2c-0.1,0.1-0.2,0.2-0.4,0.3c-1.2,0.2-2.8-0.3-3.5,1c-1.3,2.3-3.2,2.8-5.6,2.2c-0.4,0.1-0.7,0.3-1,0.5
		c-0.6,0.9-2.3,1.3-1.6,2.9c0.7,0,1.1-0.6,1.5-1.1c0.6-0.7,1.3-0.8,2.1-0.5c2.1,0.7,3.4,0.2,4.6-1.6c0.7-1,1.5-1.6,2.9-1.8
		c2-0.2,2.7-1.3,2.5-3.3c0.1-0.2,0.2-0.3,0.3-0.5c0-0.1,0-0.2,0-0.4v0c0.7-0.6,1.3-1.8,2.4-1.4c1.9,0.6,2.3-0.5,2.6-1.8
		c0,0,0,0,0-0.1c0.1,0,0.1,0,0.2-0.1c0.9,0,1,0.7,1.3,1.3c0.3,0.7,0.8,0.8,1.3,0.2c0-1.3,0.3-2.3,2-1.9c0.9,0.2,1.7-0.2,2.1-1.1
		c0.5-0.7-0.1-1.6,0.4-2.2c0.1-0.1,0.2-0.2,0.4-0.4c0-0.2,0-0.4,0-0.7c0.1-0.1,0.2-0.2,0.3-0.3c1.2-1.3,2.6-2,4.5-1.6
		c1.7,0.3,1.9,0.1,1.2-1.7c0-0.2,0.1-0.4,0.3-0.6c0.2-0.3,0.4-0.4,0.8-0.4l0,0c0.3-0.3,0.7-0.3,1-0.6c0.1-0.1,0.2-0.1,0.3-0.1
		c0.2,0,0.4,0,0.6,0c0.1-0.1,0.1-0.2,0.2-0.4c0.1,0,0.2-0.1,0.3-0.1c0.2,0,0.3-0.1,0.5-0.2c0.2-0.1,0.5-0.1,0.7-0.2
		c0.3,0,0.5-0.1,0.8-0.1c1.5,0.1,2.3-1.4,3.7-1.3c1,0.1,2,0.1,1.4-1.4c-0.1-0.3,0.1-0.7,0.4-0.7c1.7,0,2.5-1.8,4.1-2
		c0.2-0.4,0.5-0.7,0.7-1.1c0,0,0,0,0,0c0.9-0.5,1.8-1,2.6-1.5c0,0,0,0,0,0h0c0.2,0,0.5,0,0.7,0c1.3-1.9,3.3-2.1,5.4-1.7
		c0.6,0.1,1.2,0.2,1.7-0.1c0.2-0.5,0.5-0.9,0.4-1.4c0.1,0,0.2,0.1,0.3,0c0.7-1.6,1.8-2.6,3.6-2.6c0.9,0,1.1-0.7,1.5-1.2
		c1.2-1.7,1.7-3.5,2-5.5c0.6-0.3,0.8-1.8,1.8-0.7c1,1.2,0.3,4.2-1,5.2c0.9,1,2.1-0.7,3,0.3l0,0c0.2,0,0.5,0,0.7,0
		c0.1-0.1,0.3-0.3,0.2-0.5c-1.5-1.9-1-3.7,0.3-5.5c1.5-1.3,3.6-0.4,5.2-1.5c0.5-0.4,1.2-0.6,1.3-1.4c0.1-1.2,0.9-1.6,2.1-1.6
		C113,19.9,113.7,19.2,113,18z"/>
	<path class="st58" d="M15,80.6c-0.4-0.2-0.7-0.5-1.1-0.7c0,0,0,0,0,0c0,0,0,0,0,0c-0.8-2.3,0.2-4.9-1.2-7.1c-0.1-0.2,0-0.5,0.1-0.7
		c0.8-2.1-0.3-4.1-0.7-6.1v0c-0.4,2.2,0.9,4.5,0,6.8c0,0.1,0,0.2,0,0.4c0.5,0.6,0.7,1.3,0.7,2c-0.1,1.6,0.1,3.2,0.8,4.7c0,0,0,0,0,0
		c0,0,0,0,0,0c0.4,0.9,0.9,1.7,1.8,2.2c0-0.4,0-0.7,0-1.1l0,0C15.4,80.8,15.3,80.6,15,80.6z"/>
	<path class="st58" d="M112.1,21.5c-0.5,0-1.1,0.4-1.1,0.8c0,0.6,0.8,0.7,1.2,0.9c0.4-0.2,1-0.2,0.9-0.7
		C113.2,21.9,112.7,21.5,112.1,21.5z"/>
	<path class="st58" d="M30.5,70.8c-0.5,0.4-1.2,0.3-1.7,0.6c-0.3,0.4-0.5,0.8-0.4,1.3c0.3,0.4,0.7,0.6,1.2,0.7
		c0.3,0,0.5-0.1,0.8-0.3c0.1,0,0.2,0,0.4,0c0-0.1,0-0.2,0-0.4c1.2-0.3,1.1-1.1,0.9-2.1C31.2,70,30.9,70.7,30.5,70.8z"/>
</g>
<path class="st59" d="M18,82.8c-0.6-0.3-1.1-0.7-1.1-1.5c-0.3-0.8,0-1.3,0.7-1.7c1.5,0.2,2.8,0.9,4.2,1.6c0.1,0.2,0.2,0.3,0.2,0.5
	c-0.1,0.4-0.4,0.6-0.8,0.6c-0.8-0.2-1.6-0.9-2.4-0.1C18.6,82.5,18.4,82.7,18,82.8z"/>
<path class="st60" d="M17.7,79.8c-0.2,0.5-0.5,1-0.7,1.5c-0.1,0-0.3,0-0.4,0c-0.7-1.1,0.1-1.8,0.6-2.7c0.1-0.1,0.3-0.2,0.5-0.3
	c0.5-0.1,1-0.1,1.4,0.1c0.8,0.6,1.7,0.9,2.6,1.2c0.2,0.2,0.3,0.4,0.3,0.7c-0.1,0.2-0.2,0.3-0.3,0.4c-1.1,0-2.1-0.2-3-0.9
	C18.3,79.6,18,79.5,17.7,79.8L17.7,79.8z"/>
<path class="st61" d="M17.3,78.7c-0.1,0.9-0.9,1.6-0.8,2.6c-0.3,0-0.6-0.1-0.7-0.4c-0.3-1.2,0.9-2.2,0.8-3.3
	c0.1-0.1,0.3-0.2,0.5-0.2c0.2,0,0.3,0.1,0.4,0.3C17.6,78.1,17.6,78.4,17.3,78.7z"/>
<path class="st62" d="M21,82.1c0.3,0,0.6-0.1,0.8-0.4c0.2-0.1,0.3-0.1,0.5,0c0.1,0.3,0.1,0.5-0.1,0.7l0,0c-0.9,0.5-2.3-0.1-3,1.1
	c-0.1,0.1-0.2,0.2-0.4,0.4c0-0.5-0.3-0.9-0.8-1.1c0.1-0.2,0.2-0.5,0.4-0.7C19.3,81.6,20.2,81.6,21,82.1L21,82.1z"/>
<g>
	<path class="st63" d="M114.9,19.9c0.2-0.2,0.4-0.4,0.4-0.6c0.1-1.6-0.3-3.1-0.4-4.6c-0.5-0.1-1-0.2-1.5-0.4c-1-0.6-2-0.8-3.1-0.9
		c-2-0.8-4.2,0.3-6.2-0.8c-0.9-0.4-2-0.7-3-0.2c-1.2,0.4-2.4,0.9-3.8,0.8C95.2,13,93.1,13,91,12.8c0,0-0.1,0-0.1,0.1
		c0,0,0,0.1,0,0.1c-3.3,0.1-6.6-0.1-9.9-0.3c-1.7-0.1-3.6-0.7-5.1,0.9c-0.4,0.5-0.9,0.2-1.3-0.3c-0.5-0.6-0.3-1.3-0.7-1.9
		c-0.1-0.1-0.2-0.2-0.4-0.3c0-0.1,0-0.3-0.2-0.4c-1.5-0.1-2.9,0-4.4,0c-2.4,0.3-4.9,1.1-6.7-1.3c-0.1,0-0.2,0-0.4,0
		c-0.6-0.3-1.2-0.2-1.9-0.1c-1.7,1.1-3.8,0.4-5.6,0.9c-0.1,0.1-0.3,0.2-0.4,0.4c0,0,0,0,0.1,0c0,0,0,0-0.1,0h-0.7l0,0
		c-0.1,0-0.2,0-0.3,0c-0.5,0-1,0-1.5,0.1c0,0,0-0.1,0-0.1c-0.2-0.1-0.3-0.1-0.4,0.1c-0.7-0.5-1.5-0.4-2.2-0.4
		c-0.5,0.1-1,0.2-1.5,0.4c0,0,0,0,0,0c-2.4-2.1-5.2-1.4-7.9-1.1c-3-0.9-6-1.6-9.2-1.4C30.1,8.1,30,8,30,8c-0.5-0.3-1.2-0.6-1.7-0.3
		c-1.2,0.8-2,0.2-3-0.3c-0.9-0.4-2-0.6-3-0.6c-0.8,0.1-1.6,0.1-2.3-0.4l0,0c-0.3-0.2-0.6-0.2-0.9,0C19,6.7,19,6.9,19,7.1
		c0.8,1,2,1,3.1,0.9c0.7,0,1.4-0.3,2,0.1c2.4,1.4,5.1,0.8,7.6,1c1.5,0.1,2.9,0.1,4.3,0.9c1,0.6,2.2,0.6,3.4,0.4c2-0.3,4-0.4,5.9,0.2
		c0.6,0.2,1.2,0.4,1.8-0.1l0,0c0,0.1,0,0.2,0,0.2c1.1,0.9,2.2,0.3,3.4,0.1c-0.1,0.1-0.1,0.1-0.1,0.2c1,1.2,2.2,0.8,3.4,0.7
		c2.8-0.3,5.5-0.4,8,1.3c0.5,0.3,1,0.4,1.6,0.3c0.7-0.2,1.5-0.2,2.2-0.1c1.7,0.4,3.3,0.4,5-0.1c0.8-0.2,1.5,0,2,0.6
		c1.6,2.4,4.1,2.1,6.5,2.2c0.2-0.1,0.3-0.2,0.4-0.4c0-0.1-0.1-0.2-0.2-0.3c0,0,0,0,0.1,0c0,0,0,0,0,0c0.1,0.1,0.2,0.1,0.3,0.1
		c0.8-0.6,1.7-0.8,2.9-0.9c1.8,0,3.5,0.2,5.3-0.3c1.2-0.3,2.5-0.2,3.7,0.7c0.9,0.7,1.9,0.9,3,0.5c0.8-0.3,1.5-0.3,2.3-0.1
		c1.7,0.3,3.3-0.7,3.8-2.3c0.6,0.3,1.2,0.3,1.8,0.4c0,0,0,0,0.1,0c0.6,0.7,1.3,1.3,1.9,2.2c0.8,1.3,2.1,1,2.8-0.4
		c0-0.1,0.1-0.2,0.2-0.3c0.1,0,0.2,0,0.2,0c0.2,0,0.3-0.1,0.5-0.2c0.7-0.2,1.4-0.3,2.1-0.2c0.2,0.1,0.4,0.2,0.6,0.3
		c0.4,0.8,0.8,1.5,1.8,1.5c0,0,0,0.1,0,0.1c0.1,0.7,0.5,1.3,0.8,1.9c0.1,0.3,0.1,0.6,0.1,0.9c-0.4,0.6-1.2,0.9-2,1.2
		c0.8,0.2,1.4,0.6,2,1.1c0,0.1,0.1,0.3,0.1,0.4c0,0.3,0.2,0.5,0.3,0.8c0,0,0,0,0,0c-0.5,0-1,0.3-1.5,0.5c-0.3,0.1-0.7,0.1-1,0.1
		c-0.9-0.3-1.8-0.6-2.7-0.3c-0.3,0-0.7,0-1,0.1c-0.3,0.1-0.5,0.3-0.6,0.5c-0.1,0.3-0.2,0.6-0.1,0.9c0.8,1.5,0.2,2.6-1,3.5
		c-0.2,0.2-0.3,0.4-0.2,0.6c0.3,0.2,0.7,0.3,1,0c2.2-1.7,4.4-3.4,7-4.5c0.5-0.2,0.6-0.9,0.6-1.5c0,0,0,0,0,0c0,0,0,0,0,0
		C115.7,22.1,113.8,20.8,114.9,19.9z"/>
	<path class="st63" d="M99.9,31.8c0,0-0.1,0-0.1,0c-1.5,0.9-3.2,1.5-5,1.6c-1.2,0-2.3,0.5-3.1,1.3c-0.5,1.1-1.1,2.2-1.8,3.2
		c0,0,0-0.1,0-0.1c-0.9-0.3-1.5-0.1-1.5,0.8c-0.9-2.6-1.5-2.7-3.7-0.8c-0.4,0.3-0.8,0.6-1.2,0.8c-0.2,0.1-0.3,0.2-0.4,0.3
		c-0.3,0.3-0.7,0.4-0.8,0.8c0,0,0,0-0.1,0c-0.5,0-0.9,0-1.3,0.2c-0.4,0.2-0.7,0.5-0.8,1c-0.1-0.1-0.2-0.1-0.3-0.1
		c-1.1,0.8-2.2,1.5-2.4,3.1c0,0.4-0.2,0.8-0.6,0.9c-2.2,0.6-4.3,1.3-6.3,2.2c-0.2,0.1-0.6-0.1-0.9-0.1c-0.5-0.1-1.1-0.1-1.6,0
		c-0.7,0.2-1.4,0.6-2.1,0.7c-0.4,0.1-0.7,0.3-0.8,0.7c-0.1,0.5,0.1,0.9,0.3,1.3c0.3,1.4-0.9,0.8-1.4,0.8c-1.6,0.1-3.3-0.1-4.3,1.6
		c-0.4,1.2-1.8,2.2-0.9,3.8c-0.7,0.2-1.1,0.7-1.3,1.4c0,0,0,0,0,0.1c-1.4,0-2.9-0.2-3.6,1.5v0c-0.6-0.1-1-0.5-1.2-1
		c-0.3-0.6-0.8-1-1.5-0.5c-0.4,0.6-0.4,1.3-0.7,1.9c-0.2,0.5-0.6,0.8-1.2,0.5c-1.5-0.9-2.4,0-3.4,0.9c-0.1,0.2-0.1,0.3-0.2,0.5
		c0,1,0.7,1.5,1.4,2.1c-0.4,0.2-0.9,0-1.2,0.2c-0.7,0.3-1.3,0.6-1.7,1.3c-0.3,0.9-0.1,1.8,0,2.6c0,0.2,0.1,0.3,0.2,0.5
		c-0.3-0.1-0.5-0.1-0.8-0.2c-0.6-0.1-1-1.2-1.7-0.5c-0.6,0.5-0.5,1.4-0.3,2.1c0.2,0.7,0.2,1.4-0.4,2c0,0,0-0.1-0.1-0.1
		c-1.7-0.7-3.1-0.4-4.2,1.1c-0.5,0.8-1.4,1.4-1.9,2.3c0,0.2,0,0.4,0.1,0.5c0.5-0.1,1-0.3,1.5-0.4h0c0.5-0.6,1-1.2,1.5-1.9
		c0.9-0.8,2.4,0.2,3.2-1.1c0.8,0.1,1.5-0.3,2.1-0.8c0,0,0,0,0-0.1c1.2,0.2,1.1-1.4,2-1.6c0.5-1,1.2-1.7,2.5-1.7
		c0.1-0.1,0.2-0.2,0.4-0.4c0.2-0.8,0.8-1.4,1.5-1.9c0.4-0.8,1.1-1,1.9-1.1c0-0.1,0-0.2,0-0.4l0,0c0,0,0,0,0,0c0,0,0,0,0,0
		c0.9-0.4,1-1.9,2.2-1.9c0.3-0.7,0.8-1.4,0.8-2.2c0-1,0.5-1.6,1.6-1.5c0.5,0,1,0.1,1.3-0.4c1.3-0.5,2.5-1.4,3.2-2.7
		c1-2.1,1.7-2.9,3.2-2.9c0.5,0.1,1.1,0.2,1.8,0.5c0.3,0.1,0.5,0.1,0.8,0c0.1-0.1,0.1-0.1,0.2-0.2c0.2,0,0.4,0,0.6,0
		c0.1-0.1,0.2-0.2,0.4-0.4c0.3-1.2,1.5-0.8,2.2-1.1c0.4-0.1,0.8-0.2,1.1-0.4c0.3-0.3,0.9-0.5,0.8-1.1c0.3-0.2,0.6-0.3,1-0.3
		c0.2,0,0.3,0,0.4-0.1c0.2-0.1,0.5-0.3,0.7-0.4l0,0c0.1-0.1,0.2-0.2,0.3-0.3c0.5,0,0.8-0.6,1.2-0.8c0.2-0.2,0.5-0.5,0.8-0.7
		c0,0,0,0,0,0c0,0,0,0,0,0c1.1-0.2,1.6-1.1,2.2-1.9c0,0,0,0,0,0c0,0,0,0,0,0l0,0c0.1,0,0.2,0,0.4,0c0,0,0,0,0,0
		c0.8-0.5,1.5-1,2.2-1.5c0,0,0,0,0,0c0,0,0,0,0,0c3.1,0,5.6-1.3,7.5-3.7c0,0,0,0,0,0c0.5-0.5,0.8-1.2,1.5-1.5c0,0,0,0,0,0
		c0,0,0,0,0,0h0c1.3-0.1,2.1-1.1,2.9-1.9c1.3-1.4,2.8-2.3,4.9-2.2c1.5,0.1,2.5-0.7,2.7-2.2c0,0,0,0,0,0l0,0c0.4-0.2,0.8-0.5,1.1-0.8
		c0-0.1,0-0.2,0-0.4C100.4,30.4,99.7,30.5,99.9,31.8z M84.5,41.5C84.5,41.4,84.5,41.4,84.5,41.5c0-0.2,0-0.3,0.1-0.5
		c0.3-0.2,0.5-0.1,0.7,0C85.1,41.2,84.8,41.3,84.5,41.5z"/>
	<path class="st63" d="M104.1,30c0.6-0.4,1.5-0.2,1.9-1.1C105.1,28.9,104.2,28.8,104.1,30z"/>
	<path class="st63" d="M12.1,73.1c0,0,0,0,0.1-0.1c0-0.1,0-0.2-0.1-0.2c-0.1,0-0.2,0-0.4,0c0,1.5,0,3.1,0,4.6c0,1,0.2,1.7,1.1,2.1
		C11.8,77.4,12.4,75.2,12.1,73.1L12.1,73.1z"/>
	<path class="st63" d="M99.4,25.9c-0.8,0-0.6,0.9-0.6,1.5c0,0.5-0.2,1.3,0.6,1.2c0.7-0.1,0.4-0.9,0.5-1.4
		C99.9,26.7,100.1,25.8,99.4,25.9z"/>
	<path class="st63" d="M105.1,26.5c0.8-0.8,0.7-1.7-0.7-2c-0.7,0.3-1,1.1-1.9,1.1v0c-0.3,0.7-0.3,1.5,0,2.2
		C103.8,28.2,104.5,27.1,105.1,26.5z"/>
	<path class="st63" d="M35.7,70.8c0.1-0.5-0.5-0.8-0.8-1.2c-0.4-0.7-0.7-0.2-1,0.1c-0.4,0.4-0.9,0.5-1.4,0.4h0c0,1.6,1.2,1,2,1.1
		C35,71.3,35.6,71.2,35.7,70.8z"/>
</g>
<path class="st64" d="M22.9,84.7c-0.2,0-0.5,0-0.8,0c0-0.4,0-0.8,0-1.1c0.2-0.2,0.5-0.5,0.8-0.8c1.1,0.2,1.1,0.8,0.7,1.6
	C23.4,84.6,23.2,84.8,22.9,84.7L22.9,84.7z"/>
<path class="st65" d="M23.3,84.3c0.5-0.7,0.1-1.1-0.4-1.5c0-0.1,0-0.2,0-0.4c0-0.1,0.1-0.2,0.1-0.2c0.9-1.1,1.8-2.3,1.7-3.9
	c0-0.3,0.1-0.5,0.3-0.7c1.1-0.4,1.6,0.3,2.1,1.1c0,0.2,0,0.3,0,0.5c-0.2,1.3-1.5,2.1-1.7,3.4C24.8,83.4,24.7,84.7,23.3,84.3
	L23.3,84.3z"/>
<path class="st66" d="M19.2,83.6c0.4-1.9,2-0.8,3-1.1C21.3,83.2,20.1,83,19.2,83.6z"/>
<path class="st67" d="M22.2,82.4v-0.8c0.2-0.8-0.2-2.1,1.3-2.1c0.6,1.1,0.3,2-0.5,2.8l0,0C22.7,82.4,22.4,82.4,22.2,82.4L22.2,82.4z
	"/>
<path class="st68" d="M29.6,73.1c-0.1,0.1-0.2,0.2-0.4,0.4c-1.3,1.3-2.9,1.8-4.7,1.7c-0.3-0.1-0.5-0.3-0.6-0.5c0-0.2,0-0.4,0.1-0.6
	c0.9-0.7,2.1-0.9,3-1.8c0.5-0.5,1.1-0.3,1.5,0.4C28.9,72.8,29.3,73,29.6,73.1L29.6,73.1z"/>
<path class="st44" d="M31.9,69.7c-0.1,0.2-0.2,0.5-0.4,0.8c-0.2,0.2-0.5,0.5-0.7,0.8c-0.8,0.3-1.5,0-2.2-0.2
	c-0.1-0.2-0.2-0.4-0.1-0.5c1.9-0.8,2.7-2.7,4.5-3.6c0.3,0,0.6,0.1,0.8,0.3C33.3,68.1,32,68.5,31.9,69.7L31.9,69.7z"/>
<path class="st69" d="M28.5,72.7c-0.5-0.2-1.1-0.7-1.5,0c-0.7,1.2-1.9,1.1-3,1.5c-0.1-0.1-0.1-0.3-0.1-0.5c0.3-0.6,0.8-1,1.2-1.4
	c0.7-0.8,1.6-1.3,2.7-1.2c0.4,0.1,0.8,0.1,1,0.4C28.8,72,28.6,72.3,28.5,72.7L28.5,72.7z"/>
<path class="st70" d="M28.9,71.6c-0.4,0-0.8,0-1.1,0c-0.1-0.6,0.1-0.8,0.8-0.7c0.8-0.1,1.5,0.2,2.2,0.4
	C30.2,71.9,29.5,71.5,28.9,71.6L28.9,71.6z"/>
<path class="st36" d="M24.4,75c1.7-0.2,3.3-0.9,4.9-1.5c0,0.2,0,0.5,0,0.7c-0.3,0.6-1,0.9-1.5,1.3c-0.6,0.3-1.3,0.3-1.9,0.5v0
	c-0.2,0.2-0.5,0.2-0.8,0.2C24.7,76,24.2,75.7,24.4,75L24.4,75z"/>
<path class="st71" d="M27.8,75.3c0.3-0.6,0.8-1.1,1.5-1.1c0.1,0,0.2,0,0.4,0c0,0.7-0.4,1.1-1.1,1.1C28.3,75.5,28,75.6,27.8,75.3
	L27.8,75.3z"/>
<path class="st72" d="M42.7,11.3c-1,0-2,0-3,0c0-0.1,0-0.2,0-0.4C40.7,11.1,41.8,10.6,42.7,11.3L42.7,11.3z"/>
<path class="st73" d="M86.9,16.6c-1,0.1-1.9,0.3-2.9,0.4c-1,0.1-0.3,0.9-0.4,1.3c-0.1,0.6,0.3,1.5-0.5,1.8c-0.8,0.3-0.8-0.8-1.2-1.1
	c-0.2-0.2-0.4-0.6-0.7-0.6c-2.3-0.3-4.7-0.7-6.9,0.2c-0.6,0.2-1.1,0.9-1.8,0.5c-0.9-0.5,0.1-1.1,0.1-1.6c0-0.3-0.2-0.6-0.2-0.9
	c0.4,0,0.8,0,1.1,0c2.9,0.5,5.9,0.7,8.8-0.1c1.5-0.5,3.1-0.1,4.6-0.2c0.1,0.1,0.1,0.1,0.1,0.2C87,16.5,86.9,16.5,86.9,16.6
	L86.9,16.6z"/>
<path class="st72" d="M54.7,12.9c0,0.1,0,0.2,0,0.4c-3.7,0.4-7.2-0.7-10.7-1.2c-0.5-0.1-0.9-0.3-1.2-0.7c2.6-0.1,5.1,0.6,7.6,1.3
	C51.7,13.1,53.2,12.8,54.7,12.9z"/>
<path class="st73" d="M92.1,16.2c0,0.1,0,0.2,0,0.4c-0.8,0.3-1.5,0.3-2.3,0l0,0c-0.9-0.5-2,0.1-3-0.4l0,0c1.1-1,2.3-1,3.5-0.4
	C90.9,16.1,91.5,16.2,92.1,16.2z"/>
<path class="st43" d="M89.8,16.6c0.8,0,1.5,0,2.3,0c0.1,0,0.2,0,0.4,0c0,0.1,0,0.2,0,0.4C91.6,16.8,90.6,17.3,89.8,16.6L89.8,16.6z"
	/>
<path class="st48" d="M33,67.1c0.3-0.7,0.9-0.8,1.5-1.1c1.8-1,3.5-2.2,5.3-3.3c1.9-1.2,4.2-1.6,5.3-4c0.2-0.4,0.9-0.2,1.4-0.2
	c-0.1,0.1-0.3,0.2-0.4,0.4c-0.6,0.4-1.1,0.9-1.5,1.5l0,0c-0.5,1,0.1,2-0.4,3l0,0c-0.5,0.3-0.9,0.2-1.4,0.1c-1.9-0.2-3.2,0.4-3.9,2.2
	c-0.4,1-0.7,1.3-1.7,0.8c-0.9-0.4-1.8-0.1-2.7,0.2c-0.2,0.1-0.5,0.2-0.7,0.4C33.5,67.1,33.3,67.1,33,67.1L33,67.1z"/>
<path class="st44" d="M34.5,66.7c1.2-1.1,2.5-0.7,3.8-0.3c0.4-1.3,1-2.3,2.2-3.1c1.3-0.8,2.5,0.2,3.8,0c-0.3,0.5-0.9,0.4-1.3,0.4
	c-2.1-0.2-3.2,0.9-3.9,2.6c-0.4,0.9-0.8,1.4-1.8,0.8C36.4,66.6,35.4,66.8,34.5,66.7L34.5,66.7z"/>
<path class="st44" d="M44.2,63.4c0.2-1-0.4-2.1,0.4-3C44.4,61.4,45,62.4,44.2,63.4z"/>
<path class="st44" d="M44.6,60.4c0.1-0.9,0.6-1.4,1.5-1.5C45.7,59.5,45.2,60,44.6,60.4z"/>
<path class="st74" d="M27,82.4c-0.6,0-1.2,0-1.9,0c-0.1-1.5,1.5-2.1,1.9-3.4c1.1,0.7,1,1.6,0.4,2.6C27.1,81.9,27,82.1,27,82.4
	L27,82.4z"/>
<path class="st75" d="M27.4,81.7c0.3-0.9,0.1-1.8-0.4-2.6l0,0c0.2-0.8,0.9-1.1,1.5-1.5l0,0c1,0.1,0.7,0.9,0.7,1.5
	c-1.3,0.6-1.1,1.9-1.5,3C27.6,82,27.5,81.8,27.4,81.7L27.4,81.7z"/>
<path class="st76" d="M28.5,77.6c-0.4,0.6-0.9,1.1-1.5,1.5c-0.4-0.8-1.1-1.1-1.9-1.5c-0.1-0.1-0.2-0.2-0.3-0.4
	c-0.1-0.2-0.1-0.5,0-0.7c0.1-0.2,0.1-0.3,0.3-0.4c0.2,0,0.5,0,0.8,0c0.3,0.9,1,1.3,1.9,1.5C28,77.6,28.2,77.6,28.5,77.6L28.5,77.6z"
	/>
<path class="st77" d="M27.8,75.3c0.2,0,0.5,0,0.8,0c-0.6,1.2-1.4,1.7-2.6,0.7C26.4,75.5,27,75.3,27.8,75.3L27.8,75.3z"/>
<path class="st78" d="M15.8,75c0.8-1.2,2.1-2,3.1-3c0.9-0.9,1.3-0.5,1.8,0.3c0.1,0.1,0.2,0.3,0.2,0.5c0,0.2-0.1,0.3-0.2,0.4
	c-1.1,0.4-2.2,0.8-2.9,1.9c-0.6,0.3-1.1,1.1-1.9,0.5C15.8,75.5,15.8,75.2,15.8,75z"/>
<path class="st79" d="M15.8,75.7c0.6-0.2,1.2-0.5,1.9-0.8c0.5,0.3,0.7,0.8,0.6,1.4c-0.2,0.5-0.4,1-1,1.2c-0.1,0-0.2,0-0.4,0
	c0-0.8-0.5-1.2-1.1-1.5C15.8,76,15.8,75.8,15.8,75.7L15.8,75.7z"/>
<path class="st43" d="M94.7,28.2c0-0.4,0-0.9,0.1-1.3c0.4-1,0.2-1.6-0.9-1.7c-0.8-0.1-1.3-0.6-0.9-1.4c1.4-2.4,1.1-4.7-0.6-6.8
	c1.6,0.5,2.4,1.6,2.3,3.3c-0.1,1.3,0,2.4,1,3.5C97.1,25.4,95.7,26.8,94.7,28.2L94.7,28.2z"/>
<path class="st80" d="M25.1,76.5c0,0.2,0,0.5,0,0.7c-0.4,0.8-1,1.5-1.6,2.1c-0.1,0-0.1,0.1-0.2,0.1c-0.4,0.8-0.7,1.5-1.1,2.2
	c-0.1,0-0.2,0-0.4,0c0-0.1,0-0.2,0-0.4c-0.2-0.2-0.2-0.5,0-0.8l0,0c0.3-1.4,0.9-2.6,2-3.5C24.2,76.7,24.5,76.2,25.1,76.5L25.1,76.5z
	"/>
<path class="st81" d="M21.8,80.6c0,0.2,0,0.5,0,0.8c-1.5-0.2-2.8-0.9-4.1-1.5c0.1-0.8,0.5-0.5,0.9-0.3
	C19.5,80.3,20.6,80.4,21.8,80.6L21.8,80.6z"/>
<path class="st80" d="M21,82.1c-0.9,0-1.7,0-2.6,0C19.3,81,20.2,81,21,82.1z"/>
<path class="st82" d="M17.3,77.6l0.8-1.1c0.1-0.2,0.2-0.3,0.2-0.5c0-1.2,0.7-1.9,1.7-2c1.2-0.1,1.8,0.9,2.2,1.9
	c0.2,0.8,0.3,1.7-0.2,2.5c-0.4,0.4-0.9,0.4-1.4,0.3c-0.8-0.4-0.4-1.1-0.3-1.6c0.1-0.4,0.1-0.9-0.2-1c-0.6-0.2-0.7,0.4-0.8,0.8
	c-0.2,0.9-0.8,1.5-1.6,1.9c-0.1,0-0.2,0-0.4,0C17.3,78.3,17.3,77.9,17.3,77.6L17.3,77.6z"/>
<path class="st83" d="M17.7,78.7c0.5-0.8,1.2-1.4,1.3-2.4c0-0.5,0.4-1.4,1.1-1.1c0.7,0.3,1.2,1.1,0.7,2c-0.2,0.4-0.5,0.7-0.5,1.2
	c-0.2,0.5-0.6,0.8-1.1,0.4L17.7,78.7L17.7,78.7z"/>
<path class="st84" d="M19.2,78.7c0.4-0.1,0.8-0.2,1.1-0.4h1.5c0.4-0.6,0-1.6,1-1.7c0.2,0,0.4,0.1,0.5,0.2c-0.1,1.2-0.8,2.1-1.6,3
	C20.7,79.9,19.7,79.9,19.2,78.7L19.2,78.7z"/>
<path class="st81" d="M21.8,79.8c0.5-1,1-2,1.5-3c0.1-0.1,0.3-0.2,0.5-0.2c0.2,0.1,0.5,0.2,0.3,0.5c-0.8,1.1-1.5,2.2-2.2,3.4
	C21.8,80.3,21.8,80.1,21.8,79.8z"/>
<path class="st85" d="M22.9,82.4c0.3-1,0.5-2,0.4-3l0,0c0.6-0.4,0.9-1.3,1.9-1.1C25.2,80.1,24.6,81.6,22.9,82.4z"/>
<path class="st67" d="M25.1,78.3c-0.7,0.3-1,1.2-1.9,1.1c0.2-1.1,1.1-1.6,1.9-2.2c0,0.1,0,0.3,0,0.4C25.1,77.8,25.1,78.1,25.1,78.3z
	"/>
<path class="st86" d="M23.7,76.8c-0.1,0-0.2,0-0.4,0c-0.1,0-0.2,0-0.4,0c-0.5-1-0.6-2.1,0-3.1c0.2-0.2,0.4-0.4,0.7-0.4
	c0.3,0.1,0.5,0.2,0.4,0.5c0,0.1,0,0.2,0,0.4c0,0.1,0,0.2,0,0.4C24.3,75.4,24.7,76.2,23.7,76.8L23.7,76.8z"/>
<path class="st87" d="M23.7,76.8c0.4-0.7,0.4-1.5,0.4-2.2c0.1,0.1,0.3,0.2,0.4,0.4c0.2,0.4,0.5,0.7,0.7,1.1c0,0.1,0,0.3,0,0.4
	c-0.4,0.2-0.7,0.5-1.1,0.7C23.9,77.1,23.8,77,23.7,76.8L23.7,76.8z"/>
<path class="st88" d="M24,73.8l-0.4-0.4c-0.2-0.3,0-0.5,0.1-0.7c0.1,0,0.1-0.1,0.2-0.1c0.4,0,0.8,0,1.1,0
	C24.9,73.2,24.5,73.6,24,73.8z"/>
<path class="st43" d="M86.9,16.2c1,0.2,2.1-0.4,3,0.4c-1,0-2,0-3,0C86.9,16.5,86.9,16.3,86.9,16.2z"/>
<path class="st89" d="M21.8,75.7c-1.7-2.1-2.2-2-3.7,0.8c-0.1-0.5-0.2-1-0.4-1.5c0.4-1.6,1.6-1.9,3-1.9c0.7,0.2,1.2,0.6,1.7,1.2
	C22.5,74.9,22.3,75.4,21.8,75.7L21.8,75.7z"/>
<path class="st90" d="M22.1,74.2c-0.8,0-1.2-0.5-1.5-1.1c0-0.1,0-0.2,0-0.4c1.1,0.6,2.2-0.1,3.4,0c-0.1,0.2-0.2,0.5-0.4,0.7
	c-0.1,0.1-0.2,0.2-0.4,0.4C22.9,74,22.6,74.5,22.1,74.2L22.1,74.2z"/>
<path class="st91" d="M22.1,74.2c0.4-0.1,0.8-0.2,1.1-0.4c-0.8,0.9,0,2-0.4,3c-0.8,0.2-0.6,1.1-1.1,1.5c0-0.9,0-1.8,0-2.6
	C21.9,75.2,22,74.7,22.1,74.2L22.1,74.2z"/>
<path class="st92" d="M34.9,113.5c0.4-0.6,0-1-0.2-1.5c-0.5-1.5-1.4-3.1-1-4.5c0.8-2.5,0.3-4.9,0.2-7.3c-0.1-2.3,0.6-4.7-0.8-6.9
	c-0.3-0.4-0.1-0.9,0.2-1.2c1.2-1.2,0.6-2.4,0.3-3.7c-0.3-1.1-0.5-2.2-0.5-3.4c0-1,0.2-2.1-0.4-3c-0.3-0.5-0.1-1.1-0.2-1.6
	c-0.1-0.7-0.3-1-1-0.7c-0.1-0.1-0.2-0.2-0.4-0.4c-0.7-0.2-1.2-0.6-2-0.6c-1.4,0.6-1.7,1.6-1.5,2.8c-0.1-0.1-0.3-0.1-0.4-0.1
	c-0.4,0.1-0.5,0.4-0.5,0.7c-0.5-0.3-1.1-0.3-1.6,0.1c-0.6,0.6-0.9,1.6-1.9,1.9c-0.1,0.1-0.2,0.2-0.4,0.4c0,0.6,0,1.2,0,1.9
	c-0.1,0.1-0.2,0.2-0.4,0.4c0,0,0,0,0,0c-0.3,0.1-0.5,0.3-0.6,0.5c-0.3-0.2-0.5-0.3-0.9-0.2c-0.1,0-0.2,0-0.4,0l0,0
	c0.2,0.8,1.8,1.4,0.4,2.6c-2.1,1.9-3.4,4.2-3.4,7.1c0,0.1,0,0.2,0,0.4c0,0,0,0,0,0.1c-0.1,1.7,0.1,3.4-0.3,5.1
	c-0.2,0.8-0.4,1.8,0.3,2.7c0,0,0,0,0,0c0,0.5,0,1,0,1.5c0,0,0,0.1,0,0.1c-0.5,0.7-0.5,1.4,0,2.1c0,0,0,0,0,0.1c0,0.1,0,0.1,0,0.2
	c-0.5,1.8-0.6,3.5,0.4,5.2c0.2,0.3,0.4,0.9,0.3,1.2c-0.7,1.9-0.4,3.8-0.3,5.8c0,0,0,0,0,0c-0.1,0.1-0.2,0.2-0.4,0.4c0,0,0,0,0,0
	c-1.2,1-1,2.2-0.6,3.5c0.2,0.6,0.7,1.1,0.6,1.7c-0.6,3.1,1.1,5.6,1.9,8.4c0.5,1.7,2.5,2.9,1.5,5.1c0,0,0,0,0,0c0,0,0,0,0,0
	c0,0,0,0,0,0l0,0c-0.2,0-0.5,0-0.7,0c-0.3,0.5-0.2,0.9,0.4,1.1l0,0v0c0,0,0,0,0,0h0c2.4,0,4.2,2,6.8,1.6c2.8-0.4,3.4-0.5,4.4-3.2
	c0.3-0.9,0.8-1.7,1.1-2.5c0,0,0,0,0,0c0,0,0,0,0,0v0c0.3-1.3,1.1-2.6,0.7-3.9c-0.7-2.4-0.3-4.9-0.3-7.3l0,0c0-2-0.2-3.9,0.9-5.7
	c0.5-0.7,0.1-1.5-0.2-2.3c-0.5-1.2-0.6-2.5,0.4-3.6v0C34.5,114.2,34.4,113.8,34.9,113.5z M18.5,116c0-0.3,0-0.7,0-1
	C18.7,115.2,18.7,115.6,18.5,116z M21.8,133.8C21.8,133.8,21.8,133.7,21.8,133.8C21.8,133.7,21.8,133.7,21.8,133.8
	C21.8,133.7,21.8,133.7,21.8,133.8C21.8,133.7,21.8,133.7,21.8,133.8C21.8,133.8,21.8,133.8,21.8,133.8z M25.5,86.2
	c1.8,0.2,3.3,2.1,5.2,1c0,0,0,0,0,0c0,0.2,0.1,0.3,0.1,0.5c0.5,1.8-0.3,3.7-0.2,5.5c0,0.5,0.1,1,0.5,1.3c0.1,0.1,0.3,0.3,0.4,0.5
	c0,1.4-0.2,2.9,0.7,4.2c0,0.1,0.1,0.2,0.1,0.3c0,0.1,0.1,0.1,0.2,0.2c0,0,0,0.1,0,0.1c-0.9,0.6-1.7,1.5-1.3,2.5
	c0.9,2.1,0.8,4,0.3,6.1c-0.1,0.7,0.2,1.5,0.5,2.2c0.1,0.3,0.3,0.6,0.7,0.4c0,0,0,0,0,0l0,0c-0.7,1.6,0.1,3.2-0.2,4.7
	c0,0.6,0,1.3,0,1.9c-0.4,0.6-0.4,1.2,0,1.8c0,0.4,0.1,0.7,0.1,1.1c0.1,0.1,0.2,0.3,0.3,0.4c0,0,0,0.1,0,0.1c0,0-0.1,0-0.1-0.1
	c-1,0-1.2,0.7-1.3,1.4c0,0.4,0,0.7,0,1.1c0,0.6,0.1,1.1,0.3,1.7c0.3,1,0.2,1.9-0.6,2.7l0,0c-0.5,0.4-0.3,1-0.5,1.5
	c-0.7,1.9,0.7,3.6,0.3,5.4c0,0.1,0,0.2,0.1,0.3c0,0-0.1,0.1-0.1,0.1c-0.4,0.6-0.5,1.3-0.8,1.9c-0.9,1.7-2.9,2.7-4,1.9
	c-1.1-0.8-2.2-1.6-2.4-3.2c-0.1-0.7-0.2-1.5-0.9-2c0.5-0.8,0.7-1.6,0.4-2.5c-0.8-2.5-1.2-5-2.8-7.2c0,0,0-0.1,0.1-0.1
	c0.8-0.2,1.1-0.9,1.1-2c0.1-2.6-1.6-5.2,0-7.8l0,0c0.1-0.1,0.2-0.3,0.2-0.5c-0.4-0.8,0.3-1.2,0.6-1.8c0.5-1-0.3-1.3-0.9-1.7
	c-0.5-0.4-1.1-0.6-1.6-0.9c0-0.2,0-0.5,0-0.7c0.7-1.4,1-2.9,1.3-4.5c0.2-1-1-1.9-0.3-3c0.6-0.9,0.2-1.7-0.7-2.3c0-0.1,0-0.1,0-0.2
	c0-1.5,1.7-2.7,1.1-4.4c0,0,0,0,0,0c0-0.1,0-0.2,0-0.4c1.4-1,2.2-2.3,2.7-4c0.4-1.3-0.4-3.1,1.4-3.9c0,0,0,0,0,0c0,0,0,0,0,0
	C25.3,86.2,25.4,86.2,25.5,86.2z"/>
<path class="st93" d="M32.6,110.9L32.6,110.9c-0.6-0.7-0.7-1.7-0.6-2.4c0.2-2.2,1-4.3-0.4-6.4c-0.5-0.8,1.1-1.4,1.1-2.4
	c-0.4-0.5-0.4-1.2-0.6-1.7c-0.7-1.1,0.3-2.5-0.5-3.5c-0.4-0.3-0.4-0.7-0.4-1.1c-0.4-0.7-0.3-1.5-0.1-2.2c0.4-1.3,0.4-2.5,0.1-3.8
	c0-0.1,0-0.2,0-0.4c-1.8,0.1-3.5-0.3-5-1.1c-0.2-0.1-0.4,0-0.5,0c-0.2,0-0.4,0-0.5,0.1c-1,0.3-1.4,0.9-1.4,1.9
	c0,2.5-1.1,4.4-2.7,6.1c-0.1,0.2-0.2,0.3-0.2,0.5c0.2,1.5-1.3,2.7-0.9,4.3c0.9,2,0.3,4.1,0.5,6.1c0.1,1.4-0.8,2.6-0.8,4
	c-0.1,0.2-0.1,0.3,0,0.5c0.2,0.7,0.9,1,1.5,1.3c0.7,0.3,1,0.8,1,1.6c0,0,0,0,0,0c-0.6,0.4-1.5,0.6-0.5,1.6l0,0c0,0.1,0,0.2,0,0.4
	c0,0,0,0,0,0c0,0-0.1,0-0.1,0c-1.5,2-1,4.2-0.3,6.3c0.5,1.6,0.2,2.8-1.4,3.4c2,3.1,3.5,6.3,3,10.1v0c0.4,0.2,0.3,0.6,0.4,1
	c0.2,1.5,0.8,2.7,2,3.8c1.2,1.1,2.4,1.1,3.7,0.3c1.5-0.9,2.2-2.2,2.5-3.9c0-0.1,0-0.2,0-0.4c0.1-0.5,0.8-0.8,0.5-1.3
	c-1.1-1.9-0.3-3.9-0.5-5.8c0,0,0,0,0.1,0.1c1.1-0.6,1.1-1.6,0.9-2.7c-0.2-1-0.6-2-0.2-3c0-0.7,0.4-1.1,1.1-1.1c0-0.1,0-0.2,0-0.4
	c-0.3-0.4-0.1-0.8-0.3-1.2c-0.2-0.8-0.2-1.5,0-2.3c0.1-0.6-0.2-1.2,0.2-1.8C33.1,113.9,32.8,112.4,32.6,110.9z M23.3,110.9
	C23.3,110.9,23.3,110.9,23.3,110.9C23.3,110.9,23.3,110.9,23.3,110.9C23.3,110.9,23.3,110.9,23.3,110.9z M23.3,111.6
	C23.3,111.6,23.3,111.6,23.3,111.6C23.3,111.6,23.3,111.6,23.3,111.6L23.3,111.6c0.1,0,0.2,0.1,0.2,0.2c-0.1,0-0.1,0-0.2-0.1
	C23.3,111.7,23.3,111.7,23.3,111.6z"/>
<g>
	<path class="st94" d="M12.4,52.9C12.4,52.9,12.4,52.9,12.4,52.9C12.4,52.9,12.4,52.9,12.4,52.9L12.4,52.9z"/>
	<path class="st94" d="M93.9,24.5c-0.6-0.3-0.2-1,0-1.5c0.8-2.3,0.7-4.4-1.4-6c-0.7-0.5-1.7-0.2-2.5-0.7c-0.2-0.1-0.4-0.1-0.6-0.1
		c-0.9-0.1-1.7-0.1-2.6,0.2c-2.4,0.2-3.8,1.1-4.1,2.7c-3.1-2.4-6.5-1.4-9.8-0.6c-0.2-0.6,0.2-1.4-0.7-1.8c-0.1,0-0.2,0-0.4,0
		c0,0,0,0,0,0c-2,0.1-4.1,0.1-5.6-1.6c-0.2-0.3-0.9-0.2-1.4-0.2c0,0,0,0,0,0v0c0,0,0,0,0,0c-0.1-0.1-0.2-0.1-0.2-0.1
		c-1.4-0.6-3,0.1-4.3-1c-0.9-0.8-1.9-0.8-2.8,0.1c-0.3,0.3-0.8,0.3-1.2,0.3c-0.2-0.5-0.6-0.7-1.1-0.7c0,0,0,0,0,0c0,0,0,0,0,0
		c-0.1-0.1-0.2-0.2-0.4-0.4c0,0-0.1,0-0.1,0.1c0,0.1,0,0.1,0.1,0.2c-4.1,0.1-7.9-1.1-11.9-1.8c-1-0.3-2-0.3-3,0
		c-0.9,0.4-1.8,0.3-2.6,0L35.2,11c0,0,0,0-0.1,0c0,0,0,0,0,0c-0.8-0.7-1.9-1.6-2.7-1.3c-1.6,0.8-3.3,0.2-4.9,0.8
		c-0.3,0.1-0.7,0.2-1,0.2c-0.3,0-0.7-0.1-1-0.1c-0.4-0.1-0.8-0.3-1.2-0.6c-0.9-0.8-1.9-0.9-2.9-0.8c-1.2,0.1-2.2-0.2-3.2-1.1
		C17.4,7.1,16,7,14.8,7.3C14,7.5,13.6,8,14.4,8.8c0.3,0.3,1.2,0.3,0.7,1c-0.4,0.5-1,0.5-1.5,0.2c-1-0.6-1.7-0.1-2.4,0.6
		c-0.8,0.8-0.4,1.4-0.2,2.2c0.5,1.2,0.7,2.5-0.4,3.6c-0.4,0.4-0.5,0.9-0.4,1.4c0,0,0,0,0,0c0,0,0,0,0,0c0.1,0.5-0.7,1,0,1.5
		c0,0.8,0,1.5,0.8,1.9c0.8,0.4,0.9,1.1,0.6,1.8c-0.5,1.4-0.2,2.8-0.3,4.2c0,0.9,0.1,1.9-0.8,2.6c-0.1,1.5,0.2,2.9,1.1,4.1
		c0,0.4,0,0.7,0,1.1l0,0c0.1,0.1,0.2,0.3,0.3,0.4c0,0.5,0.1,0.9,0.1,1.4c0,0.2,0,0.4,0,0.6c0,0.5-0.1,1-0.2,1.5
		c0,0.6-0.1,1.2,0.1,1.7c0,0,0,0,0,0.1c-0.1,0.2-0.1,0.4,0.1,0.6c0,3.3,0,6.6,0,9.9c0,0.6-0.2,1.3,0.4,1.8c0,0,0,0.1,0,0.1
		c0,0,0,0,0-0.1c0.6,2.6-0.1,5.4,0.4,8c0.5,2.3-0.8,4.7,0.3,7c0.5,1,0.4,2.2,0.4,3.3c0,0,0,0,0,0c0.1,0.8-0.6,1.6,0.4,2.2
		c0,0,0,0,0,0c0.5,1.1-0.2,2.2,0,3.4c0.1,0.1,0.2,0.2,0.4,0.4c0,0,0,0,0,0c0,0,0,0,0,0c0,0,0,0,0,0v0c0,0,0,0,0,0
		c0.7,0.7,1.6-0.6,2.2,0.4c0.1,0,0.2,0,0.4,0c0.4-1,0-1.4-0.9-1.5c0.1-0.1,0.1-0.3,0.1-0.4c0-0.2,0-0.5,0-0.7c0.5-0.1,0.7-0.7,1-1
		c1.1-0.7,1.9-2.1,3.5-1.6c0,0.1,0,0.2,0,0.4h0c1.1,1.2,2.2,0.6,3.4,0c0,0,0,0,0,0c0,0.1,0,0.1,0.1,0.2c0.4,0.2,0.7,0.1,1.1-0.1
		c0.9-0.3,1.4-1.5,2.6-1.1c0.1-0.3,0.4-0.6,0.8-0.7l0,0c2-0.6,3-2.3,4.3-3.7c0,0,0.1-0.1,0.2-0.1c2.5-1.2,5.2-2.1,7.1-4.3
		c0.5-0.5,1.3-0.5,1.9-0.6c0.9-0.1,1.8-0.4,2-1.4c0.3-1.3,1.3-1.9,2.4-2.4c0.1,0,0.2,0,0.4,0c0-0.1,0-0.2,0-0.4c0,0,0,0,0,0
		c0.4,0,0.7,0,1.1,0c0.3-0.3,1-0.7,1-1c0-1.7,1.5-2.1,2.5-2.4c1.5-0.5,2.8-1.3,4-2.2c1-0.7,2-1.3,3-1.9c0.8-0.6,1.5-1.2,2.2-1.9
		c0,0,0,0,0,0c0,0,0,0,0,0c0,0,0,0,0,0c1.5,0.1,2.1-1.5,3.4-1.9c0,0,0,0,0,0c0,0,0,0,0,0l0,0c0.3,0,0.6-0.1,0.7-0.4c0,0,0,0,0,0
		c1.5-0.8,3-1.6,4.6-2.3c2-1,3.7-3,6.3-2.9c0-1,0.9-1.1,1.5-1.5c2.1-1.2,4.4-1.9,6.3-3.4c1.4-1.1,2.7-2.7,4.6-2.5
		c1.7,0.1,2.4-0.5,2.9-2c0,0,0,0,0,0c0.1,0,0.2,0,0.4,0c0.8-1.4,2.6-2,3-3.7c0,0,0,0,0,0c0,0,0,0,0,0c0.1,0,0.2,0,0.4,0l0,0
		C95.4,26.8,95.9,25.4,93.9,24.5z M91.7,30.5C91.7,30.5,91.7,30.4,91.7,30.5C91.7,30.4,91.7,30.4,91.7,30.5
		C91.7,30.4,91.7,30.4,91.7,30.5C91.7,30.4,91.7,30.5,91.7,30.5z M13,57.5c0,0.1,0,0.1,0,0.2C12.9,57.7,12.9,57.6,13,57.5z
		 M13.3,61.6c0.1,0.5,0.2,1.1,0.1,1.6C13.4,62.7,13.3,62.2,13.3,61.6z M13.9,71.2C13.9,71.2,13.9,71.2,13.9,71.2
		C13.9,71.2,13.9,71.2,13.9,71.2C13.9,71.2,13.9,71.2,13.9,71.2z M28.1,36.4c-0.5,0.1-1,0.4-1.4,0.7C27,36.4,27.3,36.2,28.1,36.4z
		 M31.9,65.2C31.9,65.2,31.9,65.3,31.9,65.2C31.9,65.3,31.9,65.2,31.9,65.2C31.9,65.2,31.9,65.2,31.9,65.2z M30.3,22.3
		C30.3,22.3,30.4,22.3,30.3,22.3C30.4,22.3,30.4,22.3,30.3,22.3C30.4,22.3,30.3,22.3,30.3,22.3z M55.5,51C55.5,51,55.5,51,55.5,51
		c0,0.1-0.1,0.1-0.1,0.1C55.4,51.1,55.4,51,55.5,51C55.4,51,55.4,51,55.5,51C55.4,51,55.5,51,55.5,51z M51.1,42.8c0,0-0.1,0-0.1,0
		C51,42.8,51.1,42.7,51.1,42.8C51.1,42.7,51.1,42.7,51.1,42.8z M60.7,15.1C60.7,15.1,60.7,15.1,60.7,15.1L60.7,15.1L60.7,15.1
		C60.6,15.1,60.6,15.1,60.7,15.1C60.6,15,60.6,15,60.7,15.1C60.6,15,60.6,15,60.7,15.1z M64.4,15.1C64.4,15.1,64.4,15.1,64.4,15.1
		C64.4,15.1,64.4,15.1,64.4,15.1C64.4,15.1,64.4,15.1,64.4,15.1C64.4,15.1,64.4,15.1,64.4,15.1C64.4,15.1,64.4,15.1,64.4,15.1
		C64.4,15.1,64.4,15.1,64.4,15.1z M73.8,20.2C73.8,20.3,73.8,20.3,73.8,20.2C73.8,20.3,73.8,20.3,73.8,20.2
		C73.8,20.3,73.8,20.3,73.8,20.2C73.8,20.3,73.8,20.3,73.8,20.2C73.8,20.3,73.8,20.3,73.8,20.2C73.8,20.3,73.7,20.3,73.8,20.2
		C73.7,20.3,73.8,20.3,73.8,20.2z M72.3,40.9C72.3,40.9,72.3,40.9,72.3,40.9C72.3,40.9,72.3,40.9,72.3,40.9
		C72.3,40.9,72.3,40.9,72.3,40.9z M72.3,40.9L72.3,40.9C72.3,40.9,72.3,40.9,72.3,40.9C72.3,40.9,72.3,40.9,72.3,40.9z M69.6,20.9
		C69.5,20.9,69.5,20.9,69.6,20.9C69.5,20.9,69.5,20.9,69.6,20.9z M55.3,50.3C55.3,50.3,55.3,50.3,55.3,50.3
		c-0.2,0.1-0.4,0.2-0.6,0.3C54.8,50.5,55.1,50.4,55.3,50.3z M37.9,12.5L37.9,12.5L37.9,12.5C37.8,12.5,37.8,12.4,37.9,12.5
		C37.9,12.4,37.9,12.5,37.9,12.5z M24.4,10.3c-0.5-0.1-0.9-0.2-1.4-0.4C23.5,10,23.9,10.1,24.4,10.3z"/>
	<path class="st94" d="M64.1,46.9L64.1,46.9C64,46.9,64,46.9,64.1,46.9C64,46.9,64.1,46.9,64.1,46.9z"/>
</g>
</svg>
