<?xml version="1.0" encoding="utf-8"?>
<!-- Generator: Adobe Illustrator 27.9.0, SVG Export Plug-In . SVG Version: 6.00 Build 0)  -->
<svg version="1.1" id="_레이어_1" xmlns="http://www.w3.org/2000/svg" xmlns:xlink="http://www.w3.org/1999/xlink" x="0px"
	 y="0px" viewBox="0 0 156.2 188.2" style="enable-background:new 0 0 156.2 188.2;" xml:space="preserve">
<style type="text/css">
	.st0{fill:#CBC5B9;}
	.st1{fill:#D7D2C9;}
	.st2{fill:#D2CDC3;}
	.st3{fill:#D0CAC0;}
	.st4{fill:#CDC7BD;}
	.st5{fill:#D5CFC6;}
	.st6{fill:#D4CFC5;}
	.st7{fill:#D5D0C7;}
	.st8{fill:#D3CEC4;}
	.st9{fill:#CFC9BF;}
	.st10{fill:#D8D3CA;}
	.st11{fill:#CEC8BE;}
	.st12{fill:#D6D1C8;}
	.st13{fill:#CDC6BB;}
	.st14{fill:#CCC6BA;}
	.st15{fill:#D1CBC1;}
	.st16{fill:#CAC4B8;}
	.st17{fill:#D1CCC2;}
	.st18{fill:#AFA594;}
	.st19{fill:#B0A695;}
	.st20{fill:#E1DED7;}
	.st21{fill:#C5BEB2;}
</style>
<path class="st0" d="M48.5,9.5c2.2,0.8,4.4,1.8,6,3.7c0.9,1.8,1.7,3.7,2.9,5.3l0,0c0.1,0.2,0.1,0.3,0,0.5c-1.6,0.5-1.9-0.9-2.4-1.8
	c-0.5-1.4-1.3-2.4-2.8-2.8c-0.8-0.2-1.3-0.6-1-1.6c0.2-0.6-0.5-0.6-0.8-0.8c-0.6-0.2-1.1-0.9-1.8-0.4c-0.4,0.2-0.8,0.5-1.2,0.2
	c-0.4-0.4-0.3-0.9-0.1-1.4c0.1-0.3,0.2-0.7,0.5-1C48.1,9.4,48.3,9.3,48.5,9.5L48.5,9.5z"/>
<path class="st1" d="M27.7,75c-0.1-4.3,1.9-7.4,5.6-9.4c0.4-0.2,0.7-0.5,1-0.7s0.7-0.2,1-0.2c0.7,0.6-0.4,1.2,0.1,1.8
	c0.1,0.2,0.2,0.5,0.1,0.7c-0.2,0.3-0.5,0.5-0.9,0.5c-0.1,0-0.2-0.1-0.4-0.1c-1.3,0-4.4,2.7-4.6,4c0,0.2,0,0.5-0.1,0.7
	c0,0.2-0.1,0.3-0.1,0.4c-0.1,0.2-0.1,0.3-0.2,0.4s-0.2,0.2-0.3,0.3c-0.4,0.4-0.5,1-0.8,1.4C28,75.1,27.9,75.1,27.7,75L27.7,75z"/>
<path class="st2" d="M44,91.8c3.5,0.5,6.2-1.3,9-3c-1.2,1.8-2.9,3.1-4.9,3.7c-0.4,0.1-0.7,0.2-1,0.5c-0.8,0.2-1.6-0.1-2.3-0.4l0,0
	c-2.2-0.1-3.9-1.2-5.6-2.6c-0.4-0.3-0.8-0.6-0.8-1.2c0.1-0.1,0.3-0.1,0.4-0.1c0.4,0.2,0.7,0.4,1,0.6c0.6,0.4,1.3,0.5,2,0.7
	c0.2,0.1,0.3,0.2,0.4,0.2C42.9,90.8,43.4,91.5,44,91.8z"/>
<path class="st2" d="M121.5,61.5c-3.8,4.2-8.3,5.7-13.9,4.4c-0.1-0.2-0.1-0.3,0.1-0.5c1.2-0.6,2.5-0.6,3.8-0.5
	c0.2,0,0.3-0.1,0.5-0.1c1.1-0.2,2.2,0.1,3.1-0.7c0.2-0.2,0.4-0.3,0.7-0.4c0.2-0.1,0.5-0.1,0.8-0.1c1.4-0.2,2.3-1.1,3.2-2
	c0.3-0.2,0.6-0.4,0.9-0.5C121,61.2,121.3,61.3,121.5,61.5L121.5,61.5z"/>
<path class="st1" d="M41.4,39.9c-3.5-1.2-5.6-4.1-7.8-6.8c-0.6-1-1.8-1.7-1.5-3.2c0.4-0.3,0.9-0.3,1.4-0.1c1,1,1.4,2.5,2.2,3.7
	c0.6,1.2,1.7,2,2.6,3c0.3,0.3,0.6,0.6,0.9,0.8c0.8,0.7,2,0.9,2.5,2C41.6,39.6,41.5,39.7,41.4,39.9L41.4,39.9z"/>
<path class="st3" d="M41.4,39.9c0-0.1,0-0.3,0-0.4c0.1-0.1,0.3-0.1,0.5-0.1c0.6,0.3,1.3,0.6,2,0.9c0.4,0.2,0.7,0.3,1.1,0.5
	c0.7,0.2,1.5,0.2,2.2,0.6c0.2,0.1,0.3,0.2,0.5,0.2c1.6,0.4,3.4-0.2,4.9,0.8c0.1,0.1,0.1,0.2,0.1,0.3s0,0.2-0.1,0.2
	C48.4,43.8,44.6,42.9,41.4,39.9L41.4,39.9z"/>
<path class="st4" d="M127.4,52.2c0,0.3,0,0.5,0.1,0.8c-0.7,1.2-0.8,2.7-1.9,3.7c-0.2,0.1-0.4,0.1-0.5-0.1c0-1.1,0.1-2.3-0.3-3.4
	c-0.2-0.8-0.2-1.8,0.8-2.2S126.9,51.6,127.4,52.2L127.4,52.2z"/>
<path class="st5" d="M27.7,75c0.1,0,0.2,0,0.3,0c0.3,0.3,0.4,0.7,0.6,1c0.1,0.2,0.1,0.3,0.2,0.5c0.5,1.2,0.8,2.4,1.6,3.5
	c0.5,0.7,0.5,1.5-0.1,2.1c-1.7-1.6-2-3.9-2.6-6C27.6,75.7,27.7,75.4,27.7,75L27.7,75z"/>
<path class="st2" d="M125.1,56.7c0.1,0,0.3,0,0.4,0c-0.6,2.2-2.6,3.3-4.1,4.9c-0.3,0-0.5,0-0.8,0c0.1-1.5,1.3-2.1,2.1-3
	c0.6-0.5,1.1-1.1,1.6-1.7C124.6,56.7,124.8,56.6,125.1,56.7L125.1,56.7z"/>
<path class="st6" d="M57.5,18.5c-1.6-1.4-2.6-3.2-2.9-5.3C56,14.7,56.6,16.7,57.5,18.5z"/>
<path class="st7" d="M54.5,87.4c0-0.1,0-0.3,0-0.4c0.7-1.2,1.7-2.1,2.5-3.2c0.2-0.3,0.7-0.5,1.2-0.2c0.4,1.1-0.6,1.6-1,2.4
	C56.5,86.9,55.5,87.1,54.5,87.4L54.5,87.4z"/>
<path class="st8" d="M57.1,71.3c-0.3,1.3,1.1,2.1,0.7,3.4c-1.6-0.8-1.9-1.7-1.2-3.6v-0.2C56.9,71,57,71.1,57.1,71.3z"/>
<path class="st9" d="M95.6,38.7c0,0.2,0,0.5,0,0.7c-0.5,0.4-0.5,0.8,0,1.2c0.7,0.6,1,1.4,0.7,2.3c-0.3,1-0.1,1.9-0.1,2.9
	c0,0.3,0.1,0.6,0,0.9c-0.2,0.5-0.6,0.5-1,0.4c-0.8-0.3-1.2-1-0.9-1.8c0.4-1.2,0.1-2.4-0.1-3.6C93.9,40.5,93.6,38.9,95.6,38.7
	L95.6,38.7z"/>
<path class="st10" d="M97.5,41.3c-0.3,0-0.6,0.2-0.8,0.1c-0.2-0.1-0.2-0.3,0-0.5C97.1,40.9,97.8,40.3,97.5,41.3z"/>
<path class="st11" d="M96.4,75.4c0,0.1,0,0.2,0,0.3c0.9,2.8,0.6,5.5,0.3,8.3c-0.4,0.6-0.7,0.3-1-0.1c-0.6-1.1,0-2.3-0.2-3.4
	c0-2,0.4-4.1-1.2-5.8c-0.5-0.5-0.2-1.4-0.4-2.2c-0.2-0.7-0.4-1.5,0-2.2c0.3-0.6,0.9-1.1,1.1-1.7c0.4-0.9,0.9-2-0.2-2.8
	c-0.6-0.4-0.6-1-0.5-1.7c0-0.2,0.1-0.3,0.1-0.5c0.3-0.5,0.5-1.1,0.9-1.5c0.2-0.1,0.3-0.1,0.5,0c0.3,0.2,0.5,0.5,0.4,0.9
	c-0.6,1-0.5,1.9,0.4,2.7c0.4,2.1,0.2,4.3,0.6,6.4C97.3,73.3,95.9,74.1,96.4,75.4L96.4,75.4z"/>
<path class="st12" d="M96.4,84.4c0-2.9,0-5.8,0-8.6c0.1,0,0.2,0,0.3,0c0.7,2.1,0.3,4.2,0.4,6.3c0,0.2,0.1,0.4,0.1,0.6
	c-0.1,0.7,0.2,1.4-0.2,2.1c0,0.5,0,1,0,1.5c0.3,0.8,0.3,1.5,0,2.3c0,0.4,0,0.7,0,1.1l0,0c-0.2,0.2-0.2,0.4-0.3,0.7
	c-0.2,1.2-1.4,1.8-1.8,2.8c-0.1,0.2-0.1,0.3-0.2,0.5c-0.2,0.2-0.4,0.3-0.7,0.2c-0.4-0.5-0.3-1.2-0.5-1.8c0-0.2,0-0.3,0.1-0.5
	c0.4-1.3,2.1-1.8,2.2-3.2c0-0.2,0-0.3,0-0.5c-0.1-0.8,0-1.6,0.1-2.3C96,85,96.1,84.6,96.4,84.4L96.4,84.4z"/>
<path class="st3" d="M97.8,62.3c-0.4-0.5-0.7-1-1.1-1.5c-0.1-0.1-0.1-0.2-0.1-0.3s0-0.2,0-0.2c0.4-0.5,0.4-1.4,1.2-1.6
	c0.7,0.1,1,0.7,1.3,1.2c0.1,0.2,0.1,0.5,0,0.8c-0.2,0.4-0.7,0.7-0.6,1.2c-0.1,0.1-0.2,0.2-0.3,0.4C98.1,62.3,98,62.3,97.8,62.3
	L97.8,62.3z"/>
<path class="st13" d="M30.2,82.1c0.6-1.8-1.2-2.7-1.4-4.2c-0.1-0.6-0.5-1.1-0.5-1.8c0.8-0.3,1.6-0.1,2.4,0c0.5,0,0.9,0.3,1,0.7
	c0.2,0.5-0.2,0.9-0.6,1c-1.1,0.4-0.8,1.1-0.3,1.7c0.4,0.6,0.7,1.2,0.8,1.8c0.2,0.4,0.4,0.7,0.6,1.1c0.1,0.2,0.1,0.3,0.2,0.5
	c0.8,0.9,1.7,1.8,2.7,2.6c0.5,0.3,0.6,0.7,0.9,1.1c0.5,0.6,1.1,0.9,1.9,1.1c0.5,0.2,1,0.4,0.8,1.1h-0.2h-0.2c-2.4-0.4-4-2.3-5.9-3.6
	C31.5,84.6,31.4,82.9,30.2,82.1z"/>
<path class="st5" d="M32.8,26.4c-0.6-0.2-1.3-0.2-1.8-0.8c0-0.7-0.2-1.6,0.4-2.1c1.4-1.1,1.1-2.5,0.7-3.9c-0.3-0.6-0.3-1.2,0-1.9
	c0.1-1.2,0.5-2.2,1.5-3c0.3-0.2,0.6-0.2,0.8,0.1c-1.4,3.4-0.9,6.9-1.1,10.4c0,0.2-0.1,0.4-0.1,0.6c0,0.1-0.1,0.2-0.1,0.3
	C32.9,26.2,32.9,26.3,32.8,26.4L32.8,26.4z"/>
<path class="st14" d="M43,9.6c0,0.6,0.5,0.8,1,1c0.8,0.4,0.2,1,0.1,1.4c-0.2,0.6-0.8,0.5-1.2,0.4c-0.6-0.1-0.5-0.5-0.4-1
	c0.2-0.9-0.1-1.4-1-0.8c-0.9,0.6-1.5,0.2-2.1-0.3C40.4,9.7,41.7,9.8,43,9.6L43,9.6z"/>
<path class="st14" d="M38.1,11c0,0.5,0,1,0,1.5c0,0.1,0,0.2,0,0.3c-0.4,0.8-0.9,1.3-1.8,0.7C36.1,13.3,36,13.2,36,13
	s0.1-0.3,0.2-0.5l0.8-0.8C37.2,11.3,37.4,10.8,38.1,11L38.1,11z"/>
<path class="st11" d="M54.9,84c1.4,0,2.6-0.4,3.4-1.6c0.3-0.4,0.6-0.6,1-0.6c0.3,0.4,0.3,0.7,0,1.1c-0.4,0.2-0.7,0.5-1.1,0.8
	c-0.5,0-1.1,0.3-1.2,0.7c-0.4,1.3-1.5,1.9-2.5,2.6C54.5,86,55.1,85,54.9,84L54.9,84z"/>
<path class="st13" d="M42.6,90.3c0.2,0.1,0.5,0.3,0.7,0.4c0.2,0.4,0.5,0.8,0.8,1.1c-0.8-0.2-1.6-0.6-1.9-1.5
	C42.3,90.2,42.4,90.2,42.6,90.3z"/>
<path class="st8" d="M45.5,64.9c0.6,0,1.2,0,1.9,0l0,0c0.8,0.2,1.4,0.6,1.5,1.5c0.8,0.1,1.6,0.1,2.2,0.8c0.5,0.9,0.8,2.1,2.4,1.6
	c0.7-0.2,0.6,0.6,0.6,1c-1.2,0.8-2.3,0.1-3.3-0.5c-0.1-0.1-0.2-0.3-0.3-0.4c-0.2-0.5-0.4-0.9-1.2-1.2c-1.4-0.4-2.7-1.1-4.2-0.5
	c-0.3,0-0.5-0.1-0.8-0.1c-2.2-0.3-4.4-0.1-6.6-0.2c-0.9,0.1-1.7-0.8-2.6,0c-1.5-0.9,0.4-1.2,0.4-1.9c0.2,0,0.5,0,0.7,0
	c0.9,0.6,1.6,0.1,2.2-0.4c1.2-1.5,2.1-0.8,3,0.4C42.8,65.1,44.2,65,45.5,64.9L45.5,64.9z"/>
<path class="st5" d="M31.7,70.1c-0.1,0.1-0.2,0.3-0.3,0.4c-0.4,0.8-0.7,1.6-1.9,1.5c-1-1.3-0.2-2.2,0.9-2.5s1.8-1,2.2-1.7
	c0.8-1.1,1.4-0.9,2.2-0.3c0.1,0.7-0.6,0.8-0.9,1.3c-0.1,0.1-0.2,0.2-0.4,0.3c-0.1,0.1-0.3,0.2-0.4,0.2
	C32.5,69.5,32.1,69.8,31.7,70.1L31.7,70.1z"/>
<path class="st13" d="M28.7,73.2c0,1,0.7,2.1-0.4,2.9C27.9,75.9,28,75.4,28,75C28,74.3,28.1,73.6,28.7,73.2L28.7,73.2z"/>
<path class="st15" d="M37.3,66.8c-0.6,0.1-1.2,0.2-1.9,0.4c-0.1-0.1-0.2-0.2-0.4-0.3c0.4-2.2,1.5-0.2,2.2-0.4
	c0.1,0.1,0.1,0.2,0.1,0.2C37.4,66.7,37.3,66.8,37.3,66.8z"/>
<path class="st12" d="M94.5,120.7c0,0.2,0,0.5,0,0.8s0,0.5,0,0.7c0.3,0.5,0.3,1,0,1.5c-0.1,3.9,0.3,7.9-0.3,11.8
	c-0.1,0.6,0.2,1.3,0.2,2c-0.4,0.4-0.7,0.9-0.7,1.5c-0.5,0.3-0.8,0.1-1.2-0.2c-0.4-1.1,1.3-2,0.5-3.2c-0.3-0.6,0-1.2,0.1-1.8
	c-0.1-0.3-0.2-0.6-0.3-0.9c-0.3-0.7-0.2-1.3,0.2-1.9c0.4-0.5,0.6-1.1,0.5-1.7c-0.1-0.2,0.1,0,0-0.2c-2.1-2.3-0.8-4.6,0-6.9
	C93.8,121.6,93.5,120.7,94.5,120.7L94.5,120.7z"/>
<path class="st13" d="M41.4,89.6c0.3,0.1,0.6,0.4,0.8,0.8c-1,0.1-1.8-0.3-2.6-0.8c0.1-0.1,0.2-0.2,0.4-0.4
	C40.6,88.8,41,89.4,41.4,89.6z"/>
<path class="st9" d="M62.3,147.6c0-0.5,0-1,0-1.5c-0.1-0.2-0.1,0.1-0.1-0.1c0.2-2-1-3.6-1-5.6c0.4-1.2,1.1-1.8,2.4-1.6
	c2.1,2.5,1.1,5,0,7.5c-0.1,0.6-0.1,1.4-1,1.4C62.5,147.7,62.4,147.7,62.3,147.6L62.3,147.6z"/>
<path class="st7" d="M107.6,35c0.8,0.3,1.5,1.6,2.2,0c0.1,0.1,0.1,0.1,0.2,0.2c0.3,0.7,0.3,1.3,0.1,2c-0.3,0.7-1,0.9-1.7,1
	c-0.2,0-0.4,0-0.6,0c-0.7-0.8-1.6-1.3-2.6-1.8c0-0.1,0-0.2,0-0.4c0.5-0.3,0.8-0.7,1.1-1.1C106.8,35,107.2,35,107.6,35z"/>
<path class="st8" d="M98.2,44c0-0.1,0-0.2,0.1-0.4c0.8,0.1,1.3-0.3,1.6-1c0.8-2.2,2.7-3.3,4.7-4.2c0.5,0.5,0.3,1-0.1,1.6
	c-0.5,0.6-1.1,1-1.7,1.3c-1.3,0.6-1.9,1.8-2.8,2.9c-0.3,0.2-0.6,0.4-0.9,0.5C98.7,44.5,98.4,44.3,98.2,44z"/>
<path class="st9" d="M104.2,39.8c0.3-0.5,0.4-0.9,0.4-1.5c0.2-0.7,0.2-1.3,0.7-1.9c1.3-0.3,2.2,0.3,2.6,1.5
	C107.1,39.6,105.9,40.2,104.2,39.8z"/>
<path class="st11" d="M111.7,65.3c0.2-0.2,0.4-0.4,0.6-0.7c1-1.8,2.1-1.6,3.1-0.1C114.4,65.7,113,65.1,111.7,65.3L111.7,65.3z"/>
<path class="st2" d="M118.1,62.3c0.6-0.4,1.2-0.4,1.9-0.4c-0.8,1.3-1.9,2.1-3.4,2.2C116.2,62.9,117.4,62.8,118.1,62.3z"/>
<path class="st11" d="M106.5,65.3c0.9,0,1.8,0.1,2.7-0.3c0.9-0.5,1.8-0.1,2.6,0.3c-1.4,0.1-2.8,0.3-4.1,0.4
	C107.2,65.7,106.7,65.7,106.5,65.3L106.5,65.3z"/>
<path class="st16" d="M118.1,62.3c-0.4,0.7-1.3,1-1.5,1.9c-0.2,0-0.5,0-0.7,0C115.6,62.3,116.7,62.2,118.1,62.3z"/>
<path class="st2" d="M111.3,33.8c0-0.1,0-0.2,0-0.4c2.8-0.2,5.4,1.2,8.2,1.1c0.4-0.1,0.5,0.1,0.4,0.4c-0.3,0.4-1.4,0.3-0.7,1.3
	c0.3,0.4,0.1,0.9-0.4,1.2c-0.6,0.2-1.1-0.1-1.5-0.3c-0.8-0.4-1.1-1.3-1.8-1.8c-1.3-0.4-2.8-0.4-4-1.2
	C111.4,34,111.4,33.9,111.3,33.8L111.3,33.8z"/>
<path class="st8" d="M124.4,37.6c0,0.1,0,0.2,0,0.4c-0.5,0.8,0.1,1.7-0.2,2.5c-0.1,0.2-0.3,0.2-0.5,0.2c-0.2-0.1-0.3-0.2-0.3-0.4
	c-0.2-0.6-0.2-1.2-0.2-1.8c0-0.7-0.2-1.2-1.1-1.1c-0.7,0-1.5,0.3-1.8-0.7c-0.1-0.6,0-1.2,0.4-1.6c0.1,0,0.2-0.1,0.3-0.1
	c0.1,0,0.2,0,0.4,0c0.2,1.3,1.6,0.8,2.2,1.5C123.9,36.8,124.2,37.2,124.4,37.6z"/>
<path class="st8" d="M119.9,35c-0.1-0.1-0.3-0.2-0.4-0.4c0.7-0.6,1.1,0,1.5,0.4l0,0c-0.2,0.2-0.4,0.2-0.7,0.2
	C120.2,35.2,120,35.1,119.9,35L119.9,35z"/>
<path class="st15" d="M125.2,39.5c0.4-0.6,0.8-1.2,1.1,0c-0.1,0.1-0.2,0.2-0.2,0.3c0.1-0.1,0.1-0.2,0.2-0.3c0.6,1.1,2,1.6,2.2,3
	c-1.1,1.1-2.1,0.2-3.1-0.2c-0.2,0-0.3,0-0.5-0.1s-0.3-0.2-0.3-0.4c-0.1-0.2-0.1-0.5-0.1-0.8C124.5,40.5,124.8,40,125.2,39.5z"/>
<path class="st6" d="M125.2,42.1c0.3-0.4,0.8-0.5,0.9-0.2c0.6,1.2,1.6,0.6,2.4,0.6c0,0.1,0,0.2,0,0.4c-0.8,0.4-1.8,0.8-1.9,1.9
	C125.5,44.2,125,43.3,125.2,42.1L125.2,42.1z"/>
<path class="st8" d="M91.2,151c-0.3,0.7-0.5,1.5-0.8,2.2c-0.3,0.6-0.2,1.2,0,1.8c0.5,1.4,0.2,2.4-1,3.1c-0.3,0.2-0.5,0.6-0.7,0.9
	c-0.4,0.8-0.9,0.9-1.5,0.1c-0.4-0.6-1-1.1-1.4-1.7c-0.1-1.1,0.7-1.7,1.4-2.3c0.9-1.7,0.1-3.5,0.5-5.3c0-0.2,0.1-0.4,0.2-0.5
	s0.3-0.2,0.5-0.2c0.7,0.6,0.5,1.4,0.4,2.2c0.4-0.5,0.9-0.9,1.5-1.1c0.4-0.1,0.7,0.1,0.9,0.4C91.3,150.7,91.3,150.9,91.2,151
	L91.2,151z"/>
<path class="st8" d="M91.2,151c0-0.1,0-0.3,0-0.4c0-1.2-0.1-2.2-1.5-2.9c-1.1-0.6-0.7-1.6,0.2-2.4c0.2,0.1,0.4,0.3,0.6,0.3
	c0,0-0.1,0-0.2-0.1c-0.2-0.1-0.3-0.2-0.4-0.4c-0.3-0.9,0.1-1.8,0.4-2.6c0.6-0.1,1.3,0.6,2-0.3c0.2-0.3,0.9,0,1.3,0.4
	c0.1,0.2,0.1,0.4,0.1,0.5c-0.1,0.7-0.4,1.4-0.6,2.1c-0.6,1.3-0.8,2.7-0.7,4.1C92.3,150.3,92.1,150.9,91.2,151L91.2,151z"/>
<path class="st9" d="M103.8,63.4c0.1,0.1,0.2,0.3,0.4,0.4c-1.8,0.9-2.4,0.7-2.6-1.1C102.3,63,103,63.5,103.8,63.4z"/>
<path class="st4" d="M99,60.8c0.1,0.1,0.2,0.3,0.4,0.4c-0.1,0.4-0.4,0.6-0.7,0.7c-0.3-0.2-0.7-0.4-0.6-0.8
	C98.2,60.7,98.6,60.8,99,60.8L99,60.8z"/>
<path class="st5" d="M33.6,29.7c0,0.1,0,0.2,0,0.4c-0.5,0-1,0-1.5,0c-0.5-1.3-0.9-2.6,0.8-3.4c0.7,0.6,0.2,1.5,0.4,2.2
	c0.1,0.1,0.2,0.3,0.2,0.4C33.5,29.4,33.6,29.6,33.6,29.7z"/>
<path class="st13" d="M38.8,37.6c1.3,0.1,2.4,0.6,3,1.9c-0.1,0-0.2,0-0.3,0C40.6,38.8,39.7,38.2,38.8,37.6z"/>
<path class="st11" d="M47.4,41.7c1,0.2,2,0.2,3-0.4c0.1-0.3,0.3-0.8,0.5-0.7c1.6,0.8,3-0.5,4.5-0.4c0.2,0,0.5,0.2,0.6,0.4
	c-1.2,0.4-2,1.7-3.4,1.9c-1.6,0.1-3.1-0.8-4.8-0.1C47.6,42.5,47.5,42,47.4,41.7L47.4,41.7z"/>
<path class="st13" d="M44.8,41c0.4-2.3,2-0.6,3.2-1.4c-0.4,1-1.3,1.3-1,2.1C46.4,41.1,45.4,41.6,44.8,41L44.8,41z"/>
<path class="st12" d="M60.9,124.4c0-0.9,0.1-1.9-0.8-2.6c0-0.9,0-1.9,0.6-2.6c0.5-0.6,0.7-1.1,0-1.7c-0.3-0.3-0.2-0.7,0.1-0.9
	c2.1,0.9,2.5,2.3,0.9,3.6c-0.2,0.2-0.4,0.4-0.4,0.7c0.1,0.3,0.3,0.4,0.5,0.6c0.5,0.4,1.4-0.1,1.7,0.7c0,0.2,0,0.5,0,0.7
	C63.7,125,63.1,125.3,60.9,124.4z"/>
<path class="st8" d="M61.2,119.9c1.6-0.9,1.5-1.7-0.4-3.4c0-0.2,0-0.5,0-0.7c0.2-0.1,0.5-0.3,0.7-0.4c0.7,0.2,1.4,0.6,2,0.9
	c1.7,0.8,1.8,1.8,0.4,3.1c-0.4,0.4-0.8,0.7-1.4,0.8C62.1,120.4,61.6,120.3,61.2,119.9L61.2,119.9z"/>
<path class="st17" d="M58.6,42.5c0,0.1,0,0.3,0,0.4c-0.1,0-0.2-0.1-0.4-0.1c-0.6-0.7-1.2-1.5-1.9-2.2c0-0.1,0-0.2,0-0.3
	c0.8-1.1,1.2-2.4,2.4-3.2c0.3,0.1,0.5,0.3,0.5,0.6C59.1,39.3,59,40.9,58.6,42.5L58.6,42.5z"/>
<path class="st15" d="M127,45.8c0-0.1,0-0.2,0-0.4c1.6,0.9,2,2.2,1.1,3.7c-0.5,0.8,0,1.9-0.7,2.6C127.3,49.8,128.1,47.8,127,45.8
	L127,45.8z"/>
<path class="st6" d="M61.6,102.7c-0.8-0.9-0.2-2-0.4-3c0-0.5,0-1,0-1.5c-0.4-0.7-0.6-1.4-0.3-2.2l0,0c0.1,0,0.2,0,0.3,0
	c0.4-0.4,0-1.1,0.3-1.5c0.5-0.2,0.9,0,1.3,0.3c0.3,0.4,0.5,0.8,0.4,1.2l-0.1,0.1L63,96.2c0.9,0.4,1.7,0.9,1,2.1
	c-0.9,0.2-1.7,0.5-1.5,1.7C62.2,100.9,62.3,101.9,61.6,102.7L61.6,102.7z"/>
<path class="st7" d="M61.6,94.5c-0.1,0.5,0.2,1.1-0.4,1.5c-0.1-1,0.3-2.2-0.8-2.9c-0.3-0.2-0.4-0.2-0.1-0.4c0.9-0.6,0.7-1.7,0.9-2.6
	c0.4-0.4,0.5-0.8,0.1-1.3c-0.3-0.3-0.4-0.7,0-1.1c1.7-0.2,2.1,1.1,2.7,2.3C63.7,91.7,63.5,93.5,61.6,94.5z"/>
<path class="st8" d="M60.2,131.9c0.1-0.1,0.2-0.3,0.3-0.4c0.7,0,1.3,0.3,2-0.1c0.6-0.4,1.2-0.2,1.2,0.7c-0.8,2.2-1,2.3-2.8,1.5
	c-0.2-0.2-0.3-0.5-0.4-0.7C60.4,132.7,60.3,132.3,60.2,131.9L60.2,131.9z"/>
<path class="st1" d="M45.5,64.9c-1.4,0.6-2.7,0.8-4.1,0c1.1-0.1,1.7-1.5,3-1.1C44.5,64.5,44.8,64.9,45.5,64.9L45.5,64.9z"/>
<path class="st1" d="M38.4,64.5c-0.6,1.1-1.2,2-2.2,0.4C37,64.8,37.7,64.4,38.4,64.5z"/>
<path class="st15" d="M60.9,137.5c0-0.6,0-1.2,0-1.9c0.5-0.6,1.5-0.3,2.1-0.8c0.7-0.8,0.2-1.7,0.5-2.6c-0.2-1.2-1-0.5-1.3-0.2
	c-1,0.9-1.3,0.1-1.7-0.5c1-1.4-0.1-3,0.4-4.5c0.3-0.4,0.6-0.7,1.1-0.8c0.3,0,0.6,0,0.8,0.1c0.3,0.2,0.5,0.4,0.5,0.9
	c0,0.4-1.2,0.2-0.4,1c0,0.2,0,0.3,0,0.5s-0.2,0.5-0.2,0.5c2.5,1.1,1.8,3.4,2,5.4c-0.1,0.7-0.2,1.4,0.1,2.1c0.3,0.6,0.4,1.4-0.3,2
	c-0.7-0.1-0.6-0.8-0.8-1.1c-0.1-0.2-0.3-0.4-0.5-0.5c-0.8-0.3-1.2,0.8-2,0.5C61.1,137.6,61,137.6,60.9,137.5L60.9,137.5z"/>
<path class="st3" d="M62.7,128.5c0-0.1,0-0.2,0-0.4c-0.2-0.4,0.1-0.6,0.4-0.7c0-0.3-0.1-0.6-0.4-0.8c-0.3-0.2-0.1-0.7-0.5-0.8
	c-0.1,0-0.1,0.5-0.2,0.8c-0.4,0.1-0.8,0.2-1.1,0.4c0-0.9,0-1.7,0-2.6c0.4,0,0.7,0,1.1,0c1,0.1,1.8,0,1-1.3c-0.3-0.6,0.3-0.8,0.5-1.3
	c0.2-0.1,0.4,0,0.5,0.1c0.7,1.5,0.2,3.2,0.6,4.7C64.8,127.4,64,128.6,62.7,128.5L62.7,128.5z"/>
<path class="st0" d="M33.2,29.4c-1.3-0.7,0.1-1.8-0.4-2.6c0-0.1,0-0.2,0-0.4h0.1c1.2-0.3,0.7,0.7,0.8,1.2c0,0.3,0,0.6,0,0.8
	C33.6,28.7,33.5,29.1,33.2,29.4z"/>
<path class="st7" d="M93.4,142.8c-1.8-0.8-1.9,0.5-2,1.8c-1-0.6-0.2-1.7-0.9-2.2c-0.4-0.5-0.1-0.8,0.2-1.2c0.5-0.4,0.6-0.9,0.7-1.4
	c0.2-0.7,0.6-1.1,1.4-1.1c0.4,0.1,0.7,0.2,1.1,0.4c0.6,0.5,0.5,1,0,1.5C92.7,141.1,93.6,142,93.4,142.8L93.4,142.8z"/>
<path class="st10" d="M93.4,142.8c-0.3-0.8-1.9-1.9,0.4-2.2c0,0.9,0,1.7,0,2.6c-0.1,0-0.2,0-0.3,0C93.4,143,93.4,142.9,93.4,142.8
	L93.4,142.8z"/>
<path class="st17" d="M60.9,81.7c-0.3,0.2-0.4,0.5-0.4,0.8c-0.1,0.1-0.2,0.3-0.4,0.4c-0.1,0.1-0.3,0.2-0.4,0.3
	c-0.1-0.1-0.2-0.2-0.4-0.3c0-0.4,0-0.7,0-1.1c-0.2-1.6,0.4-3.3-0.4-4.9c-0.2-0.2-0.3-0.4-0.3-0.7c0-0.3,0.1-0.5,0.3-0.8
	c0.2-0.5,0.4-1,0.7-1.5c0.4,0.9,0.8,1.7,1.2,2.6c0.2,0.1,0.3,0.3,0.3,0.5C61.6,78.6,61.9,80.1,60.9,81.7
	C61,81.6,60.9,81.7,60.9,81.7L60.9,81.7z"/>
<path class="st14" d="M59,75.4c0,0.2,0,0.5,0,0.7c-2.2-0.3-3.3-1.4-3.3-3.7c0-0.5-0.3-0.6-0.6-0.8c-0.5-0.4-1.1-0.7-0.6-1.5
	c0.7,0.3,1.5,0.6,2.2,0.9c0,1.3-0.1,2.7,1.2,3.6C58.1,75.1,58.5,75.4,59,75.4L59,75.4z"/>
<path class="st6" d="M60.5,22.2c0.1,0,0.2,0,0.4,0c0.2,0.1,0.3,0.4,0.3,0.6s0,0.3-0.1,0.5c-0.2,0.7-0.1,1.6-0.9,2
	c-0.3,0.1-0.5,0-0.8-0.1c-0.5-0.6-0.4-1.3-0.5-2c0-0.2,0-0.4,0-0.5c0.1,0,0.1-0.1,0.2-0.2C59.6,22.5,60,22.4,60.5,22.2z"/>
<path class="st7" d="M109.8,35c0.5-0.4,1-0.8,1.5-1.1l0,0c0.5,0.5,1,1.2,0.4,1.7C111,36.2,110.4,35.4,109.8,35L109.8,35L109.8,35z"
	/>
<path class="st12" d="M60.9,23c0-0.2,0-0.5,0-0.7c0.1-0.1,0.3-0.3,0.4-0.4c0.2-0.4,0.5-0.8,0.7-1.1c0.1,0,0.2,0,0.4,0
	C62.5,21.9,62.4,22.9,60.9,23z"/>
<path class="st1" d="M95.6,37.6c-0.8-2.2-0.5-4.4-0.2-6.5c0.2-1.2,0.2-2.3-0.3-3.1c-1.7-2.7-2.2-5.9-3.6-8.7
	c-0.7-0.7-1.3-1.5-0.8-2.6l0,0c0.2-0.2,0.5-0.2,0.7,0c1.2,0.3,0.4,1.9,1.5,2.2c0.4,0.7,1.5,1.1,0.8,2.2c-1.2,0.8-0.7,1.2,0.4,1.5
	c0.6,0.5-0.1,1.3,0.4,1.9c0.3,1.7,2.4,2.7,1.9,4.8C95.8,32,96.4,34.9,95.6,37.6L95.6,37.6z"/>
<path class="st15" d="M86.3,9.9c0.4,0.6,1.2,0.8,1.5,1.5c0.9,0.8,2.9,1,2,3.1c-0.5,0.3-1,0.2-1.4-0.1c-1-0.7-1.7-0.3-2.4,0.5
	C85.8,15,85.7,15,85.5,15c-0.7-0.3-0.5-0.8-0.3-1.3c0.3-0.7,0.6-1.5,0.8-2.3c0-0.1-0.1-0.3-0.2-0.4c-0.2-0.4-0.6-0.8-0.4-1.3
	c0.1-0.1,0.1-0.1,0.2-0.2c0.1,0,0.2,0,0.4,0C86.1,9.6,86.2,9.7,86.3,9.9L86.3,9.9z"/>
<path class="st8" d="M81.4,8c0.4-0.8,1.2-0.8,1.9-0.7c0.2,0.3,0.4,0.7,0.8,0.6c1.6-0.5,1.5,0.6,1.5,1.6l0,0
	c-0.1,0.1-0.3,0.2-0.4,0.1C84.6,9.4,84,9.1,83.4,9c-0.3-0.1-0.6-0.2-0.9-0.4C82.1,8.5,81.7,8.4,81.4,8L81.4,8z"/>
<path class="st13" d="M85.5,14.8c0.1,0,0.2,0,0.4,0c1.7-0.1,3.3,0,4.5,1.5c0.1,0.1,0.2,0.3,0.4,0.4c0.2,0.9,0.5,1.7,0.8,2.6
	c-0.2,0-0.5,0-0.8,0c-0.6-0.2-0.7-0.7-0.8-1.1c-0.2-0.5-0.4-1.1-1.2-0.9c-1.6,1.5-1.7,1.5-2.2-0.7c-0.2-0.7-1.3-0.5-1.2-1.3
	C85.3,15,85.4,14.9,85.5,14.8L85.5,14.8z"/>
<path class="st8" d="M90.4,16.2c-1.4-0.9-3.1-0.8-4.5-1.5c0.4-1.4,1-1.9,2.4-0.9c0.4,0.3,0.9,0.4,1.4,0.5c0.2,0.2,0.5,0.5,0.7,0.8
	C90.4,15.5,90.4,15.9,90.4,16.2L90.4,16.2z"/>
<path class="st8" d="M72.5,11c0.1-0.2,0.3-0.5,0.4-0.7c1.4-1,2.7-2,4.5-2.3c0.5,0.8,2.1,0.6,1.8,2.1c-0.5,0.4-1.1,0.6-1.7,0.6
	c-1.3,0-2.6-0.2-3.8,0.8C73.3,11.8,72.5,11.9,72.5,11z"/>
<path class="st17" d="M79.2,9.9c-0.5-0.8-1.9-0.6-1.9-1.9c0.5,0,1,0,1.5,0c0.5,0.4,1.1,0.1,1.7,0.2c0.2,0.1,0.3,0.2,0.3,0.3
	C80.3,9.1,80,9.9,79.2,9.9L79.2,9.9z"/>
<path class="st17" d="M81.4,8c0.4,0,0.9-0.1,1.1,0.4c-0.6,0.6-1.2,0.5-1.9,0l0,0c-0.1-0.1-0.2-0.2-0.1-0.2S80.6,8,80.7,8H81.4
	L81.4,8z"/>
<path class="st8" d="M80.7,8c0,0.1,0,0.2,0,0.4C80,8.3,79.3,8.6,78.8,8C79.4,8,80.1,8,80.7,8L80.7,8z"/>
<path class="st3" d="M67.2,13.6c0.1,0,0.2,0,0.4,0c0.3-0.7,1-0.3,1.4-0.5s0.8-0.6,1.3-0.2c0.1,0.2,0.1,0.5,0,0.8
	c-0.1,0.2-0.3,0.4-0.6,0.5c-0.3,0.1-0.6,0.1-0.9,0.2c-1.7,0.3-1.8,0.4-1.1,2.1c0,1.8-1.8,1.9-2.8,2.8c-0.7,0.6-1.3,1.2-1.5,2.1
	c-0.3,0.7-0.8,1.2-1.3,1.7c-0.2,0.2-0.4,0.3-0.7,0.4c-0.4,0-0.8,0-0.6-0.6l0,0c1-0.4,1.1-1.4,1.5-2.2c0-0.5,0-1.1,0.5-1.3
	c2.2-1.1,3.2-3.1,3.9-5.2C66.8,13.9,67,13.8,67.2,13.6L67.2,13.6z"/>
<path class="st14" d="M94.1,70.5c0.8-1.5,0.2-3,0-4.5c-0.1-0.7-0.3-1.6,0.3-2.3c0,0.9,0,1.6,0.9,2.2c1.3,0.9,0.1,2.1-0.1,3.1
	C95.1,69.6,94.5,70,94.1,70.5z"/>
<path class="st9" d="M94.5,60c-0.2-0.1-0.5-0.3-0.7-0.4c-0.3-0.3-0.3-0.6-0.2-1c0.1-0.2,0.2-0.3,0.3-0.5c0.2-0.2,0.5-0.3,0.8-0.3
	c0.2,0,0.3,0.1,0.5,0.2c0.2,0.8,1.4,1.2,1,2.2c-0.6,0.5-0.8,1.1-0.4,1.9c-0.1,0-0.2,0-0.4,0c-0.8,0.1-0.5-0.5-0.5-0.9
	C94.6,61,95,60.4,94.5,60L94.5,60z"/>
<path class="st4" d="M96,83.6c-1.4-0.5-1.4-1.3,0-3C96.3,81.6,95.4,82.6,96,83.6z"/>
<path class="st14" d="M94.5,60c0.5,0,0.8,0.3,0.5,0.8c-0.2,0.5-0.3,1,0.2,1.4c-0.1,0.6-0.3,1.1-0.7,1.5C94.5,62.5,94.5,61.3,94.5,60
	L94.5,60z"/>
<path class="st9" d="M96,63c0,0.9,0,1.7,0,2.6C94.9,64.8,94.9,63.9,96,63z"/>
<path class="st11" d="M96,60.4c-0.1-0.9-1.5-1.1-1.1-2.2c0.6-0.2,0.9,0.2,1.3,0.6c0.3,0.5,0.8,1,0.6,1.6c0,0.1,0,0.3,0,0.4
	C96.4,60.8,96.2,60.7,96,60.4z"/>
<path class="st2" d="M94.5,96.7c0.3,0.2,0.6,0.4,0.7,0.8c-0.3,0.7-0.9,1.4,0,2.1c0.4,0.3,0.3,0.8-0.1,1.1c-1.6,1.1-1.8,2.9-2.1,4.6
	c-0.1,0-0.2,0.1-0.2,0.1c-0.5-0.2-0.6-0.7-0.5-1.1c0.6-2,0.2-4.1,1.1-6c0.5-1.1-0.6-2.1-0.3-3.2c-0.1-0.7,0.1-1.3,0.2-1.9
	c0.1-0.5,0.1-1,0.6-1.3c0.6,0.6,0.2,1.3,0.3,1.9c0.2,0.2,0.2,0.5,0.2,0.8C94.4,95.3,94.1,96,94.5,96.7L94.5,96.7z"/>
<path class="st4" d="M94.5,89.6c0.4-0.5,0.1-1.1,0-1.6c-0.1-1.2,0.2-2.2,1.5-2.5c0.3,0.7-0.6,1.6,0.4,2.2c0,0.1,0,0.2,0,0.4
	C95.9,88.8,95.8,90,94.5,89.6L94.5,89.6z"/>
<path class="st11" d="M94.5,89.6c1,0,1.3-1,1.9-1.5c0.1,1.8-2,2.1-2.6,3.4c-0.1-0.1-0.2-0.2-0.3-0.3c0-0.2,0-0.3,0-0.4
	c0.1-0.1,0.1-0.3,0.2-0.4C94,90.1,94.2,89.9,94.5,89.6L94.5,89.6z"/>
<path class="st11" d="M96.4,87.7c-1.5-0.5-0.5-1.5-0.4-2.2c0.1,0,0.2,0,0.4,0C96.4,86.2,96.1,87,96.4,87.7L96.4,87.7z"/>
<path class="st4" d="M93.8,91.1c0,0.1,0,0.3,0,0.4s0,0.2,0,0.3c0,0.5,0,1-0.1,1.5c-0.5,0.3-0.8,0.1-1-0.4
	C92.8,92.2,92.6,91.3,93.8,91.1L93.8,91.1z"/>
<path class="st14" d="M32.1,82.9c0.9,0,1.8-0.6,2.7,0.2c-1.2,1-0.6,1.9,0.2,2.8C33.9,85,32.5,84.5,32.1,82.9z"/>
<path class="st0" d="M35.8,87c0.9-0.1,1.5,0.4,1.9,1.1C36.9,88,36.4,87.5,35.8,87z"/>
<path class="st2" d="M50,17.8c0.1,0,0.2,0,0.4,0c0.8,0.3,0.8,1,0.8,1.7c0.1,0.2,0.1,0.3,0.2,0.5c1.8,0.4,1.5,2.2,2.3,3.3
	c0.5,0.8,1.1,1.4,1.8,2c0.6,0.5,1,1,0.9,1.9c0,0.1,0,0.2-0.1,0.4c-0.3,0.9,0,2.3-1.1,2.5c-0.9,0.2-1.6-0.9-2.3-1.6
	c-0.4-1.5-1.7-2-2.8-2.9c-0.4-0.4-1.3-0.2-1.3-1.1c0.2-0.2,0.5-0.3,0.8-0.4c1.1-0.2,2,0.4,2.8,1.1c1,0.4,1.3,1.3,2,2.1
	c0-1.1-1.1-1.6-1.5-2.5c-0.1-0.1-0.2-0.3-0.3-0.4c-0.5-0.8-0.9-1.6-1.3-2.5c-0.1-0.1-0.2-0.3-0.3-0.4c-1-1.1-1.2-2.8-2.7-3.7
	c-0.9-0.5-1.6-1.1-2.7-1.1c-0.6,0-1.1,0-1.6-0.2c-1.1-0.6-2-0.3-2.9,0.5c-0.5,0.4-1.2,0.7-1.9,0.7c-0.2,0-0.4-0.1-0.5-0.2
	c-0.2-0.3-0.2-0.5-0.1-0.8c1-1.5,2.7-1.7,4.3-1.8l1.1,0.4c0.8,0.5,1.6,0,2.3,0c1.2-0.1,2.4,0,2.7,1.6C49.2,17.2,49.6,17.5,50,17.8
	L50,17.8z"/>
<path class="st0" d="M32.9,26c1.5,0,2,1,2.2,2.2c-1,0.7-1.4-0.1-1.9-0.7c-0.2-0.4,0.6-1-0.3-1.1C32.9,26.2,32.9,26.1,32.9,26z"/>
<path class="st5" d="M60.9,73.1c-0.2-2,0.2-4,0.4-6c0.1,0,0.2-0.1,0.2-0.1c1.1,0.6,2.1,1.2,1.1,2.7c-0.3,0.5,1.1,1.1,0.3,2
	C62.2,72.2,61.9,73.2,60.9,73.1z"/>
<path class="st17" d="M61.2,74.7c-0.1-0.1-0.2-0.3-0.3-0.4c0.8-0.9,1.5-2.2,2.9-0.8c0.2,0.9,0.2,1.8,0.1,2.8c-0.1,1.2-0.6,2-2,1.6
	c-0.2-0.2-0.2-0.5-0.1-0.8C62.5,76,62.2,75.3,61.2,74.7L61.2,74.7z"/>
<path class="st1" d="M61.2,74.7c0.7,0.1,1.5,0.2,1.7,1.1c0.1,0.6-0.5,0.9-1,1.2c-0.4,0.3-0.7,0.3-1.1,0c0-0.1,0-0.3,0-0.4
	C61.5,76,61.2,75.3,61.2,74.7L61.2,74.7z"/>
<path class="st3" d="M63.5,73.5c-1.2-0.9-1.7,0.7-2.6,0.7c0-0.4,0-0.7,0-1.1c0.7-0.4,1-1.3,1.9-1.5c0.1-0.1,0.2-0.2,0.4-0.1
	c0.1,0.1,0.2,0.3,0.2,0.4c0.2,0.5,0.9,0.8,0.5,1.6C63.8,73.7,63.6,73.6,63.5,73.5z"/>
<path class="st5" d="M60.9,66.8c0.1-0.6-0.2-1.3,0.4-1.9c0.6,0.8,0.6,1.5,0,2.3l0,0C61.1,67,61,66.9,60.9,66.8z"/>
<path class="st14" d="M47.4,75.8c-1.1-1.1-2.5-1.6-4.1-1.5c-0.1-0.2-0.1-0.3,0-0.5c0.3-0.2,0.7-0.3,1-0.3c1.9-0.4,3.2,1.4,5.1,1.1
	c0-0.4-0.3-0.6-0.4-0.8c-0.2-0.3-0.3-0.6-0.1-1c0.3-0.1,0.5-0.1,0.8,0.1c0.3,0.5,0.4,1.1,1.1,1.1c0.5,0.6,1.8-0.1,1.9,1.1
	c-0.2,0.1-0.5,0.2-0.8,0.4c-0.2,0.2-0.5,0.3-0.7,0.6c-0.3,0.4-0.7,0.7-1.2,0.7c-0.4-0.1-0.7-0.4-1.1-0.6
	C48.4,75.9,48,75.7,47.4,75.8L47.4,75.8z"/>
<path class="st3" d="M45.2,81c1.8-0.3,3.3,0.2,4.6,1.5c0.4,0.4,0.4,0.7,0.2,1.1c-1,0.6-1.6,1.8-3,1.5c-0.1-0.2-0.1-0.3,0-0.5
	c1.5-1.6,1.5-1.6-0.5-2.2c-1.1-0.3-2.1-0.6-3.2-0.8c-1.5-0.9-3.3-1.2-4.1-2.9c0.7-0.6,1.3-0.7,2.1-0.1C42.5,79.4,43.5,80.7,45.2,81z
	"/>
<path class="st3" d="M47,84.8c0,0.1,0,0.2,0,0.4c-0.6,0.4-1.2,0.4-1.9,0.4c-0.2,0-0.5,0-0.7,0c-1.9-1.2-3.6-2.6-5.9-3.1
	c-0.9-0.2-1.5-1.2-2.3-1.8l0,0C36,80.5,36,80.3,36.1,80c0.1-0.2,0.2-0.2,0.4-0.3c0.2,0,0.3,0,0.5,0c1.3,0.5,2.4,1.3,3.5,2.1
	c0.6,0.4,1.1,0.8,1.7,1.2C43.7,83.8,45.4,84.1,47,84.8L47,84.8z"/>
<path class="st0" d="M50.8,68.7c-0.6-0.1-1.2-0.3-1.8-0.4c-0.5-0.2-1-0.5-1.5-0.7c-0.7-0.3-1.6-0.2-2.2-0.8c0.6,0.1,1.2-0.2,1.7-0.5
	c0.5-0.2,3.7,1.4,3.8,2C50.8,68.4,50.7,68.5,50.8,68.7L50.8,68.7z"/>
<path class="st3" d="M34.3,72c0.2,0,0.5,0,0.8,0c0.3,1.5,0.2,3,0.8,4.4c-0.1,1.2,1.1,2.2,0.3,3.4l0,0c-0.1,0-0.2,0-0.4,0
	c-0.5-1.5-1-3-1.5-4.5C33.9,74.2,33.7,73.1,34.3,72L34.3,72z"/>
<path class="st7" d="M94.5,114.3c0,0.2,0,0.5,0,0.7c-1.3,0.8-1.8,0.1-1.9-1.2c-0.1-1.1,0.3-2.2,0.2-3.3c-0.7-1.5,0.4-2.2,1.2-3.1
	c0.5,1.3,0.1,2.8,0.4,4.1C94.5,112.6,94.5,113.4,94.5,114.3L94.5,114.3z"/>
<path class="st3" d="M94.1,107.6c0,0.5-0.1,0.9-0.6,1.3c-0.6,0.5-0.8,1.1-0.2,1.7c-0.1,0.8-0.6,1.5-0.9,2.3c-1.4-1-0.2-2.3-0.3-3.5
	c0-0.2,0.1-0.4,0.1-0.5c-0.9-1.4-0.2-2.5,0.8-3.5l0,0c0.8,0.1,1.4,0.2,0.8,1.2C93.6,107,93.1,107.4,94.1,107.6L94.1,107.6z"/>
<path class="st3" d="M92.6,112.8c-0.2-0.9,0.2-1.6,0.8-2.2c0.3,0.1,0.8,0.3,0.5,0.5c-1.2,0.7-0.5,1.8-0.8,2.6
	c-0.4,1.4,0.4,1.5,1.4,1.4c0.9,0.5,0.9,1,0,1.5c-0.6,2-1.3,3.9-0.4,6c-1,1.1-0.6,2.7-1.6,3.8c-0.3,0.3,0.4,0.7,0.7,1
	c0.5,0.5,1.1,1,0.9,1.9c-0.3,0.7-0.6,1.3-1.1,1.9c-0.5,0.6-0.6,1.4,0.3,1.8c0.1,0.2,0.2,0.5,0.4,0.7c-0.8,0.6-1.2,1.4-1.9,2
	c-0.2,0-0.3-0.1-0.5-0.2c-0.1-0.1-0.2-0.3-0.3-0.5c-0.4-0.9-0.6-1.8-0.2-2.9c0.9-2.6,0.2-5.3,1.1-7.9c0.1-0.4-0.3-0.8-0.5-1.2
	c-0.3-1.3,0.5-2.4,0.6-3.6c0.1-1.4,0.3-2.8-1-3.8c-0.1-0.2-0.1-0.3-0.1-0.5c0.1-0.2,0.2-0.5,0.3-0.7c0.2-0.4,0.4-0.8,0.7-1.2
	C92.1,113.1,92.4,113,92.6,112.8L92.6,112.8z"/>
<path class="st8" d="M94.1,122.6c-1.5-2.1-1.4-3.6,0.4-6c0,1.4,0,2.7,0,4.1C93.9,121.2,94.2,121.9,94.1,122.6z"/>
<path class="st12" d="M96.2,93.4c0.1,0.1,0.3,0.3,0.3,0.5c0,0.4-0.3,0.7-0.7,0.7c-0.1,0-0.4-0.3-0.4-0.5
	C95.3,93.7,95.7,93.5,96.2,93.4L96.2,93.4z"/>
<path class="st12" d="M94.2,94.4c0.1,0,0.2,0,0.3,0.1c0,0.8,0,1.5,0,2.2C93.8,96,94.2,95.2,94.2,94.4z"/>
<path class="st17" d="M91.5,135.6c0.1,0,0.2,0,0.4,0c0.6,0.1,0.9-0.6,1.5-0.4c1,1.4-0.1,2.3-0.8,3.4c-0.5,0.6-1.4,0.8-1,1.9
	c0.2,0.5-0.4,0.6-0.9,0.7c-0.4-0.4-0.6-0.9-0.3-1.3C91.3,138.6,91.1,137.1,91.5,135.6L91.5,135.6z"/>
<path class="st7" d="M93.4,133c-0.8-0.1-1.1-0.4-0.9-1.4c0.3-1,1-1.6,1.6-2.4c0.1,0.7,0,1.4-0.6,2C92.8,131.8,93,132.4,93.4,133
	L93.4,133z"/>
<path class="st5" d="M93.4,135.3c-0.6-0.4-0.6,1.9-1.5,0.4c0.1-1.2,1.1-1.4,1.9-1.9C93.9,134.3,92.9,134.6,93.4,135.3z"/>
<path class="st14" d="M38.8,85.9c-0.1,0.1-0.2,0.2-0.4,0.4c-0.4-0.2-0.7-0.4-0.5-0.8c0.1-0.2,0.2-0.4,0.3-0.4
	C38.8,85.1,38.8,85.5,38.8,85.9z"/>
<path class="st0" d="M41.4,89.6c-0.5-0.1-1-0.2-1.5-0.4C40.6,88.5,41.1,89,41.4,89.6z"/>
<path class="st12" d="M69.1,182.4c-0.7-0.7-1.6-0.9-2.4-1.2s-1.4-0.8-1.3-1.8c0.2-0.1,0.3-0.1,0.5,0c1,0.4,2,0.9,3,1.5
	c1.4,0.8,2.7,0.8,3.9-0.3c0.6-0.5,1.2-0.8,2-0.8c1.2,0,1.9-0.7,2.2-1.8c0.2-0.4,0.5-0.7,0.8-1c0.8-0.8,0.4-2.3,1.6-2.8
	c0.5,0.1,0.8,0.6,1.1,1c0.3,0.5,1.3,0.5,1.3,1.3c-0.3,0.4-0.7,0.6-1.2,0.9c-0.6,0.4-2,0-1.2,1.8c0.6,1.3-1.2,0.4-1.8,0.7
	C74.8,180.8,72.4,182.9,69.1,182.4L69.1,182.4z"/>
<path class="st11" d="M63.1,146.1c0.2,0,0.5,0.1,0.5,0.1c0.5-0.8,1.2-1.3,1.8-0.5c0.3,0.5-0.2,1.3-0.9,2c-1.1,1-1.2,2.5-1.4,3.9
	c-0.1,1,0,2.1,0,3.2c0.1,0.1,0.1,0.2,0.1,0.3s0,0.1,0,0.1c-0.2,0.1-0.3,0.1-0.4-0.1c-0.1-2.5-0.2-5-0.3-7.5
	C63.4,147.5,63,146.7,63.1,146.1L63.1,146.1z"/>
<path class="st17" d="M64.2,138.6c-0.1,0.1-0.2,0.2-0.4,0.4c-1.1,0-1.9,0.5-2.2,1.5c-0.7-0.9-0.2-2-0.4-3c0.8-0.1,1.1-1.8,2.3-0.8
	c0,0.3-0.4,0.5-0.1,0.7c0.1,0.1,0.3-0.3,0.5-0.4C64.4,137.5,64.2,138.1,64.2,138.6L64.2,138.6z"/>
<path class="st15" d="M109.8,35c0.6-0.2,1.1,0.3,1.7,0.5c0.4-0.6-0.3-1.1-0.2-1.6c1.5,0.4,3,0.8,4.5,1.1c-1.1,0.6-2.2,1.1-3,2.1
	c-0.6,0.3-1.3,0.4-1.9,0.5c-0.4,0-0.8,0-1.1-0.3C109.8,36.5,109.8,35.7,109.8,35L109.8,35z"/>
<path class="st14" d="M121.8,38.7c-0.5,0-0.9-0.2-1.1-0.5c-0.3-1.1-1.2-0.8-1.9-0.9c0.5-0.4,0.2-0.8,0.1-1.1
	c-0.5-1.2,0.3-1.2,1.1-1.1c0.1,0,0.2,0,0.4,0c0.4,0.4-0.1,1.1,0.4,1.5c0.2,1.3,1,0.2,1.5,0.4c0.1,0.1,0.2,0.3,0.2,0.5
	C122.3,37.8,122.2,38.3,121.8,38.7L121.8,38.7z"/>
<path class="st11" d="M121,41c0.9-0.2,1.8,0.3,2.6-0.4c0.1,0,0.2,0,0.4,0c0.1,0.2,0.3,0.5,0.4,0.7c-0.8,0.2-2.2-0.7-2.3,1.1
	C121.2,42.3,121,41.8,121,41L121,41z"/>
<path class="st2" d="M120.7,36.5c-0.5-0.4-0.3-1-0.4-1.5c0.2,0,0.5,0,0.7,0C120.8,35.4,120.6,35.9,120.7,36.5L120.7,36.5z"/>
<path class="st14" d="M126.3,39.5c-0.1,0.5,0.2,1.2-0.6,1.9C125.6,40.5,125.1,39.8,126.3,39.5L126.3,39.5z"/>
<path class="st11" d="M91.5,135.6c0.3,1.4,0.7,2.8-0.6,4c-0.3,0.3-0.1,1-0.2,1.6c-0.1,0.4-0.2,0.8-0.4,1.1c0.2,1-0.4,2-0.4,3l0,0
	c-0.7,1.1-1.1,1.9,0.6,2.4c1.9,0.5,0.8,1.8,0.5,2.8c-0.2-0.1-0.5-0.2-0.8-0.4c-1,0.2-1.1-1-1.9-1.1c-0.1,0-0.2,0-0.4,0
	c-0.5-1-0.1-1.9,0.2-2.8c0.6-1.4,1.2-2.9,0.9-4.5c-0.1-0.3,0-0.6,0.1-0.9c0.9-1.7,1.2-3.6,1.6-5.5c0.1-0.2,0.3-0.2,0.5-0.2
	C91.5,135.4,91.5,135.5,91.5,135.6L91.5,135.6z"/>
<path class="st4" d="M87.4,155.5c-0.8,0.4-1,1.2-1.5,1.9c0,0.1,0,0.2,0,0.2c0.1,0.4,0.1,1-0.1,1.3c-0.8,1-0.8,2.1-0.8,3.3
	c-0.4,1.1-1,2-2.4,1.3c0.4-3.2,1.3-6.2,3.3-8.8c0.6-0.8,0.6-1.6,0.7-2.4c0.1-0.8,0.1-1.7,1.3-1.6c0,1-0.1,1.9,0.1,2.9
	C88,154.2,88.2,155,87.4,155.5L87.4,155.5z"/>
<path class="st0" d="M91.1,135.3c0.2,2-0.2,3.9-1.3,5.6c-0.6,1,0.2,1.8-0.1,2.9c-0.5,1.8-1.5,3.5-1.7,5.4c0,0.1,0,0.2,0,0.4
	c-0.2,0.1-0.3,0.1-0.5-0.1c-0.6-1.2-0.4-2.4,0.3-3.5c0.6-1.1,1.2-2.2,0.5-3.5c-0.2-0.5-0.1-1,0.2-1.4c0.6-0.8,0.6-1.6,0.4-2.6
	c-0.3-1.8,0.3-2.8,1.8-3.3C91,135.2,91.1,135.2,91.1,135.3L91.1,135.3z"/>
<path class="st7" d="M87.4,161.8c-0.1,0.1-0.2,0.3-0.4,0.4c-0.6,0.2-1.2-0.4-1.1-0.7c0.7-1.4-0.8-2.8-0.1-4.2l0,0
	c1.2,0.1,1.4,1.2,2.1,2c0.3-0.5,0.6-1.1,0.9-1.6c0,0.3-0.1,0.6,0,0.9c0.5,1.1,0.8,2.1-1.1,1.9c-0.3,0-0.4,0.5-0.5,0.9
	C87.4,161.6,87.4,161.7,87.4,161.8L87.4,161.8z"/>
<path class="st7" d="M88.5,149.1c1.3-0.7,1,1.1,1.9,1.1c-0.3,0.8-1.3,0.8-1.9,1.5V149.1L88.5,149.1z"/>
<path class="st11" d="M87.8,149.5c0.1,0,0.2,0,0.4,0c0,1.5,0,3.1,0,4.6c0,0.6,0.2,1.3-0.7,1.4c0.4-0.8,0.6-1.7,0.2-2.5
	c-0.4-0.9,0.1-1.6,0.2-2.4C87.5,150.2,87.5,149.9,87.8,149.5z"/>
<path class="st12" d="M87.5,156.1c0.3,0,0.5,0.1,0.5,0.4c0,0.1-0.1,0.3-0.2,0.4c-0.2,0.1-0.5,0-0.6-0.2
	C87.1,156.4,87.3,156.2,87.5,156.1z"/>
<path class="st11" d="M90,145.4c0.5,0.1,1.1-0.2,1.8,0.3C91,146.3,90.5,146.2,90,145.4L90,145.4z"/>
<path class="st12" d="M82.5,175.7c0.2-0.1,0.5-0.3,0.8-0.4c0.5,0,0.7,0.3,0.7,0.8c-0.6-0.1-0.7,0.5-1.1,0.8
	c-0.3-0.1-0.4-0.2-0.6-0.4C82.3,176.1,82.3,175.9,82.5,175.7L82.5,175.7z"/>
<path class="st17" d="M110.6,59.7c-0.8,0-1.7,0-2.5,0.3c-0.9,0.3-1.9,0.2-2.4-1c0.1,0,0.1-0.1,0.2-0.1c0.2,0,0.5,0,0.7,0.1
	c0.6,0.2,1.1,0.1,1.6-0.1c1.2-0.3,2.5-0.7,3.8-0.4c0.2,0.2,0.2,0.3,0.1,0.5l0,0C111.6,59.3,111.1,59.4,110.6,59.7L110.6,59.7z"/>
<path class="st17" d="M105.7,58.9c-2.6,0-3.3-0.7-2.8-2.6c0.2-1,0.8-1.3,1.7-1.2c0.1,0.9-1.2,1.5-0.4,2.5c0.1,0.1,0.2,0.2,0.4,0.3
	C105,58.3,105.8,58,105.7,58.9L105.7,58.9L105.7,58.9z"/>
<path class="st7" d="M105,54.8h0.8c0.7-0.2,1.4-0.2,1.9-0.8c0.5-0.5,1.2-0.5,1.8,0c-0.6,1.5-1.5,1.8-4,1.5c-0.2-0.1-0.4-0.2-0.5-0.4
	C105,55,105,54.9,105,54.8L105,54.8z"/>
<path class="st17" d="M104.9,55.2c0.1,0,0.3,0,0.4,0c-0.2,1.2-1.1,1.9-1.5,3c-0.9-1.3-0.3-2.2,0.7-3
	C104.7,55.2,104.8,55.2,104.9,55.2L104.9,55.2z"/>
<path class="st4" d="M102.7,53.7c-0.1-0.8,0.3-1.2,1.1-1.1C104.7,54.2,103.3,53.5,102.7,53.7z"/>
<path class="st15" d="M61.6,102.7c-0.2-1,0.3-2,0.4-3c1.2,0,1.3,0.8,1.1,1.6c-0.1,0.4-0.3,0.8,0.2,1.1c0.4,0.3,0.9,0.5,1.1,1.1
	c-0.4,1.8-0.6,3.6,0.5,5.3c0.5,0.8,0.7,1.7,0.1,2.6c-0.3,0.4-0.6,0.7-1,1s-0.8,0.4-1.3,0.1c-0.8-1,0.4-1.8,0.2-2.8
	c-0.3-1.7-0.3-3.5-0.5-5.3c0.8-1-0.7-0.8-0.8-1.3C61.6,102.9,61.6,102.8,61.6,102.7L61.6,102.7z"/>
<path class="st7" d="M62.7,104.2c0.2,2,0.5,4.1,0.7,6.1c0.1,0.8-1.1,1.2-0.7,2.1c0.7,1.7,0.6,2-0.8,2.2c-0.1-0.8-0.6-1.5-0.1-2.3
	c0.4-0.8-0.4-1-1.4-1.6c2.2,0.1,2-0.7,1.7-1.8c-0.3-0.9,0.1-2-0.5-2.9c-0.2-0.2,0-0.5,0-0.8c0-0.1,0-0.2,0-0.4
	C61.9,104.6,62,103.9,62.7,104.2L62.7,104.2z"/>
<path class="st13" d="M63.9,112.1c0.1-0.4,0.4-0.6,0.8-0.8c0.2-0.1,0.3-0.1,0.5,0c-0.4,2.2,0.1,4.2,0.5,6.3c0.2,1.3-1.1,2.3-1.1,3.6
	c-0.1,0.1-0.2,0.2-0.4,0.3c-0.3,0-0.7-0.1-1-0.3c-0.1-0.1-0.2-0.2-0.3-0.4c-0.1-0.3-0.3-0.6-0.1-0.9c0.2-0.1,0.4-0.3,0.6-0.4
	c1.9-1.8,1.8-2.1-0.7-2.9c-0.7-0.2-0.8-0.7-1.1-1.2c0-0.1,0-0.2,0.1-0.3c1-0.1,1.7-0.5,1.7-1.7C63.4,112.9,63.6,112.4,63.9,112.1
	L63.9,112.1z"/>
<path class="st4" d="M63.9,112.1c0,3-0.1,3.1-2.2,3c0.1-0.1,0.2-0.3,0.3-0.4c1.4-0.3,0.5-1.5,0.8-2.2
	C63.1,112.3,63.5,112.2,63.9,112.1L63.9,112.1z"/>
<path class="st3" d="M62.7,119.9c0.1,0.2,0.2,0.5,0.4,0.8c-0.7,0.6-1.5,0.4-2.2,0.4c0-0.4-0.1-0.8,0.4-1.1
	C61.7,119.9,62.2,119.9,62.7,119.9z"/>
<path class="st8" d="M60.9,121c0.7-0.4,1.5-0.4,2.2-0.4c0,0.1,0,0.2,0,0.4c-0.4,0.4-1.1-0.1-1.5,0.4l0,0
	C61.3,121.4,61,121.3,60.9,121z"/>
<path class="st14" d="M63.1,72c0-0.1,0-0.2,0-0.4c0.3-0.5,0.3-1.1,0.1-1.6c-0.9-3.4-0.9-7-1.3-10.5c-0.4-3.1-1-6.3-0.7-9.5
	c0-0.7-0.1-1.3,0.1-2c1-0.7,0.4-1.4,0.1-2.2c0.1-0.8-0.2-1.5,0.2-2.2c0.1-0.2,0.2-0.5,0.4-0.8c0.2-0.1,0.4-0.1,0.5,0
	c0.8,1.7,0.7,3.5,1.1,5.3c0.4,2.2-0.2,4.3-0.2,6.5c0,1,1.7,1.2,1.3,2.4c-0.6,0.5-0.8,1,0,1.7c0.8,0.7,0.9,1.7,0,2.4
	c-0.8,0.6-0.7,1.3-0.4,2c0.9,1.9,0.3,4,1,6C65.7,70.4,64.3,71.9,63.1,72L63.1,72z"/>
<path class="st13" d="M58.6,42.5c-0.6-1.7,0.1-3.3,0.4-4.9c0.3-0.2,0.6,0,0.9,0.2c0.6,0.4,1.4-0.4,1.9,0.3c0.1,0.3,0.1,0.5-0.1,0.8
	c-0.9,0.6-0.6,1.8-1.2,2.5C59.8,41.6,59.5,42.5,58.6,42.5z"/>
<path class="st1" d="M61.6,47.7c0,0.8,0,1.5,0,2.2c-0.4,1.5-0.3,2.9-0.1,4.3c0.2,1.4,0.3,2.9-0.3,4.3c-1-0.5-1.3-1.1-0.8-2.3
	c0.9-1.9-0.5-4,0-6c0.9-0.8-0.3-2.4,1.1-3c0.1,0.1,0.1,0.2,0.1,0.3C61.7,47.7,61.7,47.7,61.6,47.7L61.6,47.7z"/>
<path class="st17" d="M60.5,41.3c0.2-1-0.6-2.3,1.1-2.6c0.4,0.3,0.7,0.8,1,1.2c0.1,0.9,1.2,1.6,0.4,2.7c-0.8,0-0.9-0.8-1.3-1.2
	C61.3,41.3,60.9,41.3,60.5,41.3L60.5,41.3z"/>
<path class="st1" d="M61.6,43.6c0,0.9,0,1.7,0,2.6c0.2,0.3,0.2,0.5,0,0.8C61,45.8,61,44.7,61.6,43.6z"/>
<path class="st17" d="M61.6,47c0-0.3,0-0.5,0-0.8c0.5,0.5,1.8,1,0,1.5c0-0.1,0-0.3,0-0.4C61.6,47.2,61.6,47.1,61.6,47L61.6,47z"/>
<path class="st2" d="M61.2,58.5c0.4-2.7-0.7-5.3,0-8c0.1-0.2,0.2-0.4,0.3-0.6c0.2,1.6-0.5,3.2,0.7,4.7c0.2,0.3,0.1,0.8-0.2,1.2
	c-0.2,0.2-0.4,0.5-0.4,0.6c1.8,2.7,0.6,5.9,1.4,8.9c0.4,1.6,0.5,3.7,0.7,5.5c0,0.4-0.3,0.6-0.7,0.8c-0.1,0-0.2,0-0.4,0
	c0-0.8-0.5-1.2-1.3-1.5c1.8-1.3,1.8-1.2-0.2-3c0-0.8,0-1.5,0-2.3C61.2,62.8,61.2,60.6,61.2,58.5L61.2,58.5z"/>
<path class="st11" d="M63.1,168.2c0,0.7,0,1.5,0,2.2c0.5,0.4,0.4,1.1,0.6,1.7c0.1,0.6,0.3,1.1,0.7,1.6c0.3,0.7,0.9,1.1,1.5,1.5
	c0.2,0.2,0.3,0.4,0.4,0.6c-0.3,1.1,0.8,2.4-0.3,3.5c-0.1,0-0.2,0.1-0.2,0.1c-0.1,0-0.2,0-0.4,0c-2.3-3.6-3.4-7.4-2.3-11.6
	C63.2,167.9,63.3,168,63.1,168.2C63.2,168.2,63.2,168.2,63.1,168.2L63.1,168.2z"/>
<path class="st11" d="M63.1,168.2c0-0.1,0-0.3,0-0.4c0-0.3-0.1-0.6-0.3-0.7c0-0.6,0-1.2,0-1.9c0.1-0.2,0.2-0.2,0.4,0
	C62.6,166.2,64.4,167.2,63.1,168.2L63.1,168.2z"/>
<path class="st11" d="M116.6,57.8c0,0.1,0,0.2,0,0.4c-0.3,0.3-0.6,0.4-1,0.4c-1-0.1-2,1-3.1,0.1c-0.1-0.1-0.2-0.3-0.2-0.5
	c0.1-0.2,0.2-0.3,0.4-0.4c1.7-0.9,3.7-1.2,4.8-2.9c2.7-2.7,3.9-6,4.4-9.6c0.2-1.3-1.5-3.5-3.2-4.1c-0.4-0.2-1-0.2-1.4-0.5
	c-0.2-0.3,0-0.5,0.2-0.7c0.5-0.3,1.1-0.5,1.6-0.1c0.1,0.1,0.3,0.2,0.4,0.4c0.4,0.5,0.9,0.7,1.5,0.8c0.4,0.5,0.7,1,1.1,1.5
	c0,1,1.4,1.5,0.8,2.6c-0.5,0.9-0.1,1.7,0,2.6c0.3,0.4,0.3,0.8,0.1,1.2c-0.3,0.3-0.6,0.7-0.6,1.1c-0.3,3.2-2.5,5.2-4.7,7.1
	C117.4,57.4,116.9,57.5,116.6,57.8L116.6,57.8z"/>
<path class="st9" d="M61.6,94.5c0-0.5,0-1.2,0.5-1.3c1-0.3,1.3-0.5,0.6-1.5c-0.5-0.7,1.4-0.6,1.2-1.7c-0.5-0.9-1.1-1.7-0.2-2.7
	c1,0.6,0.8,1.8,1.5,2.5c0.2,1.3,0.4,2.6-0.3,3.8c-0.3,0.6-0.1,1.1,0.1,1.6c0.2,0.6,0.4,1.2,0.1,1.8c-0.4,0.4-0.2,1.3-1.1,1.2
	c0-0.7,0.2-1.6-1.1-1.4c-0.5,0.1-0.9,0-0.8-0.6c0.2-0.7,0.7-0.1,1.1-0.2c0.3-0.5,0.4-1-0.4-1.1C62.4,94.7,62,94.6,61.6,94.5
	L61.6,94.5z"/>
<path class="st4" d="M63.9,98.2c0.6-0.3,0.1-1.2,0.8-1.5c0.7,1.7,0,4.5-1.5,6c-0.5-0.1-1.3-0.2-0.7-1c0.8-1,0.3-1.5-0.5-2
	C61.6,98,62.6,97.9,63.9,98.2L63.9,98.2z"/>
<path class="st7" d="M62.7,94.8c0.2-0.4,0.5-0.9,0.9-0.2c0.4,0.6,0.4,1.2-0.5,1.4C63,95.6,62.9,95.2,62.7,94.8z"/>
<path class="st15" d="M63.9,87.4c-0.9,0.9-0.1,1.8,0,2.6c-0.8-0.8-1.2-2.1-2.6-2.2c0.2-0.9-0.6-2.3,1.1-2.6c0.1,0.1,0.2,0.2,0.2,0.4
	c0,0.7,0.4,0,0.6,0.2c0.3,0,0.6,0.2,0.9,0.4C64.4,86.5,64.6,87,63.9,87.4L63.9,87.4z"/>
<path class="st15" d="M63.9,86.2c-0.2-0.1-0.5-0.2-0.8-0.4c-0.2-0.2-0.6-0.1-0.8-0.4c0-0.1,0-0.2,0-0.4c0.4-0.1,0.8-0.2,0.7-0.7
	c-0.1-0.6-0.5-0.8-1-0.8c-0.8-0.6-0.7-1.2,0-1.6c0.9-0.5-0.3-0.6-0.1-0.9c-0.1-0.2-0.1-0.3-0.1-0.5c0.6-0.8,0.7-1.5-0.2-2.1
	c-0.2-0.4-0.4-0.9,0.4-0.9c1.2-0.2,1.8-0.9,1.4-2.1c-0.2-0.7,0.1-1.3,0-2c0.1,0,0.2,0,0.4,0c0.8,1.2,0.8,2.5,0.4,3.9
	c-0.5,1.6-0.7,3.2,0.2,4.9C65.3,83.7,64.4,85,63.9,86.2L63.9,86.2z"/>
<path class="st15" d="M62,81c0.5,0.3,0.9,0.6,1.5,1.1c-1,0.2-2.4-0.1-1.5,1.5c-1.2-0.2-0.6-1.4-1.1-1.9l0,0
	C61.2,81.4,61.4,80.9,62,81L62,81z"/>
<path class="st5" d="M63.5,132.3c0.2,1,0.7,2,0,3c-0.9,0.3-1.7,0.3-2.6,0c0-0.6,0-1.2,0-1.9C62.3,134.4,63,133.5,63.5,132.3
	L63.5,132.3z"/>
<path class="st17" d="M60.9,135.3c0.9,0,1.7,0,2.6,0c-0.8,0.7-1.7,0.2-2.6,0.4C60.9,135.5,60.9,135.4,60.9,135.3L60.9,135.3z"/>
<path class="st13" d="M64.6,134.5h-0.2h-0.2c0.1-1.2-0.2-2.4-0.4-3.7c-0.2-1.6-0.9-1.1-1.7-0.2c-0.2-0.9-0.3-1.6,0.6-2.1
	c0.9-0.8,2.1-1.3,1.1-3.1c-0.5-0.9,0-2.4,0-3.6l0,0c1,0.1,0.8,0.9,0.8,1.5c0.1,0.8,0,1.7,0.5,2.4c0.2,0.5,0.2,1,0.1,1.4
	c-0.8,0.9-1,1.9-0.5,3.2c0.4,1.2,0.7,2.6,0.1,4C64.7,134.4,64.7,134.5,64.6,134.5L64.6,134.5z"/>
<path class="st5" d="M63.9,137.1c-0.1,0.5,0.3,1.2-0.5,1.4c-0.5,0.1-0.5-0.4-0.7-0.7c-0.3-0.8,0.2-1,0.8-1.1
	C63.6,136.9,63.7,137,63.9,137.1L63.9,137.1z"/>
<path class="st13" d="M62,126.7c-0.3-0.6-0.6-1.1,0-1.6c0.1-0.1,0.5-0.1,0.7,0c0.7,0.5,0,1.1,0.1,1.6
	C62.5,126.7,62.2,126.7,62,126.7L62,126.7z"/>
<path class="st7" d="M63.1,127.4c-0.1,0.2-0.2,0.5-0.4,0.7c-0.5-0.1-1.2,0.1-1-0.7C62,126.6,62.6,127.3,63.1,127.4z"/>
<path class="st16" d="M53.8,36.1c-0.4,0.5-0.8,1-1.5,1.1c-0.3,0.1-0.5-0.1-0.5-0.4c0-0.2,0-0.3,0.1-0.5c1-0.9-0.1-1.6-0.2-2.4
	c-0.1-0.1-0.2-0.2-0.3-0.4c-0.2-0.2-0.3-0.4-0.3-0.7c0-0.2,0.1-0.3,0.3-0.4c1.2-0.3,1.8,0.1,1.9,1.4C53.5,34.6,54.8,35,53.8,36.1
	L53.8,36.1L53.8,36.1z"/>
<path class="st17" d="M93.2,139.4c0.1,0.1,0.3,0.2,0.3,0.3c0.1,0.2-0.2,0.3-0.3,0.3c-0.1-0.1-0.2-0.2-0.3-0.4
	C93,139.5,93.1,139.5,93.2,139.4L93.2,139.4z"/>
<path class="st17" d="M62,81c-0.4,0.2-0.8,0.5-1.1,0.7c0.5-1.6,0.4-3.2,0-4.9c0.4,0,0.7,0,1.1,0c0,0.2,0,0.5,0,0.8
	c-0.4,0.2-0.4,0.5,0,0.8c0.5,0.8,0.5,1.5,0,2.2V81L62,81z"/>
<path class="st17" d="M85.9,157.4c0,0.8-0.2,1.6,0.7,2.1c0.5,0.3,0.6,1,0,1.4c-1.1,0.8,0,1,0.4,1.4c0,0.3-0.1,0.6-0.4,0.8
	c-0.4,0.3-0.4,1-1,1.2c-0.9-0.6-1.2-1.3-0.9-2.3C83.8,160,85.7,158.9,85.9,157.4L85.9,157.4z"/>
<path class="st7" d="M85.9,164.1c0-0.5,0.2-0.9,0.8-1.1c-0.1,0.4-0.4,0.9-0.3,1.2c0.7,2.2,0,3.2-2.4,3.1c-0.8-0.1-0.1,1-0.7,1.3
	c-0.2,0.1-0.4,0.1-0.6,0c-0.6-0.5-0.7-1.2-0.4-1.9c0.3-0.5,0.9-0.7,1.5-0.7C85.4,166.3,85.2,164.7,85.9,164.1L85.9,164.1z"/>
<path class="st0" d="M85.5,14.8c0,0.1,0,0.2,0,0.4c-1.9,0.3-2.6-0.5-2.1-2.1c0.3-0.9,0.4-2.1,1.3-2.8c0.7-0.1,1,0.6,1.5,0.8l0,0
	c-0.5,0.8-0.7,1.7-0.8,2.6C85.4,14,84.9,14.4,85.5,14.8z"/>
<path class="st13" d="M85.5,13.6c-0.6-1.1-0.9-2.1,0.8-2.6C86.6,12.1,85.9,12.8,85.5,13.6z"/>
<path class="st13" d="M86.3,11c-0.5,0-0.9-0.2-1.1-0.8C85,10,85,9.7,85.2,9.4c0.1,0,0.2,0,0.4,0C85.5,10.2,86.1,10.5,86.3,11
	L86.3,11z"/>
<path class="st4" d="M83.3,8.8c-0.6,0-0.8,0.5-1,0.9c-0.4,1.1-0.9,1.3-1.7,0.4c-0.2-0.2-0.4-0.5-0.6-0.2c-1.2,1.4-2.8,0.6-4.2,0.7
	c-0.9,0.1-1.5,0.4-1.9,1.2c-1.2,0.8-2.4,1.3-3.7,1.9c0-0.2,0-0.5,0-0.8c-0.1-0.1-0.1-0.2-0.1-0.2l0.1-0.1c1-0.1,1.1-1.6,2.2-1.5
	c0.2,0.1,0.6,0.4,0.6,0.3c1.7-2,4.2-0.7,6.1-1.4c0.3-0.6,0.8-1.1,1.5-1.5c0.6,0,1.2,0,1.9,0C82.9,8.4,83.1,8.5,83.3,8.8L83.3,8.8z"
	/>
<path class="st18" d="M96.7,51.8c0-0.1,0-0.2,0-0.4c0.7-0.5,1.1,0.2,1.6,0.5c2.3,1.3,2.5,2.3,0.6,3.7c-2.2,0-2.5-0.3-2.6-2.5
	C96.5,52.6,96.5,52.2,96.7,51.8L96.7,51.8z"/>
<path class="st4" d="M68.7,14.4c-1.5,0.2-1,1.4-1.1,2.2c-0.8-0.4-0.9-1-0.7-1.7c0.2-0.8,0.9-0.9,1.6-0.9c0.4,0,0.9,0,1.3,0
	C69.6,14.5,69.1,14.4,68.7,14.4L68.7,14.4z"/>
<path class="st5" d="M47.8,23.4c0.8,0.1,1.5,0.4,1.9,1.1c-0.2,0-0.5,0-0.8,0c-1.1,0.4-2.2,0.5-3.2,1.2c-1.4,1-1.6,2.1-0.3,3.4
	c0.3,0.3,0.9,0.6,0.5,1.2c-0.2,0.1-0.4,0.2-0.6,0.2c-1.9-0.3-3.3-1.6-4-3.1c-0.9-1.8,0.5-3.3,1.6-4.7C43.6,21.6,46.7,22.1,47.8,23.4
	z"/>
<path class="st10" d="M38.1,25.2c0,0.2,0,0.5,0,0.8c0.6,0.5,0.8,1.2,1.1,1.9c0.8,2.8,3.3,3.9,5.5,5.1c0.8,0.5,1.5,1.5,2.7,1.2
	c0.6,0.6,2.1-0.4,2.2,1.2c-0.9,0.5-1.7,0.3-2.6-0.1c-3.1-0.6-5.1-3.2-7.9-4.3c-0.8-0.4-0.5-1.2-0.7-1.7l0,0c0-0.2,0-0.5,0-0.7
	c-0.1-0.1-0.2-0.3-0.4-0.4c-1-0.8-0.6-2-0.9-3C37,25,37,24.9,36.9,24.7c-0.1-1.2-0.2-2.4,0.4-3.6l0,0c0.5-0.6-0.1-1.3,0.4-1.9
	c0-0.9,0.9-1.2,1.2-1.9c0.1,0,0.2,0,0.3,0c0.2,0.2,0.2,0.5,0,0.8c0,0.2,0,0.5,0,0.7c-0.6,0.8-0.4,1.9-1.1,2.6
	c-0.3,0.2-0.4,0.4-0.4,0.8C38.8,23.1,38.1,24.2,38.1,25.2L38.1,25.2z"/>
<path class="st13" d="M45.9,30.1c-0.3-0.9-1.8-0.6-1.8-2.4c-0.1-1.5,0.4-1.8,1.3-2.4c1.1-0.7,2.2-1.4,3.5-0.9
	c0.3,0.6,1.2,0.1,1.5,0.7c-0.1,0.1-0.2,0.2-0.3,0.2c-1.7,0.1-2.6,1-2.8,2.7c-0.8,0.6-0.8,1.6-1,2.5C46,30.5,45.8,30.4,45.9,30.1
	L45.9,30.1z"/>
<path class="st0" d="M37.7,19.2c-0.1,0.6,0.2,1.4-0.4,1.9c0-0.6,0-1.2,0-1.9C37.4,19.2,37.6,19.2,37.7,19.2L37.7,19.2z"/>
<path class="st0" d="M37.3,21.1c0,1.4,0,2.7,0,4.1c-0.1,0.1-0.2,0.1-0.4,0c-0.1,0-0.2,0-0.4,0s-0.3-0.2-0.4-0.4
	C35.7,23.3,36.6,22.3,37.3,21.1L37.3,21.1z"/>
<path class="st0" d="M36.9,25.2c0.1,0,0.2,0,0.4,0l0,0c0.4,1-0.1,2.3,1.1,3c0,0.1,0,0.2,0,0.4c-1.4,0.1-2.2-0.2-1.6-1.9
	C37,26.3,36.9,25.8,36.9,25.2L36.9,25.2z"/>
<path class="st0" d="M45.2,81c-1.6-0.3-3.2-0.7-4.1-2.2c-0.6-1.2-2.4-1.4-2.6-2.9c0-0.2,0.1-0.3,0.2-0.5c1.1-1.1,2.1-2.3,4-2
	c0.4,0.1,0.8,0,0.7,0.6c0,0.1,0,0.2,0,0.4c-0.5,0.1-1.5,0.3-1.3,0.7c0.4,1,0.3,2.2,1.4,2.9c0.2,0.2,1,0.1,0.6,0.6
	C42.4,80.2,44.4,80.3,45.2,81L45.2,81z"/>
<path class="st5" d="M43.3,73.9c-1.6-0.2-2,0-2.8,0.9c-0.4,0.4-1.1,0.4-1.7,0.6c-0.2,0.1-0.3,0.1-0.5,0c0.2-1.2-0.7-2.4-0.5-3.6
	c0.1-0.2,0.3-0.3,0.4-0.3c1.6,0.2,3.3-0.2,4.6,1c0.5,0.5,1.5,0.5,1.5,1.5C44.1,73.9,43.7,73.9,43.3,73.9L43.3,73.9z"/>
<path class="st11" d="M39.2,78.8c-0.8,0-1.2-0.5-1.5-1.1c-0.6-1.2-0.4-1.9,1.1-1.9c0.2,1.4,2.3,1.4,2.2,3
	C40.4,78.3,39.8,78.9,39.2,78.8L39.2,78.8z"/>
<path class="st8" d="M38.8,75.8c-0.9,0.3-1.2,0.9-1.1,1.9c-1-0.4-1.6-0.4-1.2,1c0.1,0.4,0.1,0.8,0.1,1.3c-0.1,0-0.2,0-0.4,0
	c-0.2-1.1-0.5-2.2-0.8-3.4c0.4-0.1,0.6-0.5,0.8-0.9c0.6-1.1,1.3-1.2,2.1-0.3c0.1,0,0.2,0,0.4,0C38.8,75.5,38.8,75.6,38.8,75.8
	L38.8,75.8z"/>
<path class="st16" d="M91.5,135.3c-0.1,0-0.2,0-0.4,0l0,0c-1.7-1.2-1.7-3.1-2.1-4.8c0.5-0.7,1.1-1,1.8-0.7c0-1.1-1.1-2.2-0.1-3.3
	c0.5-0.9,0.4-1.9,0.5-2.9c0-0.3,0.1-0.5,0.3-0.7c0.9,0.5,1.3,1.1,0.8,2.3c-0.9,2-0.1,4.3-0.8,6.4C91.1,132.8,91,134,91.5,135.3
	L91.5,135.3z"/>
<path class="st11" d="M77.3,177.9c0.1,1-0.5,2-1.3,2c-1.7,0.1-3,1-4.3,1.8c-0.8,0.4-1.5,0.4-2.3-0.1c-1.2-0.7-2.6-1.2-3.7-2.2l0,0
	c0.4-0.3,1-0.5,1.4-0.2c1.3,1.3,2.9,0.6,4.3,0.9c0.5,0.1,0.8-0.1,1.1-0.4c0.5-0.5,1.1-0.8,1.8-0.7c0.5,0.1,0.9,0.2,1.3-0.1
	C76.3,178.8,76.5,177.8,77.3,177.9L77.3,177.9z"/>
<path class="st0" d="M77.3,177.9c-0.6,0.4-0.8,1.2-1.5,1.5c-0.3-1.3,0.2-2,1.5-2.2c0.2,0,0.5,0,0.8,0
	C77.8,177.4,77.6,177.7,77.3,177.9L77.3,177.9z"/>
<path class="st5" d="M82.9,177.2c-0.7,0.7-1.5,0.3-2.2,0c0-0.8,0.6-0.8,1.1-0.8c0.1,0.1,0.1,0.1,0.2,0.1
	C82.2,176.8,82.7,176.9,82.9,177.2L82.9,177.2z"/>
<path class="st3" d="M81.8,176.4c0.2,0,0.5,0,0.7,0c0.1,0.1,0.3,0.3,0.4,0.4c0,0.1,0,0.2,0,0.4C82.5,176.9,81.4,177.8,81.8,176.4
	L81.8,176.4z"/>
<path class="st13" d="M63.1,165.2c-0.1,0-0.2,0-0.4,0c0.2-1.4-0.8-2.9,0.3-4.2c0,0,0-0.1,0-0.2c-2-1.9,0.1-3.8,0-5.6
	c0-0.1,0-0.3,0-0.4c0.6,0.8,0.3,1.7,0.2,2.6s-0.8,2,0.8,2.3c0.4,0.1,0.4,0.5,0.2,0.7C62.8,161.7,63.1,163.5,63.1,165.2L63.1,165.2z"
	/>
<path class="st13" d="M66.5,140.1c-0.5,0-1,0.1-1.2-0.5c0-0.1,0.3-0.5,0.4-0.5C66.3,139.1,66.4,139.6,66.5,140.1L66.5,140.1
	L66.5,140.1z"/>
<path class="st11" d="M63.5,172.3c-0.6-0.5-0.3-1.2-0.4-1.9c0.1,0,0.2,0,0.4,0l0,0c0.2,0.4,0.3,0.9,0.3,1.4
	C63.7,172,63.6,172.2,63.5,172.3L63.5,172.3z"/>
<path class="st8" d="M103.5,46.2c0.1,0,0.2,0,0.4,0c0.2,0,0.5,0,0.7,0c0.1,0.1,0.2,0.3,0.2,0.5c0.3,1.1,1.1,0.5,1.6,0.3
	c1.8-1,3.5-1,5.4-0.2c0.2,0,0.3,0.1,0.5,0.2c0.2,0.2,0.2,0.5,0.2,0.7s-0.1,0.3-0.2,0.5c-0.4,0.5-0.9,0.5-1.4,0.2
	c-0.2-0.1-0.4-0.3-0.6-0.5c-1-0.9-1.8-0.2-2.6,0.3c-1.6,1.4-3.4,1-5.2,0.8c-0.9-0.3-1.3-0.9-1.1-1.9c0.2-1,0.9-0.4,1.5-0.4
	C103.2,46.8,103.3,46.5,103.5,46.2L103.5,46.2L103.5,46.2z"/>
<path class="st6" d="M110.2,40.6c0.3,0,0.6-0.1,0.8-0.4c0.2-0.2,0.5-0.4,0.8-0.4c0.6-0.1,1.2-0.3,1.7-0.5c1.3-0.4,2.5-0.3,3.5,0.8
	c0.1,0.2,0.1,0.3,0.1,0.5c-1.8,0.3-3.7,0-5.5,0.7c-1.2,0.6-2.6,1.1-3.5,2.2c-0.3,0.4-0.8,0.8-1.4,0.6c-0.2-0.1-0.3-0.2-0.3-0.4
	c0.1-1.5,1.1-2.7,2.7-3C109.4,40.7,109.8,40.9,110.2,40.6L110.2,40.6z"/>
<path class="st11" d="M110.2,40.6c-1.5-0.1-1.9,1.7-3.4,1.7c-0.6,0-0.2,1.1-0.3,1.6c-0.2,0.2-0.5,0.2-0.7,0
	C106.9,40.6,106.9,40.6,110.2,40.6z"/>
<path class="st6" d="M105.7,43.9c0.2,0,0.5,0,0.7,0l0,0c0.2,0.8-0.7,1.1-0.9,1.7c-0.3,0.4-0.3,1.1-1,0.9c0-0.1,0-0.3,0-0.4
	C104.7,45.3,104.2,44.1,105.7,43.9L105.7,43.9z"/>
<path class="st11" d="M117.7,40.2c0.2-0.4,0.5-0.7,0.8-1.1c0.2,0.2,0.5,0.5,0.7,0.7C118.7,39.9,118.2,40.1,117.7,40.2L117.7,40.2z"
	/>
<path class="st9" d="M82.2,163.3c0.1,0,0.2,0,0.3,0c1.3,0.4,1.8-0.6,2.3-1.5c0.2,0.9,0.5,1.6,1.1,2.2c-0.1,1.2,0.1,2.6-1.9,2.2
	c-0.4-0.5,0.1-1.2-0.4-1.7c-0.8,0.5-0.5,1.5-1.1,2c0,0.6,0,1.3,0.4,1.9l0,0c-0.3,0.6-0.9,1.1-1.2,1.6c-0.5,0.7,0.3,2.2-1.4,2.1
	c0.3-1.3,0-2.7,1.1-3.8c0.8-0.4,0.5-1.1,0.6-1.8c0.1-0.6-0.2-1.3,0.2-2C82.2,164.3,82.2,163.8,82.2,163.3L82.2,163.3z"/>
<path class="st17" d="M106.8,54.4c0.5-0.2,0.7-0.6,0.8-1.1c0.3-0.3,0.7-0.5,1.1-0.5c0.6,0,1.2,0,1.8,0c0.5,0,1,0,1.5,0.4
	c0.1,1.1-0.9,0.8-1.4,1.2c-0.4,0.1-0.8,0-1.1-0.3c-1.3-0.3-2.4,1.2-3.8,0.7C106,54.4,106.4,54.5,106.8,54.4L106.8,54.4z"/>
<path class="st16" d="M106.8,50.7c0.1,0.1,0.2,0.2,0.4,0.4c0.2,0.1,0.3,0.2,0.5,0.2c0.6,0,1.3-0.3,1.6,0.5c0.3,0.7-0.1,1.2-0.6,1.6
	c-0.4,0-0.7,0-1.1,0c0-0.5-0.2-0.9-0.8-1.1C106.6,51.7,106.2,51.2,106.8,50.7L106.8,50.7z"/>
<path class="st0" d="M42.2,33.1c-0.7-1.1-2.1-1.3-3-2.3c1-0.2,1.8,0.4,2.4,1c1.5,1.5,3.4,2.5,5.4,3.1c0.4,0.3,0.8,0.5,1.1,0.9
	c0,0.1,0,0.2,0.1,0.2c-0.2,0.1-0.4,0.3-0.4,0.2C46,35,43.6,34.9,42.2,33.1L42.2,33.1z"/>
<path class="st0" d="M51.9,36.8c-0.1,0-0.2,0-0.4,0C51,36.2,50.4,36,49.6,36c-0.5,0-1,0-1.5,0l0,0c1.1-0.9,2.3-1,3.5-0.5
	c0.4,0.1,0.5,0.5,0.2,0.9C51.9,36.6,51.9,36.7,51.9,36.8L51.9,36.8z"/>
<path class="st4" d="M65,111.3c-0.1,0-0.2,0-0.4,0c0.3-0.5,0.7-1.2,0.3-1.6c-1.4-1.3-0.8-3.2-1.5-4.6c-0.4-0.8,0.7-1,0.9-1.7
	c1.3,0,1.1,1,1.1,1.8c-0.3,1.4-0.4,2.7,0.4,4C65.7,110,66.2,111,65,111.3L65,111.3z"/>
<path class="st12" d="M61.6,121.4c0.4-0.6,1-0.3,1.5-0.4c0.3,0,0.6,0.1,0.7,0.4C63.1,121.4,62.4,121.4,61.6,121.4L61.6,121.4z"/>
<path class="st0" d="M74.7,179.4c-0.3,0-0.8-0.1-0.9,0.1c-1,1.6-2.8,0.7-4.2,1.3c-0.7,0.3-1.3-0.2-1.8-0.7c-0.6-0.6-1.3-0.8-2-0.7
	c1-1.2-0.6-2.6,0.4-3.7c0.9-0.1,0.8,0.5,0.9,1c0.2,1.5,0.5,2.7,2.4,1.8c0.3-0.1,0.7,0.2,1,0.3c0.6,0.4,1,0.9,1.8,0.1
	C73.3,177.9,74.1,178.2,74.7,179.4L74.7,179.4z"/>
<path class="st0" d="M63.5,172.3c0-0.1,0-0.2,0-0.4c1.2,0.2,1.2,1,0.8,1.9l0,0C63.6,173.5,63.5,172.9,63.5,172.3L63.5,172.3z"/>
<path class="st11" d="M62.4,85.5c0.3,0,0.6,0.1,0.8,0.4c-0.5,0.1-0.4,1.1-1,0.7C61.8,86.4,62,85.8,62.4,85.5L62.4,85.5z"/>
<path class="st17" d="M62,80.6c0-0.8,0-1.5,0-2.2C63.3,79.1,63.3,79.9,62,80.6z"/>
<path class="st11" d="M51.9,36.5c-1.1-1.4-2.4-0.8-3.7-0.4c-0.5-0.2-0.9-0.6-1.1-1.1c0.9,0.2,1.7,0.5,2.6,0.4
	c0.2-0.3,0.5-0.4,0.9-0.5c0.7-0.2,0.9-1,1.4-1.4c0.6,0.5,0.5,1.3,0.9,2C53.4,36.3,52.6,36.4,51.9,36.5L51.9,36.5z"/>
<path class="st1" d="M45.9,30.1c0.1,0.1,0.2,0.3,0.4,0.4c0.2,0,0.4,0.2,0.6,0.3c0.5,0.1,0.9,0.2,1.3,0.6c0.1,0.2,0.2,0.4,0.4,0.6
	l0,0c0.9,0.4,1.9,0.5,2.6,1.1c0.1,0.1,0.2,0.2,0.4,0.4c-0.1,0.1-0.1,0.1-0.2,0.2c-2.3,0.3-3.9-1.1-5.4-2.4l-0.4-0.4
	c-0.2-0.2-0.2-0.5,0-0.8C45.7,30.1,45.8,30.1,45.9,30.1L45.9,30.1z"/>
<path class="st13" d="M51.2,33.1c-1,0-1.9-0.4-2.6-1.1c0.2,0,0.5,0,0.8,0c0.9-0.4,1.4,0.1,1.9,0.8C51.2,32.8,51.2,33,51.2,33.1z"/>
<path class="st1" d="M51.9,33.5c0.1,0.9-0.3,1.5-1.1,1.9c-0.5-0.9,0.3-1.3,0.7-1.8l0,0C51.6,33.5,51.8,33.5,51.9,33.5L51.9,33.5z"/>
<path class="st6" d="M82.5,166.7c0-0.6,0-1.1,0-1.7c0.1-0.6,0.5-1.3,1.2-1.1c0.7,0.1,0.7,0.8,0.6,1.4c0,0.4-0.2,0.7-0.3,1.1
	C83.5,166.3,83,166.5,82.5,166.7z"/>
<path class="st17" d="M81,9.6c0.2-0.1,0.3-0.2,0.5-0.2c0.3,0,0.4,0.2,0.3,0.5c0,0.1-0.2,0.2-0.3,0.3C81.3,10,81.2,9.8,81,9.6z"/>
<path class="st19" d="M98.6,52.2c0.9-0.1,1.5,0.1,1.6,1.2c0.1,1.1,0.7,1.8,1.8,2.2c-1.1,0.6-1.8,1.9-3.3,1.5
	c-0.6-0.8-0.2-1.3,0.4-1.9c1.3-1.5,1.1-1.8-1.1-3C98.1,52.2,98.4,52.2,98.6,52.2L98.6,52.2z"/>
<path class="st0" d="M38.4,28.2c-1.6-0.5-1-1.9-1.1-3C37.9,26.2,37.7,27.4,38.4,28.2z"/>
<path class="st4" d="M82.2,164.8c-0.4,1.2,0.8,2.8-0.7,3.8C82.3,167.4,81.3,166,82.2,164.8z"/>
<path class="st0" d="M112.1,47.7c0-0.2,0-0.5,0-0.8c0.3-1.9,1.8-1.7,3.1-1.8c1.1,0.5,1.2,1.3,0.7,2.3c-0.2,0.5-0.5,0.8,0,1.3
	c0.2,1.3,0.5-0.2,0.8,0c1.2,0.8,0.8,1.7-0.3,2c-0.9,0.3-1.3,0.8-1.8,1.5c-0.2,0.1-0.3,0.2-0.5,0.2c-0.9,0-1.7,0.7-2.7,0.3
	c-0.4-0.7,0.2-0.8,0.6-1.1c0.5-0.3,1.6-0.1,1.3-1.1C113.1,49.5,113.5,48.1,112.1,47.7L112.1,47.7z"/>
<path class="st5" d="M115.4,45.5c-1.4-0.1-2.7,0-3.4,1.5c-0.1,0-0.2,0-0.4,0c0.4-1.8,2.8-2.8,4.3-2c1.7,1,2.5,2.5,2.9,4.3
	c0.3,1-0.7,1.3-1.3,1.8c-0.1-0.1-0.1-0.1-0.2-0.2c-0.3-0.5-0.2-1.2-0.4-1.8C116.7,47.9,116,46.7,115.4,45.5L115.4,45.5z"/>
<path class="st0" d="M110.6,47.7c-1,0-2,0-3,0C108.6,47.2,109.6,46.2,110.6,47.7z"/>
<path class="st0" d="M112.1,48.1c-0.1,0.4-0.2,0.8-0.4,1.1c-0.8,0-0.8-0.6-0.8-1.1C111.3,48.3,111.7,48.3,112.1,48.1z"/>
<path class="st11" d="M111.7,40.2c1.7-1.6,3.8-1.6,5.2,0C115.2,38.8,113.4,40,111.7,40.2z"/>
<path class="st2" d="M110.6,52.9c0.2-0.1,0.5-0.3,0.7-0.4c1,0,2-0.6,3-0.4c0.1,0.1,0.1,0.2,0.1,0.2c0,0.1-0.1,0.1-0.1,0.1
	c-0.7,0.5-1.5,0.5-2.2,0.7c-0.5,0-1,0-1.5,0C110.6,53.2,110.6,53.1,110.6,52.9z"/>
<path class="st5" d="M114.3,52.6c0-0.1,0-0.2,0-0.4l0,0c1-0.6,1.9-1.8,3.4-1.1l0,0C117,52.5,115.7,52.7,114.3,52.6L114.3,52.6z"/>
<g>
	<path class="st20" d="M106.7,65.1c-0.3-0.1-0.6-0.2-0.8-0.4c-0.3-0.2-0.5-0.3-0.8-0.5c-0.4-0.3-0.7-0.5-1.1-0.6
		c-0.9,0.2-1.9,0.5-2.1-0.9c-0.3-0.7-0.9-0.9-1.5-1.3c-0.3-0.1-0.6-0.3-0.9-0.3c-0.4,0-0.6,0.3-0.9,0.6c-0.2,0.2-0.3,0.3-0.3,0.5
		c-0.1,0-0.2-0.1-0.3-0.1c0,0-0.1,0-0.1,0c0.2-0.8-0.5-1.1-1-1.6c-0.4-0.2-0.7-0.4-1.1-0.3c-0.9,0.6-1.2,1.3-0.2,2
		c0.2,0.3,0.3,0.6,0.4,0.8c-0.5,0.9-0.5,1.8,0.1,2.6c0.1,0.3,0.4,0.6,0.3,0.8c-0.6,2.6,1,5.3-0.3,7.9C96,74.4,96,74.5,96,74.6
		c0,0.1-0.1,0.2-0.1,0.3c0,0.2,0.1,0.4,0.1,0.6c0.1,0.2,0.2,0.4,0.3,0.5c0.2,0.3,0.4,0.6,0.5,0.8c0,1.8-0.3,3.7,0.3,5.5
		c0,0.1,0,0.2-0.1,0.3c0,0.7,0,1.4-0.2,2.3c-0.1,0.5-0.1,0.9,0,1.4c0.2,0.8,0.2,1.6,0,2.4c-0.1,0.3-0.1,0.7,0,1.1c0,0,0,0,0,0.1
		c0,0-0.1,0.1-0.1,0.1c-0.7,1-1.7,1.8-2.3,3c0,0,0.1,0,0.1-0.1c0,0.2,0,0.3,0,0.4c0,0,0,0,0,0.1c-0.1,0.1-0.2,0.3-0.3,0.3
		c0,0.3,0,0.5,0,0.7c0,0.1,0,0.1,0,0.1c0,0.1,0,0.1,0,0.2c-0.2,0.7-0.2,1.3,0,1.9c0.2,0.5,0.5,0.8,1,0.9c-0.5,0.3-0.8,0.9-0.6,1.4
		c0.5,1.1-0.1,1.7-0.6,2.5c-0.7,1.2-1.5,2.5-1,4c0.4,0.4,0.7,0.7,0.4,1.3c-0.3,0.6,0,1.1,0.4,1.5c0.4,0.7-0.1,1.4,0.2,2.1
		c0.2,0.4,0,1.1,0.5,1.4c0,0,0,0,0,0c-0.7,0.8-0.5,1.7-0.3,2.5c0.1,0.1,0.1,0.2,0.2,0.2c-0.1,0.2-0.1,0.3-0.2,0.5
		c0.3,0.6,0.2,1.2-0.1,1.8c0,1.3-0.2,2.7,0,4c0,0.3,0.1,0.4,0.2,0.6c-0.1,0.2-0.1,0.4-0.1,0.7c0.1,0.2,0.2,0.4,0.3,0.5
		c0,0.2,0,0.4,0,0.6c-0.2,0.3-0.3,0.6-0.4,0.9c-0.4,3.9,0.2,7.8-0.4,11.7c-0.1,0.6,0.1,1.2,0.6,1.7c0,0,0.1,0.1,0.1,0.1c0,0,0,0,0,0
		c-0.8,0.1-0.9,0.8-0.9,1.5c0.2,0.7,0.1,1.3-0.1,1.9c-0.2,0.7-0.1,1.5-0.1,2.3c0,0.1,0,0.2,0,0.3c-0.1,0.6-0.4,1.2-0.3,1.8
		c0,0-0.1,0-0.1-0.1c-1.2,0.9-0.9,2.2-1.1,3.4c-0.1,0.7,0,1.6-0.8,2.1c-0.6,0.8-0.9,1.5-1.1,2.4c0,0.3,0,0.6,0.1,0.8
		c-0.1,0.4,0,0.8,0.1,1.1c1.4,1.8,0,2.1-1.2,2.6c-0.4,1,0.2,2.5-1.6,2.8c-0.3,0.1-0.3,0.7,0,1c0,0,0.1,0,0.1,0
		c-0.1,0.1-0.1,0.2-0.2,0.3c-0.2,0-0.3,0.2-0.4,0.4c-0.2,0.3-0.4,0.6-0.5,0.9c-0.3,0.6-0.4,1.2-0.3,1.8c0.3,1.2-0.2,2-1.5,1.9
		c-1.4-0.1-1.6,0.8-1.5,1.8v0c0,0-0.1,0-0.1,0c-0.5,0.4-1,0.7-1.5,1.1c-1,0.7,0.4,2.3-1.1,2.7c-0.1,0.2-0.3,0.4-0.5,0.7
		c0,0,0,0,0.1,0c-0.1,0.1-0.2,0.2-0.3,0.4c0,0,0,0,0,0c-0.1,0-0.1,0-0.2,0c-0.1,0.3-0.1,0.5,0.1,0.7c0.1,0.5,0.3,0.9,0.8,1.1
		c0.2,0.8,1.1,0.6,1.5,1.1c0.2,0.2,0.5,0.2,0.7,0c0-0.1,0-0.2,0-0.3c0.2-0.1,0.4-0.2,0.5-0.3c0.1,0,0.2,0.1,0.3,0.2
		c-0.2,0.1-0.4,0.4-0.5,0.5c-0.1,0.2-0.2,0.3-0.3,0.4c-0.5,0.5-1.3,0-1.8,0.4c-1.3-0.6-1.8,0.8-3.1,1c0.4,0.2,0.5,0.4,0.7,0.4
		c0.4,0.1,1.1,0.1,1,0.6c-0.1,0.8-0.8,0.3-1.2,0.3c0,0-0.1,0-0.1,0.1c-0.1,0-0.2,0-0.4,0c-2.9,0.4-5.2,2.5-8.2,2.5
		c-0.1,0-0.2,0.1-0.2,0.2c-0.2-0.9-1-1-1.7-1.3c-0.9-0.3-1.6-0.7-1.8-1.7c-2-3.5-3.1-7.2-2.3-11.3c0.1-0.4,0.1-0.8-0.3-1
		c0,0-0.1,0.1-0.1,0.1c0-0.5,0-1-0.1-1.5c0-0.1,0-0.1,0-0.2c0-0.1,0-0.1,0-0.1c0,0,0,0,0,0c0,0,0,0,0-0.1c0-1.5-0.3-3.1,0.5-4.5
		c-1.3-1.6-0.4-3.2-0.1-4.8c0-0.3,0-0.5-0.2-0.7c0,0-0.1,0-0.1,0c0.1,0,0.1-0.1,0.1-0.2c0.7-2.2-0.5-4.3,0-6.4
		c0.1-0.2-0.2-0.5-0.4-0.7c0,0,0-0.1,0-0.1c0.1-0.5,0.1-0.9-0.1-1.4c-0.1-0.1-0.2-0.2-0.3-0.2c0-1.2-0.1-2.3,1.2-3.2
		c-1.7-0.2-2-1.2-1.9-2.4c-0.4-1,0.7-2.1-0.4-3c0,0-0.1,0-0.1,0c0-0.2,0-0.4,0-0.6c0.2-0.4,0.2-0.8,0.2-1.2c0-0.2,0-0.4,0-0.6
		c0-0.4,0-0.8-0.2-1.2c0-0.2,0-0.3,0-0.5c0-0.6-0.2-1.1-0.3-1.6c0,0,0-0.1,0-0.1c0,0,0.1-0.1,0.1-0.1c1.2-1.5,0-3.2,0.5-4.8
		c0.1-0.8,0.1-1.6,0.1-2.4c-0.2-0.9,0.1-2-0.9-2.5c-0.2-1.8,1.5-3.5,0.6-5.3c0.1-0.2,0.1-0.4,0.1-0.7c0.2-0.1,0.3-0.2,0.5-0.3
		c0.1-0.1,0.2-0.2,0.3-0.4c0.1-0.3,0.2-0.5,0.2-0.8c-0.2-1.1-0.3-2.4,0-3.3c0.6-1.8,0.2-3.4-0.4-5c-0.1-0.1-0.2-0.1-0.3-0.2
		c0.1-0.2,0.2-0.4,0-0.6c0-0.1,0.1-0.1,0.1-0.2c0.1-0.2,0.2-0.3,0.2-0.5c0,0,0,0,0,0c0.2-0.2,0.4-0.4,0.7-0.5c0.4-0.8-0.2-0.9-0.7-1
		c0-0.1,0-0.1,0-0.2c0-0.2,0-0.4-0.1-0.6c-0.4-0.9,0-1.9-0.6-2.7c0.2-0.3,0.2-0.7,0.1-1.1c-0.1-0.1-0.1-0.3-0.2-0.4
		c0.2-0.6-0.1-1.2-0.2-1.8c0-0.1,0-0.1,0-0.2c0-0.1,0-0.1,0.1-0.2c0.1,0,0.3-0.1,0.4-0.1c0.5-1.2,0.4-2.2-0.6-3
		c-0.1-0.1-0.7,0.2-0.2-0.2c0.9-0.7,0.8-1.7,1-2.6c0-0.1,0-0.3,0-0.4c1.2-0.6-0.9-1.3-0.5-2c0.8-0.6,0.2-2,1.4-2.4
		c1.2-0.9,0.7-1.6-0.3-2.2c-0.9-0.2-0.8-1.5-1.8-1.5c-0.4,0.3-0.5,0.7-0.3,1.1c0,0,0,0,0,0.1c0,0,0,0.1-0.1,0.1
		c-0.2-0.1-0.4,0-0.5,0.1c-0.1-0.1-0.2-0.2-0.3-0.2c-0.5,0.1-0.9,0.4-1,0.9c-0.4,0.7-1.1,1.3-1.1,2.3c0.9-0.2,1.3-1,2.1-1.5
		c0.6,2,1.1,3.9,0.2,5.8c0,0-0.1,0.1-0.1,0.1c0,0.7,0,1.3,0,1.9c-0.5,0.7-0.6,1.3,0,1.9c0,0,0.1,0.1,0.1,0.1c-0.1,0-0.1,0-0.2,0
		c-0.2,1,1.1,1.6,0.6,2.9c-1.1,3.1-0.7,6.2-0.2,9.4c0,0.4,0,0.9,0,1.4c-0.1,1.6,0.2,3.3-0.3,4.9c0.1,0,0.2,0,0.3,0
		c0.1-0.1,0.3-0.3,0.5-0.5c-0.1,0.2-0.2,0.4-0.3,0.6c-0.1-0.1-0.2-0.1-0.4,0c0.5,1.6,0.4,3.1-0.3,4.6c-0.1,0.2-0.2,0.4,0,0.6
		c1.1,0.8,0.7,2,0.5,3c-0.1,0.8,0,1.5,0.5,2.2c0,0,0.1-0.1,0.1-0.1c0,0,0,0.1,0,0.1c0,1.1,0,2.2,0,3.3c0,0,0,0.1,0,0.1
		c-0.9,1.5-0.6,3.2-0.6,4.8c0,3.7,0.6,7.3,0.9,10.9c0,0-0.1,0-0.1,0c-1.1,0.7,0.2,1.7-0.1,2.5c-0.8,2.5-0.1,5.1,0.2,7.6
		c0.2,0.1,0.3,0.1,0.4,0c0,0,0,0,0,0.1c-0.1,0-0.2,0-0.3,0c-0.2,1.7-1.1,3.3-0.1,5.1c0.1,0.4-0.2,1-0.4,1.5c0,0,0,0,0,0
		c-0.7,0.4-0.7,0.9-0.5,1.6c0.4,1.1,0.7,2.3,1,3.4c0.7,2.2-0.2,4.6,1,6.7c0,0,0.1-0.1,0.1-0.1c0,0,0,0.1,0,0.1c0,0-0.1,0-0.1,0
		l-0.1,0.1c-1,6.1,2.1,11.2,8,13c0.4,0.1,0.7,0.2,1,0.3c0,0,0,0,0,0c0.4,0.1,0.8,0.3,1.1,0.2c1.4-0.3,3,0.9,4.3-0.5
		c0.9-0.9,1.7-1.7,3.2-1.2c0.4,0.2,0.9-0.3,1.4-0.4c1.7-0.6,2.5-2,3.5-3.3c0.8-0.5,1.5-1.1,2-1.7c0.4-0.6,0.1-0.8-0.4-0.9
		c-0.1-0.1-0.2-0.2-0.2-0.2c0.1,0,0.1,0.1,0.2,0.1c-0.1-0.4,0-0.9,0.2-1.3c0,0,0,0,0.1-0.1c1.7-0.1,0.3-1.5,0.9-2.1
		c1.4-1.4,0.9-3.2,1.3-4.9c0-0.1,0.1-0.1,0.1-0.2c0-0.3,0-0.6,0-1c0,0,0-0.1,0-0.1c0,0,0-0.1,0.1-0.1c0,0.1,0,0.1-0.1,0.2
		c0.9-0.2,1-0.9,1-1.5c0.1-0.9,0.5-1.6,0.8-2.3c0,0,0-0.1,0-0.1c0.6-1.7,0.3-3.7,1.5-5.2c0.4-0.8,0.3-1.6,0.3-2.4
		c0-0.8,0-1.6,0.8-2.1c0.9-1,0-2.4,0.6-3.5c1-1.8,0.6-3.6,0.5-5.4c1.6-2.1,1-4.5,1.1-6.8c0,0,0.1,0,0.1,0c0.3-2-0.1-4.1,0.3-6.2
		c0.5-3.1,0-6.3,1.4-9.3c0.2-0.5,0.2-1-0.2-1.4c-0.5-1.8,0.8-3.7,0-5.6c0,0-0.1,0-0.1,0c0.1-3.1-0.3-6.1,0.2-9.1c0.7-4,1-7.9,1-11.8
		c0-0.9,0-1.6,0-2.5c0.1-0.2,0.3-0.5,0.3-0.8c0.2-2.7-0.2-5.4,0.7-8.1c0.2-0.8,0.1-1.8-0.4-2.7c-0.6-1.1-0.5-2.4,0.1-3.6
		c0.4-0.7,0.5-1.4,0.3-2c-1-2.8,0.3-5.6,0.3-8.4c0-0.8-0.6-1.8,0.2-2.6c0.6,0.1,1.5-0.3,1.9,0.3c1.7,2.4,4.3,2.1,6.7,2.3
		c0-0.1,0-0.2,0-0.3C107.4,65.3,107,65.2,106.7,65.1z M60.1,106.5C60.1,106.5,60,106.5,60.1,106.5c-0.1-0.1-0.1-0.2-0.1-0.3
		C60,106.2,60.1,106.3,60.1,106.5C60.1,106.4,60.2,106.5,60.1,106.5C60.2,106.5,60.1,106.5,60.1,106.5z M60.9,157.5
		C60.9,157.4,60.9,157.4,60.9,157.5C60.9,157.4,60.9,157.4,60.9,157.5C60.9,157.4,60.9,157.4,60.9,157.5z M62.4,155.1
		C62.4,155.1,62.4,155.1,62.4,155.1c0,0,0.1,0,0.1,0C62.5,155.1,62.4,155.1,62.4,155.1z M69.3,183c-0.1-0.1-0.2-0.2-0.2-0.2
		c0,0,0,0,0,0c0.1,0.1,0.2,0.2,0.3,0.3C69.4,183.1,69.4,183.1,69.3,183z M81.6,174.6C81.6,174.5,81.6,174.5,81.6,174.6
		C81.6,174.5,81.6,174.5,81.6,174.6C81.7,174.5,81.6,174.5,81.6,174.6z M79.5,180.2C79.5,180.2,79.5,180.2,79.5,180.2
		C79.6,180.1,79.6,180.1,79.5,180.2C79.6,180.1,79.6,180.1,79.5,180.2C79.6,180.1,79.6,180.2,79.5,180.2z"/>
	<path class="st20" d="M57.2,71.4c-0.9,1.2,0.5,2.2,0.4,3.3c0.2,0.6,0.5,1,1.2,1c0.6-0.2,0.8-0.6,0.9-1.2c0.1,0.9,0.2,1.8,1.3,2.2
		c0.8-0.4,0.6-1.1,0.6-1.8c-0.1-0.2-0.2-0.5-0.2-0.8s0-0.7,0-1.1c-0.2-1.8,0.2-3.5,0.2-5.3c0-0.3-0.1-0.6-0.3-0.8
		c-0.1-0.2-0.2-0.3-0.3-0.5c0.3-0.6,0.3-1.2,0.6-1.8c0.2-1.9,0.3-3.8,0-5.8c-0.5-0.9-0.8-1.8-0.5-3c0.3-1.8,0.1-3.6-0.6-5.4
		c0,0,0,0,0,0c0.9-0.7,0.3-2,0.9-2.9c0.1-0.1,0.1-0.3,0.1-0.5c-0.2-1-0.3-2,0-3c0.1-0.3,0.2-0.6,0.2-0.9c0-0.1-0.1-0.2-0.1-0.3
		c0.1,0,0.2,0,0.2,0c0.2,0,0.3,0,0.4,0c0.2-0.1,0.4-0.2,0.4-0.4c-0.2-0.5-0.6-0.9-1.1-1.1c0,0.1,0,0.2,0,0.3c0-0.2-0.1-0.3-0.2-0.4
		c-0.3-0.2-0.6-0.3-1-0.2c-0.8,0.2-1.4,0.8-2,1.4c0,0,0,0.1,0,0.2c0,0-0.1,0-0.1,0c-0.1-1.2-1.1-1.6-1.9-2.1c-0.2,0-0.3,0-0.5,0
		c-1.3,0.3-2.3,1.1-3.2,2c0,0.1,0,0.2,0,0.3c0.4,0.1,0.9,0.4,1.4,0.1c1.3-0.7,2.5-0.5,3.8,0c1.2,3,0.6,6.1,1.1,9.2
		c-1,0.9-0.9,2.2-0.7,3.2c0.7,3.4-0.2,6.9,0.7,10.3c0.2,0.7,0.2,1.5,0.2,2.2c0,1.7,0.5,3.4-0.2,5C58.4,72.3,57.8,71.8,57.2,71.4z
		 M59.9,73.8c0,0-0.1,0.1-0.1,0.1c0,0,0-0.1-0.1-0.1C59.8,73.8,59.8,73.8,59.9,73.8z"/>
	<path class="st20" d="M54.2,68.3c-1-1.5-5-3.7-6.8-3.8c-0.7-0.8-1.6-0.7-2.5-0.8c0,0-0.1,0-0.1,0c-1.7-1-3.6-0.2-5.4-0.4
		c-1.7-0.2-3.4,0.9-5,1.6c0.3,0,0.7,0,1.1,0c0.2,0.2,0.4,0.3,0.9,0.4c0.7,0,1.4-0.3,2.1-0.5c1.1-1,2.1-0.3,3.1,0.3
		c1.1,0.1,1.7-0.7,2.7-0.9c-0.1,0.8,0.6,1,1.2,1.1c0.7,0.1,1.3,0.1,1.8-0.3c0,0,0,0,0,0c0.1,0.1,0.2,0.2,0.4,0.3c0.1,0,0.1,0,0.1,0
		c0.3,0.3,0.5,0.5,0.8,0.8c0,0.1,0,0.3,0,0.4c0.7,0.7,1.7,0.4,2.4,1c0.1,0.9,0.6,1.4,1.6,1.7c0.5,0.1,1,0,1.2,0.6
		c0.1,0.3,0.3,0.5,0.5,0.6c0.7,0.2,1.4,0.8,2.2,0.6c0.1-0.1,0.1-0.1,0.2-0.2C55.9,70.1,55.1,69.2,54.2,68.3z"/>
	<path class="st20" d="M61.9,121.2c0,0.1-0.1,0.1-0.2,0.2c0.4,1.1,1.2,0.4,1.9,0.4c0.1,0,0.2,0,0.3,0c0-0.1,0-0.1,0.1-0.2
		c0-0.1-0.1-0.1-0.1-0.2C63.3,121.1,62.6,120.9,61.9,121.2z"/>
	<path class="st20" d="M44.8,92.5c0-0.4-0.3-0.6-0.5-0.6c-2.5,0-4-1.6-5.6-3.2c-1.1-0.8-2.4-1.3-3.5-2c-2.1-1.2-3.1-3.3-4.7-4.9
		c-0.9-1-1.4-2.2-1.8-3.4c-0.3-0.8-0.2-1.8-1.1-2.3c-0.5,0.9-0.8,1.7-0.7,2.7c-0.5,3,1.1,5.4,2.4,7.8c3.5,6.5,10.4,9.2,17,6.8
		c0,0-0.1-0.1-0.1-0.1c0,0,0.1,0,0.1,0c0.3,0,0.6,0,0.8-0.3c-0.6-0.1-1.4-0.4-2.1-0.4C44.9,92.6,44.9,92.6,44.8,92.5z"/>
	<path class="st20" d="M129.3,44.6c0-3.3-1.3-5.7-4.1-7.4c0,0,0-0.1,0.1-0.1c-0.8-0.5-0.7-2.1-1.5-2.2c-2.5-0.3-4.6-2.9-7.4-1.5
		c-0.4,0.2-0.9,0.1-1.3-0.1c-1.4-0.7-2.8-0.2-4.2,0.2c-0.9,0.9-2.1,1-3.3,1.1c0,0,0,0.1,0,0.1c-1,0-2.2-0.2-2.6,0.9
		c-0.6,1.5-2.1,2.2-3.1,3.3c-0.8,0.8-1.5,2-2.9,2.1c-0.1,0.1-0.1,0.3-0.2,0.4c0-0.1,0-0.3,0-0.4c-0.2-0.5-1.1-0.5-1-1.2
		c0.2-1.8-0.2-3.5-0.1-5.2c0.3-2.5-0.4-5.1,0.1-7.6c0.1-0.3-0.2-0.7-0.2-1.1c-0.3-2.5-0.9-5.1-1.4-7.6c-0.4-2.4-1-5.1-3.4-6.6
		c-1.1-0.8-1.6-2.5-3.4-2.2c-0.7-3.8-3.9-4.6-6.9-5.6c-0.4,0.6-1.1,1.3-2.2,1.5c0,0.1,0,0.2,0,0.2c-1,0.1-1.8,0.4-2.8,0.3
		c-2.9-0.3-5.5,1.2-8,2c-2.6,0.8-5.2,2.5-6.5,5.5c-1,2.2-1.8,4.3-2.5,6.6c0,0,0,0,0-0.1c-0.5,0-1,0.1-1.5,0.1
		c-0.7-0.2-0.7-1.3-1.5-1.5c0,0.1,0,0.3,0,0.4c-0.1,0.1-0.2,0.3-0.4,0.4c0,0.2,0,0.3,0,0.5c0.2,0.3,0.3,0.6,0.5,0.9
		c0.5,0.7,0.5,1.7,1.4,2.1c0.6,0.1,1.1-0.1,1.5-0.5c0,0,0-0.1,0-0.1c0.1,0.1,0.2,0.2,0.5,0.1c0.3-0.1,0.4-0.2,0.5-0.5
		c0.5,0,0.5-0.5,0.5-0.9c0.1,0,0.2,0,0.3,0c0.5-0.3,0.6-1,1.1-1.3c2.2-1.3,3.1-3.5,3.9-5.8c0-0.1-0.1-0.1-0.1-0.2c0,0,0,0,0,0
		c0.2,0.1,0.3,0.1,0.5,0c0,0,0.1-0.1,0.1-0.1c0.4-0.2,0.9,0.1,1.3,0.1c0.4-0.3,0.7-0.6,1.1-0.8c0-0.1,0-0.2,0-0.2c0,0,0.1,0,0.1,0
		c1.2,0.2,1.5-1,2.3-1.4c0.2-0.2,0.4-0.5,0.3-0.8c1.6-0.5,2.8-2,4.6-2c0.5,0,0.9,0,1.4,0c0.6,0,1.1,0,1.7,0c0.3,0,0.5-0.1,0.8-0.2
		c0.6-0.4,1.4-0.5,1.9-1c-0.3,0.6,0.1,1,0.6,1c0.9,0,1.2,0.7,1.6,1.3c0.2,0.1,0.3,0.1,0.4,0c0.1,0.1,0.2,0.2,0.3,0.3c0,0,0,0,0,0.1
		c0.2,0.8,0.9,1.2,1.6,1.6c0,0,0,0,0.1,0c0.6,1,2.2,1.3,1.8,2.9c0,0.4,0,0.9,0.6,0.8c0.1,0,0.1,0,0.2,0c-0.2,0.3-0.2,0.6-0.2,0.9
		c0.1,0.2,0.2,0.4,0.4,0.6c0.1,0.1,0.2,0.1,0.4,0c0.2,0,0.4,0,0.5,0c0,0,0,0,0,0c0,0.1,0,0.1,0,0.2c0.7,0.6,0.4,1.9,1.4,2.4
		c0.1,0,0.1,0.1,0.2,0.1c0.2,0.4,0.5,0.7,0.6,1.1c-0.2,0.2-0.4,0.3-0.6,0.5c-0.9,0.8-0.6,1.5,0.3,2c1,0.4,0.4,1.3,0.6,1.9
		c0.2,0.5,0.3,1,0.6,1.4c1.3,1.4,1.3,3,0.7,4.7c0,0.2-0.2,0.5-0.1,0.7c0.8,2,0,3.9-0.2,5.8c0,0.4,0,0.8,0.1,1.2
		c0.1,0.2,0.1,0.3,0.2,0.4c-0.1,0.1-0.2,0.1-0.3,0.2c-0.4,0.5-0.5,1,0,1.5c0.2,0.1,0.4,0.2,0.6,0.2c0.5,1.8-0.2,3.5,0,5.2
		c0.1,0.1,0.2,0.2,0.4,0.5c0.5,0.2,0.7-0.3,0.9-0.6c0.3-0.8,1-1.3,1.4-2c0-0.1,0-0.2,0-0.3c0.8,0.3,1.4-0.1,1.7-0.7
		c0.9-2.2,2.9-3.1,4.6-4.4c0.5-0.5,0.6-1.2,0.9-1.8c0.1-0.1,0.1-0.2,0.2-0.4c0.2-0.4,0.5-0.8,1-0.9c0.3-0.1,0.7-0.2,0.9-0.4
		c0,0,0,0,0,0c0.6,1.1,1.4,1.4,2.3,0.2c0.5-0.5,1.2-0.7,1.4-1.4c0-0.1,0-0.2,0-0.3c0.1,0,0.1,0,0.2,0c2.6,0.2,5,1.3,7.6,1.2
		c0.6-0.1,1.3-0.1,1.9,0.2c0.1,0,0.2,0,0.2,0c-0.4,1.1,0,1.5,1.3,1.4c0.3,0,0.6,0,0.9,0c0.2,0.5,0.5,0.9,1,1.1c0,0,0,0-0.1,0
		c-0.1,0.1-0.3,0.3-0.4,0.6c0,0.5-0.1,1,0,1.4c0,0.3,0.1,0.7,0,1c-0.2,0.3,0,0.6,0.3,0.8c0.2,0.1,0.4,0.1,0.5,0
		c0.2-0.5,0.2-1,0.3-1.5c0.2-0.1,0.5-0.2,0.8-0.1c0.1,0.1,0.2,0.2,0.3,0.3c0.5,1,1.7,1.5,1.8,2.7c0,0,0,0,0,0
		c-1,0.1-1.5,0.8-1.6,1.9c0,0.4,0.1,0.7,0.4,1c1.3,0.9,1.6,2.1,0.9,3.5c-0.4,0.8-0.3,1.7-0.5,2.5c-0.1,0.1-0.1,0.3-0.1,0.5
		s0.1,0.5,0.3,0.7c1.8-1.2,0.9-3.1,1.5-4.7c0,0,0,0,0,0C129.5,47,129.3,45.8,129.3,44.6z M68.7,12.9C68.7,12.9,68.7,12.9,68.7,12.9
		C68.7,12.9,68.7,12.9,68.7,12.9C68.7,12.9,68.7,12.9,68.7,12.9z"/>
	<path class="st20" d="M33.6,33.1c-0.5-1-1-2-1.5-3c0.1-1.1-0.1-2.3,0.8-3.3c0.1-0.2,0.1-0.3,0-0.5c-0.5-0.6-1.1-0.8-1.9-0.7
		c0,0,0,0,0,0c0.1,0,0.1-0.1,0.1-0.2c0.3-0.6,0.4-1.4,0.9-2c1-1.2,1-2.4,0.4-3.8c-0.3-0.7-0.3-1.3-0.1-2c0.2-1.1,0.7-1.9,1.3-2.8
		c0.2,0,0.4,0,0.6,0c1.2-0.1,1.2-1.3,1.9-1.9c0-0.1,0-0.2,0-0.3c0.4-0.2,0.7-0.5,0.9-0.9c0.3-0.2,0.7-0.5,1.1-0.7
		c0.1-0.1,0.1-0.1,0.2-0.2c0.1,0,0.2,0,0.2,0c0.4-0.1,0.7-0.2,1-0.3c1.1-0.3,2.3-0.4,3.4-0.6c1-0.1,2-0.3,3-0.3
		c0.6,0.9,1.2,0.6,1.8,0c0.3-0.1,0.6-0.1,0.8-0.1c-0.5-0.6-1.1-0.3-1.8-0.4c0,0,0-0.1,0.1-0.1c-1.5-1.4-3.2-0.3-4.8-0.2
		c-4,0.2-7,2.2-9.1,5.4c-1.1,1.7-1.7,3.3-1.7,5.5c0,1.9-0.6,3.9-0.6,5.9c0,0.7,0.1,1.4,0.2,2C31.1,29.7,31.6,31.8,33.6,33.1z"/>
	<path class="st20" d="M43.6,15.8c-0.8-0.5-1.6-0.3-2.2,0.3c-0.6,0.6-1.4,0.8-2.2,1.2c0,0.2,0,0.3,0,0.5c-0.1,0-0.1,0.1-0.2,0.1
		c-0.2,0.3-0.3,0.5-0.3,0.8c0,0.2,0,0.5-0.1,0.7c-0.3,0.4-0.5,0.9-0.5,1.5c-0.1,0.1-0.2,0.3-0.4,0.4c-0.3,0.3-0.4,0.6-0.3,1
		c0.2,0.1,0.3,0.2,0.4,0.3c0.3,0.8-0.3,1.7,0.1,2.5c-0.1,0.1-0.1,0.2-0.2,0.3c0,0.3,0,0.6,0.1,0.8c0.2,0.1,0.3,0.3,0.4,0.4
		c0.1,0.2,0.2,0.4,0.3,0.6c0.1,0.3,0.2,0.7,0.2,1c1.7,3.8,5.2,5.3,8.7,6.6c0.1,0,0.3,0,0.5,0c0.2,0,0.4,0,0.7-0.1
		c0.4,0.1,0.9,0.2,1.1,0.7c0.4,0,0.7,0,1.1,0c0.2-0.6,0.5-1.2,0.7-1.8c-2,0.2-3.5-1.1-5.1-2.1c-0.1-0.1-0.2-0.2-0.2-0.2
		c-0.1-0.2-0.4-0.4-0.6-0.5c0,0-0.1,0-0.1,0c0-0.2,0-0.4,0-0.6c-1.5,0.4-1.9-1.3-3-1.6c-0.2-0.1-0.4-0.2-0.6-0.4
		c-0.2-0.3-0.4-0.5-0.5-0.8c0-0.1,0-0.1-0.1-0.2c-0.1-0.4,0-0.9,0.2-1.3c0.4-1.1,0.6-2.7,2-3c1.1-0.3,2.5-0.4,3.7,0.2
		c0.1,0.1,0.3,0.2,0.4,0.4c0.5,0.6,1.4,0.6,2.1,1.1c1.1-0.3,1.8,0.6,2.6,1.1c0.5,0.4,1.3,0.7,1.1,1.7c0,0.5,0.3,0.8,0.8,0.9
		c0.4,0.1,0.7-0.1,0.9-0.5c0.2-0.4,0.3-0.8-0.1-1.2c-0.6-0.7-1.3-1.3-1.9-2c0,0.1,0,0.1,0,0.2c0-0.1,0-0.1-0.1-0.2
		c0-0.2,0-0.3,0-0.4c-0.5-0.9-1-1.7-1.5-2.6c-0.1,0-0.2-0.1-0.2-0.1c0.1,0,0.2,0,0.2,0c-0.4-0.4-0.8-0.8-1-1.3
		c-0.9-2.4-2.5-3.9-5.3-3.9C44.6,16.2,44.1,16.1,43.6,15.8z"/>
	<path class="st20" d="M48.9,72.7c-0.5-1.1-1.4-1.4-2.6-1.8c-3.1-0.9-6.2-1.1-9.3,0c0,0-0.1,0-0.1,0c0,0,0,0,0,0.1
		c-0.5,0.2-0.7,0.5-1,1c-0.1,0-0.1,0.1-0.2,0.1c-0.1,0-0.2,0-0.3,0c-0.2,0-0.3,0-0.4,0c-0.7,1.6-0.1,3,0.4,4.5c0.4,0.4,1,1,1.1-0.1
		c0.1-1.5,0.9-1.3,1.9-1c1.1-1.4-0.4-2.5-0.3-3.8c0.1,0,0.2-0.1,0.2-0.1c-0.1,0.1-0.2,0.1-0.2,0.2c1.5,0.6,3.4-0.1,4.8,1.1
		c0.5,0.4,1,0.7,1.5,1.1c1,0,1.9,0.1,2.8,0.7c1,0.7,2.2,0.5,3.5,0.4c-0.6-0.6-1-1.1-1.4-1.5C49.1,73.2,49,72.9,48.9,72.7z"/>
	<path class="st20" d="M47.8,82.2c-1.5-0.1-2.9-1.1-4.5-0.9c-1.3-0.9-2.7-1.7-4.1-2.6c-0.4-0.6-1-1.1-1.6-1.5
		c-1.2-0.4-1.8,0-1.4,1.3c0.2,0.4,0.1,0.9,0.4,1.3c1.2,0.8,2.5,1.5,3.7,2.3c0.5,0.3,1,0.7,1.5,1.1c1.6,0.7,3.2,1.9,5.2,1.5
		c0.9-0.1,1.5-0.7,1.7-1.5C48.8,82.7,48.3,82.2,47.8,82.2z"/>
	<path class="st20" d="M117.3,40.6c-0.1,0-0.2,0-0.3,0c-1.8-0.6-3.6-0.3-5.3,0.3c-0.1,0-0.3,0-0.4,0c-2,0.2-3,2.3-4.8,3
		c-0.2,0.7-1.1,0.7-1.1,1.5c0,0,0,0.1,0,0.1c-0.3,0.3-0.6,0.7-0.8,1.1c-0.3,0.2-0.8,0.5-0.4,0.8c0.5,0.4,1.1,0.7,1.8,0.2
		c1.8-1.4,3.7-1.2,5.7-0.7c0.2-0.2,0.4-0.6,0.7-0.8c1.6-1.4,3.2-1.2,4.7,0.4c1.5,1.6,1.6,3,0.3,4.4c-0.8,1.1-2,1.3-3.2,1.4
		c-0.8,0.2-1.7,0.2-2.2,1c-0.3,0.6-1.2,0.1-1.5,0.7c0.2,0,0.4,0,0.5,0c-0.1,0-0.3,0.1-0.4,0.1c-0.4,0-0.7,0-1.1,0
		c-1.1,1.3-2.7,1.1-4.2,1.1c-0.8,0.9-1.9,1.5-1.5,3h0.2h0.2c0.3,0.6,1.2,0.1,1.5,0.7c0.3,0.2,0.6,0.3,0.8,0.4c0.5,0.4,1,0.3,1.5,0
		c1.3-0.3,2.7-0.5,4.1-0.8c0.2,0,0.3,0,0.4,0c0-0.1,0-0.2,0-0.3c0.2,0,0.3,0,0.4,0c0.2-0.1,0.4-0.2,0.5-0.3c1.6-0.6,3.2-0.9,4.1-2.5
		c0.1-0.1,0.1-0.1,0.2-0.2c1.2-1.1,2.5-1.9,2.8-4c0.2-1.6,1.6-2.9,1.7-4.9C122.3,43.1,120.4,40.7,117.3,40.6z M119.8,50
		c-0.1,0.1-0.1,0.2-0.2,0.3c0.1-0.2,0.1-0.3,0.2-0.5C119.8,49.9,119.8,50,119.8,50z"/>
</g>
<path class="st13" d="M46.7,30.9c0.6,0.1,1.4-0.3,1.5,0.8C47.7,31.4,47.2,31.1,46.7,30.9z"/>
<path class="st16" d="M89.6,118.4c1.2,0.2,0.6,0.9,0.4,1.5C88.8,119.7,89.4,119,89.6,118.4z"/>
<path class="st2" d="M117.7,51.1c-1.2,0-2.1,1.1-3.4,1.1c0.4-0.9,0.3-2.2,2.1-1.8c0.6,0.1,0.7-0.9,0.2-1.5c-0.2,0.2-0.5,0.2-0.8,0
	c-0.4,0-0.9,0.1-1.2-0.3c-0.3-0.6,0.3-0.7,0.6-0.9c0.8-0.7,0.5-1.4,0.2-2.1c0.4,0,0.8,0.1,0.9,0.5c0.1,0.7-0.6,1.8,1,1.2
	c0.3-0.1,0.4,0.5,0.3,0.7C117.1,48.9,117.6,50,117.7,51.1L117.7,51.1z"/>
<g>
	<path class="st21" d="M95.5,71c-0.2,0.5,0,0.8,0.4,1.1c0.2-0.4,0.2-0.8,0-1.3C95.9,70.8,95.6,70.9,95.5,71z"/>
	<path class="st21" d="M105.9,38.4c0.3-0.3,1.1-0.2,1.2-0.9c0.1-0.3-0.3-0.5-0.6-0.5c-0.5,0-1,0.2-1.1,0.8
		C105.4,38.1,105.3,38.4,105.9,38.4z"/>
	<path class="st21" d="M116.1,49.9c0.6-0.2,0.5-0.7,0.5-1.1c-0.3,0-0.6,0-0.8,0c-0.2,0.3-0.5,0.5-0.4,0.8
		C115.4,49.9,115.8,50,116.1,49.9z"/>
	<path class="st21" d="M58.9,76.6c0-0.1,0-0.2,0-0.3c-1.2-0.3-1.7-1.5-2.9-1.9c-0.3-0.1-0.5-0.8-0.1-1.3c0.7-0.9,0.4-1.5-0.6-1.8
		c-0.5-0.2-0.8-0.5-0.8-1.1c-0.1-0.2-0.3-0.3-0.4-0.4c-1.3,0.1-2.3-0.6-3.4-0.8c0-0.1,0-0.2,0-0.3c-0.5-0.6-1-1-1.8-0.4
		c0-0.1,0-0.1,0-0.2c-0.5-0.4-1-0.7-1.6-0.6c-0.4-1-1.5-0.3-2.2-0.7c-0.2-0.1-0.5-0.1-0.7-0.1v0.1c-2.3-0.6-4.7-0.3-7.1-0.3
		c0,0.1,0,0.1,0,0.2c-0.8-0.2-1.4-0.2-1.9,0.4c-0.2,0.1-0.5,0.3-0.7,0.4c-0.4,0.4-0.8,0.7-1.2,1.1c0.1,0.1,0.2,0.3,0.3,0.3
		c-0.1,0-0.2-0.1-0.3-0.1c-0.1,0.1-0.1,0.1-0.2,0.2c0,0-0.1,0-0.1-0.1c0,0-0.1,0.1-0.1,0.1c-0.7,0-1.2,0.2-1.4,0.9
		c-0.3,0.1-0.5,0.2-0.6,0.5c0,0.1,0,0.2,0,0.3c-0.6,0.4-1.1,0.9-1.7,1.3c0,0.1-0.1,0.2-0.1,0.2c-0.1,0-0.1,0.1-0.2,0.1
		c0,0.2,0,0.3,0,0.4c-0.1,0.2-0.1,0.3-0.1,0.4c-0.1,0-0.2,0.1-0.4,0.1c-0.5,0.9-0.2,1.9-0.4,2.9c0.8,0.5,1.7,0.3,2.5,0.4
		c0.2,0,0.5,0.2,0.6,0.4c0.2,0.2-0.1,0.5-0.3,0.5c-2.7,0.4-1.3,1.7-0.5,2.5c0.6,0.6,0.2,1.3,0.7,1.8c0,0,0,0,0,0c0,0,0,0.1,0,0.1
		c0.3,0.2,0.6,0.5,0.8,0.7c0,0,0,0,0,0c0,0,0,0.1,0,0.1c0,0.2,0,0.3,0,0.4c0.3,0.4,0.8,0.3,1.2,0.3c0.3,0,0.8-0.1,0.6,0.5
		c-0.4,1.2,0.5,1.6,1.2,2.2c0.3,0.3,0.6,0.7,0.8,1.1c0.8,0.2,1.3,0.7,1.9,1.1c0.5,0,0.9,0.3,1.1,0.8c0.1,0.3,0.3,0.6,0.7,0.7
		c0.2-0.2,0.4-0.2,0.6-0.2c0.4-0.1,0.7,0.1,1,0.3c0.3,0.3,0.7,0.3,1,0.6c0.1,0,0.1,0,0.2,0c0.2,0.3,0.5,0.5,0.8,0.4
		c0,0-0.1,0.1-0.1,0.1c0,0.7,0.4,1,1,1.2c3.7,0.9,6.4-0.9,8.9-3.2c0.5-0.5,1.1-0.8,1.5-1.5c0.1-0.2,0.3-0.3,0.2-0.4c0.3-1,0.8-2,0-3
		c0.1,0,0.1,0,0.2,0c0.6,0.5,1.2,0.4,1.7-0.1c1.1-0.7,2.2-1.3,2.9-2.5c0.2-1.6,0.6-3.2-0.4-4.7C59,76.7,59,76.6,58.9,76.6z
		 M50.3,77.3C50.3,77.3,50.3,77.3,50.3,77.3c0,0.1,0,0.1-0.1,0.1C50.2,77.4,50.2,77.3,50.3,77.3z M48.9,88c-0.1,0-0.2,0-0.2,0
		c0.1-0.1,0.2-0.2,0.2-0.3c0,0,0,0,0,0c0,0,0,0.1,0,0.1C48.9,87.9,48.9,88,48.9,88z M31.7,80.7C31.7,80.7,31.7,80.6,31.7,80.7
		C31.7,80.6,31.7,80.6,31.7,80.7C31.7,80.6,31.7,80.6,31.7,80.7c0-0.1,0.1-0.1,0.1,0C31.8,80.6,31.8,80.7,31.7,80.7z M29.7,75.8
		c0.2,0.1,0.4,0.1,0.7,0.2C30,76,29.8,75.9,29.7,75.8z M33.2,81.4c0,0,0.1-0.1,0.1-0.1c0,0,0,0,0,0c0.1,0.1,0.2,0.2,0.3,0.3
		C33.4,81.5,33.3,81.5,33.2,81.4z M36.5,80.7c0-0.1,0-0.2-0.1-0.3c-0.1-0.1-0.1-0.2-0.2-0.2c0-0.1,0-0.2,0-0.3
		c0-0.1-0.1-0.1-0.1-0.1c0.2-1.6-0.6-3-1.1-4.4c-0.4-1-0.6-2-0.2-3c0,0,0.1-0.1,0.1-0.1c0,0,0.1,0,0.1,0c0.2,0,0.3,0,0.5,0
		c0.2-0.1,0.3-0.1,0.5-0.2c0.4-0.3,0.8-0.7,1.2-0.9c0.2-0.1,0.3-0.1,0.5-0.2c3.9-0.8,7.6-0.6,11,1.6c0.1,0.2,0.3,0.5,0.5,0.6
		c0.4,0.6,0.7,1.1,1.4,1.2c0.2,0.1,0.5,0,0.8,0c0.1,0,0.3,0.1,0.4,0.1c0.1,0.1,0.1,0.1,0.2,0.2c-0.2,0.3-0.4,0.4-0.6,0.7
		c0,0,0,0.1-0.1,0.1c-0.1,0.1-0.1,0.1-0.1,0.2c-0.4,0.2-0.8,0.5-1.1,0.8c-0.2-0.1-0.4-0.2-0.7-0.3c-0.2-0.2-0.3-0.4-0.6-0.6
		c-0.4-0.3-0.9-0.5-1.5-0.3c0,0,0,0,0,0c-0.8-1.6-2.4-1.5-3.9-1.6c-2,0.6-2,0.8-1.4,2.7c0.2,0.8,1.4,1.3,1.2,2.1
		c-0.5,1.8,0.6,2.2,1.8,2.6c2.1,0,3.8,0.7,5,2.4v0.2c0,0,0,0,0,0c0,0-0.1-0.1-0.1-0.1c-1.2,0-1.8,1.4-3.1,1.2
		c-0.5,0.2-1.2,0.2-1.6,0.6c-0.3-0.2-0.5-0.2-0.7,0c0-0.1,0-0.2,0-0.4C42.1,83.1,39.2,82.1,36.5,80.7z M43.7,85.7
		c0,0-0.1-0.1-0.1-0.1c0,0,0,0,0.1-0.1C43.7,85.6,43.7,85.6,43.7,85.7z M42.2,86.3C42.2,86.3,42.2,86.3,42.2,86.3
		c-0.3,0.3-0.5,0.6-0.6,1C41.3,86.7,41.4,85.9,42.2,86.3z M57.9,80.3C57.9,80.2,57.9,80.2,57.9,80.3C57.9,80.2,57.8,80.2,57.9,80.3
		C57.8,80.2,57.8,80.2,57.9,80.3C57.8,80.2,57.8,80.2,57.9,80.3C57.9,80.2,57.9,80.2,57.9,80.3C57.9,80.2,57.9,80.2,57.9,80.3
		C57.9,80.3,57.9,80.3,57.9,80.3z"/>
	<path class="st21" d="M127.3,46c-0.1-0.1-0.1-0.2-0.2-0.2c0.1,0,0.2-0.1,0.3-0.2c0.1,0,0-0.1-0.1-0.2c-0.1-0.2-0.3-0.5-0.4-0.7
		c-0.5-0.9-1-1.8-1.5-2.7c-0.2,0-0.3,0-0.4,0c0-0.2,0-0.5,0-0.7c-0.2,0-0.3,0-0.4,0c-0.4-0.2-0.8-0.4-1.2-0.4
		c0.1-0.1,0.2-0.2,0.3-0.4c0-0.1,0-0.2,0-0.3c0,0-0.1-0.1-0.1-0.1c0-0.6,0-1.1-0.1-1.8c0.1-1-0.4-1.6-1.5-1.5c0,0.2,0,0.3,0,0.4
		c0,0,0,0.1,0.1,0.1c-0.3,0.3-0.3,0.6-0.2,1c-0.9-0.5-1.4-2-2.9-1.1c-0.5-0.1-1-0.3-1.5-0.4c0,0,0,0-0.1,0.1c0,0,0,0,0-0.1
		c-0.5-0.6-0.7-1.4-1.5-1.8c-1.4-0.2-2.4,0.4-3,1.8c-0.6,0-1.2,0-1.8,0.4c0,0-0.1,0.1-0.1,0.1c0,0,0-0.1,0-0.1c-0.4,0-0.7,0-1.1,0
		c-0.5,0.3-1,0.5-1.6,0.8c-0.1,0-0.1,0-0.2,0c-1.1,0.9-2.3,1.8-3.8,1.8c-0.5,0.4-1,0.8-1.4,1.2c0,0-0.1,0-0.1-0.1
		c-1.7,0.3-2.2,1.8-3,3c0.1,0,0.2,0,0.2-0.1c0,0.1-0.1,0.1-0.1,0.2c-0.3,0.1-0.6,0.3-0.8,0.4c-0.3-0.1-0.6-0.3-0.8-0.4
		c-0.7,0.4-1.4,0.9-1.5,1.8c0,0,0,0,0,0.1l-0.1-0.1c-0.2,0.3-0.5,0.5-0.7,0.8c-0.1,0.3-0.4,0.3-0.7,0.3c-0.7-0.5-1-1.1-0.6-1.9
		c0.5-0.9,0.5-1.8,0-2.9c-0.4-1.1-0.6-2.6,1-3.4c0-0.3,0-0.7-0.1-1.1c-0.3-1.3,0-2.7,0.1-4c0.1-0.8-0.6-1.7-0.1-2.5
		c0.9-1.3,0.3-2.6-0.3-3.8c-0.4-0.8-0.6-1.6-1.1-2.3c-1.1-1.8-1-4.2-2.4-5.9c-0.2-0.1-0.5-0.1-0.8,0c0,0.2,0,0.3,0,0.5
		c-0.1-0.1-0.1-0.2-0.2-0.3c-0.6-1-0.1-2.8-2.1-2.6c0,0,0-0.1,0-0.1c-0.2,0.1-0.3,0.3-0.4,0.4c-0.3,0.3-0.2,1.2-0.9,0.8
		c-0.6-0.3-0.7-1,0-1.5c0.2-0.1,0.4-0.3,0.3-0.7c-0.6-0.3-1.6,0.7-2-0.5c-0.8-0.3-2.3-0.2-1.8-1.4c0.5-1.1,0.3-2.5,1.4-3.4
		c0-0.3,0-0.6,0-0.8c-0.5-0.6-1.2-0.7-1.9-0.6c-1.2-0.1-2,1-3.4,1.1c-1.2,0-2.6,0.6-4,0.5c-1-0.1-1.6,0.3-1.9,1.2
		c-0.1,0-0.1,0-0.1,0c-1.4,0.2-2.7,0.7-3.7,1.9c-0.1,0.1-0.3,0.3-0.3,0.3c-0.3,0.4-0.8,0.1-1.2,0.3c-0.1,0.1-0.2,0.2-0.3,0.3
		c-1.2,0.1-1.3,0.5-0.8,2.2c-0.1,0.7-0.6,0.8-1,1.2c-1.3,1.1-3.4,1.5-3.5,3.7c0,0,0.1-0.1,0.1-0.1c-0.3,0.5-0.7,1-1.1,1.5
		c0,0,0,0,0,0.1c0,0-0.1-0.1-0.1-0.1c-0.1,0.1-0.3,0.2-0.4,0.5c0,0,0,0.1,0,0.1c0-0.1,0-0.1-0.1-0.2c-0.3,0-0.5-0.1-0.7-0.4
		c-0.6,0.6-0.1,1.6-0.7,2.2c0,0,0,0,0,0c-0.3,0-0.5,0-0.6,0.1c0,0,0-0.1,0-0.1c-0.2-0.8,0.2-1.6-0.4-2.3c0,0-0.1,0.1-0.1,0.1
		c0,0,0-0.1,0-0.1c0-0.1,0-0.2,0-0.3h0.1c-0.4-0.8-0.8-1.5-1.2-2.3c-0.1-0.2-0.2-0.5-0.4-0.7c0-0.2,0-0.3,0-0.4s0-0.2,0-0.3
		c-1.5,0.2-1.4-1.3-2.2-1.9c-0.2-1.7-1.3-2.6-2.8-3c-0.5-0.1-1.5,0-1-0.8c1.2-1.8-0.5-1.1-1.1-1.4c-0.1,0-0.2,0-0.3,0
		c0.1,0,0.2-0.1,0.3-0.1c-0.8-1.4-1.8-1.2-2.7-0.1c-0.7-0.8,0.8-1.4,0.1-2.1c-0.7,0-1.3,0.5-1.9-0.1c-1-0.6-2,0.3-3,0.3
		c-0.7,0.9,1.3,1.3,0.4,2.2c-0.9-1.5-0.9-1.5-3-1.4c-0.4,0-0.7,0-1.1-0.1c-0.2,0.1-0.5,0.2-0.7,0.3s-0.5,0.2-0.6,0.5
		c-0.1,0.4-0.1,0.9,0.2,1.3h0c-0.6,0.3-1,1.2-1.9,0.7c0,0,0,0.1,0,0.1c0,0,0,0,0,0c0,0,0-0.1,0-0.1c0-0.1,0-0.2,0-0.3
		c-1.3,0-1.2,1.4-1.9,1.9c-0.3,0.8-1,1.4-1.2,2.4c-0.5,2.8-0.2,5.6-0.3,8.4c0,0,0.1,0.1,0.1,0.1c0,0.1,0,0.2,0.1,0.3
		c1,0.3,1.4,1.3,2,2.1c-0.7,0.1-1.2-0.4-1.8-0.7c0,0.3,0,0.6,0,0.8c0.1,0.1,0.3,0.1,0.4,0.2c-0.1,0-0.3,0-0.4-0.1c0,0.3,0,0.7,0,1.1
		c0.1,0.1,0.2,0.2,0.3,0.3c0,0.1,0,0.2,0,0.4c0.3,1.4,1.1,2.6,1.9,3.8C36,35.2,37,36,38,36.8c0,0,0,0.1,0,0.1
		c0.2,0.3,0.4,0.6,0.8,0.7c1.1,0.5,2.2,1,3,1.9c0.4,0.9,1.3,0.7,1.9,1.1c0.1,0,0.1-0.1,0.2-0.1c0,0-0.1,0.1-0.1,0.1
		c0.3,0.1,0.7,0.3,1.1,0.4c1.8-1.1,1.9-1,2.2,0.8c0.2,0,0.3,0,0.4,0c1.1,0.7,2.1,0.1,3.1-0.1c0-0.2,0-0.3-0.1-0.4
		c0.4-0.1,0.7-0.7,1-0.4c1.1,1.4,1.9,0.6,2.8-0.1c0.5-0.4,1.2-0.2,1.8-0.2h0.1h0.2v-0.1c0,0,0,0,0,0c1.1-0.8,1.7-1.8,2.2-3.1
		c0.2,0.1,0.3,0.2,0.4,0.3c0.2,0.2,0.5,0.3,0.7,0.4c0,0,0.1-0.1,0.1-0.1c0.6,1.2,1.2-0.3,1.8,0c0,0,0,0,0.1-0.1c0,0.1,0,0.1-0.1,0.2
		c0,0.2,0,0.5,0,0.8c0,0.5,0,1.1,0.7,1.1c0,0,0-0.1,0-0.2c0,0.1,0.1,0.1,0.1,0.2c-0.5,1,1,1.6,0.4,2.6c-0.2,0.1-0.3,0.3-0.4,0.4
		c0.3,1.5,0.9,3.1,0.8,4.6c0,1.1-0.6,2,0.5,3.2c0.7,0.7-1.3,2.1-0.8,3.5c0,0.1,0.1,0.3,0.2,0.4c0,0.1,0,0.1,0,0.2
		c-0.3,1.3,1.5,1.1,1.5,2.2c0.2,0,0.3,0,0.4,0c0.1,0,0.1,0,0.1,0c0,0-0.1,0.1-0.1,0.1c0,0.1,0,0.2-0.1,0.2c0-0.1,0-0.1,0-0.2
		c-0.1-0.1-0.2-0.1-0.4,0c-1.2,0.3-1.9,0.8-0.4,1.8c0.8,0.5,1.4,1.2,0.3,1.8c-1.3,0.7-1.1,1.5-0.7,2.5c0.4,1.3,1,2.5,0.3,3.9
		c-0.1,0.3,0,0.5,0.2,0.8c1,1.6,0.6,3.1-1.2,4.1c-0.7,1,1.2,0.7,0.8,1.5c0,1.6,0.8,3.2-0.5,4.6c0,0.1,0,0.3,0,0.5
		c0.2,1.6,0,3.2,1.2,4.5c0.1,0.1-0.1,0.6-0.2,0.8c-0.4,0.7-0.4,1.5-0.4,2.3c0.2,0.4,0.2,0.8-0.1,1.3c0,1,0.1,2,1.1,2.6
		c0,0,0,0,0.1,0c-0.4,1,0.4,2.1-0.4,3c-0.7,0.8-0.6,1.4,0,2.1c0,0.5,0.7,0.9,0,1.4c0.1,2.2-0.8,4.1-1.5,6c0.3,0.3,0.7,0.6,1.1,0.8
		c0.9,0.4,0.8,1.2,0.8,1.9c-0.5,1.4-0.8,2.7,0.4,3.8c-0.2,0.7,0.3,1.5-0.4,2.2c-0.4,1.5-1.2,2.8-0.2,4.5c0.2,0.5,1,1.8,0.4,2.5
		c-1,1-0.7,2.2-1.3,3.2c0,0.1,0,0.3,0,0.4c0.6,0.6,0.2,1.4,0.3,2.2c0.1,0.7,0,1.5,0.8,1.9c0,0.5,0,0.9,0,1.4
		c-1.1,0.6-1.4,1.2-0.9,2.5c0.7,1.5,0.8,3,0.5,4.6c0,0,0,0,0,0c0,0,0,0,0,0c-0.1-0.1-0.2-0.1-0.4,0c-0.2,0.8-0.5,1.6,0.2,2.4
		c0.4,0.5,0.4,1.2-0.2,1.7c-0.2,0.1-0.3,0.2-0.4,0.6c-0.5,0.5-1.2,1,0,1.4c0.5,0.2,0.4,0.5,0.5,0.9c0.6,2-1.1,3.2-1.3,4.8
		c0.3,0.9,1.1-0.2,1.7,0.3c-0.7,0.9-1.3,1.6-1.6,2.7c-0.5,1.9-0.1,3.7-0.2,5.6c0.4,1.9-1.1,3.9,0.5,5.7c0.1,0.1-0.1,0.4-0.2,0.5
		c-0.8,1.2-0.6,2.7-0.5,4.1c-0.4,1.2,1.2,2.2,0.2,3.4c0.1,0.6-0.4,1.3,0,1.9c0.1,0.2,0.3,0.2,0.5,0.1l0,0c0,0.4,0,0.9,0,1.3
		c0.6,0.5,0.8,1.2,0.8,1.9c0.1,0.9,0.6,1.4,1.5,1.5v0c0.2,0.2,0.3,0.3,0.4,0.4c0.8,0.3,0.4,0.9,0.4,1.4c0,1.8,1.2,2.6,2.7,1.8
		c0.4-0.2,0.7,0.1,1,0.2c0.7,0.5,1.2,1.9,2.1,0c0.5-0.8,1.6-0.9,2.3,0.2c0.4,0.6,0.7,0.1,1.1,0c0.3-0.9,0.7-1.6,1.5-2.2c0,0,0,0,0,0
		c0,0,0.1,0.1,0.1,0.1c0.3,0.1,0.6,0.1,0.8-0.1c1.1-0.7,0.5-2.2,1.5-3c0-0.2,0-0.5,0-0.7c0.2-0.1,0.4-0.1,0.5-0.4
		c0.3-0.2,0.5-0.5,0.6-0.8c0.2-1.3,0.3-2.7,1.2-3.8c0.4-1.1,0.2-2.4,0.6-3.6c0.1-0.5,0.1-1-0.2-1.4c0.1,0,0.1,0,0.1,0
		c0.3-0.7,1.4-0.9,1.1-1.8c-0.6-1.8,0.7-3,1.2-4.4c0.8-1.8,2.6-3.2,2.2-5.6c-0.1-0.5,0.3-0.8,0.7-1c0-0.4,0-0.7,0-1.1
		c0-1.4,0-2.7,0.9-4c0.5-0.6,1.6-2.1,0.1-3c0,0,0-0.1-0.1-0.1c0,0,0,0,0,0c0,0,0.1,0,0.1,0c0.1-0.2,0.1-0.5,0.2-0.7
		c0.7-1,1.6-1.8,0.8-3.4c-0.4-0.8-0.3-2.7,1.6-3c-1-1.5-1.5-3.2-1.9-4.9c2-0.3,2-1.6,1.4-3.2c0-0.1,0.3-0.4,0.4-0.6c0,0,0,0,0,0
		c0,0,0,0.1,0,0.1c0.6-1,0.6-2,0.4-3v-0.8c0.6-2.5,2.5-5.1-0.3-7.3c0-0.1,0-0.1,0.1-0.2c0-0.2,0-0.3,0-0.4c0,0,0,0,0,0
		c0.1-0.1,0.1-0.2,0.2-0.3c0-0.1,0-0.1,0-0.2c0,0,0.1,0,0.1,0.1c0.2-0.3,0.5-0.7,0.7-1c0,0,0,0,0,0c0.3-0.2,0.3-0.5,0.4-0.8
		c-1-1.2,0.4-2.5,0-3.7c0,0,0,0.1-0.1,0.1c0-0.1,0-0.2,0.1-0.2c-0.3-1.2-0.4-2.4,0.5-3.4c0.1,0,0-0.2-0.1-0.3
		c-1-1.9,0.1-3.9,0.4-5.6c0.3-1.6,0.3-3-0.1-4.5c-0.1-0.6-0.1-1.2,0.3-1.8c-0.3,0-0.5-0.1-0.7-0.4c0.2-0.7,0.2-1.4,0.7-1.9
		c0-0.1,0-0.3,0-0.4c0,0-0.1,0-0.1,0.1c0-0.1,0-0.2,0-0.3c-0.1-0.1-0.1-0.1-0.2-0.2c0.1,0.1,0.1,0.1,0.2,0.2
		c0.6,0.2,0.9-0.3,1.2-0.6c0.4-0.5,0.4-1.1,0.3-1.7c-0.2-1,0.1-1.8,1-2.3c0.1-0.2,0.2-0.3,0.3-0.4c0-0.4,0-0.7,0-1.1
		c-0.3-0.2-0.4-0.5-0.2-0.8c-1.5-1-0.1-2,0-3c0.9-3-1.1-5.5-1.8-8.2c-0.1,0.1-0.2,0.3-0.3,0.5c0-0.2,0-0.3,0-0.5
		c0.2-0.6-0.4-1.2-0.1-1.9c1.2-1.4,1.2-3,0.4-4.6c-0.3-0.6-0.3-1.4,0-2.1c0.5-1.2,0.5-2.4,0.3-3.6c-0.3-0.3-0.5-0.6-0.9-0.6
		c0-0.3,0-0.6,0-1c-0.2,0-0.3,0-0.4,0c0,0,0,0,0-0.1c0.1,0,0.2,0,0.4,0c0.2-0.1,0.5-0.2,0.7-0.5c0,0.1,0,0.1,0,0.2
		c0.1,0,0.3,0,0.3,0.2c0.4,0.2,0.7,0.5,1.1,0.7c0,0,0.1,0,0.1,0c0.2,0.4,0.4,0.9,0.7,1.3c1.1,0,0.5-1.1,1.1-1.5c0.1,0,0.1,0,0.1,0.1
		c0.3,0.3,0.6,0.6,1,1c0,0.3,0,0.6,0,0.8c0,0.3,0.1,0.4,0.4,0.4c0.3,0.2,0.5,0.3,0.8,0.4c0,0,0,0,0,0c0,0,0,0.1,0,0.1l1.5,1.1
		c0.5,0.9,1.2,1.2,2.2,0.9c0.1,0,0.1-0.1,0.1-0.1c0.1,0.1,0.2,0.1,0.2,0.3c0.3,0.2,0.6,0.5,0.8,0.7c0-0.1,0-0.1,0-0.2
		c0,0.1,0.1,0.1,0.1,0.2c0.2,0.1,0.5,0.3,0.7,0.4c0,0,0.1,0,0.1,0c0.2,0.2,0.4,0.2,0.7,0.3c0.6,0.3,1.3,0.3,1.9,0.1
		c1.1-0.3,2.2-0.5,3.3-0.1c1.1-0.8,2.2-1.9,3.7-0.8c0.2-0.2,0.3-0.3,0.4-0.4c0.4-1,1.1-1.6,2.3-1.5c0.6-0.1,1.3-0.3,1.8-0.7
		c0.2-0.2,0.5-0.3,0.7-0.4c1.1-1.8,3.1-2.7,4.1-4.5c0.2-0.1,0.3-0.2,0.4-0.5c0.4-1,1.1-1.9,0.1-3.1c-0.4-0.5-0.5-1.7,0.3-2.2
		s0.9,0.6,1.4,0.8c0.2,0.1,0.3,0.1,0.4,0.1c0.1-0.1,0.1-0.2,0.1-0.3c0.4-0.7-0.1-1.6,0.3-2.3C128.4,48.2,128,47.1,127.3,46z
		 M110.6,62.3C110.6,62.3,110.6,62.3,110.6,62.3C110.6,62.3,110.5,62.3,110.6,62.3c-0.2,0-0.2-0.1-0.3-0.1
		C110.4,62.2,110.5,62.2,110.6,62.3c0.1-0.1,0.1-0.1,0.2-0.1C110.8,62.2,110.7,62.3,110.6,62.3z M124.7,42.2
		C124.7,42.2,124.7,42.2,124.7,42.2c0.1-0.1,0.1-0.1,0.1-0.1C124.8,42.2,124.7,42.2,124.7,42.2z M112.1,38.7
		C112.1,38.7,112.1,38.7,112.1,38.7C112.1,38.7,112.1,38.7,112.1,38.7C112.1,38.7,112.1,38.7,112.1,38.7z M104.9,51.8
		C104.9,51.7,105,51.7,104.9,51.8C105,51.7,105,51.8,104.9,51.8l0.2,0h0.2c0,0,0,0,0,0c-0.1,0-0.2,0-0.3,0.1c0,0,0,0,0,0
		C105,51.9,105,51.8,104.9,51.8C105,51.8,104.9,51.8,104.9,51.8z M106.8,52.2C106.8,52.2,106.8,52.2,106.8,52.2
		C106.8,52.2,106.8,52.2,106.8,52.2C106.8,52.2,106.8,52.2,106.8,52.2z M102.8,46.4C102.8,46.4,102.8,46.4,102.8,46.4
		C102.8,46.4,102.8,46.4,102.8,46.4z M98.3,46.5C98.3,46.5,98.3,46.5,98.3,46.5C98.3,46.5,98.3,46.5,98.3,46.5
		C98.3,46.5,98.3,46.5,98.3,46.5z M93.9,84.7c0-0.1,0-0.3,0-0.4C93.9,84.5,93.9,84.6,93.9,84.7z M48.6,25.9c0,0,0.1,0.1,0.1,0.1
		c0,0-0.1,0-0.1,0c-0.1,0.1-0.1,0.1-0.1,0.1c0,0,0-0.1,0-0.1C48.5,26,48.6,25.9,48.6,25.9z M53.9,23.4
		C53.9,23.4,53.9,23.4,53.9,23.4C53.9,23.4,53.9,23.4,53.9,23.4C53.9,23.4,53.9,23.4,53.9,23.4C53.9,23.4,53.9,23.4,53.9,23.4z
		 M56.8,24.5c0,0.2,0,0.3,0,0.5c-0.1-0.6-0.4-1-1-1.2C56.6,23.3,56.7,23.9,56.8,24.5z M53.1,34c0,0.1,0.1,0.1,0.1,0.2c0,0,0,0,0,0
		c-0.1,0-0.1,0-0.2,0C53,34.1,53.1,34.1,53.1,34z M62,26C62,26,62,26,62,26C62,26,62,26,62,26C62,26,62,26,62,26z M67.9,16.3
		C67.9,16.3,67.9,16.3,67.9,16.3c0.1,0.1,0.2,0.2,0.2,0.4c-0.1-0.1-0.1-0.1-0.2-0.2C67.9,16.4,67.9,16.4,67.9,16.3z M79.8,104.2
		c-0.1,0-0.1,0-0.2,0c0,0,0,0,0,0c0,0,0.1-0.1,0.1-0.1C79.7,104.1,79.8,104.2,79.8,104.2z M78.8,97.1c0,0.3-0.1,0.6-0.3,0.8
		C78.6,97.6,78.7,97.4,78.8,97.1C78.8,97.1,78.8,97.1,78.8,97.1z M74.6,108.1C74.6,108.1,74.6,108,74.6,108.1
		C74.6,108.1,74.6,108.1,74.6,108.1c0.1,0.1,0.2,0.1,0.2,0.1c0,0,0,0.1,0,0.1C74.7,108.2,74.7,108.2,74.6,108.1
		C74.6,108.1,74.6,108.1,74.6,108.1z M75.1,106.7c0.1-0.1,0.2-0.1,0.4-0.1C75.4,106.6,75.2,106.6,75.1,106.7z M73.9,126.1
		C73.9,126.1,73.9,126.1,73.9,126.1C73.9,126.1,73.9,126.1,73.9,126.1C73.9,126.1,73.9,126.1,73.9,126.1z M73.9,159.8
		c0,0.5,0.1,1,0.3,1.3c0.1,0,0.1,0.1,0.1,0.1c-0.1,0.1-0.1,0.2-0.2,0.2c-0.1-0.3-0.2-0.5-0.3-0.8C73.6,160.3,73.8,160,73.9,159.8z
		 M82,29.4c0,0.3,0,0.5-0.1,0.7c0-0.1,0-0.2,0-0.3C81.9,29.7,82,29.5,82,29.4z M82,25.3c0-0.1,0-0.1,0-0.2c0,0.1,0,0.2,0,0.3
		C82,25.4,82,25.4,82,25.3z M77.8,78.1c-0.1,0-0.2,0-0.2,0c0,0,0-0.1,0.1-0.1c0,0,0,0-0.1,0c0,0,0-0.1,0.1-0.1
		c0.1-0.3,0.1-0.6,0-0.9c0,0-0.1-0.1-0.1-0.1c0,0,0.1,0,0.1,0c0.1,0,0.1,0.1,0.2,0.1c0,0,0,0-0.1,0C77.8,77.3,77.8,77.7,77.8,78.1
		C77.8,78.1,77.8,78.1,77.8,78.1z M77.8,96.3C77.8,96.3,77.8,96.3,77.8,96.3C77.8,96.3,77.8,96.3,77.8,96.3
		C77.8,96.3,77.8,96.3,77.8,96.3z M77.4,15.5c0.1,0,0.2-0.1,0.3-0.1c0,0,0,0,0,0c0,0,0,0.1,0,0.1c0,0-0.1,0-0.1,0
		C77.5,15.5,77.5,15.5,77.4,15.5z M79.8,34.4C79.8,34.4,79.9,34.4,79.8,34.4C79.8,34.4,79.8,34.4,79.8,34.4
		C79.8,34.4,79.8,34.4,79.8,34.4z M81.5,74.4C81.4,74.4,81.4,74.4,81.5,74.4C81.4,74.4,81.4,74.3,81.5,74.4
		C81.4,74.3,81.4,74.3,81.5,74.4z M79.5,14.2c-0.1,0.1-0.3,0.2-0.5,0.2C79.2,14.4,79.3,14.3,79.5,14.2z M82.2,57.7
		C82.2,57.7,82.2,57.7,82.2,57.7c0.1,0.1,0.1,0.1,0.1,0.2C82.3,57.9,82.3,57.8,82.2,57.7z M82.6,65.2c0,0.1,0,0.2,0,0.3
		c0,0-0.1-0.1-0.2-0.1C82.4,65.4,82.5,65.3,82.6,65.2c-0.1,0-0.1-0.1-0.1-0.1C82.5,65.1,82.6,65.2,82.6,65.2z M82.6,57.5
		C82.6,57.5,82.6,57.5,82.6,57.5C82.6,57.5,82.6,57.5,82.6,57.5C82.6,57.6,82.6,57.5,82.6,57.5z M82.1,23.3c0.1-0.2,0.3-0.4,0.5-0.4
		C82.4,23,82.2,23.1,82.1,23.3z M86.2,120.5c0,0.1,0.1,0.1,0.1,0.2c0,0,0,0,0,0.1c0,0,0,0,0-0.1C86.2,120.6,86.2,120.6,86.2,120.5z
		 M86.8,25.8c0,0-0.1,0-0.1,0c0-0.1,0-0.1,0-0.2C86.8,25.7,86.8,25.7,86.8,25.8z M92.3,67.4c0,0-0.1-0.1-0.1-0.1c0-0.1,0-0.1,0-0.2
		C92.2,67.2,92.3,67.3,92.3,67.4z M91.5,85.2C91.5,85.2,91.5,85.3,91.5,85.2C91.5,85.3,91.5,85.3,91.5,85.2
		C91.5,85.3,91.5,85.2,91.5,85.2z M90,72.3c0,0.2,0,0.4,0,0.6C89.8,72.8,89.8,72.5,90,72.3z M88.8,113.1
		C88.8,113.1,88.8,113,88.8,113.1c0-0.1,0-0.1,0.1-0.2C88.9,113,88.9,113,88.8,113.1C88.9,113,88.8,113.1,88.8,113.1
		C88.8,113.1,88.8,113.1,88.8,113.1z M91.6,77.9C91.6,77.9,91.6,77.9,91.6,77.9C91.6,77.9,91.6,77.9,91.6,77.9
		C91.6,77.9,91.6,77.9,91.6,77.9z M92.9,76.2C92.9,76.2,92.8,76.2,92.9,76.2C92.8,76.2,92.9,76.2,92.9,76.2
		C92.9,76.1,92.9,76.2,92.9,76.2C92.9,76.2,92.9,76.2,92.9,76.2z M92.6,65.4C92.6,65.3,92.6,65.3,92.6,65.4c0-0.1,0-0.1,0-0.2
		c0,0,0,0.1,0.1,0.1C92.6,65.3,92.6,65.3,92.6,65.4z M87.7,131.8c0,0.1,0,0.2,0,0.3c0,0.1,0,0.2,0,0.3c0-0.1-0.1-0.1-0.1-0.2
		c-0.1-0.2-0.2-0.4-0.2-0.6C87.5,131.7,87.6,131.8,87.7,131.8z M89.7,116.6c0,0,0-0.1,0-0.1c0,0,0,0,0,0
		C89.7,116.6,89.7,116.6,89.7,116.6C89.7,116.7,89.7,116.7,89.7,116.6z M66.2,27.4c0.1,0,0.1,0.1,0.2,0.1c0,0-0.1,0-0.1,0.1
		C66.2,27.5,66.2,27.5,66.2,27.4z M66,125.6c0,0,0-0.1-0.1-0.1c0-0.1,0-0.1-0.1-0.1c0,0,0.1-0.1,0.1-0.1c0,0,0,0,0,0
		C65.9,125.4,66,125.5,66,125.6z M69.3,133.9c-0.1,0-0.2,0.1-0.3,0.1c0-0.1,0-0.2,0.1-0.4C69.1,133.7,69.2,133.8,69.3,133.9z
		 M69.1,72.8C69.1,72.8,69.1,72.8,69.1,72.8C69.1,72.8,69.1,72.8,69.1,72.8C69.1,72.8,69.1,72.8,69.1,72.8z M66.4,140.2
		C66.4,140.2,66.4,140.2,66.4,140.2C66.4,140.2,66.4,140.2,66.4,140.2C66.4,140.2,66.4,140.2,66.4,140.2z M67,139.9
		C67,140,67,140,67,139.9C67,140,67,140,67,139.9C67,140,67,140,67,139.9z M68.2,154.2C68.2,154.2,68.2,154.2,68.2,154.2
		C68.2,154.2,68.2,154.2,68.2,154.2C68.2,154.2,68.2,154.2,68.2,154.2z M68.2,129.7C68.2,129.7,68.2,129.7,68.2,129.7
		c0.3,0.2,0.5,0.5,0.5,0.9C68.6,130.3,68.4,130,68.2,129.7z M68.7,106.9c-0.1,0-0.1-0.1-0.2-0.1C68.6,106.8,68.6,106.8,68.7,106.9
		C68.7,106.8,68.7,106.8,68.7,106.9C68.7,106.9,68.7,106.9,68.7,106.9z M67.6,111.9c0-0.1,0-0.1,0-0.2c0.1,0,0.2,0,0.3,0
		C67.7,111.7,67.6,111.8,67.6,111.9z M67.5,137.9C67.5,137.9,67.5,137.9,67.5,137.9C67.5,137.9,67.5,137.9,67.5,137.9
		C67.5,137.9,67.5,137.9,67.5,137.9z M67.5,142c-0.1-0.1-0.2-0.2-0.4-0.2C67.3,141.8,67.4,141.9,67.5,142z M67.2,152.8
		c0,0,0.1-0.1,0.1-0.1c0,0.1-0.1,0.2-0.1,0.2C67.2,152.9,67.2,152.9,67.2,152.8z M68.7,77.8c0,0.2-0.1,0.3-0.1,0.4
		c0,0.2,0,0.3,0.1,0.4c-0.3-0.6,0.3-1.4-0.2-2c0,0,0.1,0,0.1-0.1c0,0,0,0,0,0C68.8,77,68.7,77.4,68.7,77.8z M67.8,27.3
		C67.8,27.3,67.8,27.3,67.8,27.3c0-0.1,0.1-0.1,0.2-0.1c0.1,0.1,0.1,0.2,0.1,0.2C68,27.4,67.9,27.3,67.8,27.3z M65.5,74.7
		c0,0.1-0.1,0.3-0.1,0.4C65.4,74.9,65.4,74.8,65.5,74.7z M66.2,68.9C66.2,68.9,66.2,69,66.2,68.9C66.2,69,66.2,69,66.2,68.9
		C66.2,68.9,66.2,68.9,66.2,68.9z M66.3,126.9c0,0,0-0.1-0.1-0.1c0-0.1,0-0.2-0.1-0.4C66.2,126.6,66.3,126.7,66.3,126.9z
		 M64.5,166.8c0,0,0-0.1-0.1-0.1c0,0,0,0,0,0C64.4,166.7,64.4,166.8,64.5,166.8C64.5,166.8,64.5,166.8,64.5,166.8z M67.2,169.9
		c0,0,0.1-0.1,0.1-0.2c0.1,0,0.1,0,0.1,0C67.3,169.8,67.3,169.8,67.2,169.9C67.2,169.9,67.2,169.9,67.2,169.9z M69.8,168.7
		c0-0.2,0-0.3,0-0.5c0,0,0.1,0,0.1,0c0.1,0,0.1,0.1,0.2,0.1C69.9,168.4,69.9,168.5,69.8,168.7z M66,64.2c0,0.1,0,0.3,0,0.4
		c-0.1-0.1-0.2-0.3-0.3-0.4C65.8,64.2,65.9,64.2,66,64.2z M66.4,66.5c0,0.1,0,0.1,0,0.2c0,0,0,0,0,0C66.4,66.7,66.4,66.6,66.4,66.5
		C66.4,66.6,66.4,66.5,66.4,66.5z M65.4,125.6C65.4,125.6,65.4,125.6,65.4,125.6C65.4,125.6,65.4,125.6,65.4,125.6
		C65.4,125.6,65.4,125.6,65.4,125.6z M64.9,156.5c0-0.1,0-0.2-0.1-0.3C64.8,156.3,64.8,156.4,64.9,156.5z M68.4,15.1
		C68.4,15.1,68.4,15.1,68.4,15.1C68.4,15.1,68.4,15.1,68.4,15.1C68.4,15.1,68.4,15.1,68.4,15.1z M61,26.4C61,26.5,61,26.5,61,26.4
		C61,26.5,61,26.5,61,26.4C61,26.4,61,26.4,61,26.4z M94,75.7c0,0.1,0.1,0.2,0.1,0.3c0,0.1,0,0.2,0,0.3C94.1,76.1,94.1,75.9,94,75.7
		z M93.8,75.2c-0.1-0.1-0.1-0.1-0.2-0.2c0,0,0,0,0,0c0,0,0.1,0,0.1,0c0,0,0-0.1,0-0.1C93.8,75,93.8,75.1,93.8,75.2z M62.5,29.2
		C62.5,29.2,62.5,29.2,62.5,29.2C62.5,29.2,62.5,29.2,62.5,29.2C62.5,29.2,62.5,29.2,62.5,29.2z M59.4,25.6
		C59.4,25.6,59.4,25.7,59.4,25.6C59.4,25.7,59.4,25.7,59.4,25.6C59.4,25.6,59.4,25.6,59.4,25.6z M59,30.9c0,0,0,0.1,0,0.1
		C59,31,59,30.9,59,30.9C59,30.9,59,30.9,59,30.9z M49.6,14.9c0,0,0-0.1,0-0.1c0,0,0.1,0,0.1,0C49.7,14.8,49.6,14.9,49.6,14.9z
		 M40.5,12.5C40.5,12.5,40.5,12.5,40.5,12.5C40.5,12.5,40.5,12.5,40.5,12.5z M42.2,14.8C42.2,14.8,42.2,14.8,42.2,14.8
		C42.2,14.8,42.1,14.8,42.2,14.8C42.1,14.8,42.2,14.8,42.2,14.8z M52.2,37.1c-0.1-0.1-0.2-0.2-0.3-0.3c-0.1-0.1-0.2-0.1-0.4,0
		c0,0,0,0,0,0c0-0.1,0-0.2,0-0.3c-0.5-0.6-1-0.9-1.7-0.5c-0.4-0.3-0.8-0.3-1.3-0.3c-0.7,0.1-1.1-0.3-1.7-0.5
		c-1.7-0.7-3.1-1.6-4.6-2.3c-0.5-1.4-1.9-1.5-2.9-2.1c-0.3-0.5-0.5-0.9-0.7-1.4c0,0,0,0,0,0c0.1-0.3,0.1-0.5,0-0.8
		c-0.9-0.4-1.6-0.9-1.2-2.1c0.1-0.4,0-0.8-0.3-1.2c-0.2-0.1-0.3-0.1-0.5-0.1c0,0,0,0-0.1,0c-0.1-0.1-0.2-0.2-0.3-0.3c0,0,0,0,0-0.1
		c0.1-0.3-0.1-0.5-0.4-0.7c1.3-0.5,0.9-2,1.6-2.9c0.1-0.2,0.2-0.3,0.2-0.5c0.1-0.4,0.1-0.8-0.1-1.2c0.1-0.1,0.1-0.2,0.2-0.2
		c0.3-0.7,1.2-1.1,1-2c0-0.3,0-0.6,0-0.8c0,0,0,0,0-0.1c0,0.1,0.1,0.1,0.1,0.2c1.1-0.8,2.4-1.2,3.6-1.7c0.1,0.1,0.3,0.1,0.4,0.2
		c0.4,0.1,0.8,0.3,1.3,0.3c0.4,0,0.9,0,1.3-0.1c1.3,0.2,2.6,0.5,3.6,1.4c0.1,0.4,0.4,0.8,0.8,1.2c0.1,0.1,0.3,0.2,0.5,0.2
		c0.1,0,0.1,0,0.2,0c0.2,0.5,0.1,1,0.5,1.4c0,0,0,0,0,0c0,0,0,0,0,0c0,0,0.1,0.1,0.1,0.1c0,0,0-0.1,0-0.1c0,0,0,0,0,0
		c0,0.2,0,0.7,0.1,0.7c1.4,0.4,1.4,1.5,1.6,2.6c0,0.2,0.3,0.4,0.5,0.5c0,0.9,0.8,1.3,1.3,1.9c0.5,0.6,1.4,0.8,1.3,1.7c0,0,0,0,0,0
		c-0.6,0.8-0.1,2-1,2.8c-0.5-0.8-1.3-1.1-2-1.6c0.2-1.9-1.7-2-2.6-3c-0.1,0-0.2,0-0.2,0c-0.4-0.2-0.9-0.2-1.3,0.2
		c-1.2,0.4-1.8,1.3-1.8,2.8c0,0,0,0,0,0c0,0,0,0,0-0.1c-1.5,0.4-0.7,1.5-0.8,2.3c0.2,0.2,0.3,0.3,0.4,0.4c0.5,0.4,1.3,0,1.5,0.8
		c0.1,0.2,0.3,0.3,0.4,0.4c0-0.1,0-0.1,0-0.2c0.1,0.1,0.2,0.1,0.3,0.2c0.2,0.1,0.5,0.1,0.7,0c0.5,0.2,0.9,0.7,1.6,0.7
		c0.6-0.1,1.1-0.1,1.6-0.2c-0.1,0.6-0.1,1.2-0.1,1.7c0,0,0.1,0,0.1,0c0.4,0.5,1.4,0.7,1.2,1.6c0,0,0,0,0,0c-0.1,0.1-0.1,0.2-0.1,0.3
		C53,36.1,52.6,36.6,52.2,37.1z M63.1,37.3c0,0,0-0.1,0-0.1c0,0,0.1,0,0.1,0C63.2,37.2,63.1,37.3,63.1,37.3z M65.3,105.1
		c0,0,0,0,0.1,0c0,0.1,0,0.2,0,0.2c0-0.1,0-0.2,0.1-0.3c0,0,0,0,0,0c0,0,0,0,0-0.1c0,0.1,0,0.2,0,0.4c0,0.1-0.1,0.1-0.1,0.2
		c0-0.1,0-0.1,0-0.2c-0.1,0-0.1,0-0.2,0C65.2,105.3,65.3,105.2,65.3,105.1z M65.4,107.3c0,0,0-0.1,0-0.1c0,0,0-0.1,0-0.1
		c0,0,0,0,0.1,0.1c0,0,0.1,0.1,0.1,0.1C65.5,107.3,65.5,107.3,65.4,107.3z M65.8,174.5c0,0.1,0.1,0.3,0.1,0.4c-0.1,0-0.1,0-0.2,0
		C65.7,174.7,65.7,174.6,65.8,174.5z M81.7,163.4C81.7,163.4,81.7,163.4,81.7,163.4C81.7,163.3,81.8,163.3,81.7,163.4
		C81.8,163.3,81.8,163.4,81.7,163.4z M91.1,123.7c-0.1,0.1-0.1,0.3-0.2,0.5C90.9,124,91,123.9,91.1,123.7
		C91.1,123.7,91.1,123.7,91.1,123.7C91.1,123.7,91.1,123.7,91.1,123.7C91.1,123.7,91.1,123.7,91.1,123.7
		C91.1,123.7,91.1,123.7,91.1,123.7z M91.5,117.9c0-0.1,0-0.1,0-0.2c0,0,0.1,0,0.1,0c0,0,0,0.1,0,0.1
		C91.6,117.8,91.5,117.9,91.5,117.9z M93.3,90c0,0,0,0.1,0.1,0.1C93.3,90.1,93.3,90.1,93.3,90z M94.4,78.8
		C94.4,78.8,94.4,78.8,94.4,78.8c0-0.1,0.1-0.1,0.1-0.2C94.5,78.7,94.5,78.7,94.4,78.8C94.5,78.7,94.4,78.8,94.4,78.8z M94.8,53.4
		c0-0.1,0-0.1,0-0.2c0,0,0,0,0,0C94.8,53.3,94.8,53.4,94.8,53.4C94.8,53.4,94.8,53.4,94.8,53.4z M97.9,57.8
		C97.9,57.8,97.9,57.8,97.9,57.8C97.9,57.7,97.9,57.7,97.9,57.8C97.9,57.8,98,57.8,97.9,57.8C97.9,57.8,97.9,57.8,97.9,57.8z
		 M98.7,56.8c0.1-0.6,0.2-1.1,0.3-1.6c-1.8,0.2-2.5-0.5-2.3-2.2c0,0-0.1,0.1-0.1,0.1c0-0.1,0.1-0.1,0.1-0.2c0-0.2,0-0.4,0-0.7
		c0.1-0.1,0.1-0.2,0.2-0.3c0.1-0.1,0.2-0.3,0.2-0.4c0.4,0.2,0.5,0.6,0.8,0.7c0.3,0.2,0.5,0.2,0.8,0c0,0,0,0,0,0
		c0.7,0.3,1.5,0.6,1.4,1.6c-0.1,1.2,0.5,1.5,1.4,1.6C100.6,55.9,99.8,56.8,98.7,56.8C98.7,56.8,98.7,56.8,98.7,56.8z M103,53.5
		c0.3-0.3,0.5-0.5,0.8-0.7C104.1,53.6,103.4,53.4,103,53.5z M104.8,58.7c-0.7-0.1-1.4-0.2-1.5-1.2c0-0.9,0.3-1.5,1.3-1.7
		c0.1-0.1,0.3-0.2,0.4-0.3c0.1-0.2,0.1-0.3,0.1-0.5c0,0,0-0.1,0-0.1c0.2,0.1,0.4,0.2,0.7,0c0.4,0,0.8-0.2,1.2-0.5
		c0.7,0,0.8-0.6,0.9-1.2c-0.1-0.6-0.2-1.2-1-1.1c0-0.1,0-0.1,0-0.1c-0.1-0.3,0-0.6,0-0.9c0.1,0.1,0.3,0.2,0.4,0.3c0.2,0,0.5,0,0.7,0
		c0.8,0.3,1.4,0.6,0.7,1.9c0.6,0,1.3,0,1.8,0.2c0.2-0.2,0.2-0.3,0.1-0.5c0,0,0-0.1-0.1-0.1c0,0,0,0,0.1,0c0.4,0.3,0.6,0,0.7-0.3
		c0.4-0.5,1-0.7,1.6-0.7c0.7,0,1.1-0.4,0.9-1c-0.4-1.2,0.3-2.8-1.1-3.7c-0.1-0.1-0.5,0.3-0.7,0.5c0,0.2,0,0.3,0,0.4
		c-0.2,0.2-0.4,0.5-0.4,0.9c-0.2-0.2-0.4-0.4-0.6-0.8c-0.2-0.2-0.3-0.3-0.4-0.4c-1-0.6-2-0.3-3,0c-1.5,1.5-3.4,0.8-5.2,1.1
		c0,0,0,0.1,0,0.1c0,0.1,0,0.1,0,0.2c0,0-0.1-0.1-0.1-0.1c0,0,0.1-0.1,0.1-0.1c0-0.1,0-0.1-0.1-0.2c-0.5-0.5-1-1-0.7-1.7
		c0.4-0.7,0.8,0.3,1.2,0.2c0.7-0.1,0.6-0.4,0.7-0.8c0.1,0,0.2-0.1,0.2-0.2c0,0,0,0,0-0.1c0,0,0.1,0,0.1,0c0.2,0.2,0.5,0.3,0.8,0.2
		c0.7-0.6,0.4-1.8,1.4-2.3c0.7-2.2,2-3.4,4.4-3.1c0.3-0.1,0.7-0.2,0.7-0.7c0,0-0.1-0.1-0.1-0.1c0.2,0,0.5,0,0.7,0
		c1.7-0.9,3.5-1.7,5.4,0c0,0.1,0,0.2,0,0.3c0.1,0.1,0.2,0.1,0.3,0c0.2-0.1,0.3-0.2,0.4-0.3c0.3-0.2,0.6-0.3,0.8-0.6
		c0.2,0.1,0.4,0.3,0.6,0.5c0.2,0.1,0.3,0.2,0.4,0.2c0.1,0.9,0.9,0.9,1.6,1c0.4-0.2,0.8-0.1,1.3-0.1c-0.2,0.2-0.3,0.4-0.5,0.7
		c-0.2,1.2,0.6,2.1,1.1,3.1c0,0,0,0,0,0c-0.1,0-0.2,0-0.3,0.1c-0.8,0.9-0.5,1.8,0,2.7c0,0,0,0,0.1,0.1c-0.4,1.8-1.8,3.3-1.7,5.3
		c0,0.1-0.3,0.4-0.5,0.5c-1.4,0.8-2.4,2-3.4,3.3c-0.2,0.1-0.3,0.2-0.5,0.4c0,0,0,0,0,0c-0.1,0.1-0.3,0.2-0.4,0.3
		c-0.1,0.3-0.3,0.4-0.5,0.5c-0.1,0-0.3,0-0.4,0c0,0-0.1,0-0.1,0.1c0,0,0-0.1,0-0.2c-0.8,0-1.5,0.5-2.3,0.5c-0.2,0-0.4-0.1-0.6-0.1
		c0,0,0,0,0,0c0,0,0,0-0.1,0c-0.1-0.1-0.2-0.1-0.4-0.1c0,0.1,0,0.2,0,0.3c-0.2,0.1-0.3,0.2-0.4,0.4c-0.3,0.1-0.5,0.2-0.8,0.4
		c-0.1,0-0.2-0.1-0.3-0.1c-0.7-0.1-1.3-0.1-2,0.1c-1,0.3-1.9,0.2-2.7-0.5C105.5,58.8,105.2,58.7,104.8,58.7z"/>
</g>
</svg>
