<?xml version="1.0" encoding="utf-8"?>
<!-- Generator: Adobe Illustrator 28.0.0, SVG Export Plug-In . SVG Version: 6.00 Build 0)  -->
<svg version="1.1" id="Layer_1" xmlns="http://www.w3.org/2000/svg" xmlns:xlink="http://www.w3.org/1999/xlink" x="0px" y="0px"
	 viewBox="0 0 311 44" style="enable-background:new 0 0 311 44;" xml:space="preserve">
<style type="text/css">
	.st0{fill:#FFFFFF;}
	.st1{fill:#1F1F1F;}
	.st2{clip-path:url(#SVGID_00000103957609802659199190000007564860454198539920_);}
	.st3{fill:#4285F4;}
	.st4{fill:#34A853;}
	.st5{fill:#FBBC04;}
	.st6{fill:#E94235;}
</style>
<path id="Rectangle_147" class="st0" d="M4,0h303c2.2,0,4,1.8,4,4v36c0,2.2-1.8,4-4,4H4c-2.2,0-4-1.8-4-4V4C0,1.8,1.8,0,4,0z"/>
<g>
	<path class="st1" d="M102.2,24.3c0-0.4-0.2-0.8-0.5-1c-0.3-0.2-0.9-0.5-1.7-0.7c-0.8-0.2-1.5-0.5-2-0.8c-0.9-0.6-1.4-1.3-1.4-2.3
		c0-0.8,0.3-1.5,1-2c0.7-0.5,1.5-0.8,2.6-0.8c0.7,0,1.3,0.1,1.9,0.4s1,0.6,1.3,1.1s0.5,1,0.5,1.6h-1.8c0-0.5-0.2-0.9-0.5-1.2
		c-0.3-0.3-0.8-0.5-1.4-0.5c-0.6,0-1,0.1-1.3,0.4s-0.5,0.6-0.5,1c0,0.4,0.2,0.7,0.5,0.9c0.3,0.2,0.9,0.5,1.7,0.7
		c0.8,0.2,1.4,0.5,1.9,0.8c0.5,0.3,0.8,0.6,1.1,1c0.2,0.4,0.3,0.8,0.3,1.4c0,0.8-0.3,1.5-1,2c-0.7,0.5-1.5,0.8-2.6,0.8
		c-0.7,0-1.4-0.1-2-0.4c-0.6-0.3-1.1-0.6-1.4-1.1c-0.3-0.5-0.5-1-0.5-1.7h1.8c0,0.6,0.2,1,0.6,1.3c0.4,0.3,0.9,0.5,1.6,0.5
		c0.6,0,1.1-0.1,1.4-0.4C102.1,25,102.2,24.7,102.2,24.3z"/>
	<path class="st1" d="M105.4,17.3c0-0.3,0.1-0.5,0.2-0.7c0.2-0.2,0.4-0.3,0.7-0.3s0.5,0.1,0.7,0.3c0.2,0.2,0.3,0.4,0.3,0.7
		c0,0.3-0.1,0.5-0.3,0.6c-0.2,0.2-0.4,0.3-0.7,0.3s-0.5-0.1-0.7-0.3C105.5,17.8,105.4,17.6,105.4,17.3z M107.2,26.9h-1.7v-7.6h1.7
		V26.9z"/>
	<path class="st1" d="M108.8,23c0-1.2,0.3-2.1,0.8-2.8c0.6-0.7,1.3-1.1,2.2-1.1c0.9,0,1.5,0.3,2,0.9l0.1-0.8h1.5v7.3
		c0,1-0.3,1.8-0.9,2.3c-0.6,0.6-1.5,0.9-2.5,0.9c-0.6,0-1.1-0.1-1.6-0.3c-0.5-0.2-0.9-0.5-1.2-0.9l0.8-1c0.5,0.6,1.2,0.9,1.9,0.9
		c0.6,0,1-0.2,1.3-0.5c0.3-0.3,0.5-0.8,0.5-1.3v-0.5c-0.5,0.5-1.1,0.8-2,0.8c-0.9,0-1.6-0.4-2.2-1.1C109,25.3,108.8,24.3,108.8,23z
		 M110.5,23.2c0,0.8,0.2,1.4,0.5,1.8s0.7,0.7,1.3,0.7c0.7,0,1.2-0.3,1.5-0.9v-3.3c-0.3-0.6-0.8-0.9-1.5-0.9c-0.6,0-1,0.2-1.3,0.7
		S110.5,22.3,110.5,23.2z"/>
	<path class="st1" d="M118.8,19.3l0,0.9c0.6-0.7,1.3-1,2.2-1c1.6,0,2.4,0.9,2.4,2.7v5h-1.7V22c0-0.5-0.1-0.8-0.3-1.1s-0.5-0.3-1-0.3
		c-0.7,0-1.2,0.3-1.5,0.9v5.4h-1.7v-7.6H118.8z"/>
	<path class="st1" d="M128.7,17.3c0-0.3,0.1-0.5,0.2-0.7c0.2-0.2,0.4-0.3,0.7-0.3s0.5,0.1,0.7,0.3c0.2,0.2,0.3,0.4,0.3,0.7
		c0,0.3-0.1,0.5-0.3,0.6c-0.2,0.2-0.4,0.3-0.7,0.3s-0.5-0.1-0.7-0.3C128.8,17.8,128.7,17.6,128.7,17.3z M130.5,26.9h-1.7v-7.6h1.7
		V26.9z"/>
	<path class="st1" d="M133.9,19.3l0,0.9c0.6-0.7,1.3-1,2.2-1c1.6,0,2.4,0.9,2.4,2.7v5h-1.7V22c0-0.5-0.1-0.8-0.3-1.1s-0.5-0.3-1-0.3
		c-0.7,0-1.2,0.3-1.5,0.9v5.4h-1.7v-7.6H133.9z"/>
	<path class="st1" d="M150.5,24.5l1.2-5.2h1.7l-2.1,7.6h-1.4l-1.6-5.2l-1.6,5.2h-1.4l-2.1-7.6h1.7l1.2,5.2l1.6-5.2h1.3L150.5,24.5z"
		/>
	<path class="st1" d="M154.5,17.3c0-0.3,0.1-0.5,0.2-0.7c0.2-0.2,0.4-0.3,0.7-0.3s0.5,0.1,0.7,0.3c0.2,0.2,0.3,0.4,0.3,0.7
		c0,0.3-0.1,0.5-0.3,0.6c-0.2,0.2-0.4,0.3-0.7,0.3s-0.5-0.1-0.7-0.3C154.6,17.8,154.5,17.6,154.5,17.3z M156.3,26.9h-1.7v-7.6h1.7
		V26.9z"/>
	<path class="st1" d="M160.3,17.5v1.8h1.3v1.3h-1.3v4.2c0,0.3,0.1,0.5,0.2,0.6s0.3,0.2,0.6,0.2c0.2,0,0.4,0,0.6-0.1v1.3
		c-0.4,0.1-0.8,0.2-1.1,0.2c-1.3,0-2-0.7-2-2.2v-4.3h-1.2v-1.3h1.2v-1.8H160.3z"/>
	<path class="st1" d="M164.6,20.1c0.6-0.6,1.3-1,2.1-1c1.6,0,2.4,0.9,2.5,2.8v4.9h-1.7V22c0-0.5-0.1-0.9-0.3-1.1
		c-0.2-0.2-0.6-0.3-1-0.3c-0.7,0-1.2,0.3-1.5,0.9v5.4h-1.7V16.1h1.7V20.1z"/>
	<path class="st1" d="M182.4,25.6c-0.4,0.5-0.9,0.8-1.5,1.1c-0.7,0.2-1.4,0.4-2.2,0.4c-0.9,0-1.6-0.2-2.3-0.6s-1.2-0.9-1.5-1.7
		c-0.4-0.7-0.5-1.6-0.6-2.5v-0.8c0-1.5,0.4-2.7,1.1-3.6c0.7-0.9,1.8-1.3,3.1-1.3c1.1,0,2,0.3,2.7,0.8c0.7,0.6,1.1,1.4,1.2,2.4h-1.7
		c-0.2-1.2-0.9-1.8-2.1-1.8c-0.8,0-1.4,0.3-1.8,0.9c-0.4,0.6-0.6,1.4-0.6,2.5v0.8c0,1.1,0.2,2,0.7,2.6c0.5,0.6,1.1,0.9,1.9,0.9
		c0.9,0,1.5-0.2,1.9-0.6v-2h-2.1v-1.3h3.9V25.6z"/>
	<path class="st1" d="M183.9,23c0-0.7,0.1-1.4,0.4-2s0.7-1.1,1.2-1.4s1.1-0.5,1.8-0.5c1,0,1.8,0.3,2.5,1c0.6,0.7,1,1.5,1,2.6l0,0.4
		c0,0.7-0.1,1.4-0.4,2c-0.3,0.6-0.7,1-1.2,1.4c-0.5,0.3-1.2,0.5-1.8,0.5c-1.1,0-1.9-0.4-2.6-1.1C184.2,25.2,183.9,24.3,183.9,23
		L183.9,23z M185.6,23.2c0,0.8,0.2,1.4,0.5,1.8c0.3,0.4,0.8,0.7,1.3,0.7c0.6,0,1-0.2,1.3-0.7c0.3-0.4,0.5-1.1,0.5-2
		c0-0.8-0.2-1.4-0.5-1.8c-0.3-0.4-0.8-0.7-1.3-0.7c-0.6,0-1,0.2-1.3,0.7S185.6,22.3,185.6,23.2z"/>
	<path class="st1" d="M192.1,23c0-0.7,0.1-1.4,0.4-2s0.7-1.1,1.2-1.4s1.1-0.5,1.8-0.5c1,0,1.8,0.3,2.5,1c0.6,0.7,1,1.5,1,2.6l0,0.4
		c0,0.7-0.1,1.4-0.4,2c-0.3,0.6-0.7,1-1.2,1.4c-0.5,0.3-1.2,0.5-1.8,0.5c-1.1,0-1.9-0.4-2.6-1.1C192.4,25.2,192.1,24.3,192.1,23
		L192.1,23z M193.8,23.2c0,0.8,0.2,1.4,0.5,1.8c0.3,0.4,0.8,0.7,1.3,0.7c0.6,0,1-0.2,1.3-0.7c0.3-0.4,0.5-1.1,0.5-2
		c0-0.8-0.2-1.4-0.5-1.8c-0.3-0.4-0.8-0.7-1.3-0.7c-0.6,0-1,0.2-1.3,0.7S193.8,22.3,193.8,23.2z"/>
	<path class="st1" d="M200.2,23c0-1.2,0.3-2.1,0.8-2.8c0.6-0.7,1.3-1.1,2.2-1.1c0.9,0,1.5,0.3,2,0.9l0.1-0.8h1.5v7.3
		c0,1-0.3,1.8-0.9,2.3c-0.6,0.6-1.5,0.9-2.5,0.9c-0.6,0-1.1-0.1-1.6-0.3s-0.9-0.5-1.2-0.9l0.8-1c0.5,0.6,1.2,0.9,1.9,0.9
		c0.6,0,1-0.2,1.3-0.5c0.3-0.3,0.5-0.8,0.5-1.3v-0.5c-0.5,0.5-1.1,0.8-2,0.8c-0.9,0-1.6-0.4-2.2-1.1S200.2,24.3,200.2,23z
		 M201.9,23.2c0,0.8,0.2,1.4,0.5,1.8c0.3,0.4,0.7,0.7,1.3,0.7c0.7,0,1.2-0.3,1.5-0.9v-3.3c-0.3-0.6-0.8-0.9-1.5-0.9
		c-0.6,0-1,0.2-1.3,0.7C202.1,21.7,201.9,22.3,201.9,23.2z"/>
	<path class="st1" d="M210.5,26.9h-1.7V16.1h1.7V26.9z"/>
	<path class="st1" d="M215.6,27c-1.1,0-1.9-0.3-2.6-1c-0.7-0.7-1-1.6-1-2.7v-0.2c0-0.8,0.1-1.4,0.4-2c0.3-0.6,0.7-1.1,1.2-1.4
		c0.5-0.3,1.1-0.5,1.8-0.5c1,0,1.8,0.3,2.4,1c0.6,0.7,0.8,1.6,0.8,2.8v0.7h-4.9c0.1,0.6,0.3,1.1,0.6,1.5c0.4,0.4,0.8,0.5,1.4,0.5
		c0.8,0,1.4-0.3,1.9-0.9l0.9,0.9c-0.3,0.5-0.7,0.8-1.2,1.1S216.3,27,215.6,27z M215.4,20.5c-0.5,0-0.8,0.2-1.1,0.5
		c-0.3,0.3-0.5,0.8-0.5,1.4h3.2v-0.1c0-0.6-0.2-1-0.5-1.3S215.9,20.5,215.4,20.5z"/>
</g>
<g>
	<defs>
		<rect id="SVGID_1_" x="14.7" y="12" width="20" height="20"/>
	</defs>
	<clipPath id="SVGID_00000091707690088028332590000005265648853315385232_">
		<use xlink:href="#SVGID_1_"  style="overflow:visible;"/>
	</clipPath>
	<g style="clip-path:url(#SVGID_00000091707690088028332590000005265648853315385232_);">
		<path class="st3" d="M34.3,22.2c0-0.7-0.1-1.4-0.2-2h-9.4V24h5.4c-0.2,1.2-0.9,2.3-2,3v2.5h3.2C33.2,27.8,34.3,25.3,34.3,22.2
			L34.3,22.2z"/>
		<path class="st4" d="M24.7,32c2.7,0,5-0.9,6.6-2.4l-3.2-2.5c-0.9,0.6-2,1-3.4,1c-2.6,0-4.8-1.8-5.6-4.1h-3.3v2.6
			C17.4,29.8,20.8,32,24.7,32z"/>
		<path class="st5" d="M19.1,23.9c-0.2-0.6-0.3-1.2-0.3-1.9s0.1-1.3,0.3-1.9v-2.6h-3.3c-0.7,1.4-1.1,2.9-1.1,4.5s0.4,3.1,1.1,4.5
			L19.1,23.9L19.1,23.9z"/>
		<path class="st6" d="M24.7,16c1.5,0,2.8,0.5,3.8,1.5l2.9-2.9c-1.7-1.6-4-2.6-6.7-2.6c-3.9,0-7.3,2.2-8.9,5.5l3.3,2.6
			C19.9,17.7,22.1,16,24.7,16z"/>
	</g>
</g>
</svg>
