<?xml version="1.0" encoding="utf-8"?>
<!-- Generator: Adobe Illustrator 25.2.1, SVG Export Plug-In . SVG Version: 6.00 Build 0)  -->
<svg version="1.1" id="Layer_1" xmlns="http://www.w3.org/2000/svg" xmlns:xlink="http://www.w3.org/1999/xlink" x="0px" y="0px"
	 viewBox="0 0 311 44" style="enable-background:new 0 0 311 44;" xml:space="preserve">
<style type="text/css">
	.st0{fill:#000001;}
	.st1{fill:#FFFFFF;}
</style>
<path id="Rectangle_147" class="st0" d="M4,0h303c2.2,0,4,1.8,4,4v36c0,2.2-1.8,4-4,4H4c-2.2,0-4-1.8-4-4V4C0,1.8,1.8,0,4,0z"/>
<path id="_" class="st1" d="M23.1,16.9c1-0.1,1.9-0.6,2.6-1.4c0.6-0.7,1-1.7,1-2.7c0-0.1,0-0.3,0-0.4c-1.1,0.1-2.1,0.6-2.8,1.5
	c-0.6,0.7-1,1.6-1,2.6c0,0.1,0,0.2,0,0.3C23,16.9,23,16.9,23.1,16.9z M20.1,31.5c1.2,0,1.7-0.8,3.2-0.8s1.8,0.8,3.1,0.8
	s2.1-1.2,2.9-2.3c0.6-0.8,1-1.7,1.3-2.7c-1.5-0.7-2.5-2.2-2.5-3.8c0-1.5,0.8-2.8,2-3.6c-0.9-1.2-2.3-1.9-3.8-1.9
	c-1.4,0-2.6,0.9-3.3,0.9c-0.8,0-1.8-0.8-3.1-0.8c-2.4,0-4.8,2-4.8,5.7c0,2.2,0.7,4.4,2,6.3C18.1,30.4,19,31.5,20.1,31.5z"/>
<g>
	<path class="st1" d="M109.7,16.4h2.1l3.4,9.6h-2l-0.8-2.3H109l-0.8,2.3h-1.8L109.7,16.4z M109.3,22.2h2.5l-1.2-3.6h-0.1L109.3,22.2
		z"/>
	<path class="st1" d="M116.1,18.7h1.8v0.6h0.1c0.4-0.5,1.2-0.8,2.1-0.8c1.5,0,2.8,0.9,2.8,3.5v0.2c0,2.8-1.3,3.8-3.3,3.8
		c-0.8,0-1.3-0.2-1.6-0.4V28h-1.8L116.1,18.7L116.1,18.7z M121,22.5v-0.3c0-1.7-0.6-2.2-1.6-2.2c-0.7,0-1.1,0.2-1.4,0.4v4
		c0.3,0.2,0.8,0.4,1.3,0.4C120.4,24.7,121,24.2,121,22.5z"/>
	<path class="st1" d="M124.2,18.7h1.8v0.6h0.1c0.4-0.5,1.2-0.8,2.1-0.8c1.5,0,2.8,0.9,2.8,3.5v0.2c0,2.8-1.3,3.8-3.3,3.8
		c-0.8,0-1.3-0.2-1.6-0.4V28h-1.8L124.2,18.7L124.2,18.7z M129.1,22.5v-0.3c0-1.7-0.6-2.2-1.6-2.2c-0.7,0-1.1,0.2-1.4,0.4v4
		c0.3,0.2,0.8,0.4,1.3,0.4C128.4,24.7,129.1,24.2,129.1,22.5z"/>
	<path class="st1" d="M132.4,15.7h1.8V26h-1.8V15.7z"/>
	<path class="st1" d="M135.5,22.4v-0.2c0-2.4,1.4-3.7,3.4-3.7c2.2,0,3.1,1.2,3.1,3.6v0.7h-4.7c0.1,1.4,0.9,1.9,2.2,1.9
		c0.9,0,1.6-0.2,2.2-0.5v1.2c-0.5,0.3-1.4,0.7-2.6,0.7C136.8,26.1,135.5,24.7,135.5,22.4z M137.4,21.6h2.8c0-1.3-0.5-1.8-1.4-1.8
		C138.2,19.9,137.5,20.3,137.4,21.6z"/>
	<path class="st1" d="M149.6,22.8v1.8h4.7v1.5H143v-1.5h4.7v-1.8h-3.3v-4.3h6.6v-1.2h-6.6v-1.5h8.5V20h-6.6v1.3h6.9v1.5H149.6z"/>
	<path class="st1" d="M159.7,25.1l-1.1-1.4c2.4-1.4,3.5-3.3,3.7-5.6h-3v-1.5h4.8C164.2,20.4,162.8,23.2,159.7,25.1z M165.4,27.1V23
		H164v-1.6h1.4v-1.5h-1.3v-1.6h1.3v-2.9h1.7v11.7C167.1,27.1,165.4,27.1,165.4,27.1z M167.8,27.6V15.2h1.7v12.5h-1.7V27.6z"/>
	<path class="st1" d="M171.1,22.6v-1.4h4.7v-1.6h1.8v1.6h4.7v1.4H171.1z M172.3,20.3l-0.7-1.4c2.2-0.2,4.2-1.3,4.2-3.2v-0.4h1.9v0.4
		c0,1.8,1.9,2.8,4.2,3.1l-0.7,1.4c-1.7-0.2-3.7-1.1-4.4-2.5C176,19.2,174,20.1,172.3,20.3z M180.9,23.4v4.3h-1.8v-2.9h-6.7v-1.5
		L180.9,23.4L180.9,23.4z"/>
	<path class="st1" d="M183.2,19.6v-1.5h7.3v1.5H183.2z M186.9,20c1.7,0,3.1,1.1,3.1,2.7s-1.4,2.7-3.1,2.7c-1.7,0-3-1.1-3-2.7
		S185.2,20,186.9,20z M185,15.9h3.9v1.5H185V15.9z M186.9,24c0.8,0,1.4-0.5,1.4-1.4c0-0.8-0.6-1.4-1.4-1.4c-0.8,0-1.4,0.5-1.4,1.4
		S186.1,24,186.9,24z M193.1,20.2h1.7v1.5h-1.7v5.9h-1.8V15.2h1.8V20.2z"/>
	<path class="st1" d="M196.4,25.5l-1.1-1.5c2.7-1.3,4.5-3.7,4.7-6.1h-4v-1.5h5.9C202,20.1,200.5,23.3,196.4,25.5z M204,27.6V15.2
		h1.9v12.5H204V27.6z"/>
</g>
</svg>
