<?xml version="1.0" encoding="utf-8"?>
<!-- Generator: Adobe Illustrator 27.9.0, SVG Export Plug-In . SVG Version: 6.00 Build 0)  -->
<svg version="1.1" id="Layer_1" xmlns="http://www.w3.org/2000/svg" xmlns:xlink="http://www.w3.org/1999/xlink" x="0px" y="0px"
	 viewBox="0 0 50 50" style="enable-background:new 0 0 50 50;" xml:space="preserve">
<style type="text/css">
	.st0{fill:#236532;}
</style>
<g>
	<path class="st0" d="M13.22,48.22c-3.49-0.15-6.78-0.79-9.64-3.07c-4.63-3.7-4.22-9.53,0.96-12.36c0.57-0.31,1.33-0.43,0.54-1.37
		c-1.72-2.06-2.2-4.31-0.77-6.75c1.58-2.7,3.95-3.87,7-3.38c3.55,0.56,6.43,2.34,8.55,5.27c0.14,0.19,0.26,0.41,0.35,0.62
		c0.34,0.8,0.49,1.65-0.36,2.18c-0.86,0.54-1.62,0.21-2.24-0.58c-1-1.29-2.15-2.43-3.54-3.32c-0.92-0.58-1.9-0.86-2.99-0.84
		c-1.27,0.03-2.4,0.33-3.01,1.55c-0.64,1.29-0.34,2.52,0.47,3.64c0.25,0.34,0.6,0.62,0.9,0.93c1.44,1.49,0.93,3.39-1.07,3.99
		C8.06,34.83,7.74,34.9,7.42,35c-2.12,0.65-3.26,1.87-3.38,3.61c-0.15,2.13,0.82,3.79,2.79,4.73c2.86,1.37,5.89,1.54,8.96,1.13
		c3.08-0.4,6.1-1.11,9.08-2.01c0.92-0.28,1.17-0.65,0.86-1.64c-0.8-2.6-1.43-5.25-2.19-7.87c-0.27-0.92-0.25-1.76,0.07-2.65
		c2.42-6.75,4.8-13.5,7.22-20.25c0.58-1.63,1.23-1.94,2.83-1.38c4.05,1.43,8.11,2.87,12.15,4.33c1.51,0.55,1.84,1.25,1.31,2.75
		c-2.41,6.85-4.85,13.69-7.26,20.54c-0.25,0.7-0.67,1.22-1.23,1.71c-6.07,5.27-13.01,8.65-21,9.79
		C16.17,47.99,14.71,48.25,13.22,48.22z M27.65,35.01c-0.04-0.02-0.09-0.04-0.13-0.06c0.04,0.03,0.07,0.06,0.11,0.09
		c0.41,1.66,0.83,3.32,1.24,4.98c0.14,0.56,0.39,0.67,0.89,0.29c1.22-0.91,2.48-1.78,3.72-2.67c0.36-0.26,0.61-0.62,0-0.81
		C31.53,36.24,29.73,35.2,27.65,35.01z M37.02,13.51c0.06-0.23-0.31-0.28-0.62-0.39c-0.54-0.19-1.12-0.31-1.61-0.58
		c-0.94-0.51-1.34-0.3-1.7,0.74c-1.77,5.19-3.62,10.35-5.45,15.52c-0.79,2.23-0.77,2.18,1.35,3.02c1.1,0.44,1.53,0.23,1.92-0.93
		c1.42-4.25,2.98-8.45,4.48-12.67C35.9,16.74,36.41,15.25,37.02,13.51z M36.54,34.44c0.77,0,0.73-0.66,0.89-1.11
		c1.82-5.08,3.62-10.17,5.41-15.26c0.92-2.6,0.85-2.67-1.84-3.36c-0.66-0.17-0.97,0-1.18,0.61c-2.03,5.77-4.07,11.53-6.11,17.29
		c-0.11,0.31-0.31,0.69,0.13,0.86C34.72,33.84,35.63,34.13,36.54,34.44z"/>
	<path class="st0" d="M47.13,11.47c-0.14-0.04-0.42-0.1-0.69-0.2c-4.05-1.44-8.09-2.86-12.13-4.33c-1.46-0.53-1.68-1.06-1.2-2.5
		c0.16-0.5,0.34-1,0.54-1.48c0.44-1.03,1.12-1.44,2.28-1.03c4.04,1.46,8.1,2.85,12.14,4.31c1.66,0.6,1.87,1.16,1.24,2.84
		c-0.18,0.49-0.35,0.99-0.56,1.47C48.47,11.19,47.97,11.5,47.13,11.47z"/>
</g>
</svg>
